<svg xmlns="http://www.w3.org/2000/svg" width="600" height="400"><g fill="#e1e1e1" fill-rule="evenodd"><circle cx="126" cy="62" r="5" fill="#c1c1c1" /><circle cx="138" cy="62" r="5" fill="#c1c1c1" /><circle cx="150" cy="62" r="5" fill="#c1c1c1" /><circle cx="162" cy="62" r="5" fill="#c1c1c1" /><circle cx="174" cy="62" r="5" fill="#c1c1c1" /><circle cx="186" cy="62" r="5" fill="#c1c1c1" /><circle cx="198" cy="62" r="5" fill="#c1c1c1" /><circle cx="210" cy="62" r="5" fill="#c1c1c1" /><circle cx="222" cy="62" r="5" fill="#c1c1c1" /><circle cx="234" cy="62" r="5" fill="#c1c1c1" /><circle cx="246" cy="62" r="5" fill="#c1c1c1" /><circle cx="258" cy="62" r="5" fill="#c1c1c1" /><circle cx="306" cy="62" r="5" fill="#c1c1c1" /><circle cx="318" cy="62" r="5" fill="#c1c1c1" /><circle cx="354" cy="62" r="5" fill="#c1c1c1" /><circle cx="438" cy="62" r="5" fill="#c1c1c1" /><circle cx="78" cy="74" r="5" fill="#c1c1c1" /><circle cx="90" cy="74" r="5" fill="#c1c1c1" /><circle cx="114" cy="74" r="5" fill="#c1c1c1" /><circle cx="126" cy="74" r="5" fill="#c1c1c1" /><circle cx="138" cy="74" r="5" fill="#c1c1c1" /><circle cx="150" cy="74" r="5" fill="#c1c1c1" /><circle cx="162" cy="74" r="5" fill="#c1c1c1" /><circle cx="174" cy="74" r="5" fill="#c1c1c1" /><circle cx="186" cy="74" r="5" fill="#c1c1c1" /><circle cx="198" cy="74" r="5" fill="#c1c1c1" /><circle cx="210" cy="74" r="5" fill="#c1c1c1" /><circle cx="222" cy="74" r="5" fill="#c1c1c1" /><circle cx="234" cy="74" r="5" fill="#c1c1c1" /><circle cx="246" cy="74" r="5" fill="#c1c1c1" /><circle cx="306" cy="74" r="5" fill="#c1c1c1" /><circle cx="318" cy="74" r="5" fill="#c1c1c1" /><circle cx="450" cy="74" r="5" fill="#c1c1c1" /><circle cx="78" cy="86" r="5" fill="#c1c1c1" /><circle cx="90" cy="86" r="5" fill="#c1c1c1" /><circle cx="102" cy="86" r="5" fill="#c1c1c1" /><circle cx="114" cy="86" r="5" fill="#c1c1c1" /><circle cx="138" cy="86" r="5" fill="#c1c1c1" /><circle cx="186" cy="86" r="5" fill="#c1c1c1" /><circle cx="198" cy="86" r="5" fill="#c1c1c1" /><circle cx="210" cy="86" r="5" fill="#c1c1c1" /><circle cx="222" cy="86" r="5" fill="#c1c1c1" /><circle cx="234" cy="86" r="5" fill="#c1c1c1" /><circle cx="246" cy="86" r="5" fill="#c1c1c1" /><circle cx="366" cy="86" r="5" fill="#c1c1c1" /><circle cx="378" cy="86" r="5" fill="#c1c1c1" /><circle cx="390" cy="86" r="5" fill="#c1c1c1" /><circle cx="414" cy="86" r="5" fill="#c1c1c1" /><circle cx="426" cy="86" r="5" fill="#c1c1c1" /><circle cx="438" cy="86" r="5" fill="#c1c1c1" /><circle cx="450" cy="86" r="5" fill="#c1c1c1" /><circle cx="462" cy="86" r="5" fill="#c1c1c1" /><circle cx="474" cy="86" r="5" fill="#c1c1c1" /><circle cx="486" cy="86" r="5" fill="#c1c1c1" /><circle cx="510" cy="86" r="5" fill="#c1c1c1" /><circle cx="522" cy="86" r="5" fill="#c1c1c1" /><circle cx="6" cy="98" r="5" fill="#c1c1c1" /><circle cx="18" cy="98" r="5" fill="#c1c1c1" /><circle cx="30" cy="98" r="5" fill="#c1c1c1" /><circle cx="42" cy="98" r="5" fill="#c1c1c1" /><circle cx="54" cy="98" r="5" fill="#c1c1c1" /><circle cx="66" cy="98" r="5" fill="#c1c1c1" /><circle cx="78" cy="98" r="5" fill="#c1c1c1" /><circle cx="90" cy="98" r="5" fill="#c1c1c1" /><circle cx="102" cy="98" r="5" fill="#c1c1c1" /><circle cx="114" cy="98" r="5" fill="#c1c1c1" /><circle cx="126" cy="98" r="5" fill="#c1c1c1" /><circle cx="138" cy="98" r="5" fill="#c1c1c1" /><circle cx="150" cy="98" r="5" fill="#c1c1c1" /><circle cx="162" cy="98" r="5" fill="#c1c1c1" /><circle cx="186" cy="98" r="5" fill="#c1c1c1" /><circle cx="198" cy="98" r="5" fill="#c1c1c1" /><circle cx="210" cy="98" r="5" fill="#c1c1c1" /><circle cx="222" cy="98" r="5" fill="#c1c1c1" /><circle cx="234" cy="98" r="5" fill="#c1c1c1" /><circle cx="246" cy="98" r="5" fill="#c1c1c1" /><circle cx="318" cy="98" r="5" fill="#c1c1c1" /><circle cx="330" cy="98" r="5" fill="#c1c1c1" /><circle cx="378" cy="98" r="5" fill="#c1c1c1" /><circle cx="390" cy="98" r="5" fill="#c1c1c1" /><circle cx="402" cy="98" r="5" fill="#c1c1c1" /><circle cx="414" cy="98" r="5" fill="#c1c1c1" /><circle cx="426" cy="98" r="5" fill="#c1c1c1" /><circle cx="438" cy="98" r="5" fill="#c1c1c1" /><circle cx="450" cy="98" r="5" fill="#c1c1c1" /><circle cx="462" cy="98" r="5" fill="#c1c1c1" /><circle cx="474" cy="98" r="5" fill="#c1c1c1" /><circle cx="486" cy="98" r="5" fill="#c1c1c1" /><circle cx="498" cy="98" r="5" fill="#c1c1c1" /><circle cx="510" cy="98" r="5" fill="#c1c1c1" /><circle cx="522" cy="98" r="5" fill="#c1c1c1" /><circle cx="534" cy="98" r="5" fill="#c1c1c1" /><circle cx="546" cy="98" r="5" fill="#c1c1c1" /><circle cx="570" cy="98" r="5" fill="#c1c1c1" /><circle cx="582" cy="98" r="5" fill="#c1c1c1" /><circle cx="6" cy="110" r="5" fill="#c1c1c1" /><circle cx="18" cy="110" r="5" fill="#c1c1c1" /><circle cx="30" cy="110" r="5" fill="#c1c1c1" /><circle cx="42" cy="110" r="5" fill="#c1c1c1" /><circle cx="54" cy="110" r="5" fill="#c1c1c1" /><circle cx="66" cy="110" r="5" fill="#c1c1c1" /><circle cx="78" cy="110" r="5" fill="#c1c1c1" /><circle cx="90" cy="110" r="5" fill="#c1c1c1" /><circle cx="102" cy="110" r="5" fill="#c1c1c1" /><circle cx="114" cy="110" r="5" fill="#c1c1c1" /><circle cx="126" cy="110" r="5" fill="#c1c1c1" /><circle cx="138" cy="110" r="5" fill="#c1c1c1" /><circle cx="150" cy="110" r="5" fill="#c1c1c1" /><circle cx="162" cy="110" r="5" fill="#c1c1c1" /><circle cx="174" cy="110" r="5" fill="#c1c1c1" /><circle cx="198" cy="110" r="5" fill="#c1c1c1" /><circle cx="210" cy="110" r="5" fill="#c1c1c1" /><circle cx="222" cy="110" r="5" fill="#c1c1c1" /><circle cx="234" cy="110" r="5" fill="#c1c1c1" /><circle cx="246" cy="110" r="5" fill="#c1c1c1" /><circle cx="306" cy="110" r="5" fill="#c1c1c1" /><circle cx="318" cy="110" r="5" fill="#c1c1c1" /><circle cx="330" cy="110" r="5" fill="#c1c1c1" /><circle cx="342" cy="110" r="5" fill="#c1c1c1" /><circle cx="354" cy="110" r="5" fill="#c1c1c1" /><circle cx="366" cy="110" r="5" fill="#c1c1c1" /><circle cx="378" cy="110" r="5" fill="#c1c1c1" /><circle cx="390" cy="110" r="5" fill="#c1c1c1" /><circle cx="402" cy="110" r="5" fill="#c1c1c1" /><circle cx="414" cy="110" r="5" fill="#c1c1c1" /><circle cx="426" cy="110" r="5" fill="#c1c1c1" /><circle cx="438" cy="110" r="5" fill="#c1c1c1" /><circle cx="450" cy="110" r="5" fill="#c1c1c1" /><circle cx="462" cy="110" r="5" fill="#c1c1c1" /><circle cx="474" cy="110" r="5" fill="#c1c1c1" /><circle cx="486" cy="110" r="5" fill="#c1c1c1" /><circle cx="498" cy="110" r="5" fill="#c1c1c1" /><circle cx="510" cy="110" r="5" fill="#c1c1c1" /><circle cx="522" cy="110" r="5" fill="#c1c1c1" /><circle cx="534" cy="110" r="5" fill="#c1c1c1" /><circle cx="546" cy="110" r="5" fill="#c1c1c1" /><circle cx="558" cy="110" r="5" fill="#c1c1c1" /><circle cx="570" cy="110" r="5" fill="#c1c1c1" /><circle cx="582" cy="110" r="5" fill="#c1c1c1" /><circle cx="594" cy="110" r="5" fill="#c1c1c1" /><circle cx="6" cy="122" r="5" fill="#c1c1c1" /><circle cx="18" cy="122" r="5" fill="#c1c1c1" /><circle cx="30" cy="122" r="5" fill="#c1c1c1" /><circle cx="42" cy="122" r="5" fill="#c1c1c1" /><circle cx="54" cy="122" r="5" fill="#c1c1c1" /><circle cx="66" cy="122" r="5" fill="#c1c1c1" /><circle cx="78" cy="122" r="5" fill="#c1c1c1" /><circle cx="90" cy="122" r="5" fill="#c1c1c1" /><circle cx="102" cy="122" r="5" fill="#c1c1c1" /><circle cx="114" cy="122" r="5" fill="#c1c1c1" /><circle cx="126" cy="122" r="5" fill="#c1c1c1" /><circle cx="138" cy="122" r="5" fill="#c1c1c1" /><circle cx="150" cy="122" r="5" fill="#c1c1c1" /><circle cx="162" cy="122" r="5" fill="#c1c1c1" /><circle cx="174" cy="122" r="5" fill="#c1c1c1" /><circle cx="198" cy="122" r="5" fill="#c1c1c1" /><circle cx="210" cy="122" r="5" fill="#c1c1c1" /><circle cx="294" cy="122" r="5" fill="#c1c1c1" /><circle cx="306" cy="122" r="5" fill="#c1c1c1" /><circle cx="318" cy="122" r="5" fill="#c1c1c1" /><circle cx="330" cy="122" r="5" fill="#c1c1c1" /><circle cx="342" cy="122" r="5" fill="#c1c1c1" /><circle cx="354" cy="122" r="5" fill="#c1c1c1" /><circle cx="366" cy="122" r="5" fill="#c1c1c1" /><circle cx="378" cy="122" r="5" fill="#c1c1c1" /><circle cx="390" cy="122" r="5" fill="#c1c1c1" /><circle cx="402" cy="122" r="5" fill="#c1c1c1" /><circle cx="414" cy="122" r="5" fill="#c1c1c1" /><circle cx="426" cy="122" r="5" fill="#c1c1c1" /><circle cx="438" cy="122" r="5" fill="#c1c1c1" /><circle cx="450" cy="122" r="5" fill="#c1c1c1" /><circle cx="462" cy="122" r="5" fill="#c1c1c1" /><circle cx="474" cy="122" r="5" fill="#c1c1c1" /><circle cx="486" cy="122" r="5" fill="#c1c1c1" /><circle cx="498" cy="122" r="5" fill="#c1c1c1" /><circle cx="510" cy="122" r="5" fill="#c1c1c1" /><circle cx="522" cy="122" r="5" fill="#c1c1c1" /><circle cx="534" cy="122" r="5" fill="#c1c1c1" /><circle cx="546" cy="122" r="5" fill="#c1c1c1" /><circle cx="558" cy="122" r="5" fill="#c1c1c1" /><circle cx="570" cy="122" r="5" fill="#c1c1c1" /><circle cx="582" cy="122" r="5" fill="#c1c1c1" /><circle cx="6" cy="134" r="5" fill="#c1c1c1" /><circle cx="18" cy="134" r="5" fill="#c1c1c1" /><circle cx="54" cy="134" r="5" fill="#c1c1c1" /><circle cx="66" cy="134" r="5" fill="#c1c1c1" /><circle cx="78" cy="134" r="5" fill="#c1c1c1" /><circle cx="90" cy="134" r="5" fill="#c1c1c1" /><circle cx="102" cy="134" r="5" fill="#c1c1c1" /><circle cx="114" cy="134" r="5" fill="#c1c1c1" /><circle cx="126" cy="134" r="5" fill="#c1c1c1" /><circle cx="150" cy="134" r="5" fill="#c1c1c1" /><circle cx="162" cy="134" r="5" fill="#c1c1c1" /><circle cx="174" cy="134" r="5" fill="#c1c1c1" /><circle cx="270" cy="134" r="5" fill="#c1c1c1" /><circle cx="294" cy="134" r="5" fill="#c1c1c1" /><circle cx="306" cy="134" r="5" fill="#c1c1c1" /><circle cx="318" cy="134" r="5" fill="#c1c1c1" /><circle cx="330" cy="134" r="5" fill="#c1c1c1" /><circle cx="342" cy="134" r="5" fill="#c1c1c1" /><circle cx="354" cy="134" r="5" fill="#c1c1c1" /><circle cx="366" cy="134" r="5" fill="#c1c1c1" /><circle cx="378" cy="134" r="5" fill="#c1c1c1" /><circle cx="390" cy="134" r="5" fill="#c1c1c1" /><circle cx="402" cy="134" r="5" fill="#c1c1c1" /><circle cx="414" cy="134" r="5" fill="#c1c1c1" /><circle cx="426" cy="134" r="5" fill="#c1c1c1" /><circle cx="438" cy="134" r="5" fill="#c1c1c1" /><circle cx="450" cy="134" r="5" fill="#c1c1c1" /><circle cx="462" cy="134" r="5" fill="#c1c1c1" /><circle cx="474" cy="134" r="5" fill="#c1c1c1" /><circle cx="486" cy="134" r="5" fill="#c1c1c1" /><circle cx="498" cy="134" r="5" fill="#c1c1c1" /><circle cx="510" cy="134" r="5" fill="#c1c1c1" /><circle cx="522" cy="134" r="5" fill="#c1c1c1" /><circle cx="546" cy="134" r="5" fill="#c1c1c1" /><circle cx="66" cy="146" r="5" fill="#c1c1c1" /><circle cx="78" cy="146" r="5" fill="#c1c1c1" /><circle cx="90" cy="146" r="5" fill="#c1c1c1" /><circle cx="102" cy="146" r="5" fill="#c1c1c1" /><circle cx="114" cy="146" r="5" fill="#c1c1c1" /><circle cx="126" cy="146" r="5" fill="#c1c1c1" /><circle cx="138" cy="146" r="5" fill="#c1c1c1" /><circle cx="150" cy="146" r="5" fill="#c1c1c1" /><circle cx="162" cy="146" r="5" fill="#c1c1c1" /><circle cx="174" cy="146" r="5" fill="#c1c1c1" /><circle cx="186" cy="146" r="5" fill="#c1c1c1" /><circle cx="270" cy="146" r="5" fill="#c1c1c1" /><circle cx="282" cy="146" r="5" fill="#c1c1c1" /><circle cx="294" cy="146" r="5" fill="#c1c1c1" /><circle cx="306" cy="146" r="5" fill="#c1c1c1" /><circle cx="318" cy="146" r="5" fill="#c1c1c1" /><circle cx="330" cy="146" r="5" fill="#c1c1c1" /><circle cx="342" cy="146" r="5" fill="#c1c1c1" /><circle cx="354" cy="146" r="5" fill="#c1c1c1" /><circle cx="366" cy="146" r="5" fill="#c1c1c1" /><circle cx="378" cy="146" r="5" fill="#c1c1c1" /><circle cx="390" cy="146" r="5" fill="#c1c1c1" /><circle cx="402" cy="146" r="5" fill="#c1c1c1" /><circle cx="414" cy="146" r="5" fill="#c1c1c1" /><circle cx="426" cy="146" r="5" fill="#c1c1c1" /><circle cx="438" cy="146" r="5" fill="#c1c1c1" /><circle cx="450" cy="146" r="5" fill="#c1c1c1" /><circle cx="462" cy="146" r="5" fill="#c1c1c1" /><circle cx="474" cy="146" r="5" fill="#c1c1c1" /><circle cx="486" cy="146" r="5" fill="#c1c1c1" /><circle cx="498" cy="146" r="5" fill="#c1c1c1" /><circle cx="510" cy="146" r="5" fill="#c1c1c1" /><circle cx="522" cy="146" r="5" fill="#c1c1c1" /><circle cx="546" cy="146" r="5" fill="#c1c1c1" /><circle cx="78" cy="158" r="5" fill="#c1c1c1" /><circle cx="90" cy="158" r="5" fill="#c1c1c1" /><circle cx="102" cy="158" r="5" fill="#c1c1c1" /><circle cx="114" cy="158" r="5" fill="#c1c1c1" /><circle cx="126" cy="158" r="5" fill="#c1c1c1" /><circle cx="138" cy="158" r="5" fill="#c1c1c1" /><circle cx="150" cy="158" r="5" fill="#c1c1c1" /><circle cx="162" cy="158" r="5" fill="#c1c1c1" /><circle cx="174" cy="158" r="5" fill="#c1c1c1" /><circle cx="186" cy="158" r="5" fill="#c1c1c1" /><circle cx="282" cy="158" r="5" fill="#c1c1c1" /><circle cx="294" cy="158" r="5" fill="#c1c1c1" /><circle cx="306" cy="158" r="5" fill="#c1c1c1" /><circle cx="318" cy="158" r="5" fill="#c1c1c1" /><circle cx="330" cy="158" r="5" fill="#c1c1c1" /><circle cx="342" cy="158" r="5" fill="#c1c1c1" /><circle cx="354" cy="158" r="5" fill="#c1c1c1" /><circle cx="366" cy="158" r="5" fill="#c1c1c1" /><circle cx="378" cy="158" r="5" fill="#c1c1c1" /><circle cx="390" cy="158" r="5" fill="#c1c1c1" /><circle cx="402" cy="158" r="5" fill="#c1c1c1" /><circle cx="414" cy="158" r="5" fill="#c1c1c1" /><circle cx="426" cy="158" r="5" fill="#c1c1c1" /><circle cx="438" cy="158" r="5" fill="#c1c1c1" /><circle cx="450" cy="158" r="5" fill="#c1c1c1" /><circle cx="462" cy="158" r="5" fill="#c1c1c1" /><circle cx="474" cy="158" r="5" fill="#c1c1c1" /><circle cx="486" cy="158" r="5" fill="#c1c1c1" /><circle cx="498" cy="158" r="5" fill="#c1c1c1" /><circle cx="510" cy="158" r="5" fill="#c1c1c1" /><circle cx="522" cy="158" r="5" fill="#c1c1c1" /><circle cx="78" cy="170" r="5" fill="#c1c1c1" /><circle cx="90" cy="170" r="5" fill="#c1c1c1" /><circle cx="102" cy="170" r="5" fill="#c1c1c1" /><circle cx="114" cy="170" r="5" fill="#c1c1c1" /><circle cx="126" cy="170" r="5" fill="#c1c1c1" /><circle cx="138" cy="170" r="5" fill="#c1c1c1" /><circle cx="150" cy="170" r="5" fill="#c1c1c1" /><circle cx="162" cy="170" r="5" fill="#c1c1c1" /><circle cx="270" cy="170" r="5" fill="#c1c1c1" /><circle cx="282" cy="170" r="5" fill="#c1c1c1" /><circle cx="294" cy="170" r="5" fill="#c1c1c1" /><circle cx="306" cy="170" r="5" fill="#c1c1c1" /><circle cx="318" cy="170" r="5" fill="#c1c1c1" /><circle cx="330" cy="170" r="5" fill="#c1c1c1" /><circle cx="342" cy="170" r="5" fill="#c1c1c1" /><circle cx="354" cy="170" r="5" fill="#c1c1c1" /><circle cx="366" cy="170" r="5" fill="#c1c1c1" /><circle cx="378" cy="170" r="5" fill="#c1c1c1" /><circle cx="390" cy="170" r="5" fill="#c1c1c1" /><circle cx="402" cy="170" r="5" fill="#c1c1c1" /><circle cx="414" cy="170" r="5" fill="#c1c1c1" /><circle cx="426" cy="170" r="5" fill="#c1c1c1" /><circle cx="438" cy="170" r="5" fill="#c1c1c1" /><circle cx="450" cy="170" r="5" fill="#c1c1c1" /><circle cx="462" cy="170" r="5" fill="#c1c1c1" /><circle cx="474" cy="170" r="5" fill="#c1c1c1" /><circle cx="486" cy="170" r="5" fill="#c1c1c1" /><circle cx="498" cy="170" r="5" fill="#c1c1c1" /><circle cx="510" cy="170" r="5" fill="#c1c1c1" /><circle cx="522" cy="170" r="5" fill="#c1c1c1" /><circle cx="90" cy="182" r="5" fill="#c1c1c1" /><circle cx="102" cy="182" r="5" fill="#c1c1c1" /><circle cx="114" cy="182" r="5" fill="#c1c1c1" /><circle cx="126" cy="182" r="5" fill="#c1c1c1" /><circle cx="138" cy="182" r="5" fill="#c1c1c1" /><circle cx="150" cy="182" r="5" fill="#c1c1c1" /><circle cx="270" cy="182" r="5" fill="#c1c1c1" /><circle cx="282" cy="182" r="5" fill="#c1c1c1" /><circle cx="294" cy="182" r="5" fill="#c1c1c1" /><circle cx="330" cy="182" r="5" fill="#c1c1c1" /><circle cx="342" cy="182" r="5" fill="#c1c1c1" /><circle cx="354" cy="182" r="5" fill="#c1c1c1" /><circle cx="366" cy="182" r="5" fill="#c1c1c1" /><circle cx="378" cy="182" r="5" fill="#c1c1c1" /><circle cx="390" cy="182" r="5" fill="#c1c1c1" /><circle cx="402" cy="182" r="5" fill="#c1c1c1" /><circle cx="414" cy="182" r="5" fill="#c1c1c1" /><circle cx="426" cy="182" r="5" fill="#c1c1c1" /><circle cx="438" cy="182" r="5" fill="#c1c1c1" /><circle cx="450" cy="182" r="5" fill="#c1c1c1" /><circle cx="462" cy="182" r="5" fill="#c1c1c1" /><circle cx="474" cy="182" r="5" fill="#c1c1c1" /><circle cx="486" cy="182" r="5" fill="#c1c1c1" /><circle cx="498" cy="182" r="5" fill="#c1c1c1" /><circle cx="510" cy="182" r="5" fill="#c1c1c1" /><circle cx="90" cy="194" r="5" fill="#c1c1c1" /><circle cx="102" cy="194" r="5" fill="#c1c1c1" /><circle cx="114" cy="194" r="5" fill="#c1c1c1" /><circle cx="126" cy="194" r="5" fill="#c1c1c1" /><circle cx="138" cy="194" r="5" fill="#c1c1c1" /><circle cx="258" cy="194" r="5" fill="#c1c1c1" /><circle cx="270" cy="194" r="5" fill="#c1c1c1" /><circle cx="282" cy="194" r="5" fill="#c1c1c1" /><circle cx="294" cy="194" r="5" fill="#c1c1c1" /><circle cx="306" cy="194" r="5" fill="#c1c1c1" /><circle cx="318" cy="194" r="5" fill="#c1c1c1" /><circle cx="330" cy="194" r="5" fill="#c1c1c1" /><circle cx="342" cy="194" r="5" fill="#c1c1c1" /><circle cx="354" cy="194" r="5" fill="#c1c1c1" /><circle cx="366" cy="194" r="5" fill="#c1c1c1" /><circle cx="378" cy="194" r="5" fill="#c1c1c1" /><circle cx="390" cy="194" r="5" fill="#c1c1c1" /><circle cx="402" cy="194" r="5" fill="#c1c1c1" /><circle cx="414" cy="194" r="5" fill="#c1c1c1" /><circle cx="426" cy="194" r="5" fill="#c1c1c1" /><circle cx="438" cy="194" r="5" fill="#c1c1c1" /><circle cx="450" cy="194" r="5" fill="#c1c1c1" /><circle cx="462" cy="194" r="5" fill="#c1c1c1" /><circle cx="474" cy="194" r="5" fill="#c1c1c1" /><circle cx="486" cy="194" r="5" fill="#c1c1c1" /><circle cx="18" cy="206" r="5" fill="#c1c1c1" /><circle cx="102" cy="206" r="5" fill="#c1c1c1" /><circle cx="114" cy="206" r="5" fill="#c1c1c1" /><circle cx="126" cy="206" r="5" fill="#c1c1c1" /><circle cx="150" cy="206" r="5" fill="#c1c1c1" /><circle cx="258" cy="206" r="5" fill="#c1c1c1" /><circle cx="270" cy="206" r="5" fill="#c1c1c1" /><circle cx="282" cy="206" r="5" fill="#c1c1c1" /><circle cx="294" cy="206" r="5" fill="#c1c1c1" /><circle cx="306" cy="206" r="5" fill="#c1c1c1" /><circle cx="318" cy="206" r="5" fill="#c1c1c1" /><circle cx="330" cy="206" r="5" fill="#c1c1c1" /><circle cx="342" cy="206" r="5" fill="#c1c1c1" /><circle cx="354" cy="206" r="5" fill="#c1c1c1" /><circle cx="366" cy="206" r="5" fill="#c1c1c1" /><circle cx="378" cy="206" r="5" fill="#c1c1c1" /><circle cx="402" cy="206" r="5" fill="#c1c1c1" /><circle cx="414" cy="206" r="5" fill="#c1c1c1" /><circle cx="426" cy="206" r="5" fill="#c1c1c1" /><circle cx="438" cy="206" r="5" fill="#c1c1c1" /><circle cx="450" cy="206" r="5" fill="#c1c1c1" /><circle cx="462" cy="206" r="5" fill="#c1c1c1" /><circle cx="474" cy="206" r="5" fill="#c1c1c1" /><circle cx="486" cy="206" r="5" fill="#c1c1c1" /><circle cx="126" cy="218" r="5" fill="#c1c1c1" /><circle cx="138" cy="218" r="5" fill="#c1c1c1" /><circle cx="258" cy="218" r="5" fill="#c1c1c1" /><circle cx="270" cy="218" r="5" fill="#c1c1c1" /><circle cx="282" cy="218" r="5" fill="#c1c1c1" /><circle cx="294" cy="218" r="5" fill="#c1c1c1" /><circle cx="306" cy="218" r="5" fill="#c1c1c1" /><circle cx="318" cy="218" r="5" fill="#c1c1c1" /><circle cx="330" cy="218" r="5" fill="#c1c1c1" /><circle cx="342" cy="218" r="5" fill="#c1c1c1" /><circle cx="354" cy="218" r="5" fill="#c1c1c1" /><circle cx="366" cy="218" r="5" fill="#c1c1c1" /><circle cx="402" cy="218" r="5" fill="#c1c1c1" /><circle cx="414" cy="218" r="5" fill="#c1c1c1" /><circle cx="450" cy="218" r="5" fill="#c1c1c1" /><circle cx="462" cy="218" r="5" fill="#c1c1c1" /><circle cx="486" cy="218" r="5" fill="#c1c1c1" /><circle cx="150" cy="230" r="5" fill="#c1c1c1" /><circle cx="162" cy="230" r="5" fill="#c1c1c1" /><circle cx="174" cy="230" r="5" fill="#c1c1c1" /><circle cx="186" cy="230" r="5" fill="#c1c1c1" /><circle cx="270" cy="230" r="5" fill="#c1c1c1" /><circle cx="282" cy="230" r="5" fill="#c1c1c1" /><circle cx="294" cy="230" r="5" fill="#c1c1c1" /><circle cx="306" cy="230" r="5" fill="#c1c1c1" /><circle cx="318" cy="230" r="5" fill="#c1c1c1" /><circle cx="330" cy="230" r="5" fill="#c1c1c1" /><circle cx="342" cy="230" r="5" fill="#c1c1c1" /><circle cx="354" cy="230" r="5" fill="#c1c1c1" /><circle cx="366" cy="230" r="5" fill="#c1c1c1" /><circle cx="414" cy="230" r="5" fill="#c1c1c1" /><circle cx="438" cy="230" r="5" fill="#c1c1c1" /><circle cx="450" cy="230" r="5" fill="#c1c1c1" /><circle cx="462" cy="230" r="5" fill="#c1c1c1" /><circle cx="474" cy="230" r="5" fill="#c1c1c1" /><circle cx="486" cy="230" r="5" fill="#c1c1c1" /><circle cx="150" cy="242" r="5" fill="#c1c1c1" /><circle cx="162" cy="242" r="5" fill="#c1c1c1" /><circle cx="174" cy="242" r="5" fill="#c1c1c1" /><circle cx="186" cy="242" r="5" fill="#c1c1c1" /><circle cx="198" cy="242" r="5" fill="#c1c1c1" /><circle cx="294" cy="242" r="5" fill="#c1c1c1" /><circle cx="306" cy="242" r="5" fill="#c1c1c1" /><circle cx="318" cy="242" r="5" fill="#c1c1c1" /><circle cx="330" cy="242" r="5" fill="#c1c1c1" /><circle cx="342" cy="242" r="5" fill="#c1c1c1" /><circle cx="354" cy="242" r="5" fill="#c1c1c1" /><circle cx="450" cy="242" r="5" fill="#c1c1c1" /><circle cx="462" cy="242" r="5" fill="#c1c1c1" /><circle cx="474" cy="242" r="5" fill="#c1c1c1" /><circle cx="486" cy="242" r="5" fill="#c1c1c1" /><circle cx="498" cy="242" r="5" fill="#c1c1c1" /><circle cx="150" cy="254" r="5" fill="#c1c1c1" /><circle cx="162" cy="254" r="5" fill="#c1c1c1" /><circle cx="174" cy="254" r="5" fill="#c1c1c1" /><circle cx="186" cy="254" r="5" fill="#c1c1c1" /><circle cx="198" cy="254" r="5" fill="#c1c1c1" /><circle cx="210" cy="254" r="5" fill="#c1c1c1" /><circle cx="222" cy="254" r="5" fill="#c1c1c1" /><circle cx="306" cy="254" r="5" fill="#c1c1c1" /><circle cx="318" cy="254" r="5" fill="#c1c1c1" /><circle cx="330" cy="254" r="5" fill="#c1c1c1" /><circle cx="342" cy="254" r="5" fill="#c1c1c1" /><circle cx="462" cy="254" r="5" fill="#c1c1c1" /><circle cx="474" cy="254" r="5" fill="#c1c1c1" /><circle cx="486" cy="254" r="5" fill="#c1c1c1" /><circle cx="510" cy="254" r="5" fill="#c1c1c1" /><circle cx="522" cy="254" r="5" fill="#c1c1c1" /><circle cx="534" cy="254" r="5" fill="#c1c1c1" /><circle cx="546" cy="254" r="5" fill="#c1c1c1" /><circle cx="162" cy="266" r="5" fill="#c1c1c1" /><circle cx="174" cy="266" r="5" fill="#c1c1c1" /><circle cx="186" cy="266" r="5" fill="#c1c1c1" /><circle cx="198" cy="266" r="5" fill="#c1c1c1" /><circle cx="210" cy="266" r="5" fill="#c1c1c1" /><circle cx="222" cy="266" r="5" fill="#c1c1c1" /><circle cx="306" cy="266" r="5" fill="#c1c1c1" /><circle cx="318" cy="266" r="5" fill="#c1c1c1" /><circle cx="330" cy="266" r="5" fill="#c1c1c1" /><circle cx="342" cy="266" r="5" fill="#c1c1c1" /><circle cx="354" cy="266" r="5" fill="#c1c1c1" /><circle cx="486" cy="266" r="5" fill="#c1c1c1" /><circle cx="498" cy="266" r="5" fill="#c1c1c1" /><circle cx="510" cy="266" r="5" fill="#c1c1c1" /><circle cx="522" cy="266" r="5" fill="#c1c1c1" /><circle cx="162" cy="278" r="5" fill="#c1c1c1" /><circle cx="174" cy="278" r="5" fill="#c1c1c1" /><circle cx="186" cy="278" r="5" fill="#c1c1c1" /><circle cx="198" cy="278" r="5" fill="#c1c1c1" /><circle cx="210" cy="278" r="5" fill="#c1c1c1" /><circle cx="306" cy="278" r="5" fill="#c1c1c1" /><circle cx="318" cy="278" r="5" fill="#c1c1c1" /><circle cx="330" cy="278" r="5" fill="#c1c1c1" /><circle cx="342" cy="278" r="5" fill="#c1c1c1" /><circle cx="354" cy="278" r="5" fill="#c1c1c1" /><circle cx="366" cy="278" r="5" fill="#c1c1c1" /><circle cx="474" cy="278" r="5" fill="#c1c1c1" /><circle cx="486" cy="278" r="5" fill="#c1c1c1" /><circle cx="498" cy="278" r="5" fill="#c1c1c1" /><circle cx="510" cy="278" r="5" fill="#c1c1c1" /><circle cx="522" cy="278" r="5" fill="#c1c1c1" /><circle cx="162" cy="290" r="5" fill="#c1c1c1" /><circle cx="174" cy="290" r="5" fill="#c1c1c1" /><circle cx="186" cy="290" r="5" fill="#c1c1c1" /><circle cx="198" cy="290" r="5" fill="#c1c1c1" /><circle cx="306" cy="290" r="5" fill="#c1c1c1" /><circle cx="318" cy="290" r="5" fill="#c1c1c1" /><circle cx="330" cy="290" r="5" fill="#c1c1c1" /><circle cx="474" cy="290" r="5" fill="#c1c1c1" /><circle cx="486" cy="290" r="5" fill="#c1c1c1" /><circle cx="498" cy="290" r="5" fill="#c1c1c1" /><circle cx="510" cy="290" r="5" fill="#c1c1c1" /><circle cx="522" cy="290" r="5" fill="#c1c1c1" /><circle cx="534" cy="290" r="5" fill="#c1c1c1" /><circle cx="162" cy="302" r="5" fill="#c1c1c1" /><circle cx="174" cy="302" r="5" fill="#c1c1c1" /><circle cx="186" cy="302" r="5" fill="#c1c1c1" /><circle cx="318" cy="302" r="5" fill="#c1c1c1" /><circle cx="330" cy="302" r="5" fill="#c1c1c1" /><circle cx="474" cy="302" r="5" fill="#c1c1c1" /><circle cx="486" cy="302" r="5" fill="#c1c1c1" /><circle cx="498" cy="302" r="5" fill="#c1c1c1" /><circle cx="510" cy="302" r="5" fill="#c1c1c1" /><circle cx="522" cy="302" r="5" fill="#c1c1c1" /><circle cx="534" cy="302" r="5" fill="#c1c1c1" /><circle cx="162" cy="314" r="5" fill="#c1c1c1" /><circle cx="174" cy="314" r="5" fill="#c1c1c1" /><circle cx="186" cy="314" r="5" fill="#c1c1c1" /><circle cx="522" cy="314" r="5" fill="#c1c1c1" /><circle cx="570" cy="314" r="5" fill="#c1c1c1" /><circle cx="582" cy="314" r="5" fill="#c1c1c1" /><circle cx="150" cy="326" r="5" fill="#c1c1c1" /><circle cx="162" cy="326" r="5" fill="#c1c1c1" /><circle cx="174" cy="326" r="5" fill="#c1c1c1" /><circle cx="570" cy="326" r="5" fill="#c1c1c1" /><circle cx="162" cy="338" r="5" fill="#c1c1c1" /></g></svg>