<svg xmlns="http://www.w3.org/2000/svg" width="600" height="400"><g fill="#e1e1e1" fill-rule="evenodd"><path d="m434.56 206.571-.4-1.333-.907-1.14-1.54-.073-.273.32.133.626-.353.66-.48-.24-.453.234-.8-.24-.247-1.334-.54-1.24.26-.973-.147-.313-.76-.354.194-.333.986-.627.02-.433-1.033-.813.367-.76 1.073.626.693.1.12 1.027.227.233 3.76.42-.56 1.094-.813.226-.514 1.007.047.313.913.914.447-.127.28-.927.807 2.56-.02.807-.22-.1-.267.187Zm-148.367-57.44 1.274.16 1.4-.42 1.753 1.327-.14 1.107-.46.266-.12.8-1.107-.753-.926.1-1.82-1.8-.78-.12-.107-.347 1.027-.333Zm-5.246 69.06-.074.634.227.773.933 1.14.047.733.213.247 1.7.34-.026.853-.254.354-.713.14-.48.786-.42.14-2.147-.166-.626.26-3.6-.034-.26.254.106 1.82-.82-.287-.78.067-.593.38-1.513-1.147-.087-.74.407-.64.013-.62 1.247-1.32.293-1.207.287-.26.853.174.7-.347.313-.487 1.227-.726.367-.554 1.466-.666.767-.2.48.3.753-.007Zm46.82-52.973-.574.587-.606 1.446.32.894-1.067-.16-1.7.633-.187 1.007-1.2.146-1.333-.666-1.28.526-.947-.046-.1-1.087-.7-.647v-.533l.8-1.047.007-.373-.76-.82-.033-.627.586.647.587-.133 1.273.313 2.454.107.946-.54 1.814-.44 1.7.826Zm-18.774-3.02 1.4.333 1.147-.02 1.013.454-.24.52.054.3.693.68-.167.653-1.206.767-.254.92-1.113-.58-.593-.8-1.407-1.22-1.087-1.48.154-.38.32.253.366-.04.287-.34.627-.04Zm162.66 73.287.454-.434.94-.606-.1 1.086-.54-.033-.407.387-.353-.4Zm-295.766 44.74-2.06-.154-.254.154-.466 1.013-.874-1.02-2.186-.427-1.58 1.6-.874.174-.586-2.174-.867-1.906.493-1.58-.086-.287-.8-.673-.247-1.26-.72-1.034.967-1.706-.64-1.554.313-.706-.227-.487.607-.88.107-2.56.333-.787-1.207-2.273 1.64.047.534-.567 2.266-1.273 1.774-.234-.127.92.2.714-.033 1.313 1.813 1.513 1.92.327.593.573 1.194.387.653.467 1.14.033.78.407.4 1.8-.467.36.64 1.993.247.187 2.867.066-.167.8.18.68.953.6.334.9-.274 1.24-.433.72.08.9-1.793-1.1-1.6-.02-2.907.507-.993 1.667-.074 1.013-.5 1.58Zm344.86-115.88 1.206.453 1.08-.647.26 1.614-2.233.5-1.487 1.92-2.42-1.267-.373.133-.84 2.034-1.44.02-.193-1.674.72-1.353 1.633-.107.247-.22.833-3.96 1.647 1.807 1.353.747Zm-5.04 13.646-.607 1.48.247 1.014-.76 1.166-2.014.84-3.053.18-2.227 2.007-.833-.533-.06-1.267-.307-.253-2.9.413-2 .88-1.9.033-.246.18.086.294 1.547 1.26-1.027 2.893-.84.6-.526-.467.373-1.513-.14-.3-.98-.5-.493-.933 1.413-.56.84-1.134 1.633-.946 1.22-1.274 3.187-.54 1.733.38.294-.14 1.593-3.106.86.706.333.007 3.4-2.68 1.127-2.487-.253-2.266.6-1.074 1.426-.293.82 2.48-.046 1.453-1.487 1.894-.027 2.106Zm-10.52 5.947.126.373-.673.807-.773-.453-.854.433-.46.967-.68-.334.007-.62.76-.92 1.047.094.566-.654.934.307ZM330.3 250.091l-.72-1.993.76-.073.427-.794.506.06.434 1.22-1.4 1.574Zm-43.92-26.493-.033.533.333.894-.28.573.113.527-1.206 1.413-.38 1.173-.054 3.614-.94.133-.32-.907.074-3.806-.347-.467-.133-.9-.987-.987.14-.6.593-.286.28-.614.847-.24.813-.893h.407l1.08.827Zm147.167-27.927.56.474-.08.733-2.507-.073-1.047.266-1.286-.58.986-1.306.754-.38 1.086.38.887.053.66.433Zm-281.294 16.947-.533.267-1.507-.707.56-.153 1.427.2.78.373-.72.02Zm170.36 60.527 1.514 2.673 1.886 1.907.64.206.52 1.62 1.42.407.68.507-2 1.093-1.546 1.347-1.027 1.793-1.013.3-.427 1.293-.893.347-1.234-.08-.806-.493-.9-.2-.814.413-.5.913-1.54 1.267-.933.14-.233-.393.106-1.167-.986-1.693-.414-.287v-4.733l1.387-.054.26-.266.047-5.934 3.46-.62.533.594.34.046 1-.633 1.473-.327Z"/><path d="m173.32 236.465 2.16.466.433-.353 3.034-.88.72-.707-.014-.42.367-.033.187.187-.174.58.147.32.487.213.266.54-.413.573-.267 1.42.547 1.707 1.127.953.953.134 2.113-1.12 2.12.2.434-.5-.18-.614 1.266-.06 1.594.66.706-.406.56.52.8-.12.787-.707.56-1.293.907-1.407.246-.033 1.26 3.633.887.393.033.854-1.18 1.293.014.373.68.58 2.713.24.053 1.44.44.194 1.16-1 4.647 1.546.68.814-.233.786.326.334 1.874-.494 3.18.867 2.5-.053 2.38 1.333 2.193 1.907 1.287.48 1.413.08.473.413.807 3.007-.633 2.653-3.147 3.373-1.093 1.947-1.147 1.367-.533.2-.48 1.353.12 3.167-.627 3.686-.54.754-.287 2.24-1.7 2.333-.266 1.673-1.24.694-.447 1.02-1.693.006-2.627.674-1.22.8-1.913.546-2.02 1.46-1.467 1.887-.24 1.333.267 1.054-.294 1.733-.34.8-1.18 1.027-1.833 3.186-2.553 2.28-.827 1.827-.787.767-.24-.554.634-.76.006-.333-1.013-1.313-3.04-2.214h-.687l-1.586-1.346h-.54l3.56-3.634 2.513-1.72.147-1.64-.9-1.206-.607.046.387-1.553.006-1.027-.74-.553-1.166.2-.294-2.073-.346-.634-1.254-.586-.826.313-1.447-.273.1-2.14-.413-.894.44-.486-.147-.894.44-.753.293-1.36-.406-1.22-.934-.573-.133-.5.227-.927-.254-.333-3.013-.067-.48-1.48.393-.28-.02-.733-.333-.58-.213-1.134-.967-.506-1.087-.014-.7-.48-1.066-.32-.754-.66-1.793-.266-1.647-1.374.087-2.9-.3-.3-2.307.334-2.293 1.293-.4.493-1.933-.113-.98.28-.48-.12.1-2.347-.42-.226-1.294.94-1.246-.04-.554-.787-.913-.173.14-.674-.9-.993-.587-1.273.374-.4v-.54l.86-.414.146-.286-.146-.794.406-.606.1-.66 1.767-1.054 1.327-.313.28-.24 1.373.073.28-.22.793-5.333-.273-1.04-.733-.667.006-.886 1.274-.28.053-.64-.22-.287-.76-.133-.013-.554 2.98.034.546-.447.547 1.207.533.046.767.734 1.507-.034.473-.553 1.853-.64.32-.753 1.067-.427.16-.313-.32-.547-1.22-.127-.24-2.146Zm-22.387-34.12-.32-.767-.56-.5.24-.74.634 1.3.006.707Zm-.56-4.96-1.246.193-.027-.147.493-.093.78.04Zm178.854-58.74.193.466.327.154.793-.254 1.393.48.127.84-.3.827 1.047 1.507.593.393.113.54 1.054.373.266.334-.353.273-1.247-.073-.486.253-.087.347.693 1.826-1.273.174-.593.66-.074.786-1.82-.026-.353-.414-.347-.053-.5.307-.606-.28-1.28-.047-1.834-.527-1.733-.186-1.333.046-1 .614-.447.046-.053-.813-.394-.793.907-.587.007-.9-.467-.94-.047-.667 1.44-.013 1.814-.867.5-1.36 1.273-.693.133-.273-.126-.834 2.533-1.186 1.533.513ZM132.02 216.018l.067-2.993.46-.04.493-.867.227.187-.267.866.113.387-.226 1.5-.867.947Z"/><path d="m327.7 129.931 1.7-1.233-.007-.433-1.466-1 4.88-4.507.686-1.407-.086-.326-2.307-1.68.573-1.8-1.406-1.874 1.04-2.446-1.847-3.014 1.433-1.993-.053-.367-2.433-1.82.2-1.693 1.206-.247 2.84-1.18 1.614-.966 2.706 1.74 4.527.693 6.227 3.233 1.186 1.254.094 1.64-1.7 1.346-2.6.707-7.38-2.093-1.374.353-.086.467 2.626 1.96.207 3.906.173.24 3.427 1.494.387-.194.213-1.293-.9-1.187.753-.726 4.087 1.613 1.407-.653.12-.374-1.007-1.78 3.607-2.506 1.38.146 1.506.94.38-.106.974-1.914-.034-.293-1.28-1.547.747-1.546-.88-1.514 3.913.774.694 1.166-1.727.287-.22.267.013 1.573 1.64 1.22 2.58-.607.574-1.866 9.126-3.767.66.073-1.28 1.374.154.446 2.073.3 1.333-.986 3.04-.08 2.427-1.154 1.767 1.627.373-.007 1.9-1.92-.007-.38-1.566-1.526.6-.674 4.76.867 2.273.907 6.033 3.313.34-.073 1.114-1.514-.034-.353-1.62-1.473-.04-.52-.226-.24-1.68-.24.426-1.287-.88-2.307-.04-.806 2.987-2.707 1.127-2.86 1.066-.54 4.154.787.293 1.473-1.527 2.427.04.333.98.927.507 2-.373 4.02 1.793 1.88-.64 1.713-3.24 3.967.153.426 1.907.407.28-.113.62-.934 1.76-.686.58-1.494 1.393-1.306.047-.334-.907-1.52.727-1.793-.213-.367-1.647-.22-.333-1.373 1.293-2.92-.04-.28-1.973-2.267 2.746-1.92.107-.266-.34-1.954.36-.033.753 1.5-.64 2.9.18.313 1.787.56.333-.34-.68-1.993 2.527-1.107 3.34-.16 3.02 1.74.32-.04.047-.32-1.454-2.546-.153-3.114 2.653-.6 3.98.14 3.66-.426.18-.434-1.22-1.54 1.707-1.933 1.913-.113 3.2-1.647 4.36-.447.687-.946 4.167-.3 1.546.74 3.687-1.8 3 .053.26-.187.44-1.433 1.507-1.413 3.793-1.407 2.14.86-1.64.627-.167.28.227.233 3.607.513.406 1.554.387.166 1.467-.813 4.753.047 3.673 1.646 1.194 1.147-.354 1.493-6.106 2.767-1.314 1.013.107.474 4.513 1.273 1.44-.52.754 1.827.446.073.674-.767 2.54-.486 5.133.513.36 1.327.24.193 6.98.473.287-.253.086-2.153 3.247.52 2.633-.014 2.554 1.6.686 1.807-.9 1.193.014.334 2.1 2.426 2.713 1.307.353-.12 1.487-2.98 2.633 1.287 2.774-.807 3.153.927 1.367-.84 2.626.413.287-.367-1.12-2.68 1.927-1.2 14.873 2.02 1.44 1.834 4.367 2.34 6.86-.54 3.213.486 1.233 1.107-.193 2.053.167.274 2.053.84 2.373-.587 2.9-.073 3.2.58 3.047-.314 2.82 2.527.287.047 2.066-.934.107-.4-1.253-1.746.566-1.014 5.14.807 3.48-.173 4.727 1.393 6.393 3.48 4.234 2.74-.134 1.587 1.254.94.4-.28-.32-1.687 4.1.38 2.933 2.34-1.313.953-2.667.274-.24.26-.04 2.526-.493.414-1.38-.074-1.274-.926-2.093-.74-.52-1.234-1.813-.453-1.754.327-.693-.734.307-.873-.334-.34-2 .653-.146.387.66 1.133-.807.987-2.027 1.12-2.08-.187-.266.154.06.306 1.466 1.394.974 2.133.766.733.16.887-.28.447-3.086-.514-4.64 1.934-1.46.293-5.067 3.373-.56.967-2.407-1.58-4.16 1.88-.626-.767-.354-.053-1.52 1.013-2.133-.326-.293.18-.52 1.58-2.034 2.52.06.98.194.24 1.693.48-.193 3.02-1.314.073-.233.173-.713 1.96.533.967-2.607 1.053-.7 2.634-2.32.513-.2.2-.48 2.193-2.06 1.767-.466-1.16-1.627-8.293.773-3.14 1.36-1.374.147-1.093 2.533-.573 2.974-3.074 2.853-2.54 2.987-2.006 1.446-3.754-.28-.36-2.026.22-1.18 2.207-3.907 2.573-1.24-2.833-.3-.153-4.307.866-4.313 4.294-.007.366 1.054 1.16-5.494.78.1-1.466-.226-.28-2.594-.374-2.166 1.207-5.08-.413-5.634.793-11.806 10.273.146.467 2.494.273.906 1.447 1.62.507 1.254-1.12 1.6.133 2.266 2.36.054 1.733-1.3 2.28-.14 2.6-.734 3.374-2.473 3.026-.58 1.474-5.527 5.926-2.126 1.134-.88.02-.967-.907-.327-.027-1.513 1 .273-2.433-.393-1.647 1.167-.593 1.94.353.28-.133 1.12-2.02.58-2.307.646-.786.88-1.92-.3-.374-2.76.634-1.46.833h-2.273l-.707-1.953-1.98-1.534-2.853-.706-1.167-3.38-1.773-3.34-1.527-.86-2.5-.674-2.293.054-2.12.413-1.493 1.18.033.44.787.46.013.953-.887.7-1.506 2.34-.027.954-2.107 1.226-1.88-.773-2.006.153-.9-.713-1-.233-2.6 1.54-2.147.346-1.513.527-2.034-.34-1.473.02-.987-1.067-1.733-1.086-1.753-.287-3.64.673-2.154-.833-.48-1.713-3.466-.827-1.834-.907-.333.08-1.727 2.3.56 1.4-1.373 1.287-2.273-.513-1.614-.08-1.22-1.027-1.686-.033-1.614-.654-2.573 1.047-3.147 1.853-2.2.5-1.033-1.28-2 .274-.74-.887-1.08-.393-.873-1.294-.92-.4-2.467.527-2.207-1.22-.34.073-.66.86-3.526-5.366-1.974-1.654.434-.513.006-.34-.333-.073-4.133 2.14-1.227.1.1-.927-.173-.28-2.147-.78-1.64.467-.46-2.107-.213-.207-3-.5-1.647.98-4.127.847-.86.573-6.34.867-.766.78-.02.353.98 1.267-1.26.46-.147.373.207.4-1.407.96.02.454 2.5 1.413-.26.653-2.153-.086-.574.573-2.06-1.06-2.646.047-1.774.9-5.546-2.374-2.714.04-3.593 2.454-.26 1.333-1.353-1-.394.087-1.333 2.393.38.62-.853 1.44.04.32 1.42 1.447 1.3.026.913 1.214-.153.973.166.287.554.22-.534.873-1.66.413-1.66 2.134v.326l1.447 1.854-.1 1.453 1.667 2.16-1.054 1.06-.466-.087-1.087-1.146-1.527-.56-.626-.874-1.56-.42-.987.267-.287-.313-2.34-.987-3.84-.673-.3.126-1.926-1.56-1.934-.8-1.02-.86.86-.286 1.387-1.74-.033-.367-.594-.527 2.034-.706.18-.28-.047-.46-.327-.234-1.153.26.027-.453.693-.48 1.773-.32.267-.88-.333-1.067.613-1.026.02-.78-.193-.247-2.46-.707-.94.014-.947-.94-1.46.253-1.847-.673-.02-.394-.593-.953-1.333-.213-.074-.36.327-.354.007-.353-1.067-1.267-2.387.014-.586.486-.307-.046-.667-1.86 1.48-.014.647-.493.047-.38-.6-.693-.9-.32-.074-.467-.633-.387-.92-1.326.307-.654-.34-1.306-1.634-.56-.806.2-.307-.507-1.64-.553-.48-1.247-.14-1.127-.66-.566.567-.78-.467-2.14 1.107-1.314-.107-.526Zm171.767 36.98-.4.267-.087.107-.007-.34.494-.034Zm81.786-69.94 1.447-.086 2.127.773-1.594.727-3.753.32-.173-.56 1.946-1.174Zm-49.66-11.546-1.333.906-2.533-.28-2.834-1.2.234-.646 6.46 1.22Zm-9.146-1.58-1.087 2.06-5.987-.087-2.726.76-3.027-1.98.773-2.007 2.034-.593 4.333.147 5.693 1.706Zm-3.647 59.24-.373-.6.18-.08.193.673Zm.093.333.627 2.353-.033 2.254.7 2.26 1.453 3.333-1.927-.553-.326.173-1.027 3.1 1.613 2.333-.026.754-.827-.827-.407.04-.726 1.073-.187-1.073.18-2.067-.187-2.266.387-1.647.073-2.927-.973-2.24.14-2.88 1.433-.973.047-.227Zm-4.26-52.58 1.174-.947 1.926-.28 2.187 1.14.093.4-2.18.02-3.206-.333ZM455.84 73.825l-8.673 1.286 2.686-4.233 1.214-.373 1.153.226 3.993 1.987-.373 1.107Zm-8.607-2.107-3.386.427-4.574-1.047-2.66-1.367-1.4-2.773-1.733-.58 3.813-2.333 3.467-.854 3.127 1.9 3.726 3.6-.373 3.02ZM376.1 99.058l-.427.113-5.233-.38-.573-1.36-2.854-.78-.186-1.293 1.513-.593.167-.26-.054-1.587 3.207-2.647-.1-.466-.98-.254 3.533-2.54.1-.293-.386-1.293 3.52-1.674 5.473-2.18 5.52-.64 2.9-1.293 3.067-.427.906 1.074-.893.853-10.953 3.293-5.314 3.254-5.16 6.42.44 2.76 2.774 2.18Zm-10.227-33.64-3.666.787-.387.68-1.727.56-1.42-.714.747-.946-.2-.434-1.553-.046 1.12-.24 2.313-.04.28.86.44.106.92-.893 1.433-.587 1.96.674-.26.24Zm-47.626 76.447-2.72.033-1.707-.213.22-.58 2.113-.687 2.16.64-.06.82Zm13.086 103.4.474.673-.074.727-1.086.02-.694.926-.553-.073.34-.8.053-.893.28-.274.467.094.793-.407Zm-18.4-82.84.28-.334-.006-.346-.767-1.087.953-.413.887.08.78.706.307.754.893.426.233.9.974.6.506-.193.134.46-.32.52.146.747.7.813-.513.533-.247 1.014-.806.053.16-.427-.26-.36-1.387-1.093-.6.033-.32.627-1.413-.913.353-1.067-.74-.913.34-.734-.273-.38Zm176.767 95.96-.067-.647 3-.573-1.88.853-1.06.367Z"/><path d="m368.687 168.938-.027.227-.06-.147.087-.08Zm1.893-.733.3-.067.987.493 1.373 1.62 2.713-.12.254-.34-.214-.793 1.28-.627 1.274-1.06 1.96.927.286 1.647.794.446 1.72-.086.413.266.88 2.08 3.027 2.294 1.78.966 2.04.76-.027.7-.887-.5-.393.127-.213.56-1.467.54-.307 1.42-.806.493-1.274.28-.486.887-1.04.207-1.48-.627-.134-1.447-.253-.24-1.153-.06-1.84-1.64-1.427-.266-1.893-.987-1.187-.18-.827.353-1.046-.053-1.334 1.127-1.133.286-.24-1.053.24-1.987-.147-.266-1.1-.56.36-1.127-.226-.347-.814-.086.24-1.094 1.48.394 1.467-.634.08-.433-1.18-1.16-.44-1.047Zm27.92 4.106-1.693-.293-.314.227-.16 1.133.287.3 1.76-.147 2.12.634 2.927-.274.373 1.58.347.194.446-.16.74.326.14 1.42-2.506-.14-1.2.88-1.174.494-.406-.387.14-1.487-.427-.326-.047-.62-.906-.44-.3.046-.72.674-.367.986-.873-.033-.634.773-.6-.233-1.24.493.84-1.886-.36-1.447-1.113-.547.22-.44 1.453-.026.794-1.087.506-1.193 1.62-.334-.173.667.487.7Zm-73.48-16.393.4.16 1.913 2.653-.113 1.794.3.946.88.54.9-.28.507.24.013.207-.553.3-.394-.147-.36.2-.413 2.2-.667-.146-1.38-.754-1.966.474-.834.506-2.34-.1-1.26-.313-.58.107-.546-.867.193-.173-.04-.427-.727-.227-.373.334-.7-.427-.26-.927-.907-.433-.233-.667-.553-.5 1.026-.36 1.774-2.806 1.6-.827 1.973.227.987.486.526-.3 1.187-.2.5-.493h.527Zm-67.533 66.247-.194.56.1.4-1.473.393-.573.64-.694-.553-.726-.154-.36-.706-.44-.327 1.606-.32 2.754.067Zm-127.434-2.554-1.653-.246-.687-.3-.76-.594.2-.66-.16-.453.64-1.107 1.987-.006.267-.247-.127-.853-1.113-.934.34-.266v-.7l2.566.013-.14 3.02.267.287.973.253-.986.653-.234.467.08.38-1.466 1.307Zm194.66-50.12-.393.954-.247.14-1.893-.234-2.02.514-.12.453.853.82-.406.153h-.76l-.8-.926-.42.02-.354.673.374 1.173.686.794-.373.253-.033.413 1.68 1.414.013.58-1.187-.394-.32.374.334.666-.714.134-.2.353.5 1.34-.653.013-1.227-.746-.913-2.8-1.473-1.967-.074-.373.694-.854.133-.633.567-.44.02-.307.88-.14.673-.426.813.033.434-.373h1.506l1.214-.5 1.233.666 1.52-.186.233-.26.007-.514.227.147Zm-4.386 11.714.386.266-.453-.08.073-.186Zm1.353.44 1.673.04.16.213-1.326.087-.514-.34Zm-22.487 57.866.014 1.48h-2.727l.46-1.513 2.253.033Zm-114.246-6.366-.214 1.22-.88.38-.153.306-.187 1.334.74 1.213.554.127.213.833.753 1.08-.806-.127-.72.474-1.18.333-.294.307-.573-.06-.88-.674-.513-1.513.24-1.267.453-.82-.38-.78-.493-.286.08-.774-.6-.46-.734.06-.873-.986.353-.48-.026-.56 1.326-.574.034-.393-.474-.52.094-.38 1.106-.827.907.514.94.993.04.767.247.253.533.033 1.373 1.24Zm162.86-67.427 3.526.593 2.714 1.34.94-.293 1.38.373.453.734.713.366-.08.394.654.86-.674-.087-1.206-.553-.627.313-2.153.287-1.527-.927-1.553.033.14-.646-.507-1.507-.967-.747-.953-.26-.273-.28Zm-72.734-33.473-1.46 2.146v.3l3.42-.2-.353 1.58-1.467 2.08.194.42 1.58.14 1.553 2.867 1.173.46 1.467 3.413 1.96.514-.153 1.08-.767.586-.067.347.547.947-1.24.953-2.2-.013-2.747.58-.693-.387-.313.04-1.007.94-1.413-.227-1.24.787-.4-.193 2.126-2 1.44-.46.187-.274-.227-.24-2.486-.353-.267-.507 1.467-.58.113-.406-.84-1.114.24-1.133 2.253.187.287-.22.247-1.327-1.194-1.66-2.073-.48-.253-.393.526-.9-.026-.307-.547-.647-.407.007-.453.56-.067-1.56-.82-1.253.567-2.314 1.18-1.786 1.233.173 1.447-.147Zm-4.233 9.426-.673 1.18-1.047-.393-.773.007.246-1.027-.26-.927.967-.066 1.533 1.226Z"/><path d="m302.16 239.445-.053.653.466.86 1.574.16-.654 1.753.787 1.194.167 1.186-.194 1.014-.4.62-1.226-.06-.82-.74-.44.153-.1.56-.947.173-.68.467-.073.347.513.9-.893.646-2.627-2.866-.96-1.634.04-.4.36-.54.7-2.306 2.78-.047.267-.267-.014-1.773 1.594.14.833-.18Zm-40.96-16.94.313.533.74-.213.654.466.713.134 1.507-.814.426.294.754 1.04-.32.933.533.2-.053.32.306.453-.233.907.7 1.74-.667.46.02.94-.48-.04-.72.667-.16-.18.047-.74-.7-1.027-1.193.14-.234-1.34-1.066-1.453h-1.334l-.873.36-1.3 1.453-1.24-1.46-.8-.52-.2-.74-.533-.567.433-.48.54-.02 1.093-.533.154-1.247 1.78.427.593-.2.807.1Zm-8.327-1.814.067-.233 1.62-.047.493-.406.34-.02.514.326-.687-.2-1.247.6-1.1-.026Zm3.147-.32.607.034.5-.16-.394.206-.72-.086ZM235.347 53.898l9.793 3.113-2.453 1.26-15.314.574-.24.18.08.286 1.034.787 5.86-.44 4.986 1.38 3.24-1.18 1.107 1.153-1.687 2.127-.006.32.306.1 4.234-1.467 8.04-1.54 4.826.754.727 1.326-6.527 2.674-.96.88-5.246.653-.234.273.254.254 3.38.16-1.687 2.386-1.38 2.54.053 4.034 1.714 2.073-2.147.133-2.747 1.107-.033.48 2.967 1.767.34 2.5-1.534.266-.166.427 1.86 2.46-3.214.207-.24.193.107.293 1.747 1.2-.394.814-2.2.466-2.3.007-.193.453 2.02 2.08.013.894-2.933-1.154-1.147.9.1.44 2.207.767 2.087 1.807.54 2.106-2.567.5-3.26-2.84-.313-.02-.114.294.527 1.906-1.807 1.474-.086.293.246.18 5.82.227-8.213 4.426-4.827.987-1.96.053-1.793 1.167-2.287 2.94-3.493 1.893-1.153.12-4.747 1.4-1.433 1.68-.087 1.994-.793 1.633-2.674 2.06-.093.293.647 1.934-1.52 4.32-2.067.133-2.553-2.047-3.24-.013-1.5-1.287-1.134-2.526-2.866-3.227-.807-1.66-.293-2.533-2.214-2.42.56-1.907-1.04-1.133 1.52-3.067 2.554-1.16.686-1.307.347-2.313-.393-.273-2.78 1.473-1.38.387-1.814-.854-.1-1.806.567-1.394 1.34-.04 3.373.8.307-.153-.093-.327-4.36-2.98-1.78.367-1.054-.573 1.707-2.674-.02-.32-1-1.16-3.32-5.666-2.087-1.307.02-1.253-.16-.247-4.566-2.013-3.574-.254-8.466.387-1.854-1.047-2.44-1.846 3.82-.967 3.334-.187.253-.253-.233-.273-7.114-.92-3.533-1.374.167-1.026L171 70.338l.813-1.513-.166-.367-4.094-1.24 1.12-1.18 5.7-2.687 2.394-.42.2-.36-.587-1.513 3.647-.98 5.1-.633 5.033-.034 2.027 1.234 4.32-2.18 3.873 1.48 2.373.333 3.44 1.293.334-.14-.114-.346-3.806-2.087.186-1.42 5.414-2.4 5.8.187 2.233-1.56 5.807-.4 13.286.533Zm45.006 170.873-.006.48.64.8.16 2.487.393.633-.34 1.4.127.94.68 1.474-4.647 1.893-1.2-.38.027-.593-.68-1.36.406-1.767.714-1.547-.64-4.313 3.34.047.626-.26.407.073Zm98.374-17.72-.607 1.114-.813.026-.4.507-.274 1.007.18 1.053-.773.033-1.04.647-.507 1.16-1.08.033-.653.434-.113.766-.594.347-.993-.12-1.6.627-1.647-3.6 4.9-1.807 1.114-3.487-.747-1.393.033-.553.447-.667.047-.7.6-.28-.034-1.38.467-.007.667 1.08 1.006.72 2.2.56 1.154 1.527.54.247-.82 1.566-.66.527Zm-79.994-28.46-.666.847-.014.88.56.587-.186 1.393-1.02.88-.08.28.32 1.027.946.213.354.74.6.347-.074 1.113-2.36 1.76-.066 1.587-.387.2-.64-2.967-1.027-.833-.106-.52-1.28-1.04-.12-1.174 1.006-1.08.394-1.56-.254-1.853.28-.807 1.634-.7.86.174-.04.74.386.253.98-.487Zm47.027 8.76-3.427 1.04-.126.434 1.44 1.593-.594.76-1.14.227-1.14 1.2-1.56-.247.807-2.88.373-2.713 1.867.626 2.973-1.806.527 1.773Zm-42.033-25.693.726.047-.546.626-.18-.673Zm.913.053.413-.273 1.154.3.28-.267-.007-.393.573-.347.134-.7 1.086-.453 1.714 1.12 1.38.4.58-.207.7 1.047-.347.42-.7-.373-1.12.026-1.4-.333-.86.04-.38.327-.393-.314-.414.107-.306 1.133 1.193 1.614 1.86 1.833-.787-.58-1.473-.58-1.113-1.187.086-.42-.7-.793-.213-.847-.947-.286Zm-146.607 50.307-.773.287-.607-.367.034-.133 1.346.206Zm.32.033.707.08-.033.007-.674-.08Zm1.147.014.527-.34.04-.414-.68-.666.013-.547-.2-.267-.62-.213 2.107.3.013 1.227-.32.226-.053.387.36.48-1.187-.173Zm148.553-53.707.434-1.06-.06-.293h.426l.26-.227.067-.46 1.167.58 1.546-.247.287-.44 2.327-.52.46-.52.38-.093 1.713.62.447-.153.686.433.054.247-.947.473-1.727 2.76-1.2.353-1.12-.066-1.826.82-1.234-.36-1.693-1.107-.44-.733Zm-174.986 61.087-1.134-.807.04-.627 2.027-1.426 1.58.186.847-.06.733-.346.867.186.76-.166.92.246 1.486.914-1.573.62-.82-.26-.587.866-.853.66-.653-.146-.28.346-.64.034-.24.273.026.587-.346.4-.2.026-.2-.366-.44-.207.073-.447-.32-.433-.58-.173-.487.133Zm37.713-7.194-.173.18-1.887.034-.047-.367 1.3-.067.814.22Zm168.693-23.773.067-.04-.013.02-.06.02Zm.1-.107-.013-.42-.22-.106.207-.727.16.067-.134 1.186Zm-71.68-10.353-.426.313-.754-.233-.606.113.186-1.186-.16-1.187-.833-.373-.3-.56.113-1.107.674-.787.46-1.946-.027-.927-.393-1.267.866-.566.56.9 2.067-.2.307.66-.7.626-.02 1.44-.274.38-.053.734-.527.12-.173.393.607 1.067-.42 1.166.506.727-.733 1.013.047.7Zm-84.626 99.16.493 1.013-.107 2.3.214.274 1.76.333.74-.313.933.393.24.4.353 2.28.847.267.653-.254.34.18v.787l-.806 3.547-1.394 1.266-1.2.267-3.14-.653 1.467-2.42-.213-1-1.854-.854-2.02-1.293-1.38-.293-2.893-2.707.607-1.933.053-.947.713-1.36 2.754-.48 1.453.02 1.367.78.02.393Zm-40.734-48.293.174-1.014-.24-.173-.007-.327.293-.066.62.933.84.02.514.327.92-.154 1.673-.74.573-.48 2.3.567.934.787.273 1.16-.14.226-.353-.08-.314.194-.106.4-.454-.854.3-.326-.126-.44-.314-.087-.36-.56-1-.5-.733.107-.5.66-1.08.56-.12.64.567.646-.387.3-.46.054-.227-.787-.846.02-.474-.7-1.726-.307Zm396.52 23.453 1.694 1.707-.087.173-.22.08-.58-.52-.813-1.44Zm-4.78-3.88.334.193.173.18-.327-.233-.18-.14Zm1.174 1.027.393.333.053.707-.193-.607-.253-.433Zm-4.327 2.553.347.5.953-.127 1.513-1.206-.006-.954.746.107-.026.733-.467.854-.747.12-.413.526-1.64.74h-.78l-2.053-.833h2.273l.3-.453Zm-5.02 3.427 1.54 1.2 1.06 1.74.893.086-.04.44.207.287.707.16.04.433 1.5.7-.814.087-.48-.42-3.04-.433-2.146-1.914-.994-1.56-2.18-.733-1.586.48-1.06.573-.134.28.18 1.034-1.033.453-.907-.267-1.473-.06-.053-10.273 5.593 1.953 1.967 1.6.4 1.094 2.68.993.206.453-1.173.14-.22.347.367 1.12Zm-362.793-5.56-.84-.047-.38.28-1.287.3-1.987 1.167-.24.906-.386.534.08.913-.827.393-.147.814-.413.56.693 1.513.854.96-.274.56.214.38.986.087.774.913 1.473.047 1.087-.72-.087 2.013.2.267.76.193.873-.227 1.267 2.394-.32.566-.113 2.567-.627 1.06.233.5-.313.713.653 1.314-1.4 2.546-.653.334-1.447-.854-.26-.773-3.3-1.72-2.973-1.86-1.227-1.007-.606-1.226.2-.64-1.407-2.22-3.213-6.454-.694-.8-.58-1.293-2.266-1.653.386-.787-.753-1.487.44-.993.967-.767-.4.654.046.613.314.24 1.16.02.646.78.36.047.947-.687.4-1.227.947-1.346 2.026-.694 1.82-1.746.574-1.16-.067-1.247.96.68.6.833.707.394 1.133 1.82 1.24.206.967-.406.64.26.906-.127.967.593-.933 1.474.206.406.394.034.313.333Zm246.753-68.58-1.22 1.206-1.733.26-2.487-.453-1.053.887-.06.28 1.18 2.926 1.133.82-1.127.847-.08 1.427-1.553 1.76-1.067 1.866-1.64 1.78-2.02-.046-1.84 1.886.034.4 1 .74.173 1.267.96 1 .247 1.12-3.34-.007-1.187 1.134-.947-.347-.506-1.247-1.514-1.433-7.74.573.474-1.56 2.286-.88.167-.293-.14-.827-.8-.433-.187-1.64-1.526-.76-.854-1.293 1.88.626 1.747-.253.947.22.506-.373 1.14.126 2.167-.76.18-.24.053-1.46.787-.88h1.12l.387-.546 1.066-.2.794.106.653-.52.013-1.253.62-.98.987-.44.127-.367-.44-.833 1.36-.073.46-.674-.014-.773.74-.707-.113-1.186-.327-.687.767-.653 3.613-.607 1.734-.547 1.066.774.647 1.56 2.3.646Zm81.28 47.666.26 1.98-.293.787-.367-1.02-.447-.093-.78.853.434 1.393-.28.46-1.654-.82-.38-.993.434-.687-.067-.36-1.06-.793-.373.053-.434.58h-.82l-1.053.647.553-1.2 1.707-.947.433.56.3.087 1.267-.46.373-.74 1-.04.254-.287-.06-.793.806.473.24 1.347Zm-2.28-4.84.033.5.054.174-.534-.28-.12-.474.567.08Zm.327-.32-.08-.746-.667-.847.907.02.353.487.34 1.36-.847-.267Zm-.214 1.054.254.653-.214.1-.046-.753ZM483.1 212.05l.973.467.48-.207-.213.78.527 1.14-.38 1.227-1.02.693-.26 1.5.373 1.36 1.087.38.773-.18 1.807.82-.127.72.507.56-.054.24-.933-.6-.587-.846h-.44l-.253.366-1.067-.873-1.433.24-.58-.26.047-.407.44-.366-.007-.414-.5-.393-.48.293-.493-.58-.26-1.66.213.18.44-.186.173-2.647.467-1.347h.76Zm4.253 13.627-.586.567-.794 1.293-.7-.793.62-.734.214-.98.346-.04-.18.767.147.3.327-.08.666-.88-.053.567Zm-2.8-2.06.554.253h.78l-.014.32-1.333.934.02-1.507Zm-1.346-2.46-.254.847-.946-1.3.8.033.4.42Zm-5.507 6.487.733-.634.02-.02-.186.24-.567.407Zm1.78-1.84.027-.04.533-1.02.107.5-.667.56Zm-167.187-73.093-.74-1.026-1.24-.22-.32-.7-1.146-.247-.434.46-.48-.24.074-.407-.22-.306-1.167-.18-.693-.62-.627-1.294.107-.813-.414-1.2-.52-.713.38-.694-.32-.953.94-.553 4.607-1.807 1.427.333.346.607 3.674.293 3.033-.033.713.207.32.56.1 1.053.434.8-.007.66-.847.387-.126.36.486.986.054 1.034.8 1.84-.114.386-.82.294-1.513 1.813.12.633-1.313-.686-1.32.266-.907-.186-.827.386-.713-.646-.773.16Zm8.687 109.254.26.206 1.68.094.66.78 1.34.233.933-.427.46.78 1.187.22 1.227 1.567 1.486.12.267-.287-.14-1.826-.413-.2-.32.213-1.32-.78.48-3.527-.34-.786.38-.867 2.453-.413.173.42.807.42.6-.147 1.44.447.887.473.713.68.373 1.247-.586 1.8.286 1.393-.486.58-.507 1.58.393.453-4.4 1.22-.193.294.127.966-1.12.234-.954.68-.253.58-.58.173-2.32 2.46-2.773-.353-1.014-.667-1.18-.087-1.22.347-2.026-2.267.073-5.06 3.213.02.26-.326-.12-.507.22-.553-.266-.907.16-.7Zm-64.7-55.347.167-.527.706-.86.534-2.34 2.253-1.853.467-1.207.04 3.227-1.32.133-.627 1.06.26 2.374-2.467-.007Zm5.06-8.12.467-1.2 1.18-.16 1.393.227.633-.414.854-.046v1.673l-4.527-.08Zm62.467-68.707 1.76.4 1.706.074-1.066 1.273.406 2.36-.54.58-1.186-.007-2.147-1.173-1.2.3.14-1.02-.387-.273-.46.226-.84-.686-.113-1.087 1.887-.613 2.033-.347Zm4.233 59.994.973.28 1.967-1.094 1.36-.14 1.02.2.393.794.46.026.274-.426 1.206.386 1.3.107.694-.34.946 2.72-1.353 3.027-1.107-1.18-1.173-2.567-.427-.08-.24.447.694 1.92 2.293 4.633 1.187 2.027 1.353 1.766-.24.354.153 1.34 1.8 1.46h-18.94v-12.64l-.486-1.467.393-1.04-.213-.84.453-.66 2.04-.027 3.213 1.014Zm-16.613 112.12-.087-1.307-.453-1.04.466-.453-.086-1.554-3.04-5.46.513-.573.4.3.46.873 1.887.48 1-.173 1.493-.927.127-6.366.9 1.533-.14 1 .406.8.267.127 1.193-.18 1.734-1.38.46-.88.64-.32 1.46.693 1.36.087 1.18-.434.566-1.413.92-.22 1.06-1.84 1.434-1.26 2.273-1.247 1.333.3.68-.186.66.133 1.167 3.527-.253 2.166-.54-.153-.667.307-.58 1.12-.033.773 1.313 1.227.98-.194.46-.786.727.006-.507 2.46-.387.727-1.466 1.193-2.114 3.174-1.866 1.886-2.38 1.92-1.687.7-.813.094-.34.466-.787-.213-.927.333-1.726-.346-1.074.22-.786-.074-1.7.734-1.4.293-1.067.713-.567.034-.62-.594-.62-.1-.646-.753-.167.033Zm16.206-6.014.414-.62.986-.393.787-1.46-.047-.327-1.326-1.126-1.107.373-.953.76-.894 1.153.014.34 1.253 1.407.873-.107Z"/><path d="m154.573 243.451.194 1.06-.46.967-1.74 1.673-2.087.74-1.02 1.454-.327 1.12-.666.486-.68-.74-1.187-.106.447-.767-.16-.573.833-1.42-.36-.727-.447-.053-.48.58-.58-.427.234-.46-.24-1.307.54-.34.3-1.006.613-1.047-.047-.647 1.767-.886 1.833.9.514.7 1.413.233.507-.213 1.306.806Zm146.487-84.6 2.32.627-.14.78.2.553-.993-.16-1.36.734-.14.26.086.966-.166.747.546 1.047 1.594 1.086.873 1.694 1.86 1.62 1.367.053.14.153-.26.22.06.447 2.7 1.313 1.446 1.174-.106.24-.78-.72-1.454-.327-.293.133-.7 1.274.093.36 1.047.633-.127.653-.706.22-.834 1.56-.246.054v-.22l.666-1.634-1.153-2.113-.747-.34-.586-.887-1.007-.34-.847-.833-1.166-.12-2.747-2.14-1.08-1.1-.687-2.127-2.353-.906-.867.34-1.126.94.106-.48-.186-.314-.76-.22-.354-1.306.48-.52.027-.32-.433-.78.533.26.933-.154.74-.56.347.234.793-.067.5-.8 1.02.22.907-.373.233-.76.72.213.454-.427 1.32-.293.28.547Zm5.067 17.414-.434 1.1.214.7-.207.593-1-.567-3-1.113.127-.547 1.78.154 2.52-.32Zm-10.174-5.8.787 1.106-.2 2.214-.707-.007-.513.487-.353-.294-.067-2.246-.26-.814.693.007.614-.453Zm164.42 36.133-1.8 1.213-1.393 1.64-.42 1.3 2.873 4.3 1.547 1.1.953 1.294.74 3.06-.213 2.826-1.287 1.027-1.893 1.073-1.407 1.434-1.82 1.373-.393-.7.42-1.02-.087-.313-.893-.694 1.007-.473 1.7-.12.2-.42-.547-.76 2.667-1.38.206-2.033-.38-1.18.28-1.774-.486-1.313-1.24-1.173-2.42-3.527-1.814-.973.24-.314 1-.426.14-.347-.646-1.513-.247-.16-1.887-.014-1.493-2.6.553-.266 2.927-.194 1.373-.873.767.593 1.253.267-.113 1.007.9.773 1.113.3Zm90.754 54.233-.407.06-.133-.22.246.1.294.06Zm-1.674-2.813-.173-.2-.207-.607h.02l.36.807Zm-.76 1.3-1.106-.147-.134-.346.774.186.46.307Zm-2.506-3.1.76.433.013.02-.54-.293-.233-.153Zm-202.16-37.927.733.56 1.087-.3.453.314 1.087.02 1.34.626 1.153 1.107 1.093 1.38-1.013 1.36.107 1.147.26.253h1.366l-.24.687 1.907 2.386 5.547 2.054.873.013-4.213 4.5-2.067.073-1.573 1.18-.98.027-.574.527h-.92l-.88-.54-1.526.7-.507.653-2.193-.273-2.047-1.38-1.2-.047-.413-.4v-.827l-.187-.253-.767-.247-.933-1.726-.793-.454-.314-.666-.846-.82-.774-.147.287-.48.967-.187.273-.633-.02-1.473.453-1.627.7-.42.954-2.04 1.046-.913.68-1.674.234-1.253 1.68.307.293-.16.387-.954Z"/><path d="m350.087 245.418-.754-1.047-.02-5.906 1.774-2.254 1.113-.086 1.42-1.127 2.273-.153 4.72-5.034 1.94-2.46.054-3.213 1.986-.447.827-.573h.3l-.133 2-.807 2.413-1.82 3.98-1.42 2.434-3.353 4.106-5.707 4.267-1.853 2.053-.534 1.04Zm-17.48 35.073-.74-.146-.614.186-1.393-.293-1-.74-1.26-.287-.413-.933-.007-.56-.2-.253-.647-.167-1.806-1.827-1.28-2.213 2.553.3 2.487-2.547.72-.293.173-.513.833-.6.94-.174.334.594 1.326-.034 1.147.78.74.114.7.44.007 1.993-.394 2.507.254.573-.154.82-.26.233-.42 1.207-1.62 1.833Zm-55.274-114.586.714.78 3.073.92.707-.38 1.733.84 1.807-.2.06.746-1.427 1.2-2.073.407-.207.207-.133.593-1.027 1.127-.647 1.6.56 1.16-.88.846-.32 1.12-1.253.434-1.107 1.38-3.573-.007-1.193.72-.594.653-.586-.113-.527-.547-.453-1.06-1.58-.42-.074-.333.807-1.213-.513-.754.406-1.12-.506-1.08.58-.326.06-.834.28-.4.02-1.406.66-.46.086-.334-.686-1.153-.974-.073-.406.253h-.707l-.347-.82-.353-.14-.88.447-.007-.994-.5-.64 2.02-1.253 1.994.353 2.213-.013 1.753.34 4.007-.04Zm69.587 51.346 2.28 1.62 2.333 2.514.56.36-.633-.007-2.34-2.593-1.553-.767-1.154-.047-.606-.34-.84.34-.894-.68-.406.114-.44 1.073-1.567-.287-.113-.446.86-3.527.406-.407 1.3-.353.58-.673.78 1.606.454 1.554.993.953Zm-34.313-49.133-.814-.68.314-1.207.593-.48 1.507 1.007-.334.38-.5-.18-.76 1.153Zm13-12.533.933-.18 1.147.62.713.1.567.433-.094.56.64.567.747 1.646-.767-.046-.44-.274-.346.167-.06.573-.72 1.26-.18-.573.166-.893-.106-1.067-2.194-2.893Zm38.333 110.273.267 2.02.413.807-.14.68-.38-.534-.46-.006-.313.506.273 1.414-.12.58-.487.52-.1 1.426-3.14 10.134-.706 1.92-2.614 1.093-2.08-.993-.4-.807-.126-1.6-.574-1.367-.14-1.18.254-1.08.806-.5.007-.506.793-1.36.154-1.107-.707-1.993-.127-1.474.54-.886.214-.974 3.086-.813 2.294-2 .566-.933-.053-.467.52-.027.92-1.18.087-1.093.3-.407.773 1.127.393 1.067Zm-111.42-59.413.04-.394.613-.486.547-.914-.06-.693.527-1.133.873-1.054.64-.393.44-1.033.06-.98.54-.987 1.147-.713 1.033-1.794.773-.64 1.627-.26 1.293-1.213.874-.52 1.393-1.52-.34-2.433.827-2.467 1-1.167 2.973-1.713 1.58-2.98.96.007 1.12.806 1.547-.126 2.313.433.533 1.027.107 1.14.573 1.973.374.393-.174.407-2.033.293-.84.7-.887.147-.22.247-.06 1.186-1.786.667-.714.947-2.98.753-2.693 1.34-.36 3.093-.767.04-.613.407-1.307-.233-1.613.36-.493 1.266-.574.267-.76 2.173-2.353 2.007-.533 2.367-.64.733-.194.547-3.3.12Zm146.573-38.18-1.086 1.013.04.427 1.233.746 1.313-.426 1.474.78-1.68 1.12-1.727-.147-.12-.273.307-.82-.3-.354-2.234.46-1.4 2.34-1.246-.08-.687 1.007.147.367 1.093.413.307 1.22-.794 1.66-1.773-.353.033-.907-.173-.26-2.2-.82-1.707-.933-2.933-2.227-.893-2.093-.72-.4-1.72.086-.46-.293-.314-1.68-2.246-1.067-.287.034-1.38 1.146-1.4.674-.14.313.187.673-1.274.02-.06-7 3.994-1.133 4.126 2.36 1.807 1.893 4.7-.446 1.807 1.34-.114 1.873.26.28.6.013.294 1.427.253.213 1.96.06.633.947.854-.16.7-1.36 2.953-1.667Zm50.174 38.306-1.314 1.047-.38.64-.933.4-.907.7-1.326.24-.72 1.773-.607.267-.127.367.807 1.513 1.68 2.287-.527 1.273-.493.273-.113.347.433.913 1.073 1.3.167 1.72.6 1.42-1.28 2.38.453-1.5-.54-1.16.127-1.766-.7-1.02-.827-4.114-.746-1.506-.4-.087-2.894 2.013-1.593-.433.513-1.893-.346-1.74-1.274-1.974.167-.5-.193-.34-.887-.2-1.073-1.286-.067-.867.547-.16.026-1.093.68-.347.14-.3-.153-.633.36-.64.053-1.48.974.3.313-.134.747-1.46.106-.9.887-1.44v-1.013l1.927-1.107 1.086.294.334-.294-.114-.933.427-.24.053-.693.514-.074.473.9.707.46-.02 2.574-1.587 1.58-.2 2.1.307.286 1.52-.253.34 1.387.98.446-.4 1.2.126.32 1.98.987 1.094-.367.013.214ZM261.74 222.485l-.127-1.58-.66-.58-.293-.867-.06-.853.54-.387.233-.827 1.58.434.874-.314.573.1.44-.373 6.553-.027.254-.186.373-1.2-.293-.434-1.567-14.633 2.18-.027 11.133 7.587.494.873 1.666.727.014.92.293.26 1.56-.14.007 3.587-.854 1.073-.173.993-3.54.38-.713.614-1.934.066-.573-.32-.92.24-1.6.72-.4.58-1.233.727-.287.467-.527.26-.96-.14-.54.56-.226 1.093-1.274 1.347-.04.686-.446.814.086.773-.646.26-.154-.427-.346-.16-.9.267-.227.367-1.793-.187-.247-.233-.013-.6-.434-.234.3-.426-.02-.354-1.413-1.626-.507-.007-1.333.773-.52-.1-.533-.446-.807.153Zm189.333-71.734 2.54 1.12 3.78-.666 1.58.273 1.56 1 1.194 1.167 1.526-.02 2.08.346 1.647-.54 2.273-.393 2.354-1.473.833.193 1.02.753 1.513-.14-1.773 3.34.427 1.12.313.14.88-.253 1.587.32 1.346-.74 1.174.593 1.373 1.347-.087.353-1.146-.193-2.514.307-1.253.66-1.173 1.326-2.474.78-1.633 1.067-2.553-.58-.274.113-.873 1.327.693 1.493-1.013.6-1.16 1.047-1.86.68-2.52.087-2.7.7-1.847 1.013-.773-.567h-1.96l-2.413-1.193-1.72-.327-2.267.274-3.413-.447-1.754.04-.873-1.067-.933-2-.987-.22-2.087-1.293-4.106-.62-.474-.707.574-2.546-1.287-1.807-2.333-.787-1.3-1.053-.334-1.147 1.56-.346 3.167-1.867 2.413-.98 1.454.647 1.64.033 1.206 1.02 1.64.08 2.634.473 1.62-1.52.053-.32-.6-1.146 1.493-1.987 1.747.847 3.293.78.287 1.493ZM315.2 169.085l.327-.474 2.38-.473.666.513.087.967-.433.353-.767-.033-.747.447-.926.146-.527-.366-.193-.687.126-.4Zm21.8 90.22.567 1.3.1 1.906-.46 1.1.473 1.2.04.854.327.426.046.707.267.367.533-.154.367.407.46-.14.227.4.126 1.96-.693.413-.36.834-.74-.72-.107-1.04.34-.874-.213-.866-.66-.434-.547.08-1.573-1.093.42-1.307.547-.786-.307-1.34.6-1.907-.627-1.673.64.12.194.266Z"/><path d="m271.573 200.205-1.72.02-.26.293 1.614 15.04.24.287-.26.826-6.5.027-.374.353-.606-.073-.847.3-1.073-.44-.647.02-.24.193-.253.9-.28.154-1.954-2.267-1.973-1.013-1.08-.02-.847.36-.746-.134-.434.267-.053-.327.453-.86.207-1.62-.38-2.606.153-.807-.46-1-.766-.68.166-.26 6.387.013.267-.3-.307-2.453.313-.693 1.414-.14.24-.267-.054-4.267 5.207.087.273-.267.007-2.206 5.173 3.566Zm60.794 37.106.466-.306 1.1.333 1.307-.38 1.133.007.967-.654.607.887.886 2.633-1.713 2.687-.973-.267-1.694.607-.913 1.073-.007.54-1.613-.006-1.507.673-.113-1.06.387-.693.093-1.294.913-1.52 1.187-1.053-.113-.433-.48-.16.086-1.62Zm145.946-1.906-.926.433-1.414-.273h-1.92l-.253.186-.56 1.834-.66.64-.807 2.193-1.153.3-1.633-.453-.927.206-.887.767-1.06-.093-.94.293-.96-.793-.12-.487.894.353 1.286-.313.5-1.48 2.68-.687 1.834-2.14.546.627.427-.033.267-.434.64.04.28-.24.16-1.786 1.206-1.094.807-1.24.42-.006.713.7.227.853 2.293.9-.04.233-.913.067-.233.36.213.587Zm-29.193-2.58.113.726.314.22 1.1-.2.58-.626 1.073 1.013.653 1.04-.08 1.873.274 1.527.633.6.587 1.627-.847.08-3.4-2.447-.227-.86-.913-1.06-.22-1.313-.587-.934.167-1.12-.307-.7 1.087.56Zm-360.373-46.12.133.313 6.42 2.22 4.64-.013.267-.267v-.493h2.513l2.367 1.953.926 1.887 1.014.693 1.386.547.314-.094.973-1.333 1.153-.027 1.06.654 1.367 2.233.98 1.04.84 2.093 1.453.68 1.507.387-.787 2.48-.28 3.36 1.194 3.26 1.08 1.26.406 1.013.8.947 1.7.44.914.733 5.026-1.26 1.24-.866.76-2.867 2.734-.807 2.38-.073.213.2-.04.627-.84.966-.447 1.14.254.467-.48 1.513-.327-.2-.667.054-.666.926-.314-.073-.353.313-2.84-.013-.267.267v.706l-.733.174.067.293 1.213.96.373.607-2.126.14-.807 1.393.16.48-.133.293-1.494-1.453-.966-.62-1.48-.46-1.014.147-2.046.773-7.034-2.567-1.906-1.306-2.52-.614-.72-.793-1.747-.953-.787-1.027-.253-.54.44-.42-.12-.353.347-.507.006-.607-1.333-2.546-1.473-1.754-1.687-1.393-.793-1.08-1.467-.78-.2-.287.227-.986-.14-.3-.82-.4-.907-.8-.393-1.187-1.027-.313-1.627-1.7-.106-.6-.887-1.354-.56-1.326-.107-.887-1.206-.733-.647.033-.873-.467-.38.147-.267.747.48 2.513 2.34 2.593.187.52.353.174.273.953.887 1.153 1.053.94.534 1.594.953 1.606.087.88.246.24.694.054 1.113 1.52-.567.506-.44-1.006-1.12-1.027-1.94-1.247.04-1.213-.36-1.12-1.94-1.353-.366.06-1.3-.734-.587-.626.453-.054.62-.673.054-1.187-1.287-1.293-.973-.513-2.5-5.04 3.253-.28Zm249.76 1.76.266-.52.12.266-.22.687.347.293.453-.146-.573 2.4-.773-2.214.393-.493-.02-.273Zm.646-1.807.247-.68h.427l.346-.34-.326 1.02-.374-.16-.32.153Zm-42.833-18.48-.427 1.187-.386-.207-.327-1.147.267-.593.666-.48.2 1.233Zm-9.893-17.013 1.186 1.053.974-.087 1.4.947.9.18.82.553 2.026.334-.686 1.233-.2 1.413-.274.214-.633-.16-.333.286.04.407-1.207 1.28-.027.947.367.253.587-.24.406.647-.02.666.38.607-.5.727.434 1.593.846.38-.12.547-1.34 1.02-3.18-.534-2.546.667-.354 1.233-1.66.227-1.806-.873-.774.38-2.873-.86-.48-.574.793-1.186.26-4.3-1.72-2.2-1.266-1.107-2.48-.82-.127-1.147 1.873-.406 2.747.54.313-.32-.4-1.847 1.294.633 3.886-1.693.614-1.827 1.066-.326.16.52.907.22.7.793Zm-93.754 87.526-.54.534-.52.08-.333-.44-.373-.067-.607.4-.307-.147.727-1.973-.64-1.18-.113-.993.713-1.18 1.547.5 1.673 1.34.2.493-1.427 2.64ZM354.1 225.725l1.007.08 3.42-.634 3.533-.986-.007 2.933-1.78 2.26-1.233.007-5.36-1.96-1.7-2.114.747-1.14 1.36 1.56Zm-25.987-121.7-.153 2.333 2.347 1.753-1.387 1.92-.013.294 1.866 3.04-1.06 2.206 1.44 2.16-.626 1.594.093.313 2.293 1.673-.513 1.08-5.013 4.634-3 .206-2.92.914-2.534.493-.96-1.307-1.446-.74.333-2.44-.773-2.22.726-1.386 1.474-1.614 3.78-2.88 1.093-.553.14-.28-.307-1.347-2.253-1.26-.5-.953-.147-4.493-4.526-3.2.533-.414 1.693 1.414 2.307-.08 2 .64 1.673-1.407.78-2.053 2.367-.92 1.84 1.02-.633 1.86Zm251.854 167.06-.807.273-.053-.153 1.98-.807-.094.28-1.026.407Zm-1.58 1.513.286.247-.18.586-.826.187-.694-.16-.093-.44.42-.387.613.174.467-.207Zm-395.48 64.4.96.72-.314.487-2 .593-.64-.667-.346-.033-1.22.86-.487-.587 1.64-1.093 1.287.507 1.113-.794Zm-48.02-115.453.54-.12.686-.68-.026-.587h.453l.42-.36.647.147 1.02-.84.386-.66.78.226 1.607-.626.087.88-.54 1.293.066 1.827-.24.246-.073 1.167-.313.54.12.76-1.154-.567-.473.18-.98-.4-.347.107-2.673-2.54Zm151.986-72.854.4-.333 1.42-3.2 2.134-.887 1.16.054.22.533-.394 1.947-.333.66h-.84l-.267.3.22 1.8-1.466-1.187-1.747.387-.5-.074Z"/><path d="m327.627 98.038 4.533 1.927-1.527.573-.1.433 1.554 1.587-3.32 1.193.56-1.633-.12-.32-2.367-1.2-2.593 1.013-.947 2.254-1.413 1.146-1.76-.666-2.074.14-1.773-1.48-.333-.007-.94.733-.96.114-.234.233-.213 1.647-2.88-.427-.293.193-.387 1.407-1.633.133-2.767 5.12-2.587 3.84.52 1.08-.426.774-1.494-.04-.253.16-1.107 2.593.1 3.447 1.047 1.36-.52 2.773-1.347 1.653-.566 1.087-.867-1.167-.387-.046-3.246 2.793-2.067.527-2.107-1.134-.566-2.513-.514-5.7 1.427-1.54 4.367-2.18 3.346-2.78 7.087-9.227 7.32-5.8 3.567-1.273 2.893.08 2.46-2.427 2.993.127 2.914-.593Zm-4.594-31.58 2.84 1.167-2.066 1.7-4.734.433-4.72-.6-.246-.873-.247-.194-2.293-.066-1.387-1.334 4.58-.96 2.6.874 1.593-1.094 4.087.934Zm-1.906 9.26-2.967 1.16-2.36-.66.747-.6.033-.387-.707-.813 2.814-.593.726 1.313 1.714.58Zm-10.167-6.593 4.953 2.513-3.606 1.24-1.054 2.72-1.506.8-.747 2.74-1.74.12-3.193-1.907 1.226-1.026-.066-.454-2.46-1.02-3.18-3.006-1.154-2.594 4.074-1.213 1.026 1.28 2.38-.053.8-1.307 2.214-.12 2.033 1.28Zm5.213 204.413-.646.027-.254.266-.046 5.934-1.394.053-.26.267v11.613l-1.32.82-.78.113-1.626-.44-.32-.753-.66-.493-.36.033-.6.673-1.02-1.12-.62-1.253-1.327-5.707-.04-2.08-.22-1.013-1.533-2.227-1.274-3.22-1.306-1.62-.08-1.046 1.553-.527.953.047 1.207.753 6.82-.167 1.227.82 3.913.234Zm.267-.013 4.34-1.067 1.267.26-1.127.267-.873.553-.747-.627-2.86.614Zm242.92-5.227.147.76-.294.02-.133-.967.28.18Zm-.173 12.293-.22.147-1.934-1.167-2.173-2.246 1.1.553 3.233 2.713Zm-256.02-76.473.886.913.32.047.847-.467.353 2.347.627.553.113.614.54.46-.293.633-.64 3.507-.087 2.146-2.026 1.54-.814 2.38.68.827v.973l.26.267.754.027-.6.833-.98-1.613-.574-.194-1.393.914-1.16-.447-.967-.113-.566.233-.907-.047-1.093.727-.707.033-1.96-.853-.96.393-.673-.02-.647-.626-1.8-.654-1.793.2-.58.427-.314 1.067-.5.773-.08 1.02-1.046-.733-.874.16.02-.54-.213-.274-1.727-.346-.1-.774-.9-1.066-.193-.667.087-.56.86-.053.72-.614 2.206-.146 1.48-.274.214-.226.133-.98.927-1.254-.007-3.773 2.24-.747 4.827-3.413 5.613-3.28 2.46.707Z"/><path d="m304.213 222.358.427.433-.187.694-1.406 1.34-1.354 3.453-.913.773-.767 2.12-.886.44-.974-.646-.806.106-.92.907-.607.16-1.193 2.707-1.554.54-.74-.047-.573.333-1.14-.033-.793-.927-.594-1.26-1.18-1.106-2.633-.054.047-3.473.28-.953 1.3-1.534-.094-.606.287-.787-.353-.94.166-1.947.48-.713.214-.893.306-.26 1.647-.187 1.56.593.767.68.853.027.813-.387 2.02.847.994-.093.906-.667.887.047.547-.234 2.3.534 1.213-.88 1.227 1.78.44.106Zm267.654 83.84 1.24 2.08.293.12.2-.253.02-.82.253.18.38 1.54 1.347.626 1.207.18 1.046-.706.467.12-.767 2.393-1.32.073-.493.8.133.74-1.613 2.654-.993.613-.694-.567.807-1.366-.54-1.34-1.753-.834.026-.38 1.214-.793.286-1.56-.106-1.353-.634-1.214-.04-.48-2.073-2.426-.527-1.014 1.04.967 1.174.44.433 1.56Zm-2.647 9.293.38.827.393.107.947-.647.307.527v.686l-1.647 2.32-.84.8-.04.334.367.58-.94.046-1.554.92-1.353 3.347-2.013 1.44-1.374-.04-1.14-.693-1.646-.134-.18-.486.813-1.4 2.033-1.96 1.08-.394 2.68-1.88 1.047-1.113.713-1.44.587-.467.32-1.166.827-.647.233.527Zm-141.793-119.98.006 2.127-1.16.027-3.2-.574-1.053-.926-2.247-.227-5.1-2.467.534-1.393 1.553-1.133 1.18.5 1.66 1.173.92.273.66.9 1.267.347 1.326.78 3.66.6Zm-112.247-27.32-.72-.86.64-.513.193-.553 1.32 1.093-.24.447-1.193.386Zm-43.58 57.754.573.28.374.6.753.353.793-.407.647-.053.947.36.4 2.16-.687 1.387-.433 1.893.706 1.553-.04.354-1.693-.314-1.107.02-2.04.307-2.74 1.067.214-2.04-.787-.874-.88-.44.28-.566-.133-.934.333-.446.007-1.06.56-.214.173-.333-.767-2.007.08-.333.34-.167.44.207 1.287.013.447-.473.473-.093.167.46.38.146.933-.406Zm24.813-68.614-.193.58.12.354.753.386.667.067-.067.433-.526.254-1.147-.247-.3.153-.3.694-.5.04-.56-.267-.88.667-.64.08-.587-.367-.54-.867-.326-.106-.42.173.013-.433 1.14-1.107.067-.373.62.053.386-.307 1.327.014.44-.407 1.46.527Zm-135.033 65.72-1.133.394-.394.786-1.133 1.127-.253 1.287-.447.953.207.38.686.087.167.6.38.426-.027 1.56 1.094.947 2.106-.16.84.187 1.114 1.373.273.087 2.727-.26.3.146-.614 1.3-.133 1.2.347 1.22.5.7-.747.734.047.42.56.34.493.86-.26-.3-.393-.007-.474.493-3.14-.033-.266.273.02 1.047.22.26.74.133-1.12.267-.194.253-.006 1.214.773.76.227.833-.7 4.7-.694-.58.84-1.327-.086-.373-1.454-.82-.92.133-.76-.253-.846.407-1.034-.174-.92-1.64-.82-.5-.566-.8-1.114-.793-.573.087-1.407-.88-.673.206-1.2-.193-.347-.607-2.06-1.12.514-.346-.067-.747.273-.427.894-.213 1.333-1.92-.073-.38-.44-.287.26-.92-.347-1.4.327-.553-.267-1.42-.647-.9.114-.44.573-.053.313-.5-.306-1.087.94-.047 1.2-1.126.62-.16.2-.254.3-1.84.813-.666.96-.027.3-.333 1.273.08 1.954-1.227.766-.76.607.307-.167.3Z"/><path d="m493.487 152.411 3.046.867 1.867 1.447.653 1.933.254.18h2.533l1.547-.853 2.193-.5-.64 1.393-.68.853-.567 2.267-1.013 1.82-1.84-.333-1.6.753-.14.3.427 1.713-.214 2.134-.626.04-.247.593-.607-.673-.426.046-.614 1.047-2.486.833-.174.32.174.707-1-.053-.727-.574-.373.04-1.114 1.374-1.8 1.04-1.353 1.253-2.267.553-1.286.934-.767.226.22-.466-.273-.594 1.193-1.193.013-.36-.88-1.04-.32-.067-1.493.727-1.887 1.373-1.006 1.22-1.52.087-1.034.993-.026.334.88 1.313 1.333.387.207.9 1.32.56 2-1.307 1.333.68.993.073.147.554-2.247.573-.746.987-1.667 1.013-.86 1.327.093.373 1.714.987.646 1.8 2.114 3.086-.02 1.107-.9.433-.134.34.4.98.934.607-.594 2.547-.953.253-2.567 4.293-1.513 2.074-4.52 3.046-1.82.194-.967.693-.413-.407-.367-.006-.906.833-2.26.847-1.74.266-.734 1.86-.54.06-.326-.946.333-.567-.167-.393-2.24-.56-.866.266-1.54-.413-.627-.56.22-.853-.2-.327-1.46-.307-.753-.62-.314-.013-1.373.907-2.86.186-1.84.7-.187.287.214 1.687-.394-.02-.126-.894-.367-.226-1.12.466-1.64-.82.413-1.246-.173-.34-.913-.294-.36-1.48-.3-.2-1.42.234.16-1.654 1.593-1.6.02-2.873-.793-.613-.52-.994-.274-.14-.94.127-1.32-.2.307-.713-.78-1.134-.367-.073-1.086.7-1.5-.38-1.927 1.153-1.5 1.32-1.167.194-.78-.474-2.206-.433-.987.527-.693.846-.08-.78-.36-.226-.96.36-3.7-.574-1.32-.773-1.26-.36-.66-.9-.894-.247-1.7-1.193-1.34-.56-.806.373-3.714-2.3-.353-1.54.793.167.32-.247.054-.946-.654-1.04.1-1.627-1.793-2.213-2.747-.82-.446-1.334-1.28-.986-.254-.467-.34-2.007-1.013-.44-.467.087-.32-1.367.367-.34-.06-.546 1.353-.794 1.067-.36 1.707.254.28-.147.566-1.133 2-.22.734-.84 2.7-1.18.26-.607-.114-.96.967-.447.133-.346-1.38-3.267 3.007-.747.913-.486 1.26-3.674 3.32.574L424 157.31l.073-1.913 1.327-.253 1.22-1.374.327-.086.453 1.386 1.487 1.18 2.293.774 1.033 1.526-.613 2.327.64 1.113 4.36.754 1.967 1.246.98.234.706 1.746 1.02 1.274 2.034.053 3.426.447 2.247-.274 1.573.287 2.434 1.2 2.04.027.966.586 1.914-1.06 2.633-.68 2.553-.093 2.04-.76 1.18-1.067 1.147-.673.113-.327-.733-1.366.68-1.027 2.68.533 1.633-1.073 2.507-.793 1.307-1.42 1.086-.554 2.34-.266 1.28.226.307-.2.113-1-1.513-1.48-1.407-.726-1.453.74-1.547-.314-.86.214-.266-.547 1.82-3.44 2.013.707 2.353-1.374.12-1.12 1.44-2.233.994-.9-.02-1.233-.714-.567 1.027-.84 1.987-.393 2.153-.06 2.427.66 1.36.773 2.193 4.473.613 2.127Zm-28.874 58.894-1.246.72-1.087-.427-.04-1.193.687-.654 1.72-.46.773.034.2.36-.653.706-.354.914ZM305.28 224.758l.7 1.273-.933.107-.7-.153-.3.146-.36.794.053.3.987.98.7.3.673 1.64-1.013 1.993-.454.453-.086 2.46 1.586 2.56.727.534.16 1.653-2.447-.76-7.513-.087.153-1.193-.653-1.107-.793-.36-.294-.646-.4-.28 1.14-2.847.5-.087.92-.906.434-.02 1.14.66 1.286-.747.76-2.12.92-.78 1.334-3.427 1.446-1.42.2-1.093-.573-.587.02-.22.627.854.046 2.146Zm-140.947 114.46-2.093 1.22-.38 2.107-.427.033-1.786-.707-1.88-1.553-2.027-1.26-.46-1.233.42-1.427-.807-1.407-.206-3.58.673-1.94 1.713-1.586-.12-.454-2.106-.513 1.366-1.647.514-3.1 1.546.6.36-.193.874-4.207-.147-.293-1.12-.533-.373.186-.467 2.24-.54-.146 1.04-6.274.767-1.493-.474-1.88-.12-1.893.674-.22 2.173-6.094.713-2.813-.373-2.807.493-1.56-.193-2.18.973-2.226 1.36-11.06-.44-5.174.687-.353.36-.6.527.76.213 1.187.833.773-.46 1.7.887 1.933.647 2.394.306.193 1-.2.074.153-.507 1.627-1.713.82-.154.247.054 2.886-.307.514.373.806-1.053 1.007-1.12 1.747-.593 1.646.133 1.8-.987 1.82.747 3.394.427.406-.007 1.527-.92 1.787.007 1.6-1.26 1.36.013 1.833.46 1.713-.953.754-.84 3.786.26 2.34-.647.594.387 2.333.68.76-.434.68.1.38.667.353.107.46-.687.567.173 1.167-.593 2.686-.873 1.774.16 1.166-.474 1.22-1.326 1.134.2 2.446.586.794 1.054.006.006 1.474.694 1.3 3.986.42Zm1.46 1.073v4.887l.267.267 2.347.033-.294.5-1.293.653-1.66-.246-1.253-.707-1.7-.327-3.727-2.473-1.587-1.753 2.734 1.653 2.213.82.3-.08.86-1.047.553-1.546 1.367-.827.873.193Zm170.814-158.613.226.007.18-.047-.193.173-.207-.133Zm-149.9-31.513-1.114 1.92.047.326.333.027.974-.653.666.28-.373.48.113.413 1.48.593.9-.473 1.3.52-.44 1.34.334.34.88-.28.653 2.113-.607 1.607-.533.053-.82-.3.313-1.5-.593-.553-.32.04-1.853 1.753-.227-.013.68-.567-.093-.46-1.6-.513-4.934.053-.113-.273.867-.627.013-.426-.487-.387 1.234-1.16 1.713-3.44.98-1.193 1.327-.7.306.04-1.02 1.633Zm-141.16-47.627 2.753.633 2.68 1.427 1.74.267 1.647-1.26 1.92-.874 2.566.32 2.474-1.293 2.546-.693 1.04 1.12.327.053 1.247-.693.433-1.32.827.233 2.773 2.627.36.006 1.833-1.66.174 1.727.326.233 2.054-.486.693-.847 1.82.153 2.553 1.24 3.907 1.074 2.313.5 1.627-.174 1.82 1.187-1.987 1.207-.126.273.206.213 3.02.614 4.58-.334 1.334-.46 1.66 1.594.353.013 1.813-1.44-.013-.427-1.44-1.026.767-.707 3.22-.407 1.226.634 1.654 1.54 2.006-.154 3.034 1.28 2.566-.446 2.407.066.273-.293-.166-1.573 1.193-.407 2.327.88-.007 2.513.207.26.3-.146.986-2.107 1.16.067.274-.2.753-2.914-1.853-2.073-1.867-1.16.127-3.093 1.806-2.047 1.987.447 1.607 1.3 2.126 3.2-1.326 1.313.14.453 2.886.56-.006 2.767.166.247.294-.06 2.046-2.1 1.694 1.593-.407 2.22 1.613 1.92h.407l1.74-2.053 1.253-2.547.114-3.053 4.48.626 2.086 1.36.087 1.214-1.173 1.46-.007.326 1.107 1.44-.174 1.14-3.12 1.867-2.186.407-1.647-.8-.367.153-.486 1.36-1.587 2.287-.493 1.18-1.827 1.713-2.293.167-1.474 1.186-.186 1.687-1.88.367-2.08 2.146-1.814 2.874-.686 2.113-.094 2.873.22.274 2.294.38 1.493 3.966.3.154 2.267-.46 3.013 1.006 1.62.874 1.273 1.153 2.067.64 1.747.973 4.4.36-.234 1.827.54 2.353 1.207 2.52 2.553 2.2.3.027 1.4-.853.914-2.46-.874-3.587-.966-1.053 2.38-.98 1.893-1.64 1.013-1.867-.166-1.7-1.134-2.047-1.9-1.74 1.867-2.633-.72-2.247-.527-3.78.907-.466 4.507.94 1.413-.64 3.413 2.24.7 1.073 2.72.173-.04 1.914.554 3.133.2.213 1.44.36 1.153 1.374.333.06 2.42-1.354 1.68-2.793.84-.88 5.067 7.813-.613 1.36.106.34 2.2 1.314 1.48 1.32 2.734.653.953.66.633 1.86 1.4.453.56.72.114 2.3-2.247 1.507-2.813.827-2.04 1.753-2.707.34-3.567-.46-4.26.133-1.533 1.607-2.173 1.007-4.314 4.766-.04.32.294.127 1.42-.347 2.78-2.826 3.413-1.747 2.347-.2 1.126.807-1.413 1.473.54 2.313.68 1.74 2.313 1.067 2.76-.3 1.434-1.867.173.987.76.533-1.707 1.127-3.666 1.213-1.694.847-1.826 1.433-.934-.106-.046-1.34 2.76-1.627.12-.3-.26-.193-4.42.3-.927-.994-.093-2.953-.74-.607-1.214.26-.44-.44-.4.02-1.273 1.594-.547 1.68-.533.846-1.113.374-.307.506-5.54.047-.807.413-1.566 1.314-.474-.094-.913.64-.747-.32-3.16.84-.6.78.14.414 1.154.2-1.207.206-1.233.54-1.407-.086-1.967 1.186-.46-.06.927-1.4 1.153-.806.067-1.527.773-1.327.327.354 1.353.28.8-.774.014-.313-1.774-2.34-1.52-.407-3.76-.473-.266-.38-.527.087.133-.274-.146-.366-.454-.174.127-.84-.52-.486.207-.427-.194-.38-1.733-.293-.5-1.087-.627-.44-2.873-.433-.753.793-.987.393-.567.707-1.886-.507-1.394.26-1.593-.646-2.827-.467-.38-.267-.273-1.086-.267-.2-.566.013-.26.267-.007.566-46.087-.006-4.34-3.014-3-.92-.84-1.773.22-1.287-.153-.286-2.007-.9-.366-1.847-1.927-1.587-.027-.966.927-1.22-.187-1.7-2.773-1.467-2.713-4.4-2.68-2.147-.867-1.253-.333-.087-1.674.807-1.486 1.247-2.567-2.587-1.627-.693-1.48-.087.02-24.993Zm128.033 49.66 2.027.507 1.506.8-2.52-.634-1.02-.673Zm-7.313-96.56 4.453.327 3.547.526 2.84 1.047-.047.733-3.9 1.687-4.013.807-1.594.926-.12.3.26.194 2.674-.014-3.1 1.88-2.8 1.16-2.794 3.06-3.353.614-1.113.766-4.98.394-.247.246.213.28 1.607.327-.54.313-.08.394 1.22 1.606-1.347 1.06-2.54 1.007-.88 1.44-2.253 1.02-.147.32.234.793.266.194 2.587-.12.02.406-4.22 1.967-4.273-.933-4.954.526-2.48-.413-2.933-.167-.153-1.22 2.86-.74.186-.34-.733-2.3.667-.166 4.386 1.52.314-.107-.034-.327-2.273-2.3-2.387-.653.987-1.033 2.893-.86.647-1.46-.107-.32-2.28-1.42-.54-1.507 4.134.147 1.493.386 2.607-1.4.133-.286-.233-.214-3.76-.446-5.82.24-2.84-1.267-1.414-1.6-1.853-1.107-.273-1.013 2.206-.687 1.954-.133 3.273-.66 2.467-1.513 1.913.2 1.747 1.113.373-.093 1.213-2.134 2.087-.626 2.96-.46 5.02-.174.987.447 4.793-.707 7.2.527ZM135.9 91.458l.007.28 1.313 1.98.453-.013 1.494-2.48 3.966-1.24 2.674 3.093-.234 1.94.334.287 3.3-.907 1.546-1.2 3.54 1.52 2.18 1.407.2 1.226.32.22 2.947-.66 1.76 1.914 3.98 1.18 1.373 1.146 1.407 2.474-2.793 1.24-.007.486 3.933 1.887 2.627.627 2.52 2.633 2.307.167-.42 1.58-2.74 2.98-1.84-1.04-2.6-2.627-2.394.273-.22.227-.126 1.813 1.753 1.587 2.28 1.26.627.647 1.033 2.5-.467 1.526-1.826-.613-4.167-2.1-.34.087.033.346 4.047 3.794.12.393-4.06-.927-3.54-1.493-1.753-1.107.4-.513-.08-.4-4.927-2.673-.393.246.02.527-4.487.4-1.127-.733.907-1.64 3.007-.047 3.433-.347.207-.4-.494-.866.52-1.227 2.14-2.7-.446-1.567-.74-1.066-2.56-1.4-2.9-.854.606-.42.04-.406-1.766-1.834-1.56-.24-1.26-.973-.354.02-.826.82-2.907.367-6.027-.66-6.173-1.32-1.067-.814 1.48-1.18.087-.293-.253-.18-2.147-.013-.48-2.834 1.22-2.693 1.613-1.233 3.667-.734-.927 1.567Zm38.227 67.86 1.38.407.96-.027-.767.42-1.96-.82-.267-.453.24-.247.407.713Zm-20.24-49.96-1.58.12-.327-1.087.62-1.393 1.293-.34 1.08.66.014 1.013-1.107 1.027Zm-.934-17.427.074.434-3.247-.14-1.813.413-2.067-1.713.053-.84.574-.154 3.713.34 2.72 1.667ZM148 123.111l-.48.994-.42-.127-.32-.56.54-.66.433.033.247.307Zm-25.507-44.466 1.934 1.133 3.193-.007 1.227.974-.327 1.12.153.32 1.88.76 1.174.84 4.673.433 2.733-.733 3.354-.287 2.62.233 1.653 1.18.307 1.134-.867.733-2.373.673-2.154-.393-4.78.507-3.393.06-2.66-.4-4.28-1.027-.527-1.673-.2-1.66-1.76-1.667-3.546-.48-1.68-.933.453-1.047 3.187.207Zm15.76 35.353.267 1.04.373.173.707-.346.88.64 3.613 1.713.134 1.12.306.233 1.12-.186.767.566-1.033.58-2.407-.586-.88-1.127-.38-.04-1.633 1.4-2.08 1.193-.467-1.246-.28-.174-1.44.16.927-.926.213-2.094.507-2.233.786.147Zm5.407 7.5-1.78 1.3-.933-.047-.2-.386 1.02-.987 1.893.12Zm-8.527-52.32 1.687 1.06-1.913.933-3.02 2.7-2.834.254-3.353-.454-1.633-1.36.02-1.08 1.213-.913.093-.3-.253-.18-2.967.027-1.726-1.174-.94-1.526 1.046-1.547 1.08-1.107 1.627-.26.167-.433-.4-.493 3.24-.167 2.16 2.073 5.44 1.534 1.266 2.406ZM124.98 92.565l-1.84 2.326-1.587-.1-.96-2.56.027-1.466.793-1.254 1.534-.82 3.38.114 2.74.68-2.16 2.48-1.92.593Zm-.933-6.94-.72 1.02-2.227-.227-1.707-.733.687-1.167 2.167-.82 1.3 1.053.5.867Zm-.24-8.98-3.534-.134-.213-.473 2.873.047.867.56Zm-3.354-1.894-2.226.667-1.194-.733-.653-1.247-.1-1.153 2.733.353 1.78 1.133-.34.98Zm.147 29.22-.733.72-2.087-.82-1.413.287-1.807-1.047 1.147-.726 1.033-1.147 2.54 1.267 1.32 1.466Zm-7.44-14.293 1.973.647 2.78-.38.274.586-1.427 1.407.06.427 2.367 1.28-.267 2.48-2.527 1.1-1.446-.234-1.147-1.16-4.013-2.333.02-.567 3.12.36.266-.14-.033-.3-1.653-1.873 1.64-1.3Zm3.14-9.42.913 1.153.047 1.627-.7 2.3-2.527.313-1.546-.46.033-1.76-.293-.273-2.454.233-.08-2.066 1.634.066 2.446-1.153 2.274.193.246-.173Zm-2.933-6.127.446 1.04-2.22-.326-2.813-1.18-2.9-.107.933-.627-.04-.466-1.873-.82-.08-.927 2.927.453 4.413 1.32 1.207 1.647Zm-23.7 17.72-.68 1.214.3.386 3.6-.926 2.22 1.526.326-.02 1.734-1.486 1.293.88 1.333 3 .467.04.867-1.527-1.087-2.973 1.127-.36 1.54.473 1.766 1.207 1.66 5.28 5.654 2.846-.127.9-2.527.22-.173.447.933.993-.386.734-2.82-.427-2.954-.793-2 .186-3.106.98-7.014.694-.953-1.347-2.28-.8-1.473.287-1.674-1.907 3.227-.7 2.4.127 2.18-.52.207-.26-.207-.26-3.227-.707-5.86.18-.566-.713 3.506-1.107.18-.3-.266-.227-2.534.04-2.54-.706 1.207-2.007 1.107-1.193 4.32-1.874 1.313.474Zm16.133-1.013-1.133 1.627-2.134-1.834.247-.2 2.073-.12.947.527Zm-6.06-9.253.673 1.26.334.12 1.426-.547 1.487.127.24 1.36-.887 1.393-5.52.507-4.233 1.433-2.273.067-.127-.64 3.267-1.387.153-.307-.273-.206-7.5.393-1.927-.493 2.027-2.96 1.426-.88 4.54 1.126 3.054 2.04 2.913.26.24-.42-2.24-3.066 1.233-1.02 1.454.34.513 1.506Zm-3.233-5.547-2.907.96-2-.933.973-.827 2.314-.347 1.973.474-.347.673Zm.246-3.053-1.266.44H93.04l1.513-1.074 2.2.634ZM79.28 96.958l-4.02 1.347-.887-1.267-3.586-1.52 1.726-3.367 1.44-2.093-.013-.32-1.313-1.607 5.093-.466 2.4.68 4.2.18 2.947 1.966-1.687.654-4.16 2.286-2.067 2.187-.073 1.34Zm7.08-20.173-.187 2.246-1.146 1.08-1.554.187-3.073 1.46-2.573.507-1.76-.58 2.48-2.267 3.34-2.227 2.48.047 2-.447Zm-12.3 78.106-.447.16-2.566-.913-.554-.78-1.413-.713-.44-.68-1.6-.367-.493-1.14 4.013.967 1.333 1.7 1.68.926.487.847Zm-15.527-12.033.594.193 1.24-.14-.434 2.227 1.127 1.553-.873-.886-.66-1.08-.78-.654-.22-1.213Z"/><path d="m311.147 237.418-.067.687-.833 1.98-.127 2.413-.307 1.187-.153.42-1.073.793-.807.927-.727 1.62.027 1.393-2.167 2.16-.333-.16-.333-.553-.907-.014-.653.594-1.12-.66-1.027.826-1.013-1.306 1.046-.76.074-.347-.514-.9 1.4-.44.26-.487.7.547 1.474.073.746-.913.247-1.207-.18-1.393-.753-1 .666-1.793-.086-.3-.614-.387-1.066.113-.34-.626.066-.407 1.834.06 2.646.827.34-.22.114-.854.826-1.473.854-.76 1.84.327Z"/><path d="m307.44 238.565-.173-.794-.727-.513-.56-.78-.193-.667-.694-.766.054-2.287.386-.327.774-1.566 1.233-.114.407-.413.646.387 2.1-.64 1.654-1.28.013-.64 1.873.013 1.574-.78 1.286-1.9.774-.62.74-.2.18.573.893.98-.26 1.34.2.674 2.673 1.833.114.62 1.753 1.54.4.96 1.387.933-2.56-.14-1.294.587-.82-.327-1.78.8-.86-.12-.34.24-.4.814-2.233-.434-1.047-.606-1.613-.554-.967.607-.646.847-.174 1.04-2.146-.287-.994.887-.626 1.08Z"/><path d="m324.673 234.685 1.56-.094.9 1.227.894.3.573-.26.807.08.713-.273.36.593 1.36 1.027-.093 1.813.466.36-.92.753-1.02 1.694-.113 1.366-.393.72-.014 1.147-.48.56-.44 2.007.42.88-.293 2.84.427.98-.247.813.573 1.2 1.02.94.2.84.294.333-2.72.5-.614 1.207.34.893-.493 3.62.113.254 1.634.973.36-.067.08 1.08-.854-.006-1.233-1.567-1.293-.3-.32-.753-.367-.134-.94.494-1.14-.2-.673-.787-1.66-.127-.294-.513-1.32-.14-1.92.24.074-1.607-.567-.753-.107-.907.214-1.153-.307-.593-.027-.994-.266-.26-1.687.014.067-.274-.26-.326-.854.006-.286.3-1.08.214-.554 1.193-.726-.187-1.6.347-.914-1.273-.866-2.2-.254-.18-4.926-.02-1.64.28.333-.3.247-.98.44-.254.613.054.487-.547.58.013.206.454.934.24 2.393-2.42.007-1.487.68-1.527 1.793-1.593.287-.66.326-1.307.114-2.34.833-1.966.24-2.094.573-.753.734-.44 2.38 1.153 2.433.487.307-.14.533-.973.827.126 1.74-.78.54.294.693-.02.393-.44.467-.107 1.207.167Zm-19.033-85 .813.673.98.153.087.62.907.454.36-.134.16-.366.766.166.354.727 1.12.12.4.56-.694.487-.64.853-1.066.113-.367.374-.693-.307-.7.1-1.414-.64-.7.227-.8.746-1.04-.58-1.713-1.4-.353-1.253 3.133-1.68.473.173.6-.186Zm30.6 32.393.287.187-.854.38-.613-.187-.16-.307 1.34-.086Zm-195.347 43.053.32.66 1.067 1.067-.36.3.193.947-.166.793-.727-.393-.033-.834-1.64-.946-.187-.514-.44-.3h-.3l-.073.694-.88-.634.206-.866-.24-.4.207-.18.947.386.86-.093.373.373.493.114.367-.18Zm6.58-20.533.847.68 1.46-.187 2.953 2.22 1.387.287-.067.253.24.334 1.167.066.987.56-2.074.34-2.766-.02.513-.446-.027-.427-.8-.493-.993-.107-.467-.407-.373-.933-.267-.167-.893.067-1.467-.44-.586-.387-2.12-.266-.18-.107.386-.493-.24-.194-1.813-.033-1.133.86-.607.02-.407.46-.673.147.74-.86.673-.347 2.46-.673 2.654.14 1.473.56Zm186.094 82.74.333 1.36-.253.593-.7.14-.82-.8-.014-.426.554-1.047.893.18Zm7.1-101.047.033-.886.36-.907.853-.66.087-.3-.273-.74-.76-.24-.127-1.16.347-.667.86-.806.133-.787.393.153 1.747-.506.907.346 1.373-.006 1.967-.72 2.166-.174-.446.627-.854.44-.14.267.154 1.34-.587 2.126-6.767 3.82-1.433-.566Zm73.566-18.313-2.58 1.127-.64.786-2.026.227-.754 1.24-1.573-.233-1.327.42-1.593.933.04.633-.267.247-3.013.287-2.013-.62-1.58.113.073-.527 1.547.28.753-.586 1.327.133 2.14-1.427-.02-.46-1.98-1.046-1.294.433-.813-.493 1.14-1.054-.08-.446-.24-.1.213-.514.907-.233 2.68.68.327-.2.233-1.06.727-.32 2.28.813.74-.206 5.093.26.773.666.82.26Zm-76.726 74.913 1.246-1.706.62-1.434-.92-2.72-.706-1.066 1.88-1.834.526.174.08.94.574.553 1.266.073 2.187 1.42 2.38.294.7-.747 1.307-.6.546.453.774.06-1.187 1.634.02 6.08.867 1.293-.914.52-.446.687-.72.306-.227 1.114-.54.713-.3 1.033-.453.374-2.134-1.487-.233-1.053-5.907-3.32.094-1.067-.38-.693Z"/><path d="m321.14 228.658.713-.48.8-2.12.907-.173 1.073 1.326.58.227.734-.273 1 .046.38.354h1.66l.293-.42.713-.267.3-.56.394-.22 1.266.887 1.067-.134 1.887-2.22-.214-1.473 1.06-.347-.16 1.067.2 1.22.9.787.134 1.246.233.274.013 1.02-.153.313-.947.167-.566.96.2.4.933.106.74.72.393.754.687.353.853 1.573-2.94 2.654-1.16.006-1.26.367-.98-.347-.766.38-1.974-1.746-.866.326-.707-.1-.527.26-.546-.146-1.2-1.8-1.274-.734-.44-1-1.746-1.546-.12-.627-1.58-1.067Zm-132.393 4.567 1.4.353-.72 1.3.133 1.147.62.993-.393 1.353-.287.474-.747-.28-.88.146-.62-.133-.306.173-.167.487.22.467-.593-.087-.927-1.313-.207-.894-.646-.206-.594-.98.234-1.074.966-.546.22-1.247 1.74.293.38-.313 1.167-.107Zm270.933-13.867.327.967-.187 1.826-2.667 1.24-.106.4.453.634-1.373.113-1.367.647-1.213-.214-1.414-2.466-.366-1.9.933-1.234 2.013-.3 1.487.234 1.34.653.34-.093.633-.987 1.16.493Zm-329.147.493.934-.793 1.493.967.653-.18.294.133-.18.7-.76-.02-2.427-.807Zm187.347-65.973-.76 1.267-1.82-.614-.547.134-.493.533-2.307.487-.313.46-1.173.22-1.254-.667-.12-.54.254-.5 1.246-.213 1.16-1.26.554.106.526-.226 1.007.693.893-.42.834.2 1.1-.28 1.206.633Zm173.793 23.113.654-.066.58-.78 1.793-.214.22-.193 1.173 1.86.387 1.173.013 2.08-.533.88-1.473.367-1.287.753-1.2.127-.133-.733.286-1.52-.633-1.707.953-.247.154-.413-.954-1.373ZM304.12 161.145l-.34-.88.12-.7 1.127.133.946-.473 1.394-.047.413-.34.14.313-1.073.447-.294.893-.44.16-.173.547-.813-.327-.56.307-.46-.027Zm187.06 15.393-.613-.28-.587.413-.807-.586.64-.767.394-1.727-.307-.493-1.393-.513 1.093-1.014 1.813-1.053 1.054-1.273.74.52 1.446.073.274-.333-.2-.814 2.346-.786.627-.934.653.72-1.46 1.454.007 1.426-.707.36-.94.934-1.133.346-.833.727-.094 1.32.627.3.767.693-.087.174-1.733.193-.754.86-.813.053Zm-130.64 15.167.247.573-.114.507.4 1.02-.633.026-.547-.853-1.046-.12.873-1.253.813.113Zm-100.48 26.866.08 1.034.327.973.64.547.033.853-.84-.127-.5.22-1.227-.406-3.893-.087-1.693.34-.147-.687 1.18.027 1.34-.607.687.32.726.027.86-.413.094-.387-.34-.493-1.207.166-.753-.42-.527.027-.48.407-1.54.04-.613-1.18-.54-.427.426-.233 1.64-2.494.694.127.92-.373.793-.014 1.813.914 2.02 2.32Zm2.913 10.6-1.153 1.32-.387.887-1.38-.707-.813-.84-.433-1.593.773-.64.447-.78.806-.347h1.107l.687 1.094.346 1.606Zm105.56-60.813.307-.847-.32-.7-1.973-.793-.707-1.72-.913-.58-.02-.2 1.3.153.3-.253.053-1.307 1.167-.273 1.4.3.32-.22.3-2.027-.3-1.393-.274-.207-1.613.1-1.573-.486-1.914.913-1.446.407-.567-.227.087-1.073-1.067-1.414-1.347-.053-1.186-1.213.86-1.454-.38-.633 1.08-1.94 1.473 1.087.42-.18.193-1.48 3.28-2.287 2.474-.053 5.6 2.4 1.946-.907 2.514-.04 2.073 1.107.34-.074.4-.54 2.207.087.26-.167.42-1.046-.114-.334-2.333-1.32 1.247-.846-.087-.687 1.32-.48.12-.413-1.06-1.374.54-.546 6.153-.787.887-.587 4.12-.84 1.507-.946 2.72.453.486 2.22.34.2 1.654-.533 1.86.68-.114 1.04.287.293 1.7-.16 3.26-1.687.02.214 2.1 1.74 3.707 5.646.433.014.747-.974 2.1 1.16 2.506-.52.767.327.76 1.2 1.227.507.66.86 2.233-.167.68 1.013-1.067 1.207-1.286.187-.227.253-.073 2.033-.754.774-3.166-.667-.307.18-1.173 3.647-.734.393-3.273.82-.18.36 1.4 3.313-.913.42-.154.274.087.753-.587-.167-.946-.753-5.26-.267-.614.207-2.486-.813-.947.42-.353 1.106-2.48-.626-1.234.286-.506.934-3.1 1.746-.754 1.387-.293.007-.613-.934-1.914-.06-.3-1.426-.253-.214-.533-.006v-1.974l-2-1.48-4.874.387-1.566-1.787-4.474-2.46-4.3 1.22-.193.26.067 7.234-.467.053-1.08-1.447-1.22-.64-2.073.394-.427.34Zm-10.18 24.967 1.334.16.6.88.993-.04.58 1.386.86.507.34.66 1.04.687-.067 1.266.214.6 1.053 1.647.507.353.466-.026 1.12 2.82 5.02.886.34-.193.514.833-1.034 3.247-4.86 1.68-4.866.687-1.56.78-1.254 1.826-.506.187-.547-.52-.607.08-1.92-.34-2.34.167-.573-.374-.38.1-.44.847.107.74-.287.213-.62-.933-.22-.773-.82-.587-.847-1.373-.52-1.48-1.153-1.194-.76-.32-1.027-1.54-.14-2.273-.96-1.953-.846-.774-.887-.38-.873-2.246-.514-.447-.646-1.313-1.867-2.687-.707-.113.247-1.307.133-.48 1.827.2.72-.56.4-.627 1.16-.233.433-.687.474-.266.066-.414-1.373-1.52 2.927-.813.32-.247 1.846.46 2.44 1.267 4.687 3.667 3.247.2Zm-38.206-80.694-2.687.78-1.62 1.907.173 1.713-5.846 4.427-1.187 3.86 1.187 1.787 1.48 1.306-1.38 2.514-1.814.753-.633 4.027-.86 2.006-1.827-.206-.266.146-.874 1.727-1.56.087-.5-2.06-1.386-2.687-1.22-3.307.666-1.286 1.427-1.8.553-2.967-1.066-1.447-.1-3.293.986-2.26 1.72-.1.58-1.06-.52-1.047 2.507-3.726 2.693-4.987 1.447.007.26-.194.38-1.38 2.913.427.307-.227.22-1.706.733-.087 4.627 3.247.04 4.213.44.907Z"/><path d="m337.32 226.031-.227-.513-.78-.6-.173-1.073.193-1.207-.226-.307-.774-.113-.36.393-.82.074-.186.433.353.433.113.814-1.626 2-.64.126-1.594-.933-.633.347-.253.52-.74.273-.194.333h-1.293l-.36-.346-1.207-.06-.633.266-1.633-1.566-1.38.36-.487.84-.4 1.4-.833.386-.5-.413.18-1.767-.987-1.186-.147-.987-.613-.64-.013-.86-.38-.773-.454-.107.46-.86-.12-.76.434-.413.02-.367-.24-.273 1.033-1.98 1.273.106.287-.266-.067-7.294 1.66-.006.267-.267v-3.213h19.347l.426 1.36-.326.44.24 1.793.62 2.107 1.413 1.033-.593.693-1.147.26-.653.6-.954 3.767.16.767-.253 1.373-.64 1.587-1.02.873-.88 1.94-.813.573-.247.894ZM161.2 212.565l.033-.434-.306-.486.28-.294.126-.666-.06-1.02 1.107.006 1.327.42.22.447.853.127.22.506.667.054.533.413-.3.34-.753-.313-1.254-.007-.846.393-.5-.366-.674.36-.526.933-.154-.407Zm191.087 11.32-.3.44-.387-.167-1.007.087-.12-.674.967-1.3.553.114.514-.294.133.667-.8.34-.04.467.487.313Zm-50.767-84.74-.793 1.493-1.42-1.067-.154-.633 1.987-.633.38.84Zm-3.027-1.84-.173.38-.587-.047-1.2 1.687.32 1.126-.726.24-1.074-.26-.593-1.126-.047-2.287.64-1.153 1.347-.134.727-.713.886-.447-.033.707-.487.94.2.667.8.426Zm3.6 19.493-.366-.24-.8-.067-1.247.38-1.42-.086-.373.42-.574-.4-.64.06-1.713-.62-.567.446-.98-.013.16-1.167.82-1.426-.186-.394-2.347-.386-.613-.44.08-.8-.32-.587.18-1.447-.247-2.02.94-.146.42-.84.44-2.127-.273-.787.173-.26 1.107-.1.22.36.413.047 1.133-1.127-.36-2.013.914.22.873-.247.207.787 1.5.473-.014.614.334.266 1.7-.433.893-.58 1.713.827.707.653.32.96-.38.493v.32l.58.767.38 1.093-.093.86.546 1.134-1-.047-.373.38-2.98 1.433-.147.36.454 1.507 1.72 1.44-.44.74-.527.24-.153.287.213 1.246Zm50.087 60.78.173-.28-.146-.673.126-1 .614-.46-.047-.9.26-.5.673.313 2.227-.18 2.507.273.633.54.907-.386 1.16-1.747 1.453-.727 4.573-.626 1.654 3.606-1.094.507-.373 1.267-4.153 1.44-1.527 1.2-1.287.033-.94.68-2.826.493-1.147.994-2.187.126-.346-.786.013-1.007-.893-2.193Zm-57.873-38.853-.214.713.26 1.76-.36 1.44-1.053 1.213.247 1.594 1.273 1.033.12.533.947.687 1.226 4.82.08.773-.38 3.334.134 1.006-.58.66-.014.34.94 1.24.094.8.593.987.333.107.654-.274 1.153.72.547.82-5.48 3.207-4.82 3.407-2.287.753-1.533.14-.187-1.06-1.707-.727-.446-.833-17.414-11.907.007-2.313 2.513-1.253 1.627-.274 1.413-.5.72-.946 1.874-.7.233-1.387.887-.193.693-.627 2.313-.46.307-.72-.067-.3-.386-.347-.547-1.873-.127-1.22-.52-.993 1.354-.874 1.753-.32 1.133-.813 1.54-.56 5.494-.487.993.254 1.52-.734 1.64-.013.613.4.9-.033Zm300.84-59.494.873.354.94-.247 1.26.653 1.26.28-.88.387-1.933-1.02-1.387.147-.173-.1.046-.447Zm-473 34.18.246.98.747.567 2.82.467 1.593.653 1.447-.253 1.233.333-1.033.433-2.327 1.74-.106.514.333.26 1.553-.407 1.18.68 3.434-1.6-.207.433.167.374.906.253 1.14.773 3.134-.586.446.566.874.14.386.387-.893.113-1.453-.213-2.4.593-1.807 2.167.233.6h.394l.366-.4-.906 3.1.193 2.06.447 1.053.406.3 1.18-.293 1.067-1.307.093-1.473-.546-1.307.073-.753.793-1.58.294-.22.32.5.266-.193.267-.914.4-.313.16-.533 1.127.326 1.1.72-.02 1.58-.847.754v.753l.58.24 1.107-.86.333.113.333 1.734-1.66 2.5.114.406 1.026.414.987.113 1.28-.293 3.147-1.434 1.44-1.2-.034-.826.5-.147 2.614.24 1.413-.7.14-.267-.187-.986 2.18-1.6 5.547-.014.373-.546 1.267-.514.62-1.006.493-1.58 1.054-1.32.613.413.98-.313.533.44v2.726l1.307 1.734-1.56.873-3.58 1.393-1.22 1.814.013 1.193.554 1.06.36.153-4.127.627-1.467.593-.153.32.3.194 1.993-.307-1.46.373h-.753l-.1-.213-.32.053-.507.547.147.447.213.04-.273 1.08-.847 1.053-.986-.713-.327-.027-.107.307.347 1.053.407.393.02.527-.634.92-.806-.813-.18-1.514-.234-.233-.28.167-.32.846.22.94-.646-.18-.32.16.12.334 1.013.553.067 1.68.526.34.347 2.28-.947 1.253-1.646.534-1.14 1.106-.874.167-.846.687-.287.66-1.793 1.186-1.76 2.02-.3 1.414.3 1.386.566 1.587.727 1.267.027.8.773 2.04-.12 1.793-.367.953-.313.14-.593-.153-.327-.787-.58-.373-1.833-3.44.32-1.12-.48-1.187-1.34-1.586-.747-.354-1.813.787-.98-.9-1.047-.453-1.993.206-1.447-.2-1.333.127-.767.307-.127.386.26.42.094.894-.56-.134-.56.307-1.054-.047-1.386-.96-1.394.22-1.273-.413-2.487.56-1.593 1.38-1.693.813-.967.94-.407.92.227 2.474-.193.013-2.334-.887-.833-2.073-.96-1-1.493-2.373-1.174-.727-1.513-.007-1.14 1.38-1.173-.46-.774-.493-1.013-1.987-2.62-2.106h-2.893l-.267.266v.494l-4.333.013-6.014-2.093-.226-.474-3.8.327-.287-.86-1.08-1.073-.76-.254-.367-.586-.853-.087-.673-.513-1.48-.18-.287-.2-.24-1.054-1.6-1.886-1.34-2.567-.04-.6-1.947-2.173-.22-1.527-.866-1.107.346-1.58-.06-1.713-.52-1.533.634-1.88.406-3.787-.313-2.847-.973-2.72 2.126.527.84 1.887.46.053.46-.76-.733-3.193h45.84l.267-.267.093-.573Zm-100.52-55.3 1.153 1.314.367.033.66-.527 2.433.16-.06.414.213.3 2.554.513 1.74-.287 3.46.934 3.226.286 1.26.38 2.28-.466 4.094 1.246-.02 25.374.253.266 1.593.074 1.54.653 2.6 2.66.367.027 1.6-1.354 1.44-.693.8 1.14 2.633 2.093 2.727 4.42 2.8 1.527.04 1.22-.68.82-.773-.72-1.36-.687-.447-1.926-2.187-2.02-1.1-2.38-4.233-.214-1.88-.673-3.507-2.567-4.513-1.36-2.353.2-3.207-1.126-2.167-1.087-1.853.533-.187.307.294 1.473-2.607.64-1.507.847-1.533.433-.18-1.1.7-2.28 1.66-.726.107-.4-.46-.64-.367-.067-2.127 1.413-1.186 1.707-2.367 1.74-.027.407 1.04 1.013-1.38 1.527-3.406 1.713-.514 1.107-2.506 1.18-.614 1.153-1.793.92-1.207-.147-4.633 2.214-2.647.606 3.234-1.666 1.726-1.24 2.174-.347.793-.933 2.28-1.4 1.727-1.514.28-1.786.82-1.4-.027-.307-.3-.073-1.787.686-.42-.326-.353.02-.7.693-.907-1.027-.44.054-.213.413-.387-.76-.373-.107-1.607.947h-.713l-.113-1.167.2-1.14-1.074-.886-2.273.393-1.307-1.087-1.046-.56-.1-1.473-1.134-.953.547-1.254 1.327-1.413.586-1.28 1.14-.16 1.36.34 1.247-1.18 1.273.167 1.274-.82.113-.287-.313-1.213-.714-.467.927-.78.08-.3-.26-.173-1.1.046-1.773.587-.5.52-1.28-.533-2.307.293-2.293-.607-.707-1.073-1.767-1.327 1.94-.953 3.667-1.333h1.013l-.173 1.08.273.306 3.527-.106.2-.434-1.353-1.726-2.094-1.12L6.3 108.09l-1.6-1.22-2.06-.826.693-1.127 2.82-.093 2.24-1.38.487-1.514 1.593-1.326 1.614-.347 3.1-1.313 1.64.153L19.3 97.53l2.333.594Zm3.44 37.26-1.5.82-.634-.46-.193-.826 2.14-1.087.947.14.446.467-1.2.946Zm-4.36 73.747.653.313.493.58-1.18.714-.293-1.02.327-.594Zm-1.147-1.307.12.034.053.033-.106.02-.074-.093Zm-2.787-1.266.034-.02.12.146-.087-.006-.067-.12Zm-12.846-77.94-.72.273-1.474-.747 1.02-.266 1.08.186.094.554Zm187.306 172.986-.613 1-1.727.96-1.126-.346-.947.173-1.593-.793-1.014.053-.846-.867.106-1 .374-.526-.014-1.82.807-3.16.793-.14 1.58 1.333.72.02 2.907 2.113.813 1.067-.64 1 .407.933Zm149.014-116.486-.587.34 1.213-2.36.414.053.146.407-.753.586-.433.98Zm119.446 33.68-1.173-.494-.327.1-.626.974-.88-.427.413-.653.073-1.447-1.36-1.613-.166-1.767-1.267-1.4-1.433-.207-.52.607-.747.04-.7-.267-1.373.8-.027-1.06.407-1.786-.24-.327-.9-.067-.074-.82-.64-.586 1.307-1.26.26.24.887.046.28-.3-.227-1.773.467-.14.853 1.207.74 1.566.24.154 1.88.013.473 1.113-.926.434-.48.62.086.4 1.94 1.006 2.4 3.5 1.254 1.187.373 1.08-.233 1.307Zm22.98-14.567-.493.987-.6-1.014-.167-1.16.92-1.626 1.154-1.16.426.293-1.233 3.68Zm-304.913 21.76.187-.773.753-.147-.04.8-.9.12Zm164.38-55.9 2.427.78 2.033-.293 1.4.173 2.073-1.04 1.64-.087 1.46.887.22.547-.146.886.166.294 1.52.753-.78.38-.14.3.5 2.133-.273.774.753 1.28-.366.146-.6-.446-1.94-.247-.827.307-2.82.273-1.873.7-1.274.007-1.013-.354-1.72.5-.44-.3-.413.2-.08.967-.594.56-.313-.447.527-.866-.274-.134-.953.154-1.333-.42-1.347 1.1-2.34.2-1.42-1.02-1.8-.067-.573.827-.92.18-1.527-.96-1.807-.007-.913-1.767-1.12-1.013.713-1.327-.06-.326-.846-.747 1.58-1.607 2.466-.073.854-1.493 2.993.246 2.14-1.313 1.873-.547 2.66-.04 2.86 1.38Zm-16.28.833-1.147.874-.333-.587.913-1.713-.466-.567 1.133-.42 1.2.227.307.78 1.173.52-1.913.213-.867.673Zm90.247 61.514-1.214.32-.66-1.114-.28-2.306.634-2.287.806.653 1.507 2.794-.227 1.553-.566.387Zm-90-97.427.64.44.146 1.1.454 1.173-2.434 1.134-1.486-1.054-.86-.173-.454-.513-1.613.226-2.773-.153-1.647.6.04-1.32.753-1.373 1.3-.68 1.414 1.72 1.34-.047.253-.22.293-1.68 1.174-.353 2.04 1.133 1.433.047Z"/><path d="m324.62 139.298.113.747-1.206.653-.48 1.347-1.647.786-1.4-.013-.487-.7-.706-.2-.06-1.247-2.374-.753-.286-1.573 1.653-.627 2.747.147 1.5-.207.346.46.827.14 1.46 1.04Zm-33.9 13.433-.32-.046.2-.854.18.267-.06.64Zm-24.48 77.68.12 1.027-.32.66.053.313 1.647 1.2-.22 1.867-1.767-.753-3.853-3.074.387-.88 1.4-1.553.573-.147.513.76-.093.567.393.58.667.093.507-.66Zm61.133 65.007-.326.1-.994-1.113.734-.954 1.46-.96 1.006.847-.653 1.213-.82.254-.413.62Zm119.474-71.747-.94 2.58.1 1.334.253.24.92.046.6 1.36.367 1.56.933.96 1.073.254.64.646-.333.427-.733.133-.227-.786-1.36-.734-.42.154-.42-.414-.32-.866-1.707-1.754-.486.274.633-2.594 1.44-2.813Zm.266-.726-.613-1.454-.173-1.74-1.427-2.04.473-.326.594-1.727-2.407-3.633.58-.34.7-1.72 1.16-.12 1.733-1.06.507.373.087.927.246.24.82.06-.34 1.52.034 1.613.4.227 1.62-.947.513.26.98-.047.473-.586.987.093 1.14 1.253.167 1.767 1.28 1.407-.067 1.26-.407.573-1.48-.22-2.333.427-1.067 1.413.24 1.72-1.006-.527-1.227-.006.187-1.014-.267-.313-1.473.007-.267.246-.127 1.827-.226.62Zm-49.326 110.406-2.134.12-.033-.84.26-.94.867.52 1.386.234-.346.906ZM281.8 224.851l-.06.82 1.02 1.014.053.726.334.434-.074 3.746.327.98-.873.234-.68-1.42-.12-.747.353-1.46-.42-.773-.147-2.454-.673-.933.047-.187.913.02Zm38.367-14.76.08 6.38-1.4.034-.76 1.26-.46 1.086.226.487-.44.607.16.593-.573 1.3.3.333.4-.066.227.426.02.92.6.694-.967.286-.847.687-1.22 1.84-1.44.713-1.54-.1-.573.167-.173.327.113.406-1.407 1.12-1.9.58-.726-.38-.487.44-.747.067-.733-2.08-.833-.427-.814-.813.194-.427 2.006.027.234-.4-.867-1.467-.053-2.206-.647-1.107.147-.693-.254-.32-.813-.027v-.833l-.653-.714.64-2.006 2.166-1.767.087-2.22.633-3.453.347-.714-.067-.32-.606-.52-.134-.64-.533-.386-.367-2.434 1.4-.8 13.047 6.554Z"/><path d="m322.32 188.531-.5.734.193.926-.4 1.22.487 1.427v16.08l-1.653.007-.274.566-12.94-6.506-2.94 1.52-.913-.887-2.547-.733-.76-1.1-1.32-.82-.813.213-.44-.74-.113-.84-.854-1.127.58-.793-.046-2.893.286-1.514-.573-2.3.753-.506.147-.774-.133-.686 2.32-1.74.193-1.294 1.633.534.787-.14 1.32.293 2.1.787.913 1.693 3.814 1.113 1.76.9 1.073-.48.86-.893-.293-1.56.44-.753 1.113-.807 1.047-.233 2.093.353.72.853 2.66.52.24.36Zm44.853 13.88 1.254-.266 2.56.013 3.186-3.167.127.24.173 1.054-.54.006-.26.234-.053 1.36-.54.42-.007.64-.44.66-.26.94-4.72-.834-.466-1.306Zm-206.72 21.814.354.5-.014.706-.713 1.187.633 1.333.28.147.934-.293.373-1.22-.513-.78-.067-.98 1.88-.62.173-.327-.186-.64.2-.187.44.874 1.306.173.934.813.053.454.26.233 3.207-.147.993.74 1.28.207 1.113-.56.147-.4 2.293-.093-.113.366.573.794 1.46.233 1.114.733.246 1.24.274.214 1.033.113-1.107.9-.146.613.433.647-1.113.36-.2.267.026.66-.373.38-.007.366 1.234 1.514-.44.46-2.98.86-.48.36-2.46-.6-.474.18-.013.466.607.354-.054 1.026.234 1.054.233.206 1.107.114-.867.346-.32.754-1.787.606-.4.514-1.046.086-.78-.753-.534-1.68-.833-.84.68-.82-.86-1.967.12-1.08.667-1.473-.134-.327-.76-.306-2.68.24-1.213-1.4-1.047-.22-1.993.146-.707-.646.167-.82-.133-.674-.394-.46-.193-.706-.72-.26.52-1.86 1.267-1.407Zm240.014-45.207-1.047.867-.067.32.534 1.54-.727.693-.02.847-.32.473-1.44-.053-.247.393.52.987-.92.46-.706 1.126.04 1.134-.434.346-.606-.14-1.274.24-.32.514-1.253.086-.933 1.04-.12 1.547-1.94.68-1.1-.153-.474.366-.94-.2-1.606.26-2.347-.78 1.307-1.566-.14-1.187-.2-.227-1.087-.266-.127-1.054-.5-1.353.634-.907-.127-.4-.487-.186.98-3.2 1.427.6 1.413-.24.494-.894 1.18-.26 1.026-.613.42-1.54 1.247-.333.327-.54.626.373 1.42.073 1.7.614 1.3-.554.434.287.373-.087.46-.746 1.047-.054.48-1.106.526-.494.534.26-.114.374.474.386-.054 1.594.74.633Zm.446-.113 1.154-.474.953-.786 2.687.233-1.487.493-3.3.534Zm-47.033-.827.527.44.84-.187.973 2.054 1.087.626.093.82-.813.7-.354 1.68 1.154 1.78 2.08 1.08.766 1.254-.253 1.233.26.32h.273l.014.713.506.627-1.646-.067-1.14 1.627-2.874-.133-4.68-3.654-2.486-1.293-1.92-.487-.567-1.913 3.633-2.013.634-2.287-.127-1.307.847-.466.813-1.134.58-.24 1.793.227Zm-97.787-66.273-.246 1.74 1.693 1.673-1.933 1.833-6.127 2.267-6.167-1.107 1.134-.813-.067-.467-2.7-.98 1.973-.353.22-.287-.073-.8-.22-.24-3.113-.566.853-1.36 2.3-.374 2.513 1.814.294.013 2.426-1.44 2.2.72 2.654-1.44 2.386.173Z"/><path d="m355.62 177.871-.847-1.433.28-.653-.473-2.027.687-.333.22.553.84.9 1.366.34.74-.107 1.927-1.406.413-.094.26.307-.48.8.04.327 1.04 1.02.434.026.446 1.207 1.707.553 1.247.987 2.46.327 2.606-.507.314-.487 1.446-.4 1.107-1.026 1.007.053.786-.353 1.06.16 1.887.986 1.253.2 1.847 1.647 1.18.12.12 1.327-1.12 3.66.16.333.407.153-.547.987.533 1.453.127 1.14.2.227 1.087.267.1.88-1.434 1.566-.006.354 1.473 2.02 1.56.826.04 1.427.827.48.073.46-2.207.847-.72 2.02-6.453-1.12-.66-2.034-.953-.486-1.447.306-1.647.84-1.886-.546-1.64-1.347-1.607-.533-2.28-4.04-.32-.134-.787.26-.96-.546-.333.053-.433.493-.647-.673-.013-.873-.474-.26.174-1.207-.86-1.407-2.087-1.086-1.053-1.62.333-1.267.873-.84-.126-1.107-1.16-.733-1.047-2.2Z"/><path d="m357.993 174.651-.186.02-.82-1.42-.62.007-.414-.44-.46-.047-.64-.54-1.04-.413.127-.747-.173-.526 1.813-.24.727.673-.114.613.68.52-.313.414.053.373 1.36.82.027.933Zm-44.446-7.02.493.02.613.594-.113 1.3.24.853.673.547-1.213 1.886-.127-.406-.833-.594-.12-.8.353-1.88-.36-.98.4-.553Zm-5.847 85.487.84 2.1 1.293 1.573 1.647-.353.833.213.294-.12.62-1.28.873-.053.273-.293h.314l-.067.273.26.327 1.767-.014.02.794.32.673-.227 1.013.12 1.034.553.693-.086 1.9.36.26 2.64-.273-.067 1.193.26.7-.16.953-3.133-.02-.267.26-.08 5.42 1.947 2.327-2.554.587-3.926-.24-1.254-.827-6.98.147-.866-.674-1.234-.106-1.6.513-.1-.707.22-1.44.667-2.3.9-2.133 1.493-1.867.22-1.373-.086-1.02-.534-.72-.806-1.913.58-1.08-.847-2.747-.78-1.02 1.647-.42 4.686.02Zm-6.56-.773-.313-.834.833-.74.213.2-.66.687-.08.687Zm-134.947 86.706-1.553-.346-3.887-.287-.593-1.107.033-1.58-.3-.266-.953.12-.447-.607-.133-2.087 1.253-.98.527-1.36-.167-1.133.867-1.787.607-2.766-.147-1.127.567-.3.133-.293-.18-.774-.653-.453.393-.613-.033-.334-.694-.713-.346-2.067.646-.573-.28-2.387.8-3.62.92-.653.107-.287-.5-1.86-.007-1.62 1.187-1.166.04-1.714.953-1.9.007-1.72-.46-.493-.727-3.013.98-1.8-.12-1.86.567-1.567 1.06-1.64 1.153-1.093.034-.347-.4-.56.293-.567-.047-2.793 1.8-.96.574-1.833-.14-.474 1.173-1.34 1.933.38.92 1.187.454-.053.58-1.247 1.593.06 3.3 3.18 1.447.327 2 1.28 1.646.666.167.547-1.58 2.62.153.393 3.594.774 1.413-.294 1.633-1.44.334-1.586.506-.207.654.8-.027 1.2-2.447 1.673-1.9 1.774-2.286 2.586-.867 3.38.007 1.814-.36.486-.24 2.187 2.093 1.76-.107 1.407.934.74-.067.726-1.527 2.347-2.366.993-3.28.4-1.807-.193-.287.34.334 1.1-.327 1.4.253.947-.793.553-1.573.253-1.534-.693-.92.553.274 2.427 1.126.607.934-.474.24.507-1.36.573-1.34 1.26-.647 3.087-1.56.067-1.393 1.186-.407 1.834 1.64 1.54 1.447.42-.467 1.546-1.887 1.154-1.153 2.573-1.447.813-.773 1.114.5 2.506.693.854Zm4.947 6.634-1.333.1-.934-.814-2.546-.066v-3.887l1.066 2.033 2.174 1.38 2.053.52-.473.734Zm299.393-57.08.174.026.113-.313-.32-.947.613.74.3.1.18-.26-.066-1.04-1.32-2.42.726-2.206-.16-1.047.227-.413.253.706.287-.126.66-1.134 1.273-.553.86-.767 1.207-.606.64-.114.613.174 1.28-.634.98-.186.687-.534.953.027 1.854-.56.906-.767.474-.966.94-.84.2-1.72.846-1.06.52 1.1.36.126.714-.34.1-.4-.487-.666.3-.474.52.26.387-.2.186-1.213 1.247-1.427.747-.26.186-.386.414.113.353-.487 1.247-.38 1.1.7.9.987 2.26.253.286-.36-.306-.82.7-1.193.693-.407.093-.366-.166-.274.586-.78.874-.513.866.18 1.4-.32.207-.267-.033-.866-.614-.514.987.374.94.713 1.407.433.54-.133.933.467 1.127-.44.533.126.427-.22.473.514-.887 1.293-.473.047-.233.34.16.573-1.014 1.567.08.7 1.434 1.1 1.313.566 2.027 1.574 1.313.433.367.587 1.813.566 1.227-.733 1.38-3.98-.28-2.393.2-1.154.313-.58-.207-.453.727-2.187.307-.313.266.473.107 1.007.433.347.107.693.567.807.08 1.586.6 1.334.38.12.866-.52 1.127 1.133-.133.72.353 1.467.26.866.453.32.4 1.3-.126.987.54 1.173 4.006 2.46-.073.507.92 1.053.633 1.847.387.147.48-.274.533.6.407.007.307 1.607 3.206 3.14.44 1.346-.046 2.207.76 1.467-.087 1.493-.733 2.453.02 1.094-.314 1.26-.7 1.6-1.266.98-1.147 2.34-1.587 4.06-.16 1.88-.76.533-1.9.1-1.54.793-1.673 1.5-2.06-1.046.2-.767-.36-.313-1 .42-1.34 1.293-4.747-1.453-.986-1.087-.76-2.493-.967-.84-1.207-.174.374-.786-.407-1.4-.48-.067-.76 1.213-.6.14.42-.546.24-1.034.613-.873-.086-1.56-.467-.147-1.333 1.56-1.007.62-.627 1.34-.9-.54-.013-1.013-1.047-1.36-.726-.587.16-.22-.094-.393-2.14-1.127-1.22-.08-1.693-.9-3.053.187-4.014 1.267-1.686-.087-1.747.94-1.42.42-.993 1.733-2.327.207-1.527-.333-2.32.286-1.066.98-.54-.026-1.58 1.086-2.174-.066-2.48-1.474.027-.7.793-.306.327-.594.14-1.98-.187-1.093-.893-1.907-.253-.98.033-1.146-.633-1.134-.12-.646-.674-.66-.193-1.32-.753-1.167Zm52.747 26.786 1.767.68 2.153-.64.727.094.1 2.04-.567.753-.113 1.087-.58-.16-1.047 1.273-1.12-.12-.933-1.573-.247-1.36-.927-1.674.027-.533.767.12ZM308.593 154.965l.027 1.5h-.713l-.22.42.24.34-.694 1.42-1.346.046-.887.467-3.527-.66-.313-.62-.293-.14-1.647.367-.28.34-2.12-.54.287-.607.746.52.4-.113.167-.387 1.287.08 1.24-.373.666.053.454.38.413-.1.173-.513-.2-1.187.534-.293.453-.767 1.013.567.314-.04.893-.834.427-.113 1.206.613.854-.073.466.247Zm106.967 36.153-.827.693-.646 1.7.146.34 5.36 2.58 2.28.247 1.047.92 3.28.587 1.453-.027.254-.2.193-.827-.213-1.093.093-.58.547-.207.3 1.654 1.52.68 1.18-.254 2.76.067.253-.24.12-1.107-.333-.433.913-.193 1.5-1.327 1.8-1.08 1.287.413 1.2-.653.526.76-.453.607.173.42 1.614.24.06.313-.554.5.087.713-1.013-.193-2.16 1.24-.087 1.187-.88 1.426-.12.927-.62 1.213-1.093-.333-.347.247-.06 1.753-.373.74.126.54-.353.18-.787-2.487-.72-.18-.253.207-.16.667-.44-.44.36-.707.813-.227.767-1.5-.16-.373-1.047-.313-2.893-.187-.12-1.04-.233-.233-.74-.08-1.274-.747-.373.113-.587 1.214.074.326.906.714-.726.46-.46.74.12.373.826.38-.213 1.027.567 1.293.24 1.34-.147.393-3.053.347-.22.28.086 1.2-.78.907-2.433 1.206-1.86 2.02-2.88 2.187-.12.847-3.1 1.193-.513 1.44.426 3.533-.706 1.66-.007 2.627-.827.187-.76 1.286.26.56-1.12.354-.693 1.22-.433.313-1.374-1.367-1.4-4.013-1.466-2.427-.7-3.166-1.527-2.38-1.173-5.467.006-2.073-.326-1.687-.367-.193-2.353 1.013-1.02-.18-1.907-1.847.567-.446.053-.367-.493-.687-1.78-1.373.826-.88 3.56.007.26-.327-.333-1.527-.947-.973-.18-1.287-.953-.8 1.54-1.58 2.033.04 1.747-1.9 1.067-1.873 1.6-1.82.046-1.36 1.314-.987-.014-.433-1.286-.873-.547-1.187-.533-1.473.6-.594 2.393.434 1.947-.28 1.553-1.46 1.54 1.9-.16 1.42.66 1.06-.033.546-.894-.186-.313.32.467 2.04 1.746 1.326 1.994 1.1Zm-85.187 59.593 1.867-2.08-.013-.54-.427-.866.453-.347.094-.98-.507-.833.207-.074 1.506.02-.34 1.84.507.867.333.08.7-.353.794-.08.406.16.954-.414.066-.446-.473-.414 1.047-1.133 5.766 3.24.214 1.02 2.226 1.553-.7 1.867.087 1.073 1.087.747-.4 1.173-.007 1.554 1.26 2.686.38.287-.973.72-1.74.627-.954-.027-.706.513-1.527.24-1.913-.453-.554.047-.42-.5-.206-1.854-.88-.9-2.167-.513-2.64-1.053-.787-1.607-.213-1.167-1.173-.993.28-.7-.294-.593.054-.64-.307-.387.04-.373Z"/><path d="m359.527 170.251.886.214 1.294-1.2 1.533 2.226.953.287-.84.1-.233.213-.533 2.094-.66.64.033.74-.84-.754.467-.786-.027-.314-.493-.573-.987.1-1.56 1.14-.02-.847-1.353-.9.313-.413-.053-.373-.687-.527.193-.287-.093-.386-.753-.574 1.26.454 1.126.04.247-.58-.54-.914.28.04 1.087 1.147Zm-3.674 3.227.407.307h.46l.393.766-.453-.1-.807-.966Zm-85.8-30.1.234 1.373-1.167 1.854-2.813 1.253-1.894-.267 1.154-2-.787-2.353 3.067-2.493.213.766-.327 1.16.267.34.98-.026 1.067.4Zm234.26 101.647.46 2.673 1.86 1.187.34-.067 1.36-1.727 1.807-.953h1.367l2.6 1.153 1.64.3.053 10.08-1.167-1.026-1.693-.34-.587.473-1.546.04.46-.887.966-.426.154-.307-.434-1.827-.826-1.473-3.36-1.527-1.394-.153-2.453-1.513-.367.086-.433.714-.347.08-.366-1.26-.807-.52 1.227-.414 1.146.034.26-.347-.14-.44-.253-.187h-2.3l-.753-.986-1.4-.287-.347-.4 1.793-.32.854-.52 2.44.627.2.473Zm.96 8.3-.413.546-.067-.533.394-.747.086.734Zm-7.02-4.907.227.48-.813-.38-3.12-.067.18-.413 1.853-.06 1.68.447Zm-4.22-5.153-.446-1.92.426-1.34.274.573.806.12.107.467-.067 1.12-.56-.107-.306.2-.227.893Zm-1.333 5.5-.333.293-.894-.24-.113-.247 1.153-.053.18.24Zm-11.733-5.994-.127 1.314 1.493 1.486.36.014.847-.714 1.833-.333-.6.807-1.406.62-.107.4 1.48 2.006-.2.714.907 1.16-1.507.566-.187-.206.08-.794-1.093-.893.113-1.487-.373-.26-1.113.507-.154.26.2 4.113-.733.167-.46-.313.427-1.474-.26-1.613-.26-.227-.534-.006-.386-.86.653-1.067.233-1.307.88-2.58Zm4.76 7.84.253.327-.013.853-.587.327-.353-.313.693-1.194Zm.3-6.193.18-.033-.014.086-.16-.053Zm-4.907-1.953.107-.214 1.26-1.1 1.22.454 2.106.233 1.96-.067 1.594-1.106-1.154 1.42-1.106.286-1.607-.32-2.78.087-1.593.34Zm5.913 17.613.74-1.287 1.354-.546.053.413-.967 1.113-1.18.307Zm-1.62-3.06-.066.253-2.307.44-1.94-.18v-.166l1.027-.274 1.106.487 1.114-.127 1.073-.433Zm-3.48 2.907-.426.02-1.507-.8.74-.16 1.187.94Zm-4.426-2.98.586.34.854-.114.133.234-3.1.486.26-.446.767-.014.5-.486Zm-3.067-7.954-.253-.106-1.694.673-.746-.96-1.127-.087-.773-.5-2.027.514-.733-.767-2.207-.073-.233-2.034-.9-.633-.74-1.32-.22-1.373.18-1.427.6-.673.246.766 1.394.994 1.02-.32 1.213.053.92-.793.667-.12 1.52.446 1.506-.353 1.014-2.427.673-.66.52-1.713 2.733.2-.74 1.18.014.307 1.133 1.466-.153.927 1.38 1.14-1.554.28-.586 1.267.066 1.366-1.6 1.267-.04 1.633-.466 1.86Zm-12.72 5.46.233.174 3.2.166.52-.646 2.78.726.754 1.12 2.46.3 1.42.694-1.2.4-1.847-.66-3.2-.08-3.493-.94-1.227-.167-.74.2-2.84-.647-.467-.76-1.06-.086.787-1.1 1.827.086 1.913.754.173.453Zm-4.7-1.906-1.48.026-1.373-1.353-2.1-1.34-1.954-2.34-2.073-3.553-1.467-1.414-1.093-2.706-1.547-1.127-.846-1.38-1.307-1-1.673-1.767-.074-.44 3.207.354 1.433 1.586 2.207 1.827 1.567 1.773 1.8.114 1.3 1.06 1.026 1.446 1.06.634-.56 1.14.1.346.96.58.527.067.267 1.053.58.934 1.306.26.667.873-.4 2.007-.06 2.333Zm-128.687-91.154.854-1.66 1.213.127.44-.153.06-.474-.167-.5-.526-.48-.22-.806-.574-.414-.013-.793-.753-.573-.767-.127-1.36-.667-1.107.214-.44.313h-.613l-.56.52-1.653.467-.787-.474-2.047-.24-.593.287-.16-.367-.74-.466.233-.62.84-.68-.36-.82 1.36-1.62.934-.414.166-.793-.693-1.593.553-.087.854-.56 1.2-.047 1.646.174 1.907.54 1.253.04.574.293.693-.273.513.44 1.454-.1.613.2.347-.227.1-1.02.373-.36 1.9-.033.56-.48 2.027-.12.82.973-.32.513.14.687.24.213 1.2.094.62 1.386 2.12.767 1.293-.3 1.113.993.934-.02 2.233.64.013.36-.64 1.06.314 1.314-.174.466-1.573.187-.86.593-.153.92-1.22.18-1.054.647-1.606.14-1.44.78-.14.253.226 1.507.82.5 1.42-.053-.093.206-1.767.354-2.153 1.126-.58-.26.28-.733-.167-.347-1.473-.486 1.567-.707.08-.433-.62-.547-2.414-.493-.086-.594-.307-.226-1.74.393-.607 1.127-1.14 1.36-.573-.267-1.08.18Zm37.887 39.467-.507-.153-.093-1.094.56-.86.313.347.027.893-.3.867Zm-27.167 64.74-.226-1.713.34-1.367 2.366.42 1.667-.253.68-.507.993.007 1.827-.654 1.107-.8.333 6.16.273.82-.453 1.114-.62 1.14-1 1-3.44 1.52-1.853 1.82-.68.353-1.14 1.2-.654.38-.233 1.607.773 1.293.327 1.447.287.206-.04 1.374-.26.78.333.48-.167.486-.613.554-3.413 1.593-.814.907.14.753.387.26-.073.48-.814-.007-.486-1.98.28-2.06-1.187-3.58 1.66-1.873.46-1.26.293-.287.187-1.02-.26-.62.393-2.433-.006-2.173-.994-.774-.8-.146-1.16-.78-1.28.006-.193-1.386 4.707-1.307.853.727.593-.067.447.293.067.487-.34.86.126 1.207 1.167 1.22.433-.087.474-1.1.78-.573-.174-2.314-.7-1.233-.693-.627Z"/></g></svg>