<svg xmlns="http://www.w3.org/2000/svg" width="1024" height="512"><path d="M332.141 370.106h-46.783v89.002h-79.589v-89.002H42.027v-71.031L194.073 48.042h91.285v258.45h46.783zm-126.372-63.614V127.916L102.218 306.492zm306.659-263.87q-79.018 0-110.825 55.627-31.807 55.626-31.807 158.036t31.807 157.751q31.807 55.342 110.825 55.342t110.825-55.342q31.807-55.341 31.807-157.751T623.253 98.249q-31.807-55.627-110.825-55.627zm-59.62 213.663q0-74.739 11.695-110.682 11.696-35.943 47.925-35.943 36.228 0 47.496 35.943t11.268 110.682q0 71.316-11.268 109.114-11.268 37.797-47.496 37.797-36.229 0-47.925-37.797-11.695-37.798-11.695-109.114zm299.242 50.207 103.551-178.576v178.576zm229.923 0h-46.784V48.042h-91.284L691.859 299.075v71.031h163.742v89.002h79.588v-89.002h46.784z" fill="#FFF"/></svg>