<svg xmlns="http://www.w3.org/2000/svg" width="1024" height="1024">
  <style>
    path {
      fill: #1d3557;
    }

    @media (prefers-color-scheme:dark) {
      path {
        fill: #6b88a2;
      }
    }
  </style>
  <g id="logo">
    <path d="M86.908 86.908h850.185v850.185H86.908V86.908z" style="fill:transparent" />
    <path
      d="M127.986 567.701c2.15 14.925 3.589 21.842 6.845 30.219 6.873 17.848 17.394 31.7 31.928 41.559 17.44 11.685 46.536 19.03 76.376 19.099 38.937.089 67.706-8.942 87.036-27.457 14.954-14.885 23.008-35.973 23.068-61.81.063-27.293-9.353-47.329-30.06-62.661-13.079-9.127-30.531-16.082-59.265-22.334-40.372-9.191-43.281-9.925-51.28-13.219-16.722-7.316-24.704-17.888-24.669-33.172.055-23.653 21.562-39.615 53.221-39.543 20.015.046 36.012 6.27 45.448 17.572 6.169 7.293 8.702 13.485 10.857 25.862l52.052-6.066c-4.322-19.297-8.664-30.224-17.734-42.254-17.776-24.058-49.042-36.867-90.527-36.962-62.591-.144-103.423 32.513-103.539 83.095-.056 24.382 9.359 44.418 27.884 59.017 13.077 10.219 27.62 16.075 54.898 22.324 50.192 11.761 52.375 12.13 63.278 17.977 11.267 6.212 18.153 18.601 18.118 33.521-.063 27.292-21.934 43.618-58.324 43.534-23.654-.054-42.559-7.74-53.081-21.592-6.531-8.385-8.697-15.668-10.115-32.047zm267.575-204.262c1.788 13.832 2.488 25.843 2.438 47.677l-.448 194.687c-.046 20.015-.803 32.386-2.657 47.301l51.311.119c-2.151-14.198-2.495-22.932-2.441-46.586l.055-23.653 29.905-28.316 39.169 57.587c15.233 22.233 19.583 29.521 23.923 41.176l64.774.149c-8.35-8.389-8.35-8.389-33.017-42.289l-61.306-84.202 51.787-49.008c15.682-14.884 15.682-14.884 36.467-33.395l-68.05-.157c-5.843 9.084-12.046 16.348-28.822 32.321l-54.71 54.096.275-119.724c.049-21.106.806-33.841 2.657-47.665z" />
    <path d="M992 32v960H32V32h960zm-54.907 54.908H86.908v850.185h850.185V86.908z" />
  </g>
</svg>