<?xml version="1.0" encoding="UTF-8"?>
<!DOCTYPE svg PUBLIC "-//W3C//DTD SVG 1.1//EN" "http://www.w3.org/Graphics/SVG/1.1/DTD/svg11.dtd">
<svg version="1.1" xmlns="http://www.w3.org/2000/svg" xmlns:xlink="http://www.w3.org/1999/xlink" x="0" y="0" width="600" height="400" viewBox="0, 0, 600, 400">
  <g id="Layer_1">
    <g id="Canvas">
      <path d="M583.263,5.24 C589.736,5.24 594.984,10.591 594.984,17.192 L594.984,382.808 C594.984,389.409 589.736,394.76 583.263,394.76 L16.737,394.76 C10.264,394.76 5.016,389.409 5.016,382.808 L5.016,17.192 C5.016,10.591 10.264,5.24 16.737,5.24 L583.263,5.24 z" fill="rgba(0,0,0,0.75)" stroke="#747474" stroke-width="0.75"/>
      <path d="M16.737,5.24 L583.263,5.24 C589.736,5.24 594.984,10.591 594.984,17.192 L594.984,382.808 C594.984,389.409 589.736,394.76 583.263,394.76 L16.737,394.76 C10.264,394.76 5.016,389.409 5.016,382.808 L5.016,17.192 C5.016,10.591 10.264,5.24 16.737,5.24 z" fill="#FFFFFF"/>
    </g>
    <g id="Menu_Bar">
      <path d="M583.263,5.24 C589.736,5.24 594.984,10.591 594.984,17.192 L594.984,33.001 L5.016,33.001 L5.016,17.192 C5.016,10.591 10.264,5.24 16.737,5.24 L583.263,5.24 z" fill="#E0E0E0" id="Menu"/>
      <path d="M180.794,9.676 L419.206,9.676 C424.755,9.676 429.253,13.904 429.253,19.12 L429.253,19.12 C429.253,24.337 424.755,28.565 419.206,28.565 L180.794,28.565 C175.245,28.565 170.747,24.337 170.747,19.12 L170.747,19.12 C170.747,13.904 175.245,9.676 180.794,9.676 z" fill="#FFFFFF" id="URL"/>
      <g id="Buttons_Left">
        <path d="M30.694,24.755 C27.83,24.755 25.508,22.433 25.508,19.569 C25.508,16.705 27.83,14.383 30.694,14.383 C33.558,14.383 35.88,16.705 35.88,19.569 C35.88,22.433 33.558,24.755 30.694,24.755 z" fill="#E30307"/>
        <path d="M58.71,24.755 C55.846,24.755 53.524,22.433 53.524,19.569 C53.524,16.705 55.846,14.383 58.71,14.383 C61.575,14.383 63.897,16.705 63.897,19.569 C63.897,22.433 61.575,24.755 58.71,24.755 z" fill="#1ABA05"/>
        <path d="M44.702,24.755 C41.838,24.755 39.516,22.433 39.516,19.569 C39.516,16.705 41.838,14.383 44.702,14.383 C47.567,14.383 49.888,16.705 49.888,19.569 C49.888,22.433 47.567,24.755 44.702,24.755 z" fill="#F0C103"/>
      </g>
      <g id="Buttons_Right">
        <path d="M565.004,14.979 L573.033,14.979 C574.115,14.979 574.992,15.856 574.992,16.938 L574.992,24.967 C574.992,26.049 574.115,26.926 573.033,26.926 L565.004,26.926 C563.922,26.926 563.045,26.049 563.045,24.967 L563.045,16.938 C563.045,15.856 563.922,14.979 565.004,14.979 z M569.888,12.315 L561.859,12.315 C560.777,12.315 559.9,13.192 559.9,14.274 L559.9,22.303 C559.9,23.385 560.777,24.262 561.858,24.262 L563.045,24.262 L563.045,16.938 C563.045,15.856 563.922,14.979 565.004,14.979 L571.847,14.979 L571.847,14.274 C571.847,13.192 570.97,12.315 569.888,12.315 z" fill-opacity="0" stroke="#747474" stroke-width="1"/>
        <path d="M537.349,15.264 L537.225,23.977 M532.93,19.558 L541.644,19.683" fill-opacity="0" stroke="#747474" stroke-width="1"/>
      </g>
    </g>
  </g>
</svg>
