<svg xmlns="http://www.w3.org/2000/svg" version="1.1" xmlns:xlink="http://www.w3.org/1999/xlink" xmlns:svgjs="http://svgjs.dev/svgjs" width="570" height="249" viewBox="0 0 570 249"><g><rect width="16" height="16" fill-opacity="1" fill="#febf5a" x="20" y="40" stroke-opacity="0.75" stroke-width="1" stroke="#7c7c7c"></rect><rect width="16" height="16" fill-opacity="1" fill="#febf5a" x="20" y="60.5" stroke-opacity="0.75" stroke-width="1" stroke="#7c7c7c"></rect><rect width="16" height="16" fill-opacity="1" fill="#febf5a" x="20" y="81" stroke-opacity="0.75" stroke-width="1" stroke="#7c7c7c"></rect><rect width="16" height="16" fill-opacity="1" fill="#febf5a" x="20" y="101.5" stroke-opacity="0.75" stroke-width="1" stroke="#7c7c7c"></rect><rect width="16" height="16" fill-opacity="1" fill="#febf5a" x="20" y="122" stroke-opacity="0.75" stroke-width="1" stroke="#7c7c7c"></rect><rect width="16" height="16" fill-opacity="1" fill="#febf5a" x="20" y="142.5" stroke-opacity="0.75" stroke-width="1" stroke="#7c7c7c"></rect><rect width="16" height="16" fill-opacity="1" fill="#ffe692" x="20" y="163" stroke-opacity="0.75" stroke-width="1" stroke="#7c7c7c"></rect><rect width="16" height="16" fill-opacity="1" fill="#dddddd" x="40.5" y="40" stroke-opacity="0.75" stroke-width="1" stroke="#7c7c7c"></rect><rect width="16" height="16" fill-opacity="1" fill="#febf5a" x="40.5" y="60.5" stroke-opacity="0.75" stroke-width="1" stroke="#7c7c7c"></rect><rect width="16" height="16" fill-opacity="1" fill="#febf5a" x="40.5" y="81" stroke-opacity="0.75" stroke-width="1" stroke="#7c7c7c"></rect><rect width="16" height="16" fill-opacity="1" fill="#febf5a" x="40.5" y="101.5" stroke-opacity="0.75" stroke-width="1" stroke="#7c7c7c"></rect><rect width="16" height="16" fill-opacity="1" fill="#dddddd" x="40.5" y="122" stroke-opacity="0.75" stroke-width="1" stroke="#7c7c7c"></rect><rect width="16" height="16" fill-opacity="1" fill="#dddddd" x="40.5" y="142.5" stroke-opacity="0.75" stroke-width="1" stroke="#7c7c7c"></rect><rect width="16" height="16" fill-opacity="1" fill="#ffe692" x="40.5" y="163" stroke-opacity="0.75" stroke-width="1" stroke="#7c7c7c"></rect><rect width="16" height="16" fill-opacity="1" fill="#febf5a" x="61" y="40" stroke-opacity="0.75" stroke-width="1" stroke="#7c7c7c"></rect><rect width="16" height="16" fill-opacity="1" fill="#febf5a" x="61" y="60.5" stroke-opacity="0.75" stroke-width="1" stroke="#7c7c7c"></rect><rect width="16" height="16" fill-opacity="1" fill="#febf5a" x="61" y="81" stroke-opacity="0.75" stroke-width="1" stroke="#7c7c7c"></rect><rect width="16" height="16" fill-opacity="1" fill="#febf5a" x="61" y="101.5" stroke-opacity="0.75" stroke-width="1" stroke="#7c7c7c"></rect><rect width="16" height="16" fill-opacity="1" fill="#febf5a" x="61" y="122" stroke-opacity="0.75" stroke-width="1" stroke="#7c7c7c"></rect><rect width="16" height="16" fill-opacity="1" fill="#febf5a" x="61" y="142.5" stroke-opacity="0.75" stroke-width="1" stroke="#7c7c7c"></rect><rect width="16" height="16" fill-opacity="1" fill="#ffe692" x="61" y="163" stroke-opacity="0.75" stroke-width="1" stroke="#7c7c7c"></rect><rect width="16" height="16" fill-opacity="1" fill="#ffe692" x="81.5" y="40" stroke-opacity="0.75" stroke-width="1" stroke="#7c7c7c"></rect><rect width="16" height="16" fill-opacity="1" fill="#ffe692" x="81.5" y="60.5" stroke-opacity="0.75" stroke-width="1" stroke="#7c7c7c"></rect><rect width="16" height="16" fill-opacity="1" fill="#febf5a" x="81.5" y="81" stroke-opacity="0.75" stroke-width="1" stroke="#7c7c7c"></rect><rect width="16" height="16" fill-opacity="1" fill="#ffe692" x="81.5" y="101.5" stroke-opacity="0.75" stroke-width="1" stroke="#7c7c7c"></rect><rect width="16" height="16" fill-opacity="1" fill="#ffe692" x="81.5" y="122" stroke-opacity="0.75" stroke-width="1" stroke="#7c7c7c"></rect><rect width="16" height="16" fill-opacity="1" fill="#febf5a" x="81.5" y="142.5" stroke-opacity="0.75" stroke-width="1" stroke="#7c7c7c"></rect><rect width="16" height="16" fill-opacity="1" fill="#ffe692" x="81.5" y="163" stroke-opacity="0.75" stroke-width="1" stroke="#7c7c7c"></rect><rect width="16" height="16" fill-opacity="1" fill="#ffe692" x="102" y="40" stroke-opacity="0.75" stroke-width="1" stroke="#7c7c7c"></rect><rect width="16" height="16" fill-opacity="1" fill="#ffffcc" x="102" y="60.5" stroke-opacity="0.75" stroke-width="1" stroke="#7c7c7c"></rect><rect width="16" height="16" fill-opacity="1" fill="#ffffcc" x="102" y="81" stroke-opacity="0.75" stroke-width="1" stroke="#7c7c7c"></rect></g><g><rect width="16" height="16" fill-opacity="1" fill="#ffe692" x="128" y="40" stroke-opacity="0.75" stroke-width="1" stroke="#7c7c7c"></rect><rect width="16" height="16" fill-opacity="1" fill="#ffe692" x="128" y="60.5" stroke-opacity="0.75" stroke-width="1" stroke="#7c7c7c"></rect><rect width="16" height="16" fill-opacity="1" fill="#ffffcc" x="128" y="81" stroke-opacity="0.75" stroke-width="1" stroke="#7c7c7c"></rect><rect width="16" height="16" fill-opacity="1" fill="#ffe692" x="128" y="101.5" stroke-opacity="0.75" stroke-width="1" stroke="#7c7c7c"></rect><rect width="16" height="16" fill-opacity="1" fill="#febf5a" x="128" y="122" stroke-opacity="0.75" stroke-width="1" stroke="#7c7c7c"></rect><rect width="16" height="16" fill-opacity="1" fill="#febf5a" x="128" y="142.5" stroke-opacity="0.75" stroke-width="1" stroke="#7c7c7c"></rect><rect width="16" height="16" fill-opacity="1" fill="#fd8d3c" x="128" y="163" stroke-opacity="0.75" stroke-width="1" stroke="#7c7c7c"></rect><rect width="16" height="16" fill-opacity="1" fill="#febf5a" x="148.5" y="40" stroke-opacity="0.75" stroke-width="1" stroke="#7c7c7c"></rect><rect width="16" height="16" fill-opacity="1" fill="#fd8d3c" x="148.5" y="60.5" stroke-opacity="0.75" stroke-width="1" stroke="#7c7c7c"></rect><rect width="16" height="16" fill-opacity="1" fill="#febf5a" x="148.5" y="81" stroke-opacity="0.75" stroke-width="1" stroke="#7c7c7c"></rect><rect width="16" height="16" fill-opacity="1" fill="#fd8d3c" x="148.5" y="101.5" stroke-opacity="0.75" stroke-width="1" stroke="#7c7c7c"></rect><rect width="16" height="16" fill-opacity="1" fill="#fd8d3c" x="148.5" y="122" stroke-opacity="0.75" stroke-width="1" stroke="#7c7c7c"></rect><rect width="16" height="16" fill-opacity="1" fill="#fd8d3c" x="148.5" y="142.5" stroke-opacity="0.75" stroke-width="1" stroke="#7c7c7c"></rect><rect width="16" height="16" fill-opacity="1" fill="#f43d25" x="148.5" y="163" stroke-opacity="0.75" stroke-width="1" stroke="#7c7c7c"></rect><rect width="16" height="16" fill-opacity="1" fill="#fd8d3c" x="169" y="40" stroke-opacity="0.75" stroke-width="1" stroke="#7c7c7c"></rect><rect width="16" height="16" fill-opacity="1" fill="#febf5a" x="169" y="60.5" stroke-opacity="0.75" stroke-width="1" stroke="#7c7c7c"></rect><rect width="16" height="16" fill-opacity="1" fill="#ffe692" x="169" y="81" stroke-opacity="0.75" stroke-width="1" stroke="#7c7c7c"></rect><rect width="16" height="16" fill-opacity="1" fill="#febf5a" x="169" y="101.5" stroke-opacity="0.75" stroke-width="1" stroke="#7c7c7c"></rect><rect width="16" height="16" fill-opacity="1" fill="#fd8d3c" x="169" y="122" stroke-opacity="0.75" stroke-width="1" stroke="#7c7c7c"></rect><rect width="16" height="16" fill-opacity="1" fill="#febf5a" x="169" y="142.5" stroke-opacity="0.75" stroke-width="1" stroke="#7c7c7c"></rect><rect width="16" height="16" fill-opacity="1" fill="#febf5a" x="169" y="163" stroke-opacity="0.75" stroke-width="1" stroke="#7c7c7c"></rect><rect width="16" height="16" fill-opacity="1" fill="#ffe692" x="189.5" y="40" stroke-opacity="0.75" stroke-width="1" stroke="#7c7c7c"></rect><rect width="16" height="16" fill-opacity="1" fill="#febf5a" x="189.5" y="60.5" stroke-opacity="0.75" stroke-width="1" stroke="#7c7c7c"></rect><rect width="16" height="16" fill-opacity="1" fill="#ffe692" x="189.5" y="81" stroke-opacity="0.75" stroke-width="1" stroke="#7c7c7c"></rect><rect width="16" height="16" fill-opacity="1" fill="#ffe692" x="189.5" y="101.5" stroke-opacity="0.75" stroke-width="1" stroke="#7c7c7c"></rect><rect width="16" height="16" fill-opacity="1" fill="#febf5a" x="189.5" y="122" stroke-opacity="0.75" stroke-width="1" stroke="#7c7c7c"></rect><rect width="16" height="16" fill-opacity="1" fill="#febf5a" x="189.5" y="142.5" stroke-opacity="0.75" stroke-width="1" stroke="#7c7c7c"></rect><rect width="16" height="16" fill-opacity="1" fill="#febf5a" x="189.5" y="163" stroke-opacity="0.75" stroke-width="1" stroke="#7c7c7c"></rect></g><g><rect width="16" height="16" fill-opacity="1" fill="#fd8d3c" x="236" y="40" stroke-opacity="0.75" stroke-width="1" stroke="#7c7c7c"></rect><rect width="16" height="16" fill-opacity="1" fill="#febf5a" x="236" y="60.5" stroke-opacity="0.75" stroke-width="1" stroke="#7c7c7c"></rect><rect width="16" height="16" fill-opacity="1" fill="#ffe692" x="236" y="81" stroke-opacity="0.75" stroke-width="1" stroke="#7c7c7c"></rect><rect width="16" height="16" fill-opacity="1" fill="#febf5a" x="236" y="101.5" stroke-opacity="0.75" stroke-width="1" stroke="#7c7c7c"></rect><rect width="16" height="16" fill-opacity="1" fill="#fd8d3c" x="236" y="122" stroke-opacity="0.75" stroke-width="1" stroke="#7c7c7c"></rect><rect width="16" height="16" fill-opacity="1" fill="#febf5a" x="236" y="142.5" stroke-opacity="0.75" stroke-width="1" stroke="#7c7c7c"></rect><rect width="16" height="16" fill-opacity="1" fill="#febf5a" x="236" y="163" stroke-opacity="0.75" stroke-width="1" stroke="#7c7c7c"></rect><rect width="16" height="16" fill-opacity="1" fill="#febf5a" x="256.5" y="40" stroke-opacity="0.75" stroke-width="1" stroke="#7c7c7c"></rect><rect width="16" height="16" fill-opacity="1" fill="#febf5a" x="256.5" y="60.5" stroke-opacity="0.75" stroke-width="1" stroke="#7c7c7c"></rect><rect width="16" height="16" fill-opacity="1" fill="#ffe692" x="256.5" y="81" stroke-opacity="0.75" stroke-width="1" stroke="#7c7c7c"></rect><rect width="16" height="16" fill-opacity="1" fill="#febf5a" x="256.5" y="101.5" stroke-opacity="0.75" stroke-width="1" stroke="#7c7c7c"></rect><rect width="16" height="16" fill-opacity="1" fill="#ffe692" x="256.5" y="122" stroke-opacity="0.75" stroke-width="1" stroke="#7c7c7c"></rect><rect width="16" height="16" fill-opacity="1" fill="#ffe692" x="256.5" y="142.5" stroke-opacity="0.75" stroke-width="1" stroke="#7c7c7c"></rect><rect width="16" height="16" fill-opacity="1" fill="#febf5a" x="256.5" y="163" stroke-opacity="0.75" stroke-width="1" stroke="#7c7c7c"></rect><rect width="16" height="16" fill-opacity="1" fill="#febf5a" x="277" y="40" stroke-opacity="0.75" stroke-width="1" stroke="#7c7c7c"></rect><rect width="16" height="16" fill-opacity="1" fill="#fd8d3c" x="277" y="60.5" stroke-opacity="0.75" stroke-width="1" stroke="#7c7c7c"></rect><rect width="16" height="16" fill-opacity="1" fill="#fd8d3c" x="277" y="81" stroke-opacity="0.75" stroke-width="1" stroke="#7c7c7c"></rect><rect width="16" height="16" fill-opacity="1" fill="#ffe692" x="277" y="101.5" stroke-opacity="0.75" stroke-width="1" stroke="#7c7c7c"></rect><rect width="16" height="16" fill-opacity="1" fill="#febf5a" x="277" y="122" stroke-opacity="0.75" stroke-width="1" stroke="#7c7c7c"></rect><rect width="16" height="16" fill-opacity="1" fill="#fd8d3c" x="277" y="142.5" stroke-opacity="0.75" stroke-width="1" stroke="#7c7c7c"></rect><rect width="16" height="16" fill-opacity="1" fill="#fd8d3c" x="277" y="163" stroke-opacity="0.75" stroke-width="1" stroke="#7c7c7c"></rect><rect width="16" height="16" fill-opacity="1" fill="#fd8d3c" x="297.5" y="40" stroke-opacity="0.75" stroke-width="1" stroke="#7c7c7c"></rect><rect width="16" height="16" fill-opacity="1" fill="#fd8d3c" x="297.5" y="60.5" stroke-opacity="0.75" stroke-width="1" stroke="#7c7c7c"></rect><rect width="16" height="16" fill-opacity="1" fill="#febf5a" x="297.5" y="81" stroke-opacity="0.75" stroke-width="1" stroke="#7c7c7c"></rect><rect width="16" height="16" fill-opacity="1" fill="#febf5a" x="297.5" y="101.5" stroke-opacity="0.75" stroke-width="1" stroke="#7c7c7c"></rect><rect width="16" height="16" fill-opacity="1" fill="#fd8d3c" x="297.5" y="122" stroke-opacity="0.75" stroke-width="1" stroke="#7c7c7c"></rect><rect width="16" height="16" fill-opacity="1" fill="#fd8d3c" x="297.5" y="142.5" stroke-opacity="0.75" stroke-width="1" stroke="#7c7c7c"></rect><rect width="16" height="16" fill-opacity="1" fill="#fd8d3c" x="297.5" y="163" stroke-opacity="0.75" stroke-width="1" stroke="#7c7c7c"></rect><rect width="16" height="16" fill-opacity="1" fill="#febf5a" x="318" y="40" stroke-opacity="0.75" stroke-width="1" stroke="#7c7c7c"></rect><rect width="16" height="16" fill-opacity="1" fill="#fd8d3c" x="318" y="60.5" stroke-opacity="0.75" stroke-width="1" stroke="#7c7c7c"></rect><rect width="16" height="16" fill-opacity="1" fill="#f43d25" x="318" y="81" stroke-opacity="0.75" stroke-width="1" stroke="#7c7c7c"></rect></g><g><rect width="16" height="16" fill-opacity="1" fill="#f43d25" x="344" y="40" stroke-opacity="0.75" stroke-width="1" stroke="#7c7c7c"></rect><rect width="16" height="16" fill-opacity="1" fill="#fd8d3c" x="344" y="60.5" stroke-opacity="0.75" stroke-width="1" stroke="#7c7c7c"></rect><rect width="16" height="16" fill-opacity="1" fill="#f43d25" x="344" y="81" stroke-opacity="0.75" stroke-width="1" stroke="#7c7c7c"></rect><rect width="16" height="16" fill-opacity="1" fill="#fd8d3c" x="344" y="101.5" stroke-opacity="0.75" stroke-width="1" stroke="#7c7c7c"></rect><rect width="16" height="16" fill-opacity="1" fill="#ca0923" x="344" y="122" stroke-opacity="0.75" stroke-width="1" stroke="#7c7c7c"></rect><rect width="16" height="16" fill-opacity="1" fill="#fd8d3c" x="344" y="142.5" stroke-opacity="0.75" stroke-width="1" stroke="#7c7c7c"></rect><rect width="16" height="16" fill-opacity="1" fill="#fd8d3c" x="344" y="163" stroke-opacity="0.75" stroke-width="1" stroke="#7c7c7c"></rect><rect width="16" height="16" fill-opacity="1" fill="#f43d25" x="364.5" y="40" stroke-opacity="0.75" stroke-width="1" stroke="#7c7c7c"></rect><rect width="16" height="16" fill-opacity="1" fill="#f43d25" x="364.5" y="60.5" stroke-opacity="0.75" stroke-width="1" stroke="#7c7c7c"></rect><rect width="16" height="16" fill-opacity="1" fill="#f43d25" x="364.5" y="81" stroke-opacity="0.75" stroke-width="1" stroke="#7c7c7c"></rect><rect width="16" height="16" fill-opacity="1" fill="#ca0923" x="364.5" y="101.5" stroke-opacity="0.75" stroke-width="1" stroke="#7c7c7c"></rect><rect width="16" height="16" fill-opacity="1" fill="#800026" x="364.5" y="122" stroke-opacity="0.75" stroke-width="1" stroke="#7c7c7c"></rect><rect width="16" height="16" fill-opacity="1" fill="#800026" x="364.5" y="142.5" stroke-opacity="0.75" stroke-width="1" stroke="#7c7c7c"></rect><rect width="16" height="16" fill-opacity="1" fill="#800026" x="364.5" y="163" stroke-opacity="0.75" stroke-width="1" stroke="#7c7c7c"></rect><rect width="16" height="16" fill-opacity="1" fill="#800026" x="385" y="40" stroke-opacity="0.75" stroke-width="1" stroke="#7c7c7c"></rect><rect width="16" height="16" fill-opacity="1" fill="#ca0923" x="385" y="60.5" stroke-opacity="0.75" stroke-width="1" stroke="#7c7c7c"></rect><rect width="16" height="16" fill-opacity="1" fill="#febf5a" x="385" y="81" stroke-opacity="0.75" stroke-width="1" stroke="#7c7c7c"></rect><rect width="16" height="16" fill-opacity="1" fill="#fd8d3c" x="385" y="101.5" stroke-opacity="0.75" stroke-width="1" stroke="#7c7c7c"></rect><rect width="16" height="16" fill-opacity="1" fill="#f43d25" x="385" y="122" stroke-opacity="0.75" stroke-width="1" stroke="#7c7c7c"></rect><rect width="16" height="16" fill-opacity="1" fill="#ca0923" x="385" y="142.5" stroke-opacity="0.75" stroke-width="1" stroke="#7c7c7c"></rect><rect width="16" height="16" fill-opacity="1" fill="#f43d25" x="385" y="163" stroke-opacity="0.75" stroke-width="1" stroke="#7c7c7c"></rect><rect width="16" height="16" fill-opacity="1" fill="#fd8d3c" x="405.5" y="40" stroke-opacity="0.75" stroke-width="1" stroke="#7c7c7c"></rect><rect width="16" height="16" fill-opacity="1" fill="#febf5a" x="405.5" y="60.5" stroke-opacity="0.75" stroke-width="1" stroke="#7c7c7c"></rect><rect width="16" height="16" fill-opacity="1" fill="#fd8d3c" x="405.5" y="81" stroke-opacity="0.75" stroke-width="1" stroke="#7c7c7c"></rect><rect width="16" height="16" fill-opacity="1" fill="#fd8d3c" x="405.5" y="101.5" stroke-opacity="0.75" stroke-width="1" stroke="#7c7c7c"></rect><rect width="16" height="16" fill-opacity="1" fill="#fd8d3c" x="405.5" y="122" stroke-opacity="0.75" stroke-width="1" stroke="#7c7c7c"></rect><rect width="16" height="16" fill-opacity="1" fill="#f43d25" x="405.5" y="142.5" stroke-opacity="0.75" stroke-width="1" stroke="#7c7c7c"></rect><rect width="16" height="16" fill-opacity="1" fill="#fd8d3c" x="405.5" y="163" stroke-opacity="0.75" stroke-width="1" stroke="#7c7c7c"></rect><rect width="16" height="16" fill-opacity="1" fill="#f43d25" x="426" y="40" stroke-opacity="0.75" stroke-width="1" stroke="#7c7c7c"></rect><rect width="16" height="16" fill-opacity="1" fill="#fd8d3c" x="426" y="60.5" stroke-opacity="0.75" stroke-width="1" stroke="#7c7c7c"></rect></g><g><rect width="16" height="16" fill-opacity="1" fill="#fd8d3c" x="452" y="40" stroke-opacity="0.75" stroke-width="1" stroke="#7c7c7c"></rect><rect width="16" height="16" fill-opacity="1" fill="#febf5a" x="452" y="60.5" stroke-opacity="0.75" stroke-width="1" stroke="#7c7c7c"></rect><rect width="16" height="16" fill-opacity="1" fill="#fd8d3c" x="452" y="81" stroke-opacity="0.75" stroke-width="1" stroke="#7c7c7c"></rect><rect width="16" height="16" fill-opacity="1" fill="#f43d25" x="452" y="101.5" stroke-opacity="0.75" stroke-width="1" stroke="#7c7c7c"></rect><rect width="16" height="16" fill-opacity="1" fill="#ca0923" x="452" y="122" stroke-opacity="0.75" stroke-width="1" stroke="#7c7c7c"></rect><rect width="16" height="16" fill-opacity="1" fill="#ca0923" x="452" y="142.5" stroke-opacity="0.75" stroke-width="1" stroke="#7c7c7c"></rect><rect width="16" height="16" fill-opacity="1" fill="#ca0923" x="452" y="163" stroke-opacity="0.75" stroke-width="1" stroke="#7c7c7c"></rect><rect width="16" height="16" fill-opacity="1" fill="#f43d25" x="472.5" y="40" stroke-opacity="0.75" stroke-width="1" stroke="#7c7c7c"></rect><rect width="16" height="16" fill-opacity="1" fill="#ca0923" x="472.5" y="60.5" stroke-opacity="0.75" stroke-width="1" stroke="#7c7c7c"></rect><rect width="16" height="16" fill-opacity="1" fill="#ca0923" x="472.5" y="81" stroke-opacity="0.75" stroke-width="1" stroke="#7c7c7c"></rect><rect width="16" height="16" fill-opacity="1" fill="#dddddd" x="472.5" y="101.5" stroke-opacity="0.75" stroke-width="1" stroke="#7c7c7c"></rect><rect width="16" height="16" fill-opacity="1" fill="#800026" x="472.5" y="122" stroke-opacity="0.75" stroke-width="1" stroke="#7c7c7c"></rect><rect width="16" height="16" fill-opacity="1" fill="#ca0923" x="472.5" y="142.5" stroke-opacity="0.75" stroke-width="1" stroke="#7c7c7c"></rect><rect width="16" height="16" fill-opacity="1" fill="#f43d25" x="472.5" y="163" stroke-opacity="0.75" stroke-width="1" stroke="#7c7c7c"></rect><rect width="16" height="16" fill-opacity="1" fill="#ca0923" x="493" y="40" stroke-opacity="0.75" stroke-width="1" stroke="#7c7c7c"></rect><rect width="16" height="16" fill-opacity="1" fill="#ca0923" x="493" y="60.5" stroke-opacity="0.75" stroke-width="1" stroke="#7c7c7c"></rect><rect width="16" height="16" fill-opacity="1" fill="#dddddd" x="493" y="81" stroke-opacity="0.75" stroke-width="1" stroke="#7c7c7c"></rect><rect width="16" height="16" fill-opacity="1" fill="#f43d25" x="493" y="101.5" stroke-opacity="0.75" stroke-width="1" stroke="#7c7c7c"></rect><rect width="16" height="16" fill-opacity="1" fill="#ca0923" x="493" y="122" stroke-opacity="0.75" stroke-width="1" stroke="#7c7c7c"></rect><rect width="16" height="16" fill-opacity="1" fill="#f43d25" x="493" y="142.5" stroke-opacity="0.75" stroke-width="1" stroke="#7c7c7c"></rect><rect width="16" height="16" fill-opacity="1" fill="#ca0923" x="493" y="163" stroke-opacity="0.75" stroke-width="1" stroke="#7c7c7c"></rect><rect width="16" height="16" fill-opacity="1" fill="#ca0923" x="513.5" y="40" stroke-opacity="0.75" stroke-width="1" stroke="#7c7c7c"></rect><rect width="16" height="16" fill-opacity="1" fill="#800026" x="513.5" y="60.5" stroke-opacity="0.75" stroke-width="1" stroke="#7c7c7c"></rect><rect width="16" height="16" fill-opacity="1" fill="#f43d25" x="513.5" y="81" stroke-opacity="0.75" stroke-width="1" stroke="#7c7c7c"></rect><rect width="16" height="16" fill-opacity="1" fill="#f43d25" x="513.5" y="101.5" stroke-opacity="0.75" stroke-width="1" stroke="#7c7c7c"></rect><rect width="16" height="16" fill-opacity="1" fill="#dddddd" x="513.5" y="122" stroke-opacity="0.75" stroke-width="1" stroke="#7c7c7c"></rect><rect width="16" height="16" fill-opacity="1" fill="#800026" x="513.5" y="142.5" stroke-opacity="0.75" stroke-width="1" stroke="#7c7c7c"></rect><rect width="16" height="16" fill-opacity="1" fill="#800026" x="513.5" y="163" stroke-opacity="0.75" stroke-width="1" stroke="#7c7c7c"></rect><rect width="16" height="16" fill-opacity="1" fill="#800026" x="534" y="40" stroke-opacity="0.75" stroke-width="1" stroke="#7c7c7c"></rect><rect width="16" height="16" fill-opacity="1" fill="#800026" x="534" y="60.5" stroke-opacity="0.75" stroke-width="1" stroke="#7c7c7c"></rect><rect width="16" height="16" fill-opacity="1" fill="#800026" x="534" y="81" stroke-opacity="0.75" stroke-width="1" stroke="#7c7c7c"></rect></g><g><rect width="16" height="16" fill-opacity="1" fill="#ffffcc" x="406.5" y="203" stroke-opacity="0.75" stroke-width="1" stroke="#7c7c7c"></rect><rect width="16" height="16" fill-opacity="1" fill="#ffe692" x="427" y="203" stroke-opacity="0.75" stroke-width="1" stroke="#7c7c7c"></rect><rect width="16" height="16" fill-opacity="1" fill="#febf5a" x="447.5" y="203" stroke-opacity="0.75" stroke-width="1" stroke="#7c7c7c"></rect><rect width="16" height="16" fill-opacity="1" fill="#fd8d3c" x="468" y="203" stroke-opacity="0.75" stroke-width="1" stroke="#7c7c7c"></rect><rect width="16" height="16" fill-opacity="1" fill="#f43d25" x="488.5" y="203" stroke-opacity="0.75" stroke-width="1" stroke="#7c7c7c"></rect><rect width="16" height="16" fill-opacity="1" fill="#ca0923" x="509" y="203" stroke-opacity="0.75" stroke-width="1" stroke="#7c7c7c"></rect><rect width="16" height="16" fill-opacity="1" fill="#800026" x="529.5" y="203" stroke-opacity="0.75" stroke-width="1" stroke="#7c7c7c"></rect></g></svg>