<?xml version="1.0" encoding="UTF-8" standalone="no"?>
<!DOCTYPE svg PUBLIC "-//W3C//DTD SVG 1.1//EN" "http://www.w3.org/Graphics/SVG/1.1/DTD/svg11.dtd">
<!-- Created with Vectornator (http://vectornator.io/) -->
<svg height="100%" stroke-miterlimit="10" style="fill-rule:nonzero;clip-rule:evenodd;stroke-linecap:round;stroke-linejoin:round;" version="1.1" viewBox="0 0 300 200" width="100%" xml:space="preserve" xmlns="http://www.w3.org/2000/svg" xmlns:vectornator="http://vectornator.io" xmlns:xlink="http://www.w3.org/1999/xlink">
<defs/>
<g id="Layer-1" vectornator:layerName="Layer 1">
<g opacity="1">
<path d="M76.251 78.8216L105.587 89.499L135.357 78.6635L106.021 67.9861L76.251 78.8216Z" fill="#f7f7f4" fill-rule="nonzero" opacity="1" stroke="none"/>
<path d="M106.29 67.2468L105.752 67.2468L75.9819 78.0823L75.9819 79.5608L105.318 90.2382L105.856 90.2382L135.626 79.4028L135.626 77.9243L106.29 67.2468ZM106.02 68.8217L133.055 78.6617L105.586 88.6621L78.5522 78.819L106.02 68.8217Z" fill="#cccccc" fill-rule="nonzero" opacity="1" stroke="none"/>
<path d="M76.251 78.8216L105.587 89.499L105.587 123.978L76.251 113.301L76.251 78.8216Z" fill="#efeeea" fill-rule="nonzero" opacity="1" stroke="none"/>
<path d="M76.5201 78.0823L75.4643 78.8216L75.4643 113.301L75.9819 114.04L105.318 124.718L106.374 123.978L106.374 89.499L105.856 88.7597L76.5201 78.0823ZM77.0355 79.9424L104.8 90.0467L104.8 122.855L77.0355 112.748L77.0355 79.9424Z" fill="#cccccc" fill-rule="nonzero" opacity="1" stroke="none"/>
<path d="M105.715 54.7145L135.051 65.392L164.821 54.5565L135.485 43.8791L105.715 54.7145Z" fill="#f7f7f4" fill-rule="nonzero" opacity="1" stroke="none"/>
<path d="M135.754 43.1398L135.216 43.1398L105.446 53.9753L105.446 55.4538L134.782 66.1312L135.32 66.1312L165.09 55.2958L165.09 53.8173L135.754 43.1398ZM135.484 44.7142L162.518 54.5542L135.046 64.5546L108.009 54.7146L135.484 44.7142Z" fill="#cccccc" fill-rule="nonzero" opacity="1" stroke="none"/>
<path d="M105.715 54.7145L135.051 65.392L135.051 99.8713L105.715 89.1939L105.715 54.7145Z" fill="#efeeea" fill-rule="nonzero" opacity="1" stroke="none"/>
<path d="M105.984 53.9753L104.928 54.7145L104.928 89.1939L105.446 89.9331L134.782 100.611L135.838 99.8713L135.838 65.392L135.32 64.6527L105.984 53.9753ZM106.499 55.8349L134.263 65.9424L134.263 98.7476L106.499 88.6433L106.499 55.8349Z" fill="#cccccc" fill-rule="nonzero" opacity="1" stroke="none"/>
<path d="M46.7867 124.357L76.1227 135.034L105.893 124.199L76.5568 113.521L46.7867 124.357Z" fill="#f7f7f4" fill-rule="nonzero" opacity="1" stroke="none"/>
<path d="M76.8259 112.782L76.2878 112.782L46.5176 123.618L46.5176 125.096L75.8536 135.774L76.3918 135.774L106.162 124.938L106.162 123.46L76.8259 112.782ZM76.5571 114.356L103.594 124.196L76.1197 134.196L49.0857 124.356L76.5571 114.356Z" fill="#cccccc" fill-rule="nonzero" opacity="1" stroke="none"/>
<path d="M46.7867 124.357L76.1227 135.034L76.1227 169.514L46.7867 158.836L46.7867 124.357Z" fill="#efeeea" fill-rule="nonzero" opacity="1" stroke="none"/>
<path d="M47.0558 123.618L46 124.357L46 158.836L46.5176 159.575L75.8536 170.253L76.9094 169.514L76.9094 135.034L76.3918 134.295L47.0558 123.618ZM47.5721 125.48L75.333 135.584L75.333 168.389L47.5721 158.285L47.5721 125.48Z" fill="#cccccc" fill-rule="nonzero" opacity="1" stroke="none"/>
<path d="M76.2509 135.071L105.587 145.749L105.587 180.228L76.2509 169.55L76.2509 135.071Z" fill="#efeeea" fill-rule="nonzero" opacity="1" stroke="none"/>
<path d="M76.5199 134.332L75.4642 135.071L75.4642 169.55L75.9818 170.29L105.318 180.967L106.374 180.228L106.374 145.749L105.856 145.009L76.5199 134.332ZM77.0355 136.191L104.8 146.299L104.8 179.104L77.0355 169L77.0355 136.191Z" fill="#cccccc" fill-rule="nonzero" opacity="1" stroke="none"/>
<path d="M76.2509 100.25L105.587 110.927L135.357 100.092L106.021 89.4145L76.2509 100.25Z" fill="#f7f7f4" fill-rule="nonzero" opacity="1" stroke="none"/>
<path d="M106.29 88.6752L105.752 88.6752L75.9818 99.5107L75.9818 100.989L105.318 111.667L105.856 111.667L135.626 100.831L135.626 99.3527L106.29 88.6752ZM106.02 90.2513L133.055 100.091L105.586 110.089L78.5522 100.249L106.02 90.2513Z" fill="#cccccc" fill-rule="nonzero" opacity="1" stroke="none"/>
<path d="M76.2509 100.25L105.587 110.927L105.587 145.407L76.2509 134.729L76.2509 100.25Z" fill="#efeeea" fill-rule="nonzero" opacity="1" stroke="none"/>
<path d="M76.5199 99.5107L75.4642 100.25L75.4642 134.729L75.9818 135.469L105.318 146.146L106.374 145.407L106.374 110.927L105.856 110.188L76.5199 99.5107ZM77.0355 101.372L104.8 111.476L104.8 144.282L77.0355 134.177L77.0355 101.372Z" fill="#cccccc" fill-rule="nonzero" opacity="1" stroke="none"/>
<path d="M223.443 124.32L223.443 158.799L253.213 147.964L253.213 113.485L223.443 124.32Z" fill="#ffffff" fill-rule="nonzero" opacity="1" stroke="none"/>
<path d="M252.944 112.745L223.174 123.581L222.656 124.32L222.656 158.799L223.712 159.539L253.482 148.703L254 147.964L254 113.485L252.944 112.745ZM252.425 114.607L252.425 147.413L224.229 157.674L224.229 124.869L252.425 114.607Z" fill="#cccccc" fill-rule="nonzero" opacity="1" stroke="none"/>
<path d="M193.979 135.034L193.979 169.514L223.749 158.678L223.749 124.199L193.979 135.034Z" fill="#ffd242" fill-rule="nonzero" opacity="1" stroke="none"/>
<path d="M223.48 123.46L193.71 134.295L193.192 135.034L193.192 169.514L194.248 170.253L224.018 159.417L224.536 158.678L224.536 124.199L223.48 123.46ZM222.961 125.319L222.961 158.127L194.763 168.389L194.763 135.584L222.961 125.319Z" fill="#cccccc" fill-rule="nonzero" opacity="1" stroke="none"/>
<path d="M164.515 145.749L164.515 180.228L194.285 169.392L194.285 134.913L164.515 145.749Z" fill="#ffd242" fill-rule="nonzero" opacity="1" stroke="none"/>
<path d="M194.016 134.174L164.246 145.009L163.728 145.749L163.728 180.228L164.784 180.967L194.554 170.132L195.072 169.392L195.072 134.913L194.016 134.174ZM193.498 136.034L193.498 168.839L165.3 179.104L165.3 146.299L193.498 136.034Z" fill="#cccccc" fill-rule="nonzero" opacity="1" stroke="none"/>
<path d="M135.051 156.463L135.051 190.942L164.821 180.107L164.821 145.627L135.051 156.463Z" fill="#ffffff" fill-rule="nonzero" opacity="1" stroke="none"/>
<path d="M164.552 144.888L134.782 155.724L134.264 156.463L134.264 190.942L135.32 191.681L165.09 180.846L165.608 180.107L165.608 145.627L164.552 144.888ZM164.031 146.749L164.031 179.554L135.836 189.819L135.836 157.01L164.031 146.749Z" fill="#cccccc" fill-rule="nonzero" opacity="1" stroke="none"/>
<path d="M105.715 145.785L135.051 156.463L135.051 190.942L105.715 180.265L105.715 145.785Z" fill="#efeeea" fill-rule="nonzero" opacity="1" stroke="none"/>
<path d="M105.984 145.046L104.928 145.785L104.928 180.265L105.446 181.004L134.782 191.681L135.838 190.942L135.838 156.463L135.32 155.724L105.984 145.046ZM106.499 146.906L134.263 157.01L134.263 189.819L106.499 179.711L106.499 146.906Z" fill="#cccccc" fill-rule="nonzero" opacity="1" stroke="none"/>
<path d="M223.443 89.499L223.443 123.978L253.213 113.143L253.213 78.6635L223.443 89.499Z" fill="#ffd242" fill-rule="nonzero" opacity="1" stroke="none"/>
<path d="M252.944 77.9242L223.174 88.7597L222.656 89.499L222.656 123.978L223.712 124.718L253.482 113.882L254 113.143L254 78.6635L252.944 77.9242ZM252.425 79.7851L252.425 112.59L224.229 122.855L224.229 90.0467L252.425 79.7851Z" fill="#cccccc" fill-rule="nonzero" opacity="1" stroke="none"/>
<path d="M194.107 44.0003L194.107 78.4796L223.877 67.6442L223.877 33.1649L194.107 44.0003Z" fill="#353564" fill-rule="nonzero" opacity="1" stroke="none"/>
<path d="M223.608 32.4256L193.838 43.2611L193.32 44.0003L193.32 78.4796L194.376 79.2189L224.146 68.3834L224.664 67.6442L224.664 33.1649L223.608 32.4256ZM223.09 34.2857L223.09 67.0909L194.892 77.3558L194.892 44.5505L223.09 34.2857Z" fill="#cccccc" fill-rule="nonzero" opacity="1" stroke="none"/>
<path d="M194.107 44.0003L223.443 54.6778L253.213 43.8423L223.877 33.1649L194.107 44.0003Z" fill="#ffc91d" fill-rule="nonzero" opacity="1" stroke="none"/>
<path d="M224.146 32.4256L223.608 32.4256L193.838 43.2611L193.838 44.7396L223.174 55.417L223.712 55.417L253.482 44.5816L253.482 43.103L224.146 32.4256ZM223.877 33.9994L250.917 43.8394L223.443 53.8398L196.409 43.9998L223.877 33.9994Z" fill="#cccccc" fill-rule="nonzero" opacity="1" stroke="none"/>
<path d="M223.443 54.6778L223.443 89.1571L253.213 78.3216L253.213 43.8423L223.443 54.6778Z" fill="#ffd242" fill-rule="nonzero" opacity="1" stroke="none"/>
<path d="M252.944 43.103L223.174 53.9385L222.656 54.6778L222.656 89.1571L223.712 89.8963L253.482 79.0609L254 78.3216L254 43.8423L252.944 43.103ZM252.425 44.9628L252.425 77.7711L224.229 88.0328L224.229 55.2276L252.425 44.9628Z" fill="#cccccc" fill-rule="nonzero" opacity="1" stroke="none"/>
<path d="M193.979 100.213L193.979 134.692L223.749 123.857L223.749 89.3777L193.979 100.213Z" fill="#ffd242" fill-rule="nonzero" opacity="1" stroke="none"/>
<path d="M223.48 88.6385L193.71 99.4739L193.192 100.213L193.192 134.692L194.248 135.432L224.018 124.596L224.536 123.857L224.536 89.3777L223.48 88.6385ZM222.961 90.4999L222.961 123.305L194.763 133.567L194.763 100.762L222.961 90.4999Z" fill="#cccccc" fill-rule="nonzero" opacity="1" stroke="none"/>
<path d="M193.979 65.392L193.979 99.8713L223.749 89.0358L223.749 54.5565L193.979 65.392Z" fill="#3775a9" fill-rule="nonzero" opacity="1" stroke="none"/>
<path d="M223.48 53.8173L193.71 64.6527L193.192 65.392L193.192 99.8713L194.248 100.611L224.018 89.7751L224.536 89.0358L224.536 54.5565L223.48 53.8173ZM222.961 55.6776L222.961 88.4828L194.763 98.7476L194.763 65.9424L222.961 55.6776Z" fill="#cccccc" fill-rule="nonzero" opacity="1" stroke="none"/>
<path d="M164.643 19.8934L193.979 30.5708L223.749 19.7353L194.413 9.0579L164.643 19.8934Z" fill="#2f6491" fill-rule="nonzero" opacity="1" stroke="none"/>
<path d="M194.682 8.31864L194.144 8.31864L164.374 19.1541L164.374 20.6326L193.71 31.31L194.248 31.31L224.018 20.4746L224.018 18.9961L194.682 8.31864ZM194.41 9.89185L221.445 19.735L193.976 29.7323L166.942 19.8923L194.41 9.89185Z" fill="#cccccc" fill-rule="nonzero" opacity="1" stroke="none"/>
<path d="M193.979 30.5708L193.979 65.0501L223.749 54.2146L223.749 19.7353L193.979 30.5708Z" fill="#3775a9" fill-rule="nonzero" opacity="1" stroke="none"/>
<path d="M223.48 18.9961L193.71 29.8315L193.192 30.5708L193.192 65.0501L194.248 65.7894L224.018 54.9539L224.536 54.2146L224.536 19.7353L223.48 18.9961ZM222.961 20.8584L222.961 53.6636L194.763 63.9253L194.763 31.1201L222.961 20.8584Z" fill="#cccccc" fill-rule="nonzero" opacity="1" stroke="none"/>
<path d="M135.179 134.729L164.515 145.407L194.285 134.571L164.949 123.894L135.179 134.729Z" fill="#afafde" fill-rule="nonzero" opacity="1" stroke="none"/>
<path d="M165.218 123.155L164.68 123.155L134.91 133.99L134.91 135.469L164.246 146.146L164.784 146.146L194.554 135.31L194.554 133.832L165.218 123.155ZM164.947 124.731L191.981 134.571L164.513 144.568L137.479 134.728L164.947 124.731Z" fill="#cccccc" fill-rule="nonzero" opacity="1" stroke="none"/>
<path d="M164.515 110.927L164.515 145.407L194.285 134.571L194.285 100.092L164.515 110.927Z" fill="#ffd242" fill-rule="nonzero" opacity="1" stroke="none"/>
<path d="M194.016 99.3527L164.246 110.188L163.728 110.927L163.728 145.407L164.784 146.146L194.554 135.31L195.072 134.571L195.072 100.092L194.016 99.3527ZM193.498 101.215L193.498 134.02L165.3 144.282L165.3 111.476L193.498 101.215Z" fill="#cccccc" fill-rule="nonzero" opacity="1" stroke="none"/>
<path d="M164.515 76.1062L164.515 110.585L194.285 99.75L194.285 65.2707L164.515 76.1062Z" fill="#3775a9" fill-rule="nonzero" opacity="1" stroke="none"/>
<path d="M194.016 64.5315L164.246 75.3669L163.728 76.1062L163.728 110.585L164.784 111.325L194.554 100.489L195.072 99.75L195.072 65.2707L194.016 64.5315ZM193.498 66.3924L193.498 99.1976L165.3 109.459L165.3 76.654L193.498 66.3924Z" fill="#cccccc" fill-rule="nonzero" opacity="1" stroke="none"/>
<path d="M135.485 100.129L164.821 110.806L164.821 145.285L135.485 134.608L135.485 100.129Z" fill="#e9e9ff" fill-rule="nonzero" opacity="1" stroke="none"/>
<path d="M135.754 99.3894L134.698 100.129L134.698 134.608L135.216 135.347L164.552 146.025L165.608 145.285L165.608 110.806L165.09 110.067L135.754 99.3894ZM136.271 101.249L164.031 111.354L164.031 144.162L136.271 134.055L136.271 101.249Z" fill="#cccccc" fill-rule="nonzero" opacity="1" stroke="none"/>
<path d="M135.051 121.642L135.051 156.121L164.821 145.285L164.821 110.806L135.051 121.642Z" fill="#3775a9" fill-rule="nonzero" opacity="1" stroke="none"/>
<path d="M164.552 110.067L134.782 120.902L134.264 121.642L134.264 156.121L135.32 156.86L165.09 146.025L165.608 145.285L165.608 110.806L164.552 110.067ZM164.031 111.926L164.031 144.735L135.836 154.996L135.836 122.191L164.031 111.926Z" fill="#cccccc" fill-rule="nonzero" opacity="1" stroke="none"/>
<path d="M105.715 110.964L135.051 121.642L135.051 156.121L105.715 145.443L105.715 110.964Z" fill="#2f6491" fill-rule="nonzero" opacity="1" stroke="none"/>
<path d="M105.984 110.225L104.928 110.964L104.928 145.443L105.446 146.183L134.782 156.86L135.838 156.121L135.838 121.642L135.32 120.902L105.984 110.225ZM106.499 112.087L134.263 122.191L134.263 154.996L106.499 144.892L106.499 112.087Z" fill="#cccccc" fill-rule="nonzero" opacity="1" stroke="none"/>
<path d="M105.715 76.143L135.051 86.8204L164.821 75.9849L135.485 65.3075L105.715 76.143Z" fill="#2f6491" fill-rule="nonzero" opacity="1" stroke="none"/>
<path d="M135.754 64.5682L135.216 64.5682L105.446 75.4037L105.446 76.8822L134.782 87.5596L135.32 87.5596L165.09 76.7242L165.09 75.2457L135.754 64.5682ZM135.484 66.1438L162.518 75.9838L135.05 85.9811L108.016 76.1411L135.484 66.1438Z" fill="#cccccc" fill-rule="nonzero" opacity="1" stroke="none"/>
<path d="M135.051 86.8204L135.051 121.3L164.821 110.464L164.821 75.9849L135.051 86.8204Z" fill="#3775a9" fill-rule="nonzero" opacity="1" stroke="none"/>
<path d="M164.552 75.2457L134.782 86.0811L134.264 86.8204L134.264 121.3L135.32 122.039L165.09 111.204L165.608 110.464L165.608 75.9849L164.552 75.2457ZM164.031 77.1072L164.031 109.912L135.836 120.174L135.836 87.3688L164.031 77.1072Z" fill="#cccccc" fill-rule="nonzero" opacity="1" stroke="none"/>
<path d="M105.715 76.143L135.051 86.8204L135.051 121.3L105.715 110.622L105.715 76.143Z" fill="#2f6491" fill-rule="nonzero" opacity="1" stroke="none"/>
<path d="M105.984 75.4037L104.928 76.143L104.928 110.622L105.446 111.362L134.782 122.039L135.838 121.3L135.838 86.8204L135.32 86.0811L105.984 75.4037ZM106.499 77.2645L134.263 87.3688L134.263 120.174L106.499 110.07L106.499 77.2645Z" fill="#cccccc" fill-rule="nonzero" opacity="1" stroke="none"/>
<path d="M135.179 30.6076L135.179 65.0869L164.949 54.2514L164.949 19.7721L135.179 30.6076Z" fill="#353564" fill-rule="nonzero" opacity="1" stroke="none"/>
<path d="M164.68 19.0329L134.91 29.8683L134.392 30.6076L134.392 65.0869L135.448 65.8261L165.218 54.9907L165.736 54.2514L165.736 19.7721L164.68 19.0329ZM164.16 20.893L164.16 53.6982L135.965 63.963L135.965 31.1578L164.16 20.893Z" fill="#cccccc" fill-rule="nonzero" opacity="1" stroke="none"/>
<path d="M135.179 30.6076L164.515 41.285L194.285 30.4495L164.949 19.7721L135.179 30.6076Z" fill="#2f6491" fill-rule="nonzero" opacity="1" stroke="none"/>
<path d="M165.218 19.0329L164.68 19.0329L134.91 29.8683L134.91 31.3468L164.246 42.0243L164.784 42.0243L194.554 31.1888L194.554 29.7103L165.218 19.0329ZM164.95 20.6067L191.981 30.4466L164.513 40.4471L137.479 30.6071L164.95 20.6067Z" fill="#cccccc" fill-rule="nonzero" opacity="1" stroke="none"/>
<path d="M164.515 41.285L164.515 75.7643L194.285 64.9289L194.285 30.4495L164.515 41.285Z" fill="#3775a9" fill-rule="nonzero" opacity="1" stroke="none"/>
<path d="M194.016 29.7103L164.246 40.5458L163.728 41.285L163.728 75.7643L164.784 76.5036L194.554 65.6681L195.072 64.9289L195.072 30.4495L194.016 29.7103ZM193.498 31.57L193.498 64.3784L165.3 74.6401L165.3 41.8349L193.498 31.57Z" fill="#cccccc" fill-rule="nonzero" opacity="1" stroke="none"/>
<path d="M135.179 30.6076L164.515 41.285L164.515 75.7643L135.179 65.0869L135.179 30.6076Z" fill="#2f6491" fill-rule="nonzero" opacity="1" stroke="none"/>
<path d="M135.448 29.8683L134.392 30.6076L134.392 65.0869L134.91 65.8261L164.246 76.5036L165.302 75.7643L165.302 41.285L164.784 40.5458L135.448 29.8683ZM135.965 31.7305L163.726 41.8349L163.726 74.6401L135.965 64.5358L135.965 31.7305Z" fill="#cccccc" fill-rule="nonzero" opacity="1" stroke="none"/>
<path d="M206.919 145.523C206.919 143.312 209.478 141.519 212.636 141.519C215.794 141.519 218.354 143.312 218.354 145.523C218.354 147.734 215.794 149.526 212.636 149.526C209.478 149.526 206.919 147.734 206.919 145.523Z" fill="#ffffff" fill-rule="nonzero" opacity="1" stroke="none"/>
<path d="M169.911 54.4404C169.911 52.2294 172.471 50.437 175.628 50.437C178.786 50.437 181.346 52.2294 181.346 54.4404C181.346 56.6514 178.786 58.4438 175.628 58.4438C172.471 58.4438 169.911 56.6514 169.911 54.4404Z" fill="#ffffff" fill-rule="nonzero" opacity="1" stroke="none"/>
</g>
</g>
</svg>
