<?xml version="1.0" encoding="UTF-8" standalone="no"?>
<!DOCTYPE svg PUBLIC "-//W3C//DTD SVG 1.1//EN" "http://www.w3.org/Graphics/SVG/1.1/DTD/svg11.dtd">
<!-- Created with Vectornator (http://vectornator.io/) -->
<svg height="100%" stroke-miterlimit="10" style="fill-rule:nonzero;clip-rule:evenodd;stroke-linecap:round;stroke-linejoin:round;" version="1.1" viewBox="0 0 300 200" width="100%" xml:space="preserve" xmlns="http://www.w3.org/2000/svg" xmlns:xlink="http://www.w3.org/1999/xlink">
<defs/>
<g id="Layer-2">
<g opacity="1">
<path d="M216.313 67.8021C214.123 67.0504 211.916 66.3523 209.69 65.708C210.06 64.2046 210.403 62.6951 210.719 61.1798C215.731 36.8383 212.456 17.2219 201.251 10.7607C190.512 4.56795 172.954 11.0292 155.217 26.4663C153.469 27.9877 151.763 29.5538 150.098 31.1646C148.983 30.0907 147.849 29.0407 146.698 28.0145C128.102 11.5214 109.461 4.57689 98.2744 11.0381C87.5623 17.2488 84.3854 35.6928 88.8778 58.7635C89.3372 61.0485 89.8443 63.3216 90.3992 65.5827C87.7771 66.3344 85.2266 67.1309 82.7925 67.9811C61.0015 75.5878 47.0857 87.49 47.0857 99.8398C47.0857 112.592 62.0306 125.389 84.7255 133.13C86.563 133.763 88.4185 134.347 90.2918 134.884C89.6833 137.313 89.1463 139.759 88.681 142.223C84.3675 164.891 87.7324 182.896 98.4354 189.071C109.479 195.443 128.021 188.892 146.089 173.106C147.521 171.865 148.953 170.546 150.385 169.15C152.187 170.898 154.036 172.593 155.933 174.233C173.438 189.286 190.709 195.353 201.395 189.178C212.447 182.78 216.035 163.441 211.373 139.914C211.015 138.124 210.603 136.292 210.138 134.419C211.438 134.037 212.715 133.64 213.968 133.229C237.567 125.407 252.914 112.762 252.914 99.8398C252.914 87.4363 238.551 75.4535 216.313 67.8021ZM161.007 33.1065C176.203 19.8798 190.405 14.6714 196.893 18.3943C203.784 22.3676 206.451 38.3954 202.119 59.4168C201.839 60.789 201.532 62.1522 201.198 63.5065C192.128 61.4507 182.932 59.9978 173.67 59.1573C168.363 51.5343 162.548 44.2781 156.264 37.4379C157.804 35.9583 159.379 34.5145 160.989 33.1065L161.007 33.1065ZM107.85 110.373C109.717 113.976 111.665 117.526 113.694 121.022C115.764 124.602 117.918 128.131 120.155 131.609C113.783 130.92 107.451 129.905 101.183 128.566C103.008 122.687 105.246 116.575 107.859 110.382L107.85 110.373ZM107.85 89.7005C105.29 83.633 103.107 77.664 101.317 71.8918C107.179 70.5763 113.443 69.5024 119.967 68.688C117.783 72.0887 115.68 75.549 113.658 79.069C111.629 82.5651 109.69 86.1089 107.841 89.7005L107.85 89.7005ZM112.521 100.046C115.23 94.4077 118.153 88.8772 121.291 83.454C124.406 78.0249 127.729 72.73 131.261 67.5694C137.382 67.1041 143.655 66.8535 150 66.8535C156.372 66.8535 162.654 67.1041 168.775 67.5694C172.265 72.73 175.57 78.01 178.691 83.4093C181.829 88.8145 184.788 94.3182 187.568 99.9203C184.824 105.576 181.877 111.131 178.727 116.583C175.606 122.001 172.313 127.31 168.847 132.513C162.743 132.96 156.434 133.175 150 133.175C143.592 133.175 137.364 132.978 131.368 132.584C127.812 127.394 124.459 122.075 121.309 116.628C118.171 111.199 115.242 105.669 112.521 100.037L112.521 100.046ZM186.351 120.986C188.415 117.389 190.402 113.75 192.311 110.069C194.926 115.982 197.232 122.028 199.22 128.181C192.883 129.604 186.475 130.694 180.024 131.448C182.196 128 184.302 124.509 186.342 120.977L186.351 120.986ZM192.222 89.7094C190.325 86.1059 188.356 82.5382 186.315 79.0063C184.299 75.5341 182.211 72.1036 180.051 68.7149C186.611 69.5472 192.902 70.6479 198.817 71.9992C196.918 78.0127 194.717 83.9266 192.222 89.7184L192.222 89.7094ZM150.089 43.747C154.372 48.4141 158.416 53.2945 162.207 58.3698C154.105 57.982 145.997 57.982 137.883 58.3698C141.883 53.0898 145.982 48.1857 150.098 43.747L150.089 43.747ZM102.695 18.6448C109.586 14.6625 124.799 20.3452 140.854 34.601C141.883 35.5138 142.912 36.4624 143.941 37.4468C137.621 44.288 131.762 51.5407 126.401 59.1573C117.167 59.9862 107.996 61.4121 98.9456 63.426C98.4206 61.3259 97.9492 59.208 97.5316 57.0721L97.5316 57.09C93.6567 37.3126 96.225 22.4034 102.695 18.6627L102.695 18.6448ZM92.6365 126.418C90.9361 125.929 89.2477 125.401 87.5713 124.835C78.8495 122.091 70.7074 117.765 63.552 112.073C59.4131 109.228 56.6369 104.796 55.8826 99.8308C55.8826 92.3404 67.0511 82.7828 85.683 76.2947C88.0277 75.4714 90.3902 74.7257 92.7707 74.0575C95.5353 82.9316 98.8836 91.6132 102.794 100.046C98.8341 108.601 95.444 117.408 92.6454 126.41L92.6365 126.418ZM140.299 166.51C133.567 172.686 125.755 177.57 117.255 180.918C112.73 183.088 107.508 183.289 102.829 181.473C96.3414 177.715 93.6387 163.271 97.3168 143.887C97.7583 141.59 98.2595 139.311 98.8203 137.05C107.966 139.012 117.235 140.352 126.562 141.059C131.966 148.717 137.867 156.011 144.228 162.895C142.951 164.13 141.645 165.332 140.308 166.501L140.299 166.51ZM150.34 156.559C146.17 152.067 142.017 147.091 137.955 141.739C141.892 141.894 145.907 141.972 150 141.972C154.194 141.972 158.335 141.882 162.421 141.704C158.651 146.858 154.618 151.817 150.34 156.559ZM203.739 168.792C203.356 173.801 200.917 178.427 197.001 181.572C190.512 185.33 176.641 180.444 161.679 167.575C159.966 166.108 158.242 164.539 156.506 162.868C162.744 155.962 168.508 148.643 173.76 140.961C183.139 140.17 192.454 138.735 201.636 136.665C202.054 138.36 202.424 140.018 202.746 141.641C204.738 150.557 205.071 159.764 203.73 168.801L203.739 168.792ZM211.203 124.879C210.066 125.255 208.912 125.613 207.73 125.953C204.854 117.037 201.374 108.328 197.314 99.8845C201.224 91.5563 204.572 82.9759 207.337 74.2007C209.431 74.8002 211.48 75.4535 213.449 76.1247C232.51 82.6754 244.126 92.3762 244.126 99.8397C244.126 107.804 231.571 118.132 211.194 124.879L211.203 124.879Z" fill="#61dafb" fill-rule="nonzero" opacity="1" stroke="none"/>
<path d="M150 81.4584C160.154 81.4584 168.385 89.6916 168.381 99.8457C168.378 110 160.142 118.228 149.988 118.221C139.834 118.215 131.609 109.976 131.619 99.8219C131.633 89.6806 139.859 81.4673 150 81.4673" fill="#61dafb" fill-rule="nonzero" opacity="1" stroke="none"/>
</g>
</g>
</svg>
