<svg xmlns="http://www.w3.org/2000/svg" width="860" height="512"><path fill="none" d="M0 0h860v512H0z"/><path d="M440.9 178.628a9.16 9.16 0 0 1 9.161 9.16v120.917a9.16 9.16 0 0 1-9.161 9.16H319.984a9.16 9.16 0 0 1-9.161-9.16V187.788a9.16 9.16 0 0 1 9.161-9.16H440.9zm-4.531 5.218H324.515a8.474 8.474 0 0 0-8.474 8.474v111.854a8.473 8.473 0 0 0 8.474 8.473h111.854a8.473 8.473 0 0 0 8.474-8.473V192.32a8.474 8.474 0 0 0-8.474-8.474zm-4.809 5.538a7.746 7.746 0 0 1 7.745 7.745v102.235a7.746 7.746 0 0 1-7.745 7.746H329.324a7.746 7.746 0 0 1-7.745-7.746V197.129a7.746 7.746 0 0 1 7.745-7.745H431.56zm-81.283 89.442h-21.415v21.415h21.415v-21.415zm-1.224 1.225v18.965h-18.966v-18.965h18.966zm-15.522 6.014c-1.396-.003-2.307.725-2.31 1.854-.001.544.209.991.622 1.316.292.228.616.359 1.225.498 1.12.263 1.168.271 1.411.401.252.139.405.415.405.748-.002.609-.49.973-1.301.971-.528-.001-.95-.172-1.185-.481-.145-.187-.194-.35-.225-.715l-1.169.119c.048.333.08.487.152.674.154.398.388.707.713.927.389.261 1.038.424 1.703.426.869.002 1.511-.2 1.942-.613.333-.332.513-.802.514-1.378.002-.609-.208-1.056-.67-1.398-.292-.204-.681-.359-1.322-.498-.901-.205-.966-.222-1.144-.295-.373-.163-.551-.399-.55-.74.001-.528.481-.884 1.187-.882.446.001.803.14 1.014.392.137.162.194.3.242.577l1.161-.136c-.096-.43-.193-.674-.396-.942-.396-.537-1.094-.823-2.019-.825zm3.441.154c.04.309.056.577.055 1.064l-.01 4.343a8.007 8.007 0 0 1-.059 1.055l1.144.002c-.048-.316-.055-.511-.054-1.039l.001-.527.667-.632.874 1.285c.34.496.437.658.533.918l1.445.003c-.186-.187-.186-.187-.736-.943l-1.368-1.878 1.156-1.093c.349-.332.349-.332.813-.745l-1.518-.004c-.13.203-.269.365-.643.721l-1.22 1.207.006-2.671c.001-.471.018-.755.059-1.063l-1.145-.003zm-6.436 34.839v73.188l7.367 7.367c1.921-.808 1.036-.622 2.598-.779a4.864 4.864 0 1 1-4.864 4.864c.038-1.062.299-2.188 1.076-2.965l-7.811-7.81v-73.865h1.634zm26.94 0h-1.634v46.815l.239.239 17.066 17.067c.549-.579.151-.199 1.332-.979l-17.003-17.003v-46.139zm60.614 0h-1.633v21.736l39.421 39.421c1.175.221 2.333.573 3.408 1.098l-41.196-41.196v-21.059zm-53.879 0h-1.634v43.999l17.142 17.142 1.945-.366-17.453-17.453v-43.322zm6.648 0h-1.633v41.206l.239.239 19.077 19.078 2.168.197.014.002.238-.089-20.103-20.103v-40.53zm40.496 0h-1.633v24.497l36.127 36.128c1.93-.176 1.215-.152 2.137-.173l-36.631-36.631v-23.821zm-26.94 0h-1.633v35.386l20.081 20.081v-.226c.114-1.004-.018-.466.496-1.588l-18.944-18.943v-34.71zm20.18 0h-1.634v27.287l.24.239 22.196 22.197c1.343.404 2.757.766 3.914 1.603l-24.716-24.716v-26.61zm-13.445 0h-1.633v32.805l.239.239 17.547 17.547c1.155-.515.594-.311 1.674-.636l-17.827-17.827v-32.128zm6.735 0h-1.633v30.077l.239.239 18.503 18.503c1.445-.131.716-.089 2.188-.122l-19.297-19.297v-29.4zm-60.614 0h-1.634v55.258l19.065 19.065.144-.054h.001l1.533-.579-19.109-19.109v-54.581zm6.735 0h-1.634v52.394l19.298 19.299 1.677-.634-19.341-19.341v-51.718zm6.735 0h-1.634v49.605l.239.239 19.238 19.238 1.677-.633-19.52-19.521v-48.928zm26.94 0h-1.634v38.446l20.194 20.194 1.677-.634-20.237-20.237v-37.769zm-59.671 87.629v.001c-2.051.835-1.26.314-2.51 1.335-1.453 1.584-1.335 2.296-1.335 4.367.213 1.013.662 1.765 1.335 2.509 1.917 1.753 4.143 1.898 6.315.461l11.89 11.89v15.909l-13.266 13.266v13.267c-2.433.389-4.001 2.383-4.123 4.787a4.863 4.863 0 1 0 9.725 0c-.037-2.365-1.669-4.287-3.968-4.756v-12.621l13.026-13.027.24-.239v-17.263l-.24-.239-12.156-12.156c1.391-2.001 1.004-4.418-.566-6.155-1.461-1.397-2.485-1.335-4.367-1.336zm-26.115-7.853a2.757 2.757 0 1 1 0 5.513 2.757 2.757 0 0 1 0-5.513zm-13.069 70.109a2.757 2.757 0 1 1 0 5.514 2.757 2.757 0 0 1 0-5.514zm.817-2.089v-24.366l13.266-13.266v-22.825c2.351-.428 3.806-2.516 3.922-4.806-.249-2.469-1.514-4.126-3.941-4.835l-.995-.1a4.935 4.935 0 0 0-4.935 4.935c.079 2.674 1.782 4.369 4.315 4.886v22.069l-13.266 13.266v21.617h.001v3.425c-2.441.403-3.998 2.444-4.119 4.846a4.934 4.934 0 1 0 9.87 0c-.036-2.466-1.75-4.363-4.118-4.846zm20.79-89.845-.98-.099a4.862 4.862 0 0 0-4.862 4.863c.036 2.421 1.717 4.297 4.045 4.772v36.771h.001v35.505c-2.4.398-3.927 2.412-4.046 4.772a4.862 4.862 0 1 0 9.725 0c-.036-2.421-1.717-4.297-4.046-4.772v-72.276c2.399-.398 3.927-2.412 4.046-4.772-.245-2.433-1.492-4.065-3.883-4.764zm131.127-57.951h-1.633v11.797l.239.24 83.442 83.442v14.012h.001v12.302c-2.468.382-4.08 2.353-4.203 4.804a4.862 4.862 0 1 0 9.724 0c-.039-2.307-1.62-4.278-3.888-4.74v-27.054l-83.682-83.682v-11.121zM282.207 425.624v-42.005l41.355-41.354.239-.239v-20.968h-1.634v20.291l-41.593 41.594v42.005l-14.679 14.678c-2.048-1.465-4.49-1.178-6.308.465-1.454 1.584-1.336 2.297-1.335 4.367.212 1.014.662 1.766 1.335 2.51a4.862 4.862 0 0 0 6.876 0c1.635-1.67 1.847-4.219.563-6.162l15.181-15.182zm37.074-67.132-1.271-.012c-2.051.836-1.26.314-2.51 1.335-1.682 1.759-1.86 4.199-.521 6.224l-7.404 7.404v51.873h.001v1.39l10.518 10.519c-1.395 2.004-1.015 4.422.561 6.165a4.862 4.862 0 1 0 6.876-6.877c-1.899-1.745-4.15-1.893-6.305-.467l-10.017-10.017V374.12l6.922-6.922c2.029 1.436 4.46 1.107 6.246-.507a4.862 4.862 0 0 0 0-6.876c-.943-.816-1.78-1.288-3.096-1.323zm-2.215-37.434h-1.634v9.544l-18.384 18.384c-2.012-1.827-4.761-1.615-6.712.149-1.454 1.584-1.335 2.297-1.335 4.367.212 1.014.662 1.765 1.335 2.509a4.86 4.86 0 0 0 6.876.001c1.155-1.181 1.576-2.727 1.336-4.367l-.468-1.333-.019-.029 19.005-19.005v-10.22zm120.982 0h-1.633v4.66l16.408 16.409c-1.448 2.037-1.139 4.474.488 6.273a4.863 4.863 0 0 0 6.877-6.876c-1.741-1.665-4.184-1.87-6.197-.539l-15.943-15.943v-3.984zm-13.626 0h-1.633v16.01l16.408 16.409c-1.448 2.037-1.138 4.474.489 6.274a4.862 4.862 0 1 0 6.876-6.877c-1.74-1.664-4.184-1.87-6.197-.539l-15.943-15.943v-15.334z" fill="#FFF"/><path d="m378.591 392.795-.001.013c.041.907.822 1.453 1.525 1.885l-16.065 6.066 22.907 8.771 32.512 12.291 54.22-20.51-16.365-6.277c.67-.32 1.37-.682 1.834-1.285l.226-.368.003-.01 18.955 7.271v49.067-.064l-58.734 22.203-60.212-22.762v-49.044l1.231-.465h.002l17.962-6.782zm97.387 10.297-55.621 21.026v45.05l55.621-21.026v-45.05zm-45.839-20.94c-.033.111-.052.227-.1.332-.318.68-1.011 1.119-1.651 1.451l14.488 5.557c1.723-.312 3.475-.445 5.225-.45l-17.962-6.89zm-22.565-.301-19.132 7.224c1.06-.036.577-.027 1.448-.034 1.469.012 2.942.079 4.397.301l14.763-5.574c-.691-.424-1.441-.972-1.481-1.858l.005-.059z" fill="#FFF"/><path d="m378.591 392.795-.001.013c.041.907.822 1.453 1.525 1.885l-16.065 6.066 22.907 8.771 32.512 12.291 54.22-20.51-16.365-6.277c.67-.32 1.37-.682 1.834-1.285l.226-.368.003-.01 18.955 7.271v49.067-.064l-58.734 22.203-60.212-22.762v-49.044l1.231-.465h.002l17.962-6.782zm97.387 10.297-55.621 21.026v45.05l55.621-21.026v-45.05zm-45.839-20.94c-.033.111-.052.227-.1.332-.318.68-1.011 1.119-1.651 1.451l14.488 5.557c1.723-.312 3.475-.445 5.225-.45l-17.962-6.89zm-22.565-.301-19.132 7.224c1.06-.036.577-.027 1.448-.034 1.469.012 2.942.079 4.397.301l14.763-5.574c-.691-.424-1.441-.972-1.481-1.858l.005-.059z" stroke="#FFF" fill="none"/><path d="M389.865 386.723c7.544 0 13.659 2.724 13.659 6.085v7.533c0 3.36-6.115 6.084-13.659 6.084-7.544 0-13.659-2.724-13.659-6.084v-7.533c0-3.361 6.115-6.085 13.659-6.085zm11.3 9.491c-3.324 2.102-7.442 2.635-11.3 2.678v5.116c6.241 0 11.3-1.686 11.3-3.766v-4.028zm-11.3-7.173c-6.241 0-11.3 1.686-11.3 3.767 0 2.08 5.059 3.766 11.3 3.766 6.241 0 11.3-1.686 11.3-3.766 0-2.081-5.059-3.767-11.3-3.767zm29.004-10.898c6.241 0 11.3 1.687 11.3 3.767s-5.059 3.767-11.3 3.767c-6.24 0-11.3-1.687-11.3-3.767s5.06-3.767 11.3-3.767zm11.3 7.174v4.027c0 2.08-5.059 3.767-11.3 3.767v-5.117c3.858-.043 7.976-.575 11.3-2.677zm-11.3-9.491c-7.543 0-13.659 2.724-13.659 6.084v7.533c0 3.361 6.116 6.085 13.659 6.085 7.544 0 13.659-2.724 13.659-6.085v-7.533c0-3.36-6.115-6.084-13.659-6.084zm0 24.445c6.241 0 11.3 1.687 11.3 3.767s-5.059 3.766-11.3 3.766c-6.24 0-11.3-1.686-11.3-3.766s5.06-3.767 11.3-3.767zm11.3 7.174v4.027c0 2.08-5.059 3.767-11.3 3.767v-5.117c3.858-.043 7.976-.575 11.3-2.677zm-11.3-9.492c-7.543 0-13.659 2.724-13.659 6.085v7.533c0 3.36 6.116 6.084 13.659 6.084 7.544 0 13.659-2.724 13.659-6.084v-7.533c0-3.361-6.115-6.085-13.659-6.085zm29.345-8.912c6.241 0 11.3 1.686 11.3 3.767 0 2.08-5.059 3.766-11.3 3.766-6.241 0-11.3-1.686-11.3-3.766 0-2.081 5.059-3.767 11.3-3.767zm11.3 7.173v4.028c0 2.08-5.059 3.766-11.3 3.766v-5.116c3.858-.043 7.976-.576 11.3-2.678zm-11.3-9.491c-7.544 0-13.659 2.724-13.659 6.085v7.533c0 3.36 6.115 6.084 13.659 6.084 7.544 0 13.659-2.724 13.659-6.084v-7.533c0-3.361-6.115-6.085-13.659-6.085z" fill="#FFF"/><path d="M389.865 386.723c7.544 0 13.659 2.724 13.659 6.085v7.533c0 3.36-6.115 6.084-13.659 6.084-7.544 0-13.659-2.724-13.659-6.084v-7.533c0-3.361 6.115-6.085 13.659-6.085zm11.3 9.491c-3.324 2.102-7.442 2.635-11.3 2.678v5.116c6.241 0 11.3-1.686 11.3-3.766v-4.028zm-11.3-7.173c-6.241 0-11.3 1.686-11.3 3.767 0 2.08 5.059 3.766 11.3 3.766 6.241 0 11.3-1.686 11.3-3.766 0-2.081-5.059-3.767-11.3-3.767zm29.004-10.898c6.241 0 11.3 1.687 11.3 3.767s-5.059 3.767-11.3 3.767c-6.24 0-11.3-1.687-11.3-3.767s5.06-3.767 11.3-3.767zm11.3 7.174v4.027c0 2.08-5.059 3.767-11.3 3.767v-5.117c3.858-.043 7.976-.575 11.3-2.677zm-11.3-9.491c-7.543 0-13.659 2.724-13.659 6.084v7.533c0 3.361 6.116 6.085 13.659 6.085 7.544 0 13.659-2.724 13.659-6.085v-7.533c0-3.36-6.115-6.084-13.659-6.084zm0 24.445c6.241 0 11.3 1.687 11.3 3.767s-5.059 3.766-11.3 3.766c-6.24 0-11.3-1.686-11.3-3.766s5.06-3.767 11.3-3.767zm11.3 7.174v4.027c0 2.08-5.059 3.767-11.3 3.767v-5.117c3.858-.043 7.976-.575 11.3-2.677zm-11.3-9.492c-7.543 0-13.659 2.724-13.659 6.085v7.533c0 3.36 6.116 6.084 13.659 6.084 7.544 0 13.659-2.724 13.659-6.084v-7.533c0-3.361-6.115-6.085-13.659-6.085zm29.345-8.912c6.241 0 11.3 1.686 11.3 3.767 0 2.08-5.059 3.766-11.3 3.766-6.241 0-11.3-1.686-11.3-3.766 0-2.081 5.059-3.767 11.3-3.767zm11.3 7.173v4.028c0 2.08-5.059 3.766-11.3 3.766v-5.116c3.858-.043 7.976-.576 11.3-2.678zm-11.3-9.491c-7.544 0-13.659 2.724-13.659 6.085v7.533c0 3.36 6.115 6.084 13.659 6.084 7.544 0 13.659-2.724 13.659-6.084v-7.533c0-3.361-6.115-6.085-13.659-6.085z" stroke="#FFF" fill="none"/><path d="M168.065 251.435a4.863 4.863 0 0 1-4.863 4.863c-2.387-.037-4.291-1.688-4.762-3.998H93.6l-23.248 23.248-.239.239H40.568c-.387 2.447-2.371 4.033-4.794 4.155a4.863 4.863 0 1 1 0-9.725 4.882 4.882 0 0 1 4.75 3.937h28.912l23.488-23.488h65.497c.392-2.42 2.393-3.972 4.781-4.093a4.862 4.862 0 0 1 4.863 4.862zm139.819 18.246v-1.633h-46.139l-51.896-51.897h-67.646l-25.67-25.67H40.818c-.488-2.389-2.269-4.175-4.806-4.207a4.862 4.862 0 0 0 0 9.725c2.269-.115 4.321-1.558 4.74-3.885h75.104l25.431 25.431.24.24h67.645l51.657 51.657.239.239h46.816zM46.867 152.535a2.757 2.757 0 1 1-5.513 0 2.757 2.757 0 0 1 5.513 0zm261.017 76.736v-1.633h-29.401l-51.805-51.806h-67.732l-24.027-24.027H48.973c-.489-2.401-2.335-4.171-4.863-4.205a4.935 4.935 0 0 0 0 9.87c2.353-.118 4.416-1.63 4.828-4.032h85.304l23.788 23.788.24.24h67.731l51.567 51.566.239.239h30.077zm-137.912-83.772c0-1.882.061-2.906-1.335-4.366-1.782-1.611-4.213-1.943-6.24-.511l-20.008-20.008H62.616l-13.135-13.135c1.291-1.953 1.108-4.505-.544-6.19a4.863 4.863 0 0 0-6.877 6.877c1.804 1.63 4.241 1.935 6.281.484l13.598 13.598h79.774l19.53 19.531c-1.341 2.028-1.168 4.468.517 6.23.745.673 1.496 1.123 2.51 1.335 2.071 0 2.783.119 4.367-1.335 1.021-1.25.499-.459 1.335-2.51zm50.282 162.015c0-1.882.062-2.907-1.335-4.367-1.737-1.571-4.154-1.958-6.155-.567l-12.156-12.156-.239-.239h-73.263l-.239.239-13.027 13.027H54.219c-.469-2.299-2.391-3.931-4.757-3.969a4.862 4.862 0 0 0 0 9.725c2.405-.121 4.399-1.69 4.788-4.123h60.267l13.266-13.266h71.909l11.89 11.89c-1.437 2.173-1.292 4.399.461 6.315.744.673 1.495 1.123 2.509 1.336 2.071 0 2.783.118 4.367-1.336 1.021-1.249.499-.458 1.335-2.509zm87.63-44.568v-1.633h-43.323l-52.102-52.103H145.02l-24.967-24.966H70.792l-6.387-6.387c1.338-2.024 1.157-4.465-.523-6.221a4.862 4.862 0 1 0-6.876 6.876c1.786 1.615 4.219 1.942 6.249.505l6.86 6.86h49.262l24.966 24.967h67.439l52.103 52.102h43.999zm0 26.94v-1.633h-54.582l-51.657-51.658-.239-.239h-67.711l-22.385-22.385-.239-.239H71.092c-.479-2.346-2.327-4.058-4.782-4.093a4.862 4.862 0 0 0 0 9.725c2.334-.118 4.359-1.62 4.763-3.999h39.321l22.624 22.624h67.711l51.897 51.897h55.258zm0-40.41v-1.633h-37.77l-51.657-51.658-.239-.239h-67.646l-24.331-24.331H76.707l-5.791-5.791c.145-.219.327-.419.436-.659.913-2.012.668-4.1-.868-5.7a4.862 4.862 0 1 0-6.876 6.877c1.714 1.549 4.123 1.964 6.111.595l6.311 6.312h49.535l24.331 24.331h67.645l51.897 51.896h38.446zm-79.776 84.152a2.757 2.757 0 1 1-5.513 0 2.757 2.757 0 0 1 5.513 0zM72.999 346.697a2.758 2.758 0 1 1-5.516-.002 2.758 2.758 0 0 1 5.516.002zm157.287-13.069a4.934 4.934 0 0 0-4.935-4.935c-2.291.116-4.378 1.57-4.806 3.922h-71.826l-13.266 13.265H75.087c-.483-2.367-2.379-4.082-4.846-4.118a4.936 4.936 0 0 0 0 9.87c2.403-.121 4.444-1.678 4.846-4.118h61.043l13.266-13.266h71.069c.517 2.533 2.212 4.236 4.886 4.315a4.934 4.934 0 0 0 4.935-4.935zm77.598-111.066v-1.633h-26.611l-51.896-51.897h-67.646L138.34 145.64H85.761l-6.925-6.925a4.894 4.894 0 0 0-.577-6.139 4.862 4.862 0 1 0-6.876 6.876c1.83 1.655 4.276 1.926 6.331.451l7.132 7.132.239.239h52.579l23.391 23.391H228.7l51.657 51.658.24.239h27.287zm0 33.736v-1.634h-40.53L215.4 202.711h-67.588l-24.395-24.396h-22.595c-.127-2.537-2.382-4.441-4.843-4.486a4.862 4.862 0 1 0 0 9.725c2.11-.107 4.22-1.411 4.682-3.605h22.079l24.156 24.156.24.239h67.588l51.714 51.715.239.239h41.207zM98.731 224.884l-.606.912c-.91.649-.349.338-1.759.784l-.717-.027c-1.163-.474-.714-.178-1.423-.757a2.756 2.756 0 1 1 3.899-3.899c.989 1.488.606.547.606 2.987zm125.234 43.32c0-1.882.061-2.906-1.336-4.367-1.713-1.549-4.122-1.964-6.11-.596l-20.339-20.34h-79.774l-16.218-16.218c1.362-2.059 1.19-4.535-.523-6.326a4.935 4.935 0 0 0-6.979 6.979c.756.683 1.518 1.139 2.547 1.355l.728.003c1.101-.049 2.191-.111 3.081-.847l16.688 16.688h79.773l19.819 19.819c-.146.22-.328.42-.437.66-.912 2.012-.668 4.1.868 5.7.744.673 1.496 1.123 2.509 1.335 2.071 0 2.783.119 4.367-1.335 1.021-1.25.5-.459 1.336-2.51zm83.919 28.417v-1.634h-73.189l-25.42-25.42h-96.154l-13.05 13.05c-1.889-1.249-4.423-.884-6.013.661a4.863 4.863 0 0 0 6.877 6.877c1.716-1.898 1.897-4.364.366-6.458l12.497-12.497h94.8l25.421 25.421h73.865zm0-53.88v-1.633h-34.71l-52.166-52.166h-67.646l-23.825-23.825h-25.113c-.48-2.354-2.316-4.078-4.785-4.113a4.862 4.862 0 1 0 0 9.725c2.322-.117 4.352-1.609 4.758-3.979h24.464l23.825 23.825h67.645l52.166 52.166h35.387zm-110.633 16.288a4.862 4.862 0 0 0-4.862-4.862c-2.361.119-4.374 1.647-4.772 4.045h-79.665c-.474-2.328-2.35-4.01-4.772-4.045a4.862 4.862 0 0 0 0 9.725c2.361-.119 4.374-1.647 4.772-4.046h79.665c.475 2.329 2.35 4.01 4.772 4.046a4.862 4.862 0 0 0 4.862-4.863zm52.781 67.041a4.864 4.864 0 0 0-4.863-4.862c-2.361.119-4.374 1.646-4.772 4.045H110.121c-.475-2.328-2.351-4.01-4.772-4.045a4.862 4.862 0 1 0 0 9.725c2.36-.12 4.374-1.647 4.772-4.046h130.276c.475 2.328 2.35 4.01 4.772 4.045a4.862 4.862 0 0 0 4.863-4.862zm57.852-110.269v-1.633h-23.821l-51.657-51.657-.24-.24h-67.693l-23.829-23.829h-25.792c-.479-2.347-2.325-4.061-4.782-4.096a4.863 4.863 0 1 0 0 9.725c2.332-.117 4.358-1.618 4.762-3.995h25.136l23.828 23.829h67.694l51.896 51.896h24.498zm0 67.35v-1.633h-51.718l-51.897-51.897h-67.645l-21.857-21.857c1.403-2.121 1.254-4.427-.477-6.29a4.863 4.863 0 0 0-6.877 6.877c1.751 1.582 4.171 1.953 6.18.55l22.354 22.354h67.646l51.896 51.896h52.395zm-89.848 11.608-.606.912c-.91.649-.349.337-1.759.784l-.717-.027c-1.163-.474-.714-.178-1.423-.757a2.758 2.758 0 0 1 3.899-3.9c.989 1.489.606.548.606 2.988zm-104.557 0-.605.912c-.911.649-.35.337-1.76.784l-.717-.027c-1.162-.474-.714-.178-1.423-.757a2.76 2.76 0 0 1 0-3.9 2.76 2.76 0 0 1 3.9 0c.988 1.489.605.548.605 2.988zm106.847-.095c0-1.91.062-2.95-1.355-4.433-1.812-1.637-4.28-1.971-6.339-.514l-12.559-12.559-.239-.239h-73.263l-12.798 12.798c-2.066-1.366-4.54-1.206-6.339.514a4.936 4.936 0 0 0 0 6.98c.756.683 1.518 1.139 2.547 1.355l.728.002c1.665-.06 2.437-.153 3.705-1.357 1.637-1.812 1.971-4.28.514-6.339l12.32-12.32h71.909l12.32 12.32c-1.366 2.066-1.206 4.54.514 6.339.756.683 1.518 1.139 2.547 1.355l.728.002c1.665-.06 2.437-.153 3.705-1.357 1.036-1.269.506-.466 1.355-2.547zm87.558-99.068v-1.633h-11.121l-83.682-83.682h-92.054c-.463-2.267-2.433-3.849-4.74-3.888a4.862 4.862 0 1 0 0 9.725c2.451-.124 4.422-1.735 4.804-4.203h91.313l83.443 83.442.239.239h11.798zm0 107.76v-1.633h-20.968l-.239.239-41.355 41.354h-98.005l-15.181 15.182c-1.943-1.285-4.492-1.073-6.162.562a4.863 4.863 0 0 0 0 6.877c.744.673 1.496 1.122 2.51 1.335 2.07 0 2.782.118 4.366-1.335 1.644-1.819 1.931-4.261.466-6.309l14.678-14.678h98.005l41.594-41.594h20.291zm0-26.94v-1.633h-48.928l-52.104-52.104h-56.743c-.48-2.353-2.318-4.075-4.785-4.109a4.862 4.862 0 1 0 0 9.725c2.324-.118 4.353-1.612 4.759-3.983h56.092l51.865 51.865.239.239h49.605zm-148.489-93.123a2.757 2.757 0 1 1-5.514 0 2.757 2.757 0 0 1 5.514 0zm148.489 52.713v-1.633h-32.129l-51.719-51.719-.239-.239h-62.326c-.478-2.344-2.411-4.02-4.833-4.057a4.936 4.936 0 1 0 0 9.87c2.438-.123 4.462-1.712 4.858-4.18h61.625l51.718 51.719.24.239h32.805zm-37.422 71.508c0-1.882.062-2.907-1.335-4.367a4.863 4.863 0 0 0-6.877 0c-1.613 1.785-1.942 4.217-.506 6.246l-6.922 6.921h-71.91l-10.016-10.016c1.425-2.156 1.278-4.407-.467-6.306a4.863 4.863 0 0 0-6.877 6.877c1.743 1.575 4.161 1.956 6.165.56l10.519 10.519h73.262l7.404-7.404c2.026 1.339 4.466 1.161 6.225-.521 1.021-1.249.499-.458 1.335-2.509zM214.54 125.406l-.605.912c-.911.649-.349.338-1.76.785l-.716-.028c-1.163-.474-.715-.178-1.423-.757a2.756 2.756 0 1 1 3.899-3.899c.988 1.488.605.547.605 2.987zm-33.718 19.005a2.757 2.757 0 0 1-2.757 2.758c-1.103-.185-.485-.009-1.799-.69l-.487-.526c-.487-1.157-.379-.631-.471-1.542a2.758 2.758 0 0 1 5.514 0zm53.397.893-1.394-1.394-16.779-16.779c1.304-1.971 1.087-4.558-.571-6.252a4.935 4.935 0 0 0-6.979 6.979c.755.683 1.518 1.14 2.547 1.356l.727.002c1.14-.051 2.24-.127 3.156-.895l15.349 15.349h-47.348c-.489-2.396-2.341-4.159-4.862-4.194a4.936 4.936 0 0 0-4.935 4.935c.052 1.018.268 1.88.843 2.76l.513.516c1.219 1.135 1.831 1.615 3.579 1.66 2.36-.119 4.419-1.637 4.831-4.043h51.323zm73.665 63.762v-1.633h-21.06l-51.517-51.517c1.288-1.948 1.09-4.498-.553-6.176a4.863 4.863 0 1 0-6.876 6.877c1.811 1.637 4.251 1.932 6.294.474l51.976 51.975h21.736zm0-6.734v-1.634h-18.298l-36.3-36.3c.137-.207.308-.394.41-.621.906-2.016.673-4.095-.868-5.699a4.862 4.862 0 1 0-6.876 6.876c1.734 1.569 4.15 1.959 6.15.57l36.568 36.568.239.24h18.975zm0 107.759v-1.634h-10.22l-19.005 19.005a.29.29 0 0 1-.029-.019l-1.333-.467c-1.64-.24-3.186.18-4.367 1.335a4.863 4.863 0 0 0 0 6.877c.745.673 1.496 1.122 2.51 1.335 2.07 0 2.783.118 4.367-1.335 1.764-1.952 1.975-4.701.149-6.712l18.384-18.385h9.544zm0-120.982v-1.634H303.9l-15.943-15.943c1.331-2.012 1.125-4.456-.539-6.197a4.863 4.863 0 0 0-6.877 6.877c1.8 1.627 4.237 1.937 6.274.488l16.409 16.409h4.66zm153.938-43.46c2.051.836 1.26.314 2.51 1.335a4.862 4.862 0 0 1 0 6.876c-1.741 1.665-4.185 1.87-6.197.54l-15.943 15.943v3.983h-1.634v-4.66l16.409-16.408c-1.449-2.038-1.139-4.474.488-6.274 1.538-1.434 2.412-1.335 4.367-1.335zm-162.976-7.611c-1.954 0-2.828-.099-4.366 1.335-.673.744-1.123 1.496-1.336 2.509 0 2.071-.118 2.783 1.336 4.367 1.951 1.764 4.7 1.976 6.712.149l18.384 18.385v9.543h1.634v-10.22l-19.005-19.005.019-.029.467-1.332c.241-1.64-.18-3.186-1.335-4.367-1.25-1.021-.459-.499-2.51-1.335zM463.998 121h-2.31l-34.113 34.113-.239.239v18.974h1.633v-18.297L463.998 121zm-9.497 0h-2.31l-31.59 31.591v21.735h1.633v-21.059L454.501 121zm-38.009 0h-2.31l-20.521 20.521v32.805h1.633v-32.128L416.492 121zm-57.209 0h-2.311l-3.482 3.482-.239.239v49.605h1.634v-48.928l4.398-4.398zm-72.932-9.235V82.76l-15.182-15.182c1.285-1.943 1.073-4.491-.562-6.161-1.25-1.021-.459-.5-2.51-1.336-1.954 0-2.828-.098-4.367 1.336-.672.744-1.122 1.495-1.335 2.509 0 2.071-.118 2.783 1.335 4.367 1.819 1.643 4.261 1.93 6.309.465l14.678 14.679v29.004l41.594 41.594v20.291h1.634v-20.967l-.24-.24-41.354-41.354zm189.531 4.709a4.864 4.864 0 0 0-4.864 4.864c.11 1.088.259 2.324 1.177 3.066l-37.885 37.885-.239.24v11.797h1.633v-11.121l37.723-37.722c1.777.748.944.567 2.455.719a4.864 4.864 0 0 0 0-9.728zM349.758 121h-2.31l-.932.932v52.394h1.634v-51.718l1.608-1.608zm95.247 0h-2.31l-28.829 28.829v24.497h1.633v-23.821L445.005 121zm-37.83 0h-2.31l-17.939 17.94v35.386h1.633v-34.71L407.175 121zm-72.495 0h-1.634v53.326h1.634V121zm50.809 0-12.12 12.12v41.206h1.634v-40.529L387.799 121h-2.31zm49.965 0h-2.31l-25.8 25.8-.239.239v27.287h1.634v-26.61L435.454 121zm-38.073 0h-2.31l-14.88 14.88v38.446h1.633v-37.769L397.381 121zm-55.966 0h-1.634v53.326h1.634V121zm36.943 0h-2.31l-9.327 9.327v43.999h1.633v-43.322L378.358 121zm47.597 0h-2.31l-23.01 23.01-.239.239v30.077h1.633v-29.4L425.955 121zm-57.148 0h-2.31l-6.272 6.272-.239.239v46.815h1.633v-46.138l7.188-7.188zm-41.642-90.341c-1.954 0-2.828-.098-4.367 1.336-1.575 1.742-1.956 4.16-.56 6.165l-10.519 10.518v73.263l7.404 7.404c-1.339 2.025-1.161 4.466.521 6.224 1.25 1.022.459.5 2.509 1.336 1.882 0 2.907.061 4.367-1.336a4.862 4.862 0 0 0 0-6.876c-1.785-1.613-4.216-1.942-6.245-.507l-6.922-6.922V49.355l10.016-10.017c2.156 1.426 4.407 1.278 6.306-.467a4.862 4.862 0 0 0 0-6.876c-1.25-1.021-.459-.499-2.51-1.336zm-22.751 48.653h-1.634v27.527c-2.328.475-4.01 2.351-4.045 4.773a4.862 4.862 0 0 0 9.725 0c-.12-2.361-1.647-4.374-4.046-4.773V79.312zm-.817-32.383a4.862 4.862 0 0 0-4.862 4.862c.119 2.361 1.646 4.374 4.045 4.772v23.036h1.634V56.563c2.328-.475 4.01-2.35 4.046-4.772a4.862 4.862 0 0 0-4.863-4.862zM282.97 36.927a2.757 2.757 0 1 1 0 5.513 2.757 2.757 0 0 1 0-5.513zm13.069 52.109a2.757 2.757 0 1 1 0 5.515 2.757 2.757 0 0 1 0-5.515zM282.153 44.53v9.042l13.266 13.266v20.07c-2.533.516-4.236 2.212-4.315 4.886a4.936 4.936 0 0 0 9.87 0c-.115-2.291-1.57-4.379-3.922-4.806V66.161l-13.265-13.265V44.53c2.368-.483 4.082-2.379 4.118-4.846a4.934 4.934 0 1 0-9.87 0c.121 2.403 1.678 4.443 4.118 4.846zm53.183 27.719q-.738 0-1.012-.179-.275-.179-.275-.626 0-.392.224-.588.224-.196.672-.196h3.133q.638 0 .851.174.212.173.212.61 0 .447-.279.626-.28.179-1.03.179h-.414l2.91 7.241 3.234-7.241h-.672q-.861 0-1.163-.173-.303-.173-.303-.632 0-.437.213-.61.213-.174.851-.174h3.458q.447 0 .671.196.224.196.224.588 0 .447-.274.626t-1.013.179h-.201l-3.694 8.159q-.279.615-.554.8-.274.185-.8.185-.481 0-.744-.179t-.543-.806zm21.544 8.013q.067.359.268.549.202.19.515.19h1.757q.448 0 .671-.201.224-.202.224-.605 0-.436-.268-.604-.269-.168-1.064-.168h-.548v-5.07q0-1.958-1.007-2.96-1.007-1.001-2.977-1.001-1.925 0-3.162.459-1.236.458-1.236 1.119 0 .414.212.677.213.263.538.263.347 0 1.421-.47t1.947-.47q1.298 0 1.914.615.615.616.615 1.903v.078q-.693-.179-1.354-.263-.66-.084-1.309-.084-2.462 0-3.822.974-1.36.973-1.36 2.742 0 1.488 1.024 2.417 1.024.929 2.692.929 1.141 0 2.221-.437 1.08-.436 1.998-1.264zm-.18-2.999q0 .806-1.214 1.55t-2.635.744q-.963 0-1.584-.492-.621-.492-.621-1.253 0-.985.996-1.567t2.719-.582q.571 0 1.148.095.576.095 1.191.297zm10.173-2.473q1.175-1.343 2.143-1.964.969-.621 1.841-.621.482 0 1.092.341.61.341.867.341.369 0 .677-.319.308-.319.308-.733 0-.637-.616-1.04-.615-.403-1.611-.403-1.332 0-2.485.649-1.152.649-2.216 1.981v-1.903q0-.224-.156-.341-.157-.118-.459-.118h-2.552q-.447 0-.666.196-.218.196-.218.588 0 .459.269.632.268.173 1.354.173h.761v7.174h-1.947q-.482 0-.711.19-.23.191-.23.582 0 .403.224.605.224.201.661.201h7.319q.526 0 .722-.173.195-.174.195-.633 0-.403-.207-.587-.207-.185-.643-.185h-3.716zm23.726 5.405q0 .515.207.789t.599.274q.19 0 .47-.128.279-.129.671-.386 1.186.279 1.97.397.783.117 1.421.117 2.015 0 3.201-.906 1.186-.907 1.186-2.417 0-1.578-1.074-2.334-1.075-.755-3.402-.811-2.183-.045-2.843-.347-.66-.302-.66-1.007 0-.716.643-1.181.644-.464 1.696-.464.906 0 1.578.24.671.241 1.264.789.224.202.571.593.492.571.828.571.392 0 .571-.263.179-.263.179-.856v-1.309q0-.56-.185-.84-.184-.279-.565-.279-.336 0-.682.218-.347.218-.471.218-.044 0-.94-.241-.895-.24-1.757-.24-2.115 0-3.284.817-1.17.817-1.17 2.294 0 1.511 1.198 2.305 1.197.795 3.48.795h.616q1.399 0 1.975.336.576.335.576 1.13 0 .783-.716 1.265-.716.481-1.902.481-1.108 0-2.026-.364-.918-.364-1.388-.968-.145-.19-.324-.571-.269-.626-.728-.626-.414 0-.598.212-.185.213-.185.705v1.992zm17.268-8.908v-2.272q0-.996-.19-1.276-.191-.279-.683-.279-.436 0-.643.229-.207.229-.207.711v2.887h-1.265q-.951 0-1.242.168-.291.168-.291.627 0 .414.212.598.213.185.683.185h1.903v4.085q0 1.119.095 1.656.095.537.319.929.436.828 1.326 1.248.889.42 2.199.42.772 0 1.651-.202.878-.201 1.975-.638.66-.257.934-.531.275-.275.275-.644 0-.324-.219-.548-.218-.224-.531-.224-.336 0-1.757.593-1.422.593-2.44.593-1.153 0-1.628-.582-.476-.582-.476-2.417v-3.738h4.532q.471 0 .706-.196t.235-.587q0-.414-.252-.605-.252-.19-.8-.19zm14.023 3.503q1.175-1.343 2.143-1.964.968-.621 1.841-.621.481 0 1.091.341t.867.341q.37 0 .677-.319.308-.319.308-.733 0-.637-.615-1.04-.616-.403-1.612-.403-1.332 0-2.484.649-1.153.649-2.216 1.981v-1.903q0-.224-.157-.341-.157-.118-.459-.118h-2.551q-.448 0-.666.196-.219.196-.219.588 0 .459.269.632t1.354.173h.761v7.174h-1.947q-.481 0-.711.19-.229.191-.229.582 0 .403.224.605.224.201.66.201h7.319q.526 0 .722-.173.196-.174.196-.633 0-.403-.207-.587-.207-.185-.644-.185h-3.715zm23.591-3.548q-.347 0-.532.207-.184.207-.184.61 0 .414.184.621.185.207.532.207h10.038q.336 0 .521-.212.185-.213.185-.616 0-.391-.185-.604-.185-.213-.521-.213h-10.038zm0 3.749q-.347 0-.532.213-.184.213-.184.616 0 .402.184.615.185.213.532.213h10.038q.336 0 .521-.213t.185-.615q0-.392-.185-.61-.185-.219-.521-.219h-10.038zm30.675-3.805q.28 0 .403-.14.123-.139.168-.565l.336-4.129v-.135q0-.279-.123-.414-.124-.134-.381-.134h-1.074q-.258 0-.381.134-.123.135-.123.414v.135l.347 4.129q.034.426.162.565.129.14.409.14zm3.962 0q.28 0 .403-.14.123-.139.168-.565l.347-4.129v-.135q0-.279-.129-.414-.129-.134-.375-.134h-1.086q-.246 0-.374.134-.129.135-.129.414v.135l.347 4.129q.045.426.168.565.123.14.402.14zm8.964 3.582h5.361v4.655h-.549q-.817 0-1.108.168-.291.168-.291.604 0 .459.247.633.246.173 1.152.173h2.317q.85 0 1.086-.173.235-.174.235-.633 0-.425-.247-.598-.246-.174-.917-.174h-.179V69.34h.268q.604 0 .84-.185.235-.185.235-.621 0-.403-.208-.604-.207-.202-.609-.202h-2.731q-.985 0-1.237.174-.252.173-.252.632 0 .425.275.616.274.19.912.19h.761v3.894h-5.361V69.34h.504q.839 0 1.141-.179.302-.179.302-.627 0-.459-.24-.632-.241-.174-1.136-.174h-2.82q-.437 0-.644.196-.207.196-.207.61 0 .448.252.627t.923.179h.179v10.083h-.201q-.672 0-.912.168-.241.168-.241.604 0 .403.207.605.207.201.621.201h2.955q.794 0 1.029-.173.235-.174.235-.633 0-.414-.268-.593-.269-.179-.929-.179h-.75zm12.702.089q.325-1.388 1.343-2.171 1.019-.783 2.507-.783 1.377 0 2.322.811.946.811 1.114 2.143h-7.286zm7.465 1.466h.168q1.164 0 1.427-.213.263-.212.263-.839 0-2.037-1.556-3.469-1.556-1.433-3.917-1.433-2.608 0-4.23 1.534-1.623 1.533-1.623 4.006 0 2.429 1.533 3.9 1.533 1.472 4.085 1.472 1.175 0 2.367-.291t2.311-.839q.515-.258.75-.526.235-.269.235-.594 0-.313-.224-.526-.224-.212-.56-.212-.324 0-1.869.699-1.544.7-2.853.7-1.735 0-2.737-.879-1.001-.878-1.091-2.49zm9.266 3.1h-3.1q-.47 0-.705.19-.235.191-.235.582 0 .403.23.605.229.201.665.201h8.26q.526 0 .716-.173.19-.174.19-.633 0-.403-.196-.587-.196-.185-.621-.185h-3.514V66.811q0-.213-.168-.336-.168-.123-.47-.123h-3.693q-.436 0-.666.201-.229.202-.229.604 0 .459.274.633.274.173 1.36.173h1.902zm13.754 0h-3.1q-.47 0-.705.19-.235.191-.235.582 0 .403.23.605.229.201.666.201h8.259q.526 0 .716-.173.19-.174.19-.633 0-.403-.196-.587-.196-.185-.621-.185h-3.514V66.811q0-.213-.168-.336-.168-.123-.47-.123h-3.693q-.436 0-.666.201-.229.202-.229.604 0 .459.274.633.274.173 1.36.173h1.902zm20.38-3.581q0-2.384-1.64-3.906-1.639-1.522-4.236-1.522-2.596 0-4.23 1.517-1.634 1.516-1.634 3.911t1.634 3.917q1.634 1.522 4.23 1.522 2.608 0 4.242-1.522t1.634-3.917zm-5.876 3.872q-1.723 0-2.82-1.085-1.097-1.086-1.097-2.787 0-1.69 1.103-2.792 1.102-1.103 2.814-1.103t2.82 1.103q1.108 1.102 1.108 2.792 0 1.69-1.102 2.781-1.102 1.091-2.826 1.091zm23.412-10.475h1.578q.504 0 .745-.179.24-.179.24-.571 0-.425-.229-.593-.23-.168-.845-.168h-3.626q-.258 0-.437.213-.179.212-.179.548 0 .37.218.56.219.19.655.19h.134l1.702 11.169q.044.38.151.487.106.106.33.106h.839q.28 0 .403-.089.123-.09.201-.37l2.149-7.722 2.429 7.7q.1.28.235.38.134.101.391.101h.795q.213 0 .308-.112t.128-.459l1.59-11.191h.134q.425 0 .638-.185.212-.184.212-.565 0-.324-.19-.543-.19-.218-.436-.218h-3.615q-.627 0-.856.168-.23.168-.23.593 0 .392.241.571.241.179.755.179h1.757l-1.096 8.897-2.183-6.737q-.1-.302-.24-.403-.14-.101-.465-.101h-.503q-.336 0-.465.095-.128.096-.229.454l-1.925 6.692zm23.726 6.603q0-2.384-1.64-3.906-1.639-1.522-4.236-1.522-2.596 0-4.23 1.517-1.634 1.516-1.634 3.911t1.634 3.917q1.634 1.522 4.23 1.522 2.608 0 4.242-1.522t1.634-3.917zm-5.876 3.872q-1.723 0-2.82-1.085-1.097-1.086-1.097-2.787 0-1.69 1.103-2.792 1.102-1.103 2.814-1.103 1.713 0 2.821 1.103 1.108 1.102 1.108 2.792 0 1.69-1.103 2.781-1.102 1.091-2.826 1.091zm12.658-4.924q1.175-1.343 2.143-1.964.968-.621 1.841-.621.481 0 1.091.341t.867.341q.37 0 .677-.319.308-.319.308-.733 0-.637-.615-1.04-.616-.403-1.612-.403-1.332 0-2.484.649-1.153.649-2.216 1.981v-1.903q0-.224-.157-.341-.157-.118-.459-.118h-2.551q-.448 0-.666.196-.219.196-.219.588 0 .459.269.632t1.354.173h.761v7.174h-1.947q-.481 0-.711.19-.229.191-.229.582 0 .403.224.605.224.201.66.201h7.319q.526 0 .722-.173.196-.174.196-.633 0-.403-.207-.587-.207-.185-.644-.185h-3.715zm14.101 4.633h-3.1q-.47 0-.705.19-.235.191-.235.582 0 .403.229.605.23.201.666.201h8.259q.526 0 .716-.173.191-.174.191-.633 0-.403-.196-.587-.196-.185-.621-.185h-3.514V66.811q0-.213-.168-.336-.168-.123-.47-.123h-3.693q-.437 0-.666.201-.23.202-.23.604 0 .459.274.633.275.173 1.36.173h1.903zm10.542-3.447q0-1.645.974-2.663.973-1.019 2.551-1.019 1.556 0 2.546 1.007.991 1.008.991 2.563 0 1.578-.996 2.602-.996 1.024-2.541 1.024-1.533 0-2.529-.985-.996-.984-.996-2.529zm9.49 5.025q.358 0 .571-.213.212-.212.212-.593 0-.403-.246-.587-.246-.185-.794-.185h-.504V66.811q0-.235-.151-.347-.151-.112-.487-.112h-2.294q-.436 0-.666.201-.229.202-.229.604 0 .459.285.633.285.173 1.259.173h.593v4.286q-.66-.794-1.578-1.203-.917-.408-2.07-.408-2.272 0-3.794 1.539-1.522 1.539-1.522 3.855 0 2.238 1.427 3.744 1.427 1.505 3.542 1.505 1.175 0 2.182-.465 1.007-.464 1.679-1.303v.917q0 .336.095.454.095.117.33.117zm6.379-9.815q.28 0 .403-.14.123-.139.168-.565l.336-4.129v-.135q0-.279-.123-.414-.124-.134-.381-.134h-1.074q-.258 0-.381.134-.123.135-.123.414v.135l.347 4.129q.034.426.162.565.129.14.409.14zm3.962 0q.28 0 .403-.14.123-.139.168-.565l.347-4.129v-.135q0-.279-.129-.414-.129-.134-.375-.134h-1.086q-.246 0-.375.134-.128.135-.128.414v.135l.347 4.129q.044.426.168.565.123.14.402.14zm-304.123 35.569q-1.556 0-2.535-.985-.979-.985-.979-2.529 0-1.534.985-2.518.984-.985 2.529-.985 1.544 0 2.546.99 1.002.991 1.002 2.513 0 1.555-.997 2.534-.996.98-2.551.98zm-3.469.022q.671.783 1.667 1.203.996.42 2.182.42 2.227 0 3.66-1.421 1.432-1.422 1.432-3.626 0-2.295-1.51-3.817-1.511-1.522-3.761-1.522-1.063 0-1.986.392t-1.684 1.175v-1.085q0-.235-.152-.347-.151-.112-.486-.112h-1.701q-.448 0-.677.196-.23.195-.23.587 0 .448.285.627.286.179 1.058.179h.213v11.616h-.213q-.772 0-1.058.179-.285.18-.285.627 0 .392.23.593.229.202.677.202h4.935q.526 0 .733-.179.207-.179.207-.616 0-.403-.213-.604-.212-.202-.638-.202h-2.685zm15.544-4.611q1.175-1.343 2.143-1.964.968-.621 1.841-.621.482 0 1.091.341.61.342.868.342.369 0 .677-.319.308-.319.308-.733 0-.638-.616-1.041-.615-.403-1.611-.403-1.332 0-2.485.649-1.153.649-2.216 1.981v-1.902q0-.224-.156-.342-.157-.117-.459-.117h-2.552q-.448 0-.666.196-.218.195-.218.587 0 .459.269.632.268.174 1.354.174h.761v7.173h-1.948q-.481 0-.71.191-.23.19-.23.582 0 .403.224.604.224.201.661.201h7.319q.526 0 .721-.173.196-.174.196-.632 0-.403-.207-.588-.207-.185-.643-.185h-3.716zm15.892-3.67q0-.213-.174-.336-.173-.123-.475-.123h-3.279q-.448 0-.672.196-.224.195-.224.587 0 .392.241.599.241.207.7.207h2.182v7.173h-3.414q-.47 0-.705.191-.235.19-.235.582 0 .403.224.604.224.201.672.201h8.684q.526 0 .722-.173.196-.174.196-.632 0-.403-.207-.588-.207-.185-.644-.185h-3.592zm-2.071-3.682q0 .671.219.884.218.212.934.212.728 0 .935-.229.207-.23.207-1.192 0-.985-.224-1.248t-.918-.263q-.716 0-.934.314-.219.313-.219 1.522zm10.386 11.985q-.761 0-1.024.163-.263.162-.263.61 0 .414.229.61.23.195.689.195h2.641q.783 0 .985-.167.201-.168.201-.638 0-.437-.235-.605-.235-.168-.906-.168h-.392v-4.655q0-1.142.873-1.914t2.014-.772q1.131 0 1.724.688t.593 1.998v4.655h-.392q-.649 0-.884.168t-.235.605q0 .47.201.638.202.167.918.167h2.473q.672 0 .935-.184.263-.185.263-.621 0-.403-.246-.588-.247-.185-.806-.185h-.526v-5.069q0-1.858-.968-2.91t-2.658-1.052q-.862 0-1.662.364-.8.364-1.617 1.125v-.761q0-.213-.168-.336-.168-.123-.47-.123h-1.6q-.526 0-.761.184-.235.185-.235.599 0 .448.285.627t1.046.179h.213v7.173zm16.787-8.136v-2.271q0-.996-.19-1.276-.191-.28-.683-.28-.436 0-.644.229-.207.23-.207.711v2.887h-1.264q-.951 0-1.242.168-.291.168-.291.627 0 .414.212.599.213.184.683.184h1.902v4.085q0 1.119.096 1.656.095.538.319.929.436.829 1.326 1.248.889.42 2.199.42.772 0 1.65-.202.879-.201 1.976-.637.66-.258.934-.532t.274-.644q0-.324-.218-.548-.218-.224-.531-.224-.336 0-1.757.593-1.422.594-2.44.594-1.153 0-1.628-.582-.476-.582-.476-2.418v-3.738h4.532q.47 0 .705-.195.235-.196.235-.588 0-.414-.251-.604-.252-.191-.801-.191zm17.391-3.447q0-.223-.106-.363-.106-.14-.286-.14-.425 0-.973.537-.549.537-1.198 1.6-.996 1.612-1.483 3.33-.486 1.718-.486 3.609 0 2.07.593 3.951.593 1.88 1.79 3.592.56.806.985 1.169.426.364.772.364.18 0 .286-.14.106-.14.106-.386 0-.235-.487-1.236-.486-1.002-.766-1.741-.549-1.365-.817-2.736-.269-1.371-.269-2.837 0-1.589.319-3.066.319-1.478 1.08-3.257.19-.459.565-1.237.375-.778.375-1.013zm6.603 12.356q0 .514.207.789.207.274.599.274.19 0 .47-.129.28-.129.671-.386 1.187.28 1.97.397.783.118 1.421.118 2.015 0 3.201-.907 1.186-.906 1.186-2.417 0-1.578-1.074-2.333-1.074-.756-3.402-.812-2.183-.045-2.843-.347-.66-.302-.66-1.007 0-.716.643-1.181.644-.464 1.696-.464.906 0 1.578.241.671.24 1.264.789.224.201.571.593.493.57.828.57.392 0 .571-.263.179-.263.179-.856v-1.309q0-.56-.185-.839-.184-.28-.565-.28-.335 0-.682.218-.347.218-.47.218-.045 0-.94-.24-.896-.241-1.757-.241-2.116 0-3.285.817-1.17.817-1.17 2.294 0 1.511 1.198 2.306 1.197.794 3.48.794h.616q1.399 0 1.975.336.576.336.576 1.13 0 .784-.716 1.265-.716.481-1.902.481-1.108 0-2.026-.364-.918-.363-1.388-.968-.145-.19-.324-.57-.269-.627-.728-.627-.414 0-.598.213-.185.212-.185.705v1.992zm17.268-8.909v-2.271q0-.996-.19-1.276t-.683-.28q-.436 0-.643.229-.207.23-.207.711v2.887h-1.265q-.951 0-1.242.168-.291.168-.291.627 0 .414.213.599.212.184.682.184h1.903v4.085q0 1.119.095 1.656.095.538.319.929.436.829 1.326 1.248.89.42 2.199.42.772 0 1.651-.202.878-.201 1.975-.637.66-.258.934-.532.275-.274.275-.644 0-.324-.219-.548-.218-.224-.531-.224-.336 0-1.757.593-1.421.594-2.44.594-1.153 0-1.628-.582-.476-.582-.476-2.418v-3.738h4.533q.47 0 .705-.195.235-.196.235-.588 0-.414-.252-.604-.252-.191-.8-.191zm14.023 3.503q1.175-1.343 2.143-1.964.968-.621 1.841-.621.481 0 1.091.341.61.342.867.342.37 0 .677-.319.308-.319.308-.733 0-.638-.615-1.041-.616-.403-1.612-.403-1.332 0-2.484.649-1.153.649-2.216 1.981v-1.902q0-.224-.157-.342-.157-.117-.459-.117h-2.551q-.448 0-.666.196-.218.195-.218.587 0 .459.268.632.269.174 1.354.174h.761v7.173h-1.947q-.481 0-.711.191-.229.19-.229.582 0 .403.224.604.224.201.66.201h7.319q.526 0 .722-.173.196-.174.196-.632 0-.403-.207-.588-.207-.185-.644-.185h-3.715zm12.568 10.173q0 .235.112.381.111.145.291.145.425 0 .945-.515.521-.514 1.214-1.611.996-1.612 1.494-3.335.499-1.724.499-3.615 0-2.07-.594-3.962-.593-1.891-1.79-3.592-.56-.795-.979-1.158-.42-.364-.789-.364-.18 0-.291.14-.112.14-.112.363 0 .247.481 1.248.481 1.002.772 1.741.56 1.387.834 2.769.274 1.383.274 2.815 0 1.578-.325 3.061-.324 1.483-1.074 3.273-.201.459-.582 1.226-.38.766-.38.99zm134.46 235.172.717.002c1.014.213 1.765.663 2.51 1.336 1.685 1.762 1.858 4.202.517 6.23l19.53 19.531h79.774l13.598 13.598c2.04-1.451 4.477-1.146 6.281.484a4.863 4.863 0 0 1-6.877 6.877c-1.651-1.685-1.835-4.237-.543-6.19l-13.136-13.136h-79.773l-20.008-20.007c-2.027 1.432-4.458 1.1-6.24-.511-1.396-1.46-1.335-2.485-1.335-4.367.836-2.05.314-1.259 1.335-2.509 1.125-1.133 2.133-1.283 3.65-1.338zm-131.099-46.25h-11.798v1.634h11.121l83.682 83.682h92.054c.463 2.267 2.433 3.849 4.74 3.888a4.862 4.862 0 1 0 0-9.725c-2.451.124-4.422 1.735-4.804 4.203h-91.313L465.566 301.5l-.239-.239zm118.021 48.428c1.103.185.485.009 1.799.69l.487.526c.487 1.157.379.631.471 1.541a2.757 2.757 0 1 1-2.757-2.757zm-34.11 20.066.716.028c1.163.474.715.178 1.423.757a2.756 2.756 0 1 1-3.899 3.899c-.988-1.488-.605-.547-.605-2.987l.605-.912c.911-.65.35-.338 1.76-.785zm34.11-22.244c-2.36.119-4.419 1.636-4.831 4.043h-51.323l1.394 1.394 16.779 16.778c-1.304 1.972-1.087 4.559.571 6.253a4.935 4.935 0 0 0 6.979-6.98c-.755-.682-1.518-1.139-2.547-1.355l-.727-.002c-1.14.051-2.24.127-3.156.895l-15.349-15.35h47.348c.489 2.397 2.341 4.16 4.862 4.194a4.935 4.935 0 0 0 4.935-4.935c-.051-1.017-.268-1.879-.843-2.759l-.513-.516c-1.219-1.135-1.831-1.615-3.579-1.66zm-105.321-66.455h-24.498v1.634h23.821l51.657 51.657.24.239h67.693l23.829 23.829h25.792c.479 2.348 2.325 4.062 4.782 4.096a4.862 4.862 0 1 0 0-9.725c-2.331.118-4.358 1.619-4.762 3.996h-25.136l-23.829-23.829h-67.693l-51.896-51.897zm2.789-6.76h-27.287v1.633h26.611l51.896 51.897h67.646l23.391 23.391h47.328v-1.633H623.75l-23.392-23.391h-67.645l-51.657-51.658-.24-.239zm-5.551 13.495h-21.736v1.634h21.059l51.518 51.517c-1.288 1.948-1.09 4.498.553 6.176a4.862 4.862 0 0 0 6.876 0 4.861 4.861 0 0 0 0-6.877c-1.81-1.637-4.251-1.932-6.295-.474l-51.975-51.976zm8.341-20.205h-30.077v1.634h29.401l51.805 51.806h67.732l24.027 24.027h43.907v-1.633h-43.23l-23.788-23.788-.24-.24h-67.731l-51.567-51.566-.239-.24zm-11.102 26.94h-18.975v1.634h18.298l36.3 36.3c-.136.207-.308.394-.41.62-.906 2.017-.673 4.096.868 5.7a4.862 4.862 0 1 0 6.876-6.877c-1.734-1.568-4.15-1.958-6.15-.569l-36.568-36.568-.239-.24zm-14.315 13.223h-4.66v1.634h3.984l15.943 15.943c-1.331 2.012-1.125 4.456.539 6.196a4.863 4.863 0 0 0 6.877-6.876c-1.8-1.627-4.237-1.937-6.274-.488l-16.409-16.409zm173.687 23.992h38.525v-1.633h-37.849l-23.825-23.825h-67.645l-52.166-52.166h-35.387v1.633h34.71l52.166 52.166h67.646l23.825 23.825zm3.296-6.498h35v-1.634h-34.324l-24.331-24.331h-67.645l-51.897-51.896h-38.446v1.633h37.769l51.658 51.658.239.239h67.646l24.331 24.331zm35.229-8.334h-31.728l-24.156-24.156-.24-.239h-67.588l-51.714-51.715-.239-.239h-41.207v1.634h40.53l51.954 51.953h67.588l24.395 24.396h32.405v-1.634zm-65.626-6.101a2.756 2.756 0 0 1 2.757 2.757 2.756 2.756 0 1 1-5.514 0 2.758 2.758 0 0 1 2.757-2.757zm-118.441-49.957h-32.805v1.634h32.129l51.718 51.719.24.239h62.326c.478 2.344 2.411 4.02 4.833 4.057a4.936 4.936 0 1 0 0-9.87c-2.437.123-4.462 1.712-4.858 4.179h-61.625l-51.718-51.718-.24-.24zm11.194-26.939h-43.999v1.633h43.323l52.102 52.103h67.439l24.967 24.966h29.041v-1.634h-28.365l-24.966-24.966h-67.439l-52.103-52.102zm2.817-6.735h-46.816v1.633h46.139l51.897 51.897h67.645l25.67 25.67h25.521v-1.633h-24.844l-25.431-25.432-.24-.239h-67.645l-51.657-51.657-.239-.239zm5.579-13.47h-52.395v1.633h51.718l51.897 51.897h67.645l21.857 21.857c-1.403 2.121-1.254 4.427.477 6.29a4.863 4.863 0 0 0 6.877-6.877c-1.751-1.582-4.171-1.953-6.18-.55l-22.354-22.354H557.82l-51.896-51.896zm2.863-6.735h-55.258v1.633h54.582l51.657 51.658.239.239h67.711l22.385 22.385.239.239h18.979c.479 2.346 2.327 4.058 4.782 4.093a4.861 4.861 0 0 0 4.862-4.863 4.861 4.861 0 0 0-4.862-4.862c-2.333.118-4.359 1.62-4.763 3.998h-18.321l-22.624-22.624h-67.711l-51.897-51.896zm-5.653 13.47h-49.605v1.633h48.928l52.104 52.104h56.743c.48 2.352 2.318 4.075 4.785 4.109a4.862 4.862 0 1 0 0-9.725c-2.324.118-4.353 1.612-4.759 3.983h-56.092l-51.865-51.865-.239-.239zm161.914 49.835.716.028c1.163.474.714.178 1.423.757a2.756 2.756 0 1 1-3.899 3.899c-.989-1.488-.606-.547-.606-2.987l.606-.912c.91-.649.349-.338 1.76-.785zm-122.615-45.471c-1.516.055-2.525.205-3.649 1.338-1.021 1.25-.499.459-1.336 2.509 0 1.883-.061 2.907 1.336 4.367 1.714 1.55 4.122 1.965 6.11.597l20.339 20.339h79.774l16.218 16.219c-1.362 2.059-1.19 4.535.523 6.326a4.935 4.935 0 0 0 6.979-6.979c-.755-.683-1.518-1.139-2.547-1.355l-.728-.003c-1.101.049-2.191.111-3.081.847l-16.688-16.688H565.91l-19.819-19.819c.146-.22.328-.42.437-.661.913-2.011.668-4.099-.868-5.699-.744-.673-1.495-1.123-2.509-1.335l-.718-.003zm115.8 8.16c-2.361.119-4.374 1.647-4.772 4.046h-79.665c-.474-2.329-2.35-4.01-4.772-4.046a4.862 4.862 0 0 0 0 9.725c2.361-.119 4.374-1.647 4.772-4.046h79.665c.475 2.329 2.35 4.01 4.772 4.046a4.862 4.862 0 0 0 0-9.725zm-130.839-32.729h-73.865v1.633h73.189l25.42 25.421h96.154l13.05-13.05c1.889 1.249 4.423.884 6.013-.661a4.863 4.863 0 0 0-6.877-6.877c-1.715 1.898-1.897 4.364-.366 6.458l-12.497 12.497h-94.8l-25.421-25.421zm18.348.166.716.027c1.164.474.715.178 1.424.757a2.756 2.756 0 1 1-3.9 3.899c-.988-1.488-.605-.547-.605-2.987l.605-.912c.911-.649.35-.337 1.76-.784zm104.557 0 .717.027c1.163.474.714.178 1.422.757a2.756 2.756 0 1 1-3.899 3.899c-.988-1.488-.605-.547-.605-2.987l.605-.912c.911-.649.35-.337 1.76-.784zm.405-2.113c-1.665.059-2.437.153-3.705 1.357-1.637 1.812-1.971 4.28-.514 6.339l-12.32 12.319h-71.909l-12.32-12.319c1.366-2.066 1.206-4.54-.514-6.339-.756-.683-1.518-1.139-2.547-1.355l-.728-.002c-1.665.059-2.437.153-3.705 1.357-1.035 1.269-.506.466-1.355 2.547.001 1.91-.062 2.95 1.355 4.432 1.812 1.638 4.28 1.971 6.339.515L561.34 219.7l.239.239h73.263l12.798-12.798c2.066 1.366 4.54 1.206 6.339-.515a4.935 4.935 0 0 0 0-6.979c-.756-.683-1.518-1.139-2.548-1.355l-.727-.002zm-104.56-12.793c-1.517.055-2.525.205-3.65 1.338-1.021 1.249-.499.458-1.335 2.509 0 1.882-.062 2.907 1.335 4.367 1.738 1.571 4.154 1.958 6.155.567l12.156 12.156.239.239h73.263l.239-.239 13.027-13.027h59.621c.469 2.299 2.391 3.931 4.757 3.969a4.862 4.862 0 0 0 0-9.725c-2.405.121-4.399 1.69-4.788 4.123h-60.267L633.63 205.04h-71.909l-11.89-11.89c1.437-2.173 1.292-4.399-.461-6.315-.744-.673-1.495-1.123-2.509-1.336l-.717-.002zm33.033-6.587h-73.263l-7.403 7.404c-2.026-1.339-4.466-1.161-6.225.521-1.021 1.249-.499.458-1.335 2.509 0 1.882-.062 2.907 1.335 4.367a4.862 4.862 0 0 0 6.876 0c1.614-1.785 1.943-4.217.507-6.246l6.922-6.922H578.5l10.017 10.017c-1.425 2.156-1.278 4.407.467 6.305a4.863 4.863 0 0 0 6.877-6.876c-1.742-1.575-4.161-1.956-6.165-.56l-10.519-10.519zm53.035-49.326c-1.516.054-2.525.204-3.65 1.337-1.643 1.819-1.93 4.261-.465 6.309l-14.678 14.678h-98.005l-41.594 41.594h-20.291v1.633h20.968l.239-.239 41.354-41.354h98.005l15.182-15.182c1.943 1.285 4.492 1.073 6.162-.562a4.863 4.863 0 0 0 0-6.877c-.744-.673-1.496-1.122-2.51-1.335l-.717-.002zm-146.956 30.749c-1.516.054-2.525.204-3.65 1.337-1.764 1.952-1.975 4.701-.149 6.712l-18.384 18.385h-9.544v1.633h10.22l19.005-19.005.029.02 1.333.467c1.64.24 3.186-.18 4.367-1.335a4.863 4.863 0 0 0 0-6.877c-.745-.673-1.496-1.122-2.51-1.335l-.717-.002zm170.808 5.592c-2.36.12-4.374 1.647-4.772 4.046H521.016c-.475-2.328-2.35-4.01-4.772-4.046a4.864 4.864 0 0 0-4.863 4.863 4.864 4.864 0 0 0 4.863 4.862c2.361-.119 4.374-1.646 4.772-4.046h130.276c.475 2.329 2.351 4.011 4.772 4.046a4.862 4.862 0 1 0 0-9.725zm35.108-18.522a2.759 2.759 0 0 1 0 5.515 2.759 2.759 0 0 1 0-5.515zm-155.11 13.07a2.757 2.757 0 1 1 0 5.513 2.757 2.757 0 0 1 0-5.513zm155.11-15.247c-2.403.121-4.444 1.678-4.846 4.118h-61.043l-13.266 13.266h-71.069c-.517-2.533-2.212-4.236-4.886-4.315a4.935 4.935 0 0 0 0 9.87c2.291-.116 4.378-1.57 4.806-3.922h71.826l13.266-13.266h60.366c.483 2.368 2.379 4.083 4.846 4.119a4.936 4.936 0 0 0 0-9.87zm76.864 173.825v30.5c0 4.147-3.348 7.519-7.507 7.519h-77.673c-4.159 0-7.531-3.372-7.531-7.519l-.023-30.488h7.903v24.989a3.29 3.29 0 0 0 3.29 3.29h44.203a3.29 3.29 0 0 0 3.291-3.29v-25.001h34.047zm-7.519-20.667-77.672.001c-4.159 0-7.531 3.372-7.531 7.519v11.185l7.95-.009c.698-1.729 1.207-2.534 3.231-2.696h44.203c1.648.167 2.752 1.012 3.224 2.632l34.079-.021.023-11.091c0-4.147-3.36-7.519-7.507-7.52zm-12.548-1.057h8.283l-.799-2.491h-6.908zm-63.221.024h12.325l-1.633-3.842h-9.2zm33.073-1.328v-3.83h7.931v3.83h-7.931zm-7.261-5.369-4.229 6.744h31.181l-4.605-6.744H710.56zm-11.488 38.235c.827 0 1.539-.293 2.131-.881a2.92 2.92 0 0 0 .885-2.131c0-.865-.296-1.597-.885-2.185a2.902 2.902 0 0 0-2.131-.885c-.864 0-1.593.292-2.185.885-.593.588-.885 1.32-.885 2.185 0 .827.292 1.538.885 2.131.592.588 1.321.881 2.185.881m21.138 3.765-8.078-8.353-6.97 10.583-3.704-3.078-5.456 7.094v2.07h24.208zm.263-39.005c.12 0 .223-.043.309-.128a.422.422 0 0 0 .129-.309.428.428 0 0 0-.129-.317.42.42 0 0 0-.309-.128.43.43 0 0 0-.317.128.427.427 0 0 0-.128.317.435.435 0 0 0 .445.437m3.066.546-1.172-1.212-1.011 1.535-.537-.446-.791 1.029v.3h3.511z" fill="#FFF"/><path d="m711.06 291.154 41.243-100.985m-7.729 121.551 85.015-87.123" stroke="#FFF" stroke-dasharray="2,2" fill="none"/><path d="M823.857 210.757h-62.601v-5.353l14.11-18.345 9.577 7.96 18.026-27.369 20.888 21.601zm-54.663-31.242c-2.234 0-4.118-.756-5.65-2.277-1.532-1.533-2.288-3.374-2.288-5.512 0-2.235.756-4.129 2.288-5.651 1.532-1.532 3.416-2.288 5.65-2.288 2.139 0 3.98.756 5.512 2.288 1.522 1.522 2.288 3.416 2.288 5.651 0 2.138-.766 3.979-2.288 5.512-1.532 1.521-3.373 2.277-5.512 2.277" fill="#FFF"/></svg>