<svg xmlns="http://www.w3.org/2000/svg" width="300" height="200"><path d="m204.301 94.834 3.095 5.164v-5.164h.756v6.579h-.825l-3.095-5.164v5.164h-.756v-6.579h.825zm-.757-32.319 3.095 5.164v-5.164h.757v6.579h-.791l-3.095-5.163v5.163h-.757v-6.579h.791zm29.058.268 3.095 5.164v-5.164h.757v6.579h-.791l-3.095-5.164v5.164h-.757v-6.579h.791zm-.24 31.784 3.094 5.163v-5.163h.757v6.578h-.791l-3.095-5.163v5.163h-.756v-6.578h.791zM186.419 109.254l8.975 9.791-.035.42-.309.115-9.319-10.212.688-.114zm21.148 2.371.31.153v.382l-12.242 7.497-.276-.192.035-.42 12.16-7.412.005.009.008-.017z" fill="#198754"/><path d="m206.776 102.101 1.376 9.486-.275.191-.31-.153-1.375-9.409.584-.115zm-1.891.345 1.204 8.146-.585.115-1.204-8.147.585-.114zm-12.449-7.497 10.42 1.951-.103.65h-.002l-10.315-1.951-.172-.344.172-.306z" fill="#198754"/><path d="m192.264 95.255.172.344-6.017 13.655-.688.114 6.147-14.015.043.019v-.117h.343zm-6.086-12.889 6.258 12.583-.172.306h-.343v-.049l-.02.009-6.376-12.811.653-.038zm2.166-.191 5.434 10.9-.482.344-5.467-10.938.515-.306zm19.808 29.412.039.057.015-.024 11.844 7.234v.344l-.241.229-11.932-7.267v-.382l.275-.191zm-12.724-67.124.31.115.069.382-9.307 10.542-.008-.007-.005.021-.344-.076-.103-.344 9.388-10.633z" fill="#198754"/><path d="m186.143 55.44.344.076 5.709 12.431-.138.382h-.344l-5.777-12.621.206-.268zm2.614.268v.001l4.608 10.019-.516.306-4.608-10.02.516-.306zm12.964 10.173.138.651-9.595 2.065-.206-.268.138-.382 9.523-2.065.002-.001zm6.19-14.954.241.229-1.995 10.365-.55-.153 1.96-10.25.344-.191z" fill="#198754"/><path d="m196.013 44.348.07.084.019-.037 11.768 6.146-.003.004.01-.001.034.383-.344.191-11.76-6.158-.069-.382.275-.23zm.275 2.639 9.422 4.896-.24.612-9.423-4.934.241-.574zm23.659-3.557v.727l-11.795 6.999-.241-.229-.034-.383 12.07-7.114zm-27.889 24.899.206.268-6.086 13.769-.653.038 6.189-14.075h.344zM244.5 43.468l9.044 9.907-.103.344-.344.038-8.975-9.791.034-.383.344-.115zm-.481 2.525 7.221 7.917-.413.459v-.001l-7.221-7.916.413-.459z" fill="#198754"/><path d="m243.915 43.354.241.229-.034.383-12.162 6.916-.003-.007-.009.013-.309-.191v-.382l12.276-6.961zm-12.276 7.343.309.192 1.823 10.785-.585.115-1.822-10.9.275-.192zm5.605 15.223 9.354 1.491.172.383-.172.306-9.457-1.53.103-.65zm.275-2.104 8.253 1.339-.103.612-8.253-1.301.103-.65z" fill="#198754"/><path d="m253.441 53.719.206.306-6.48 13.657-.053-.025v.137h-.344l-.172-.383 6.499-13.654.344-.038zm-6.327 14.075v.04l.016-.009 6.861 13.355h-.653l-6.74-13.08.172-.306h.344zM219.947 43.43l11.692 6.885v.382l-.275.192v-.001l-.034-.048-.013.021-11.37-6.704v-.727zm.138 2.563 9.903 5.852-.275.573-9.904-5.813.276-.612zm33.425 62.61.378.039.103.344-8.975 10.174-.275-.192-.035-.382 8.804-9.983zm-2.201-.612.412.459-7.187 8.147-.412-.459 7.187-8.147zm-3.508-13.807 6.259 14.19-.172.268-.378-.039-6.19-14.075.138-.344h.343zm-.515-.306.171.306-.137.344-10.041 2.525-.138-.651 10.145-2.524zm-14.375 8.262.585.114-1.547 9.677-.31.153-.275-.191 1.547-9.753z" fill="#198754"/><path d="m231.364 111.893.275.191v.382l-11.211 6.885-.378-.153v-.344l11.314-6.961zm.206 2.409.275.574-9.216 5.66-.275-.573 9.216-5.661zm22.421-33.122-6.19 13.004h-.344l-.171-.306 6.052-12.698h.653zm-2.854-.115.516.306-5.262 11.016-.515-.306 5.261-11.016zm-56.328 53.164-13.686 6.234-.55-.497 11.52-5.202 2.716-.535zm72.215-83.187-.206.688-13.171 2.295-.206-.306.103-.344 13.48-2.333zM267.54 107.991c.585 0 1.101.192 1.479.498.413.344.688.803.86 1.415l-.757.229c-.137-.497-.344-.841-.619-1.071-.24-.191-.584-.306-.963-.306-.481 0-.859.115-1.169.344-.275.268-.516.574-.619.995a3.716 3.716 0 0 0-.206 1.262c0 .535.103 1.033.241 1.453.137.421.378.727.687.918.31.23.619.306.998.306.447 0 .791-.114 1.1-.42.31-.268.516-.689.619-1.224l.791.229c-.172.689-.481 1.224-.894 1.607-.413.382-.929.573-1.548.573-.653 0-1.169-.153-1.547-.42-.413-.306-.722-.727-.929-1.263a4.956 4.956 0 0 1-.309-1.759c0-.688.103-1.3.344-1.798a2.8 2.8 0 0 1 .997-1.147 2.78 2.78 0 0 1 1.444-.421zm4.196.115v2.716h3.095v-2.716h.756v6.579h-.756v-3.098h-3.095v3.098h-.791v-6.579h.791z" fill="#198754"/><path d="M277.925 111.472c.241 0 .447.038.654.153.206.115.378.268.481.459.103.229.172.421.172.65 0 .23-.069.421-.172.574-.103.191-.241.344-.447.42.241.077.447.23.619.421.138.23.206.497.206.803 0 .421-.137.804-.412 1.11-.31.267-.654.42-1.066.42-.413 0-.722-.114-.997-.382-.241-.268-.379-.574-.413-.995l.516-.076c.068.344.172.574.344.727.137.153.309.229.55.229a.715.715 0 0 0 .619-.306c.206-.191.275-.421.275-.727 0-.267-.069-.497-.241-.688-.172-.153-.378-.268-.619-.268-.103 0-.241.038-.378.077l.069-.536h.068c.241 0 .448-.038.619-.191.207-.115.276-.344.276-.612a.826.826 0 0 0-.207-.574c-.103-.114-.309-.191-.516-.191a.792.792 0 0 0-.515.191c-.138.153-.241.383-.276.689l-.55-.115c.069-.421.207-.727.447-.956.241-.191.551-.306.894-.306zm-23.865-3.098.036.023.003-.016 10.037 1.79-.103.612-10.042-1.797-.103-.344.172-.268zm-73.487 31.592.55.497-1.857 15.023v.001l-.55-.459 1.857-15.062zm-18.914-31.057v2.716h3.061v-2.716h.791v6.579h-.791v-3.098h-3.061v3.098h-.791v-6.579h.791zm6.19 3.366c.241 0 .447.038.653.153.207.115.379.268.482.497.103.192.172.383.172.612 0 .23-.069.421-.172.574-.103.191-.241.344-.447.421.241.076.447.229.619.42.137.23.206.498.206.804 0 .42-.137.803-.413 1.109-.309.267-.653.42-1.066.42-.412 0-.722-.114-.997-.382-.241-.268-.378-.574-.412-.994l.515-.077c.069.344.172.574.344.727.138.153.31.229.55.229a.715.715 0 0 0 .619-.306c.207-.191.276-.42.276-.726 0-.268-.069-.498-.241-.689-.172-.153-.378-.268-.619-.268-.103 0-.241.039-.378.077l.068-.536h.069c.241 0 .447-.038.619-.191.206-.115.275-.344.275-.612a.828.828 0 0 0-.206-.573c-.103-.115-.31-.192-.516-.192a.792.792 0 0 0-.516.192c-.137.153-.24.382-.275.688l-.55-.115c.069-.42.206-.726.447-.956a1.43 1.43 0 0 1 .894-.306zm4.986-3.48c.585 0 1.101.191 1.479.497.413.344.688.803.86 1.415l-.757.229c-.137-.497-.344-.841-.619-1.07-.241-.192-.584-.306-.963-.306-.481 0-.859.114-1.169.344-.275.268-.516.573-.619.994a3.72 3.72 0 0 0-.206 1.262c0 .536.103 1.033.24 1.454.138.42.379.726.688.918.31.229.619.306.998.306.447 0 .79-.115 1.1-.421.309-.268.516-.688.619-1.224l.791.23c-.172.688-.482 1.223-.894 1.606-.413.382-.929.574-1.548.574-.653 0-1.169-.153-1.547-.421-.413-.306-.722-.727-.929-1.262a4.966 4.966 0 0 1-.309-1.76c0-.688.103-1.3.344-1.797.24-.497.584-.88.997-1.148.447-.267.928-.42 1.444-.42zm3.474.956.446 2.754-.584.191-.447-2.907.585-.038zm1.65-.077.378 2.295-.584.191-.379-2.447.585-.039zm1.651-.114.309 1.912-.55.191-.344-2.065.585-.038zm1.685-.115.206 1.491-.55.192-.275-1.645.619-.038zm1.65-.077.138 1.071-.55.153-.172-1.185.584-.039zm1.651-.114.103.65-.584.191-.104-.803.585-.038zm47.352 2.677 12.758 6.655.035.382-.344.192-12.734-6.681.006-.013h-.03v-.382l.309-.153zM247.905 25.837c.585 0 1.101.191 1.479.497.413.344.688.803.86 1.415l-.757.229c-.137-.497-.344-.841-.619-1.07-.24-.192-.584-.306-.963-.306-.481 0-.859.114-1.169.344-.275.268-.516.574-.619.994a3.72 3.72 0 0 0-.206 1.262c0 .536.103 1.033.241 1.454.137.421.378.726.687.918.31.229.619.306.998.306.447 0 .791-.115 1.1-.421.31-.268.516-.688.619-1.224l.791.23c-.172.688-.481 1.223-.894 1.606-.413.382-.929.574-1.548.574-.653 0-1.169-.153-1.547-.421-.413-.306-.722-.727-.928-1.262a4.944 4.944 0 0 1-.31-1.76c0-.688.103-1.3.344-1.797a2.81 2.81 0 0 1 .997-1.148 2.79 2.79 0 0 1 1.444-.42zm4.196.114v2.716h3.095v-2.716h.756v6.579h-.756v-3.098h-3.095v3.098h-.791v-6.579h.791zM258.29 29.317c.24 0 .447.038.653.153.206.115.378.268.481.459.104.23.172.421.172.65 0 .23-.068.421-.172.574-.103.191-.24.344-.447.421.241.076.447.229.619.42.138.23.207.498.207.804 0 .42-.138.803-.413 1.109-.309.268-.653.421-1.066.421-.413 0-.722-.115-.997-.383-.241-.268-.378-.574-.413-.994l.516-.077c.069.344.172.574.344.727.137.153.309.229.55.229a.715.715 0 0 0 .619-.306c.206-.191.275-.42.275-.726 0-.268-.069-.498-.241-.689-.172-.153-.378-.268-.619-.268-.103 0-.24.039-.378.077l.069-.536h.069c.24 0 .447-.038.619-.191.206-.114.275-.344.275-.612a.824.824 0 0 0-.207-.573c-.103-.115-.309-.192-.515-.192a.788.788 0 0 0-.516.192c-.138.153-.241.382-.275.688l-.551-.115c.069-.42.207-.726.448-.956.24-.191.55-.306.894-.306zm-11.933 3.901.55.153-2.407 10.097-.344.115-.241-.229.02-.02-.014-.003 2.436-10.113zM172.87 51.156l13.17 3.94.103.344-.206.268-.065-.05-.008.028-12.822-3.803-.172-.727zm20.151-21.648.619.268 2.373 14.572-.275.23-.31-.115.008-.021-.011.002-2.404-14.936zM216.027 77.891l1.41 4.666c.103.421.206.765.275.956l.309-1.032 1.41-4.59h1.066v6.578h-.756v-5.507l-1.72 5.507h-.722l-1.685-5.584v5.584h-.756v-6.578h1.169zm7.221 1.721c.482 0 .895.23 1.238.689v-.574h.654v4.092c0 .727-.069 1.262-.207 1.568-.137.306-.343.574-.619.727a2.002 2.002 0 0 1-1.1.306c-.516 0-.928-.153-1.238-.421-.309-.229-.447-.612-.447-1.147l.688.115c.034.267.137.42.275.535.172.153.413.23.722.23.344 0 .585-.077.791-.23.172-.153.275-.344.344-.612.034-.191.069-.535.069-1.032a1.43 1.43 0 0 1-1.204.612c-.585 0-1.032-.23-1.341-.727-.344-.459-.482-1.033-.482-1.683 0-.459.069-.88.207-1.262.137-.383.378-.689.653-.88.275-.229.619-.306.997-.306zm.035.65c-.31 0-.585.153-.826.459-.206.268-.343.727-.343 1.301 0 .612.137 1.071.343 1.338.241.306.516.459.826.459.344 0 .619-.153.86-.459.206-.267.343-.726.343-1.338 0-.574-.137-.995-.343-1.301-.241-.306-.516-.459-.86-.459zM226.894 76.093v4.934h-.585v-4.934h.585zm1.719 0v4.934h-.584v-4.934h.584z" fill="#198754"/><path d="m216.921 86.458-7.359 8.185m21.32-25.09-5.674 6.349m-11.004-.191L208.53 69.4m22.524 23.14-5.674-6.311" stroke="#198754" stroke-width="2" fill="none"/><path d="m244.741 118.968.275.192-.094.134.019.035.02.006-4.553 14.626-.413-.65 4.402-14.151.344-.192zm-4.746 14.343.413.65h-15.887l.412-.65h15.062zm-19.945-14.113.378.153 4.505 13.96-.412.65-4.675-14.422.053-.018-.09-.094.241-.229zm28.061 23.732c.55 0 1.032.142 1.479.432.412.291.756.696.997 1.213.241.52.344 1.105.344 1.763 0 .669-.138 1.262-.379 1.79-.24.524-.584.925-1.031 1.193a2.53 2.53 0 0 1-1.41.406c-.55 0-1.066-.15-1.513-.448a3.098 3.098 0 0 1-.997-1.224 4.366 4.366 0 0 1-.31-1.641c0-1.09.241-1.943.791-2.558.516-.62 1.204-.926 2.029-.926zm0 .731c-.55 0-1.032.214-1.444.635-.379.424-.585 1.128-.585 2.118 0 .792.206 1.416.585 1.871.378.455.859.684 1.444.684.584 0 1.066-.229 1.444-.692.378-.459.55-1.113.55-1.958 0-.536-.068-1.002-.24-1.4a1.88 1.88 0 0 0-.688-.929 1.86 1.86 0 0 0-1.066-.329z" fill="#198754"/><path d="m240.855 132.125 6.259 9.784-.482.363-6.258-9.764.481-.383zm-1.685 1.339 6.258 9.764-.481.364-6.258-9.784.481-.344zm-22.112 9.917 2.064 1.607-.31.573-2.132-1.682.378-.498zm1.101-1.434 1.788 1.415-.275.555-1.891-1.473.378-.497zm1.1-1.446 1.513 1.217-.275.573-1.616-1.292.378-.498zm1.101-1.415 1.272.995-.309.573h-.001l-1.341-1.071.379-.497zm1.1-1.453.997.803-.275.574-1.1-.88.378-.497zm1.101-1.415.756.573-.309.574-.826-.65.379-.497zm1.1-1.454.481.383-.309.574-.55-.459.378-.498zM222.664 156.737c.55 0 1.031.141 1.478.432.413.291.757.696.998 1.212.24.521.344 1.106.344 1.764 0 .669-.138 1.262-.379 1.79-.24.524-.584.925-1.031 1.193a2.537 2.537 0 0 1-1.41.405c-.55 0-1.066-.149-1.513-.447a3.116 3.116 0 0 1-.998-1.224 4.385 4.385 0 0 1-.309-1.641c0-1.09.241-1.943.791-2.559.516-.619 1.203-.925 2.029-.925zm0 .73c-.55 0-1.032.215-1.445.635-.378.425-.584 1.129-.584 2.119 0 .792.206 1.415.584 1.87.379.456.86.685 1.445.685.584 0 1.066-.229 1.444-.692.378-.459.55-1.113.55-1.958 0-.536-.068-1.003-.24-1.4a1.886 1.886 0 0 0-.688-.93 1.86 1.86 0 0 0-1.066-.329zm6.396-.726c.585 0 1.066.164 1.479.501.412.332.687.807.859 1.411l-.791.203c-.137-.478-.343-.826-.584-1.044-.275-.218-.585-.329-.997-.329-.447 0-.826.122-1.135.363-.31.241-.516.566-.619.975-.138.41-.206.83-.206 1.262 0 .559.068 1.048.206 1.465.172.417.378.727.688.934.309.206.653.309 1.031.309.413 0 .791-.141 1.101-.42.309-.283.515-.7.619-1.251l.79.218c-.171.715-.481 1.258-.894 1.633-.447.375-.962.562-1.581.562s-1.135-.141-1.548-.432c-.378-.287-.688-.704-.894-1.251a4.959 4.959 0 0 1-.309-1.763c0-.684.103-1.281.343-1.79.241-.508.551-.895.998-1.162a2.788 2.788 0 0 1 1.444-.394zm4.195.111v2.7h3.061v-2.7h.791v6.57h-.791v-3.098h-3.061v3.098h-.791v-6.57h.791zM239.411 160.187c.24 0 .447.058.653.176.206.115.378.272.482.471.103.198.171.413.171.634 0 .215-.068.406-.171.582a1.038 1.038 0 0 1-.448.417 1.2 1.2 0 0 1 .619.42c.138.211.207.475.207.792 0 .432-.138.796-.413 1.098-.309.298-.653.447-1.066.447-.413 0-.722-.13-.997-.386-.385-.604-.244-.274-.411-.995l.514-.08c.069.341.172.589.344.742a.696.696 0 0 0 .55.226.797.797 0 0 0 .619-.295c.206-.198.275-.443.275-.734 0-.279-.069-.509-.241-.688a.826.826 0 0 0-.619-.272c-.103 0-.24.038-.378.069l.069-.532h.069c.24 0 .447-.069.619-.202.206-.134.275-.341.275-.62a.79.79 0 0 0-.206-.555c-.104-.145-.31-.218-.516-.218a.684.684 0 0 0-.516.222c-.138.149-.241.371-.275.666l-.55-.107c.068-.406.206-.719.447-.941.24-.226.55-.337.894-.337zm-1.376 3.649.002.007-.002.001v-.008zm-20.873-17.93 4.264 10.154-.55.268-4.23-10.135.516-.287zm-13.825-4.257c.551 0 1.032.141 1.479.432.413.291.757.696.997 1.212.241.521.344 1.106.344 1.764 0 .669-.137 1.262-.378 1.79-.241.524-.584.925-1.032 1.193a2.534 2.534 0 0 1-1.409.405 2.696 2.696 0 0 1-1.514-.447 3.122 3.122 0 0 1-.997-1.224 4.385 4.385 0 0 1-.309-1.641c0-1.09.24-1.943.791-2.559.515-.619 1.203-.925 2.029-.925zm0 .73c-.55 0-1.031.215-1.444.635-.378.425-.584 1.129-.584 2.119 0 .792.206 1.415.584 1.87.379.456.86.685 1.445.685.584 0 1.066-.229 1.444-.692.378-.459.55-1.113.55-1.958 0-.536-.069-1.003-.241-1.4a1.879 1.879 0 0 0-.687-.93 1.86 1.86 0 0 0-1.066-.329z" fill="#198754"/><path d="m206.845 145.867 10.592 1.052-.069.651-10.588-1.052h-.004l.069-.651zm.172-2.256 10.592 1.032-.035.651-10.591-1.033.034-.65zm-17.229 17.869c.551 0 1.032.141 1.479.432.413.291.757.696.998 1.213.24.52.343 1.105.343 1.763 0 .669-.137 1.262-.378 1.79-.241.524-.584.925-1.031 1.193a2.531 2.531 0 0 1-1.41.405 2.69 2.69 0 0 1-1.513-.447 3.116 3.116 0 0 1-.998-1.224 4.385 4.385 0 0 1-.309-1.641c0-1.09.24-1.943.791-2.558.516-.62 1.203-.926 2.029-.926zm0 .73c-.55 0-1.031.215-1.444.635-.378.425-.584 1.129-.584 2.119 0 .792.206 1.415.584 1.871.379.455.86.684 1.445.684.584 0 1.066-.229 1.444-.692.378-.459.55-1.113.55-1.958 0-.536-.069-1.002-.241-1.4a1.879 1.879 0 0 0-.687-.93 1.86 1.86 0 0 0-1.066-.329zm-10.453-8.521 8.425 7.286-.378.497-8.426-7.267.379-.516zm-1.273 1.798 8.425 7.266-.344.517-8.425-7.267.344-.516zm-11.657 2.417c.55 0 1.031.141 1.478.432.413.291.757.696.998 1.212.24.521.344 1.106.344 1.764 0 .669-.138 1.262-.379 1.79-.24.524-.584.925-1.031 1.193a2.537 2.537 0 0 1-1.41.405c-.55 0-1.066-.149-1.513-.447a3.116 3.116 0 0 1-.998-1.224 4.385 4.385 0 0 1-.309-1.641c0-1.09.241-1.943.791-2.559.516-.619 1.203-.925 2.029-.925zm0 .73c-.55 0-1.032.215-1.445.635-.378.425-.584 1.129-.584 2.119 0 .792.206 1.415.584 1.87.379.456.86.685 1.445.685.584 0 1.066-.229 1.444-.692.378-.459.55-1.113.55-1.958 0-.536-.069-1.003-.24-1.4a1.886 1.886 0 0 0-.688-.93 1.86 1.86 0 0 0-1.066-.329z" fill="#198754"/><path d="m178.716 155.028.55.458v.001l-9.457 4.283-.241-.612 9.148-4.13zM276.791 59.035c.584 0 1.1.191 1.479.497.412.345.687.804.859 1.415l-.756.23c-.138-.497-.344-.841-.619-1.071-.241-.191-.585-.306-.963-.306-.482 0-.86.115-1.169.344-.275.268-.516.574-.619.995a3.692 3.692 0 0 0-.207 1.262c0 .535.104 1.033.241 1.453.138.421.378.727.688.918.309.23.619.306.997.306.447 0 .791-.115 1.101-.421.309-.267.515-.688.618-1.223l.791.229c-.172.688-.481 1.224-.894 1.606-.412.383-.928.574-1.547.574-.653 0-1.169-.153-1.548-.421-.412-.306-.722-.726-.928-1.262a4.957 4.957 0 0 1-.31-1.759c0-.689.104-1.301.344-1.798.241-.497.585-.879.998-1.147a2.778 2.778 0 0 1 1.444-.421zm4.195.115v2.715h3.095V59.15h.757v6.578h-.757V62.63h-3.095v3.098h-.791V59.15h.791zM287.176 62.516c.24 0 .447.038.653.153.206.114.378.267.482.497.103.191.171.382.171.612 0 .229-.068.421-.171.573-.104.192-.241.345-.448.421.241.077.448.23.619.421.138.229.207.497.207.803 0 .421-.138.803-.413 1.109-.309.268-.653.421-1.066.421-.413 0-.722-.115-.997-.382-.241-.268-.378-.574-.413-.995l.516-.076c.069.344.172.573.344.726.137.153.309.23.55.23a.717.717 0 0 0 .619-.306c.206-.191.275-.421.275-.727 0-.268-.069-.497-.241-.688-.171-.153-.378-.268-.619-.268-.103 0-.24.038-.378.076l.069-.535h.069c.24 0 .447-.038.619-.191.206-.115.275-.344.275-.612a.828.828 0 0 0-.206-.574c-.104-.115-.31-.191-.516-.191a.788.788 0 0 0-.516.191c-.138.153-.241.383-.275.689l-.55-.115c.068-.421.206-.727.447-.956.24-.192.55-.306.894-.306zm-20.152-11.474 7.325 8.146-.413.459-7.118-7.917.206-.688zM154.541 153.001l8.872 5.698-.275.574h-.001l-8.596-5.507v-.765zm0 0v.765l-11.83 7.572v-.745l11.83-7.592z" fill="#198754"/><path d="m131.191 153.192 11.52 7.401v.745l-11.795-7.572v-.383l.275-.191zm1.892-1.415 9.8 6.291-.309.555-9.767-6.273.276-.573zm-2.476 1.415.309.191v.383l-11.829 7.572v-.745l11.52-7.401z" fill="#198754"/><path d="m107.257 153.001 11.83 7.592v.745l-11.83-7.572v-.765zm0 0v.765l-11.795 7.572v-.745l11.795-7.592zm-23.315.21 11.52 7.382v.745l-11.829-7.572v-.383l.309-.172zM83.323 153.211l.31.172v.383l-11.83 7.572v-.745l11.52-7.382zm-23.315-.21 11.795 7.592v.745l-11.795-7.572v-.765z" fill="#198754"/><path d="M60.008 153.001v.765l-11.83 7.572v-.745l11.83-7.592zM131.123 135.146c.584 0 1.1.153 1.479.498.412.344.687.803.859 1.415l-.756.191c-.138-.459-.344-.803-.619-1.033-.241-.229-.585-.306-.963-.306-.482 0-.86.115-1.169.345a1.89 1.89 0 0 0-.619.994 3.63 3.63 0 0 0-.207 1.224c0 .574.103 1.071.241 1.491.138.421.378.727.688.918.309.23.619.306.997.306.447 0 .791-.114 1.1-.42.31-.268.516-.689.619-1.224l.791.191c-.172.727-.481 1.262-.894 1.645-.412.374-.928.562-1.547.562-.654 0-1.169-.142-1.548-.448-.412-.267-.722-.688-.928-1.224a5.112 5.112 0 0 1-.31-1.759c0-.688.104-1.3.344-1.798.241-.535.585-.917.998-1.185.447-.23.928-.383 1.444-.383zm4.195.115v2.716h3.095v-2.716h.757v6.571h-.757v-3.09h-3.095v3.09h-.791v-6.571h.791zM141.473 138.589c.241 0 .447.077.654.191.206.115.378.268.481.459.103.23.172.421.172.65 0 .192-.069.421-.172.574-.103.191-.241.306-.447.421.241.076.447.191.619.421.138.191.206.474.206.791 0 .433-.137.796-.412 1.098-.31.298-.654.448-1.066.448-.413 0-.722-.131-.998-.387-.24-.26-.378-.593-.412-1.002l.516-.08c.068.34.172.589.344.742.137.149.309.225.55.225a.8.8 0 0 0 .619-.294c.206-.199.275-.444.275-.734 0-.28-.069-.509-.241-.693a.785.785 0 0 0-.619-.267c-.103 0-.241.038-.378.076l.069-.535h.068c.241 0 .447-.077.619-.192.207-.153.276-.344.276-.612a.824.824 0 0 0-.207-.573c-.103-.153-.309-.23-.516-.23a.663.663 0 0 0-.515.23c-.138.153-.241.382-.276.688l-.55-.115c.069-.42.207-.726.447-.956.241-.229.55-.344.894-.344zm-10.282 4.2v10.403l-.275.191-.309-.191v-10.403h.584zM83.839 135.146c.585 0 1.1.153 1.479.498.412.344.687.803.859 1.415l-.756.191c-.138-.459-.344-.803-.619-1.033-.241-.229-.585-.306-.963-.306-.482 0-.86.115-1.169.345a1.89 1.89 0 0 0-.619.994 3.63 3.63 0 0 0-.207 1.224c0 .574.104 1.071.241 1.491.138.421.378.727.688.918.309.23.619.306.997.306.447 0 .791-.114 1.101-.42.309-.268.515-.689.619-1.224l.79.191c-.171.727-.481 1.262-.894 1.645-.412.374-.928.562-1.547.562-.653 0-1.169-.142-1.548-.448-.412-.267-.722-.688-.928-1.224a5.112 5.112 0 0 1-.31-1.759c0-.688.104-1.3.344-1.798.241-.535.585-.917.998-1.185.447-.23.928-.383 1.444-.383zm4.195.115v2.716h3.095v-2.716h.757v6.571h-.757v-3.09h-3.095v3.09h-.791v-6.571h.791z" fill="#198754"/><path d="M94.224 138.589c.241 0 .447.077.654.191.206.115.378.268.481.459.103.23.172.421.172.65 0 .192-.069.421-.172.574-.103.191-.241.306-.447.421.241.076.447.191.619.421.137.191.206.474.206.791 0 .433-.137.796-.412 1.098-.31.298-.654.448-1.066.448-.413 0-.723-.131-.998-.387-.24-.26-.378-.593-.412-1.002l.515-.08c.069.34.172.589.344.742.138.149.31.225.551.225a.8.8 0 0 0 .619-.294c.206-.199.275-.444.275-.734 0-.28-.069-.509-.241-.693a.785.785 0 0 0-.619-.267c-.103 0-.241.038-.378.076l.068-.535h.069c.241 0 .447-.077.619-.192.207-.153.275-.344.275-.612a.823.823 0 0 0-.206-.573c-.103-.153-.309-.23-.516-.23a.667.667 0 0 0-.516.23c-.137.153-.24.382-.275.688l-.55-.115c.069-.42.206-.726.447-.956.241-.229.55-.344.894-.344zm-9.285 4.2-.997 10.422-.309.172-.31-.172.031-.056-.037-.004-.689-7.204.111-1.158h-.222l-.191-2h2.613zm-48.305 10.403 11.545 7.401v.745l-11.837-7.572v-.383l.292-.191zm-23.043 4.807v2.701h3.071v-2.701h.78v6.571h-.78v-3.098h-3.071v3.098h-.784v-6.571h.784zm6.162 3.336c.241 0 .465.057.667.176.203.114.362.271.468.47.107.199.162.413.162.635a1.083 1.083 0 0 1-.609.998c.261.069.464.207.609.421.144.21.216.474.216.792 0 .432-.141.795-.423 1.097a1.403 1.403 0 0 1-1.069.448 1.32 1.32 0 0 1-.97-.387c-.406-.601-.258-.271-.435-.994l.542-.08c.062.34.168.589.32.742a.74.74 0 0 0 .546.225.85.85 0 0 0 .65-.294c.176-.199.262-.444.262-.734 0-.28-.079-.509-.244-.689a.805.805 0 0 0-.623-.271c-.103 0-.23.038-.382.068l.059-.531h.089c.231 0 .44-.069.626-.203s.275-.34.275-.62a.795.795 0 0 0-.199-.554.685.685 0 0 0-.523-.218.708.708 0 0 0-.53.222c-.14.149-.233.371-.271.665l-.547-.107c.069-.405.22-.719.454-.941.237-.225.53-.336.88-.336zm-1.386 3.648.002.008h-.002v-.008zm6.376-7.094c.592 0 1.09.164 1.492.501.403.332.685.807.843 1.411l-.77.203c-.138-.478-.337-.827-.595-1.045-.262-.218-.588-.328-.984-.328-.454 0-.835.122-1.138.363a1.905 1.905 0 0 0-.643.975c-.124.409-.186.83-.186 1.262 0 .559.072 1.048.22 1.465.145.417.375.727.681.933.31.207.647.31 1.004.31.441 0 .808-.141 1.115-.42.302-.284.508-.7.615-1.251l.781.218c-.162.715-.458 1.258-.884 1.633s-.946.562-1.561.562c-.636 0-1.156-.141-1.555-.432-.399-.287-.701-.704-.911-1.251a4.967 4.967 0 0 1-.309-1.763c0-.684.117-1.281.35-1.79a2.607 2.607 0 0 1 1.004-1.162 2.702 2.702 0 0 1 1.431-.394zm11.307-4.697.292.191v.383l-8.545 5.488-.293-.574 8.546-5.488zM36.565 135.146c.592 0 1.091.153 1.493.498.402.344.684.803.842 1.415l-.77.191c-.137-.459-.337-.803-.595-1.033-.261-.229-.588-.306-.983-.306-.454 0-.836.115-1.138.345-.307.229-.52.573-.644.994a4.031 4.031 0 0 0-.185 1.224c0 .574.072 1.071.22 1.491.144.421.375.727.681.918.309.23.646.306 1.004.306.44 0 .808-.114 1.114-.42.303-.268.509-.689.616-1.224l.78.191c-.161.727-.457 1.262-.884 1.645-.426.374-.945.562-1.561.562-.636 0-1.155-.142-1.554-.448-.399-.267-.702-.688-.911-1.224a5.088 5.088 0 0 1-.31-1.759c0-.688.117-1.3.351-1.798.234-.535.571-.917 1.004-1.185.433-.23.911-.383 1.431-.383zm4.203.115v2.716h3.077v-2.716h.791v6.571h-.791v-3.09h-3.077v3.09h-.781v-6.571h.781z" fill="#198754"/><path d="M46.94 138.589c.241 0 .448.077.654.191.206.115.378.268.481.459.103.23.172.421.172.65 0 .192-.069.421-.172.574-.103.191-.24.306-.447.421.241.076.447.191.619.421.138.191.207.474.207.791 0 .433-.138.796-.413 1.098-.31.298-.653.448-1.066.448-.413 0-.722-.131-.997-.387-.241-.26-.379-.593-.413-1.002l.516-.08c.069.34.172.589.344.742.137.149.309.225.55.225a.799.799 0 0 0 .619-.294c.206-.199.275-.444.275-.734 0-.28-.069-.509-.241-.693a.785.785 0 0 0-.619-.267c-.103 0-.24.038-.378.076l.069-.535h.069a1.1 1.1 0 0 0 .619-.192c.206-.153.275-.344.275-.612a.824.824 0 0 0-.207-.573c-.103-.153-.309-.23-.515-.23a.664.664 0 0 0-.516.23c-.138.153-.241.382-.275.688l-.551-.115c.069-.42.207-.726.447-.956a1.27 1.27 0 0 1 .895-.344zm-10.306 4.2v10.403l-.292.191-.292-.191v-10.403h.584zm88.402-10.434v37.455h-2.098v-2h.098v-33.455h-.098v-2h2.098zm-47.731 0v2h-.132v33.455h.132v2h-2.132v-37.455h2.132zm52.511 35.508c.481 0 .86.153 1.169.459.275.306.447.685.447 1.136 0 .23-.069.455-.137.677a4.72 4.72 0 0 1-.413.704c-.206.245-.55.581-.997 1.01-.379.355-.619.596-.723.726-.103.127-.206.253-.275.383h2.545v.677h-3.439c0-.168.035-.333.103-.49.069-.26.207-.512.413-.765.172-.252.447-.543.825-.872.551-.512.929-.918 1.135-1.216.207-.298.31-.581.31-.849 0-.279-.103-.516-.275-.708a.978.978 0 0 0-.723-.29c-.309 0-.55.103-.722.306-.172.206-.275.489-.275.849l-.653-.077c.034-.539.206-.952.516-1.235.275-.283.653-.425 1.169-.425zM204.61 17.652c.585 0 1.1.191 1.479.497.412.344.688.803.859 1.415l-.756.23c-.138-.498-.344-.842-.619-1.071-.241-.192-.585-.306-.963-.306-.481 0-.86.114-1.169.344-.275.268-.516.574-.619.994a3.702 3.702 0 0 0-.206 1.263c0 .535.103 1.032.24 1.453.138.421.379.727.688.918.31.229.619.306.997.306.447 0 .791-.115 1.101-.421.309-.268.516-.688.619-1.224l.791.23c-.172.688-.482 1.224-.894 1.606-.413.383-.929.574-1.548.574-.653 0-1.169-.153-1.547-.421-.413-.306-.723-.727-.929-1.262a4.964 4.964 0 0 1-.309-1.759c0-.689.103-1.301.344-1.798.24-.497.584-.88.997-1.148.447-.267.928-.42 1.444-.42zm4.195.115v2.715h3.095v-2.715h.757v6.578h-.757v-3.098h-3.095v3.098h-.791v-6.578h.791zM215.064 21.132c.447 0 .756.115 1.032.383.24.268.343.573.343.956a1.739 1.739 0 0 1-.447 1.186c-.172.229-.447.497-.859.879-.31.306-.516.498-.619.612-.103.115-.172.23-.241.344h2.201v.574h-2.958c0-.153.035-.268.069-.421.069-.229.207-.42.378-.65.138-.229.379-.459.688-.765.482-.42.826-.765.997-1.032.172-.268.241-.498.241-.727 0-.23-.069-.459-.241-.612-.137-.153-.343-.229-.584-.229-.275 0-.482.076-.619.267-.172.153-.241.383-.241.727l-.584-.077c.068-.459.206-.803.447-1.07.24-.23.584-.345.997-.345zm-14.34 1.148.378.497-7.462 6.999-.619-.268 7.703-7.228zm1.307 1.721.378.497-6.671 6.273-.379-.498 6.672-6.272zm-37.965 35.99c.551 0 1.032.153 1.479.459.413.268.757.689.997 1.186.241.535.344 1.109.344 1.759 0 .689-.137 1.262-.378 1.798-.241.535-.585.918-1.032 1.186a2.58 2.58 0 0 1-1.41.42c-.55 0-1.066-.153-1.513-.459a3.039 3.039 0 0 1-.997-1.224 4.344 4.344 0 0 1-.309-1.644c0-1.071.24-1.951.79-2.563.516-.612 1.204-.918 2.029-.918zm0 .765c-.55 0-1.031.191-1.444.612-.378.421-.585 1.148-.585 2.142 0 .765.207 1.415.585 1.874.378.459.86.65 1.444.65.585 0 1.066-.229 1.445-.688.378-.459.55-1.109.55-1.951 0-.535-.069-.994-.241-1.377a1.885 1.885 0 0 0-.688-.956 2.059 2.059 0 0 0-1.066-.306zm8.804-9.6.172.727-6.981 7.764-.413-.459 7.222-8.032zm.481 2.677.413.459-6.259 6.961-.413-.459 6.259-6.961zm22.008 65.632.276.192-.826 14.572-2.716.535 2.957-15.184.309-.115z" fill="#198754"/></svg>