<svg xmlns="http://www.w3.org/2000/svg" width="300" height="200"><path d="m41.96 35.673-4.997-2.283q-.314-.144-.444-.284-.13-.14-.13-.318 0-.198.119-.314.12-.117.325-.117.103 0 .229.038.127.038.318.126l5.435 2.496.082.041q.615.273.615.615 0 .335-.602.615-.068.027-.095.041l-5.435 2.536-.027.014q-.356.157-.52.157-.205 0-.325-.123-.119-.123-.119-.328 0-.178.13-.318t.444-.284zM50.402 34.066q.335 0 .489.117.154.116.154.369 0 .239-.144.359-.143.119-.43.119h-2.769v2.283q0 1.122.291 1.477.29.356.994.356.622 0 1.491-.363.868-.362 1.073-.362.191 0 .325.137.133.136.133.335 0 .225-.168.393-.167.167-.57.324-.67.267-1.207.39t-1.008.123q-.8 0-1.343-.256-.544-.257-.811-.763-.136-.239-.194-.567-.058-.328-.058-1.012V35.03h-1.163q-.287 0-.417-.113-.129-.112-.129-.365 0-.281.177-.383.178-.103.759-.103h.773v-1.763q0-.294.126-.434t.393-.14q.301 0 .417.17.116.171.116.78v1.387zM56.268 39.036h2.269q.267 0 .393.113.127.113.127.359 0 .28-.12.386-.12.106-.441.106h-4.471q-.266 0-.403-.123t-.137-.369q0-.239.141-.356.14-.116.434-.116h1.189v-4.382h-.465q-.663 0-.827-.106-.164-.106-.164-.386 0-.239.133-.359.134-.119.407-.119h1.559q.184 0 .28.071.096.072.096.209v1.162q.649-.814 1.353-1.21t1.518-.396q.608 0 .984.246t.376.635q0 .253-.188.448t-.413.195q-.158 0-.53-.209-.373-.208-.667-.208-.533 0-1.124.379-.592.38-1.309 1.2zM64.922 29.179h.827v14.266h-.827zM72.332 36.5h2.796l-1.47-3.623zm.349-3.623h-.998q-.417 0-.585-.113-.167-.113-.167-.379 0-.281.147-.386.147-.106.803-.106h1.948q.376 0 .509.099.134.099.243.365l2.673 6.679h.116q.369 0 .506.103.137.102.137.369 0 .28-.13.386-.13.106-.485.106h-1.86q-.519 0-.666-.106-.147-.106-.147-.386 0-.26.16-.366.161-.106.605-.106h.636l-.663-1.627H71.99l-.588 1.627h.664q.451 0 .615.106.164.106.164.366 0 .28-.147.386-.147.106-.646.106h-1.798q-.437 0-.581-.106-.144-.106-.144-.386 0-.267.144-.369.144-.103.554-.103h.13zM80.481 37.648q0 .725.454 1.176.455.451 1.207.451.758 0 1.213-.437.455-.438.455-1.162 0-.711-.465-1.152-.465-.441-1.203-.441-.732 0-1.197.434-.464.434-.464 1.131zm.068-4.074q0 .677.448 1.108.447.43 1.145.43.704 0 1.152-.434.447-.434.447-1.117 0-.657-.447-1.084-.448-.427-1.152-.427t-1.149.427q-.444.427-.444 1.097zm.226 2.003q-.664-.328-.999-.83-.334-.503-.334-1.173 0-1.059.758-1.74.759-.68 1.942-.68 1.162 0 1.934.684.773.683.773 1.668 0 .731-.328 1.237-.329.506-1.019.834.69.28 1.06.824.369.543.369 1.275 0 1.128-.776 1.839-.776.711-2.013.711-1.238 0-2.01-.718-.773-.718-.773-1.86 0-.697.37-1.24.369-.544 1.046-.831zM91.582 32.877h-1.846q-.512 0-.663-.106-.15-.106-.15-.386 0-.253.12-.373.119-.119.386-.119h4.436q.246 0 .366.123t.12.369q0 .28-.151.386-.15.106-.656.106h-.882v4.368q0 1.566-.663 2.259-.663.694-2.14.694-.642 0-1.223-.147-.581-.147-1.155-.454-.24-.13-.315-.257-.075-.126-.075-.461v-1.607q0-.478.099-.598.099-.119.345-.119.164 0 .281.065.116.065.17.188.028.068.041.164.014.095.014.341v.069q0 .225.021.413.02.188.061.373.151.54.595.851.444.311 1.073.311.943 0 1.367-.53.424-.529.424-1.726zM97.311 39.036h.458q.403 0 .567.11.164.109.164.362 0 .28-.143.386-.144.106-.629.106H95.923q-.253 0-.379-.123-.127-.123-.127-.369 0-.267.147-.369.147-.103.557-.103h.123v-6.159h-.109q-.41 0-.564-.109-.154-.11-.154-.383 0-.253.127-.373.126-.119.393-.119h1.722q.547 0 .694.106.147.105.147.386 0 .273-.184.383-.185.109-.698.109h-.307v2.379h3.274v-2.379h-.465q-.389 0-.557-.116-.167-.116-.167-.376 0-.281.153-.386.154-.106.756-.106H101.973q.246 0 .372.123.127.123.127.369 0 .266-.144.379-.143.113-.512.113h-.165v6.159h.11q.41 0 .56.106.151.106.151.366 0 .28-.144.386-.143.106-.663.106h-1.415q-.554 0-.704-.106-.15-.106-.15-.386 0-.267.177-.369.178-.103.677-.103h.335v-2.844h-3.274zM105.876 37.341q0 .841.444 1.37.445.53 1.142.53.656 0 1.077-.499.42-.499.42-1.305 0-.834-.434-1.354-.434-.52-1.118-.52-.663 0-1.097.499-.434.5-.434 1.279zm-.15-1.819q.369-.478.82-.717.451-.24.984-.24 1.08 0 1.836.814.755.813.755 2.003 0 1.244-.731 2.044-.732.8-1.873.8-1.347 0-2.157-1.07t-.81-2.854q0-2.324 1.196-3.736 1.196-1.412 3.158-1.412.663 0 .875.096.212.096.212.362 0 .438-.806.451-.534.007-.855.069-1.08.205-1.753 1.083-.674.879-.851 2.307zM114.086 37.648q0 .725.455 1.176.454.451 1.206.451.759 0 1.214-.437.454-.438.454-1.162 0-.711-.465-1.152-.465-.441-1.203-.441-.731 0-1.196.434-.465.434-.465 1.131zm.068-4.074q0 .677.448 1.108.448.43 1.145.43.704 0 1.152-.434.448-.434.448-1.117 0-.657-.448-1.084-.448-.427-1.152-.427t-1.148.427q-.445.427-.445 1.097zm.226 2.003q-.663-.328-.998-.83-.335-.503-.335-1.173 0-1.059.759-1.74.759-.68 1.941-.68 1.162 0 1.935.684.772.683.772 1.668 0 .731-.328 1.237-.328.506-1.018.834.69.28 1.059.824.369.543.369 1.275 0 1.128-.776 1.839-.776.711-2.013.711-1.237 0-2.01-.718-.772-.718-.772-1.86 0-.697.369-1.24.369-.544 1.046-.831zM123.732 29.179h.827v14.266h-.827zM131.142 36.5h2.796l-1.47-3.623zm.348-3.623h-.998q-.417 0-.584-.113-.168-.113-.168-.379 0-.281.147-.386.147-.106.804-.106h1.948q.376 0 .509.099t.243.365l2.673 6.679h.116q.369 0 .506.103.136.102.136.369 0 .28-.13.386-.129.106-.485.106h-1.859q-.52 0-.667-.106-.147-.106-.147-.386 0-.26.161-.366.161-.106.605-.106h.636l-.663-1.627H130.8l-.588 1.627h.663q.451 0 .615.106.164.106.164.366 0 .28-.147.386-.147.106-.646.106h-1.797q-.438 0-.581-.106-.144-.106-.144-.386 0-.267.144-.369.143-.103.553-.103h.13zM139.29 37.648q0 .725.455 1.176.454.451 1.206.451.759 0 1.214-.437.454-.438.454-1.162 0-.711-.465-1.152-.464-.441-1.203-.441-.731 0-1.196.434-.465.434-.465 1.131zm.068-4.074q0 .677.448 1.108.448.43 1.145.43.704 0 1.152-.434.448-.434.448-1.117 0-.657-.448-1.084-.448-.427-1.152-.427t-1.148.427q-.445.427-.445 1.097zm.226 2.003q-.663-.328-.998-.83-.335-.503-.335-1.173 0-1.059.759-1.74.759-.68 1.941-.68 1.162 0 1.935.684.772.683.772 1.668 0 .731-.328 1.237-.328.506-1.018.834.69.28 1.059.824.369.543.369 1.275 0 1.128-.776 1.839-.775.711-2.013.711-1.237 0-2.01-.718-.772-.718-.772-1.86 0-.697.369-1.24.369-.544 1.046-.831zM150.392 32.877h-1.846q-.513 0-.663-.106-.15-.106-.15-.386 0-.253.119-.373.12-.119.386-.119H152.675q.246 0 .366.123.119.123.119.369 0 .28-.15.386-.151.106-.656.106h-.882v4.368q0 1.566-.663 2.259-.663.694-2.14.694-.643 0-1.224-.147t-1.155-.454q-.239-.13-.314-.257-.076-.126-.076-.461v-1.607q0-.478.1-.598.099-.119.345-.119.164 0 .28.065.116.065.171.188.027.068.041.164.014.095.014.341v.069q0 .225.02.413.021.188.062.373.15.54.594.851.445.311 1.074.311.943 0 1.367-.53.424-.529.424-1.726zM156.12 39.036h.458q.404 0 .568.11.164.109.164.362 0 .28-.144.386-.143.106-.629.106h-1.804q-.253 0-.38-.123-.126-.123-.126-.369 0-.267.147-.369.147-.103.557-.103h.123v-6.159h-.11q-.41 0-.564-.109-.153-.11-.153-.383 0-.253.126-.373.127-.119.393-.119h1.723q.547 0 .694.106.147.105.147.386 0 .273-.185.383-.184.109-.697.109h-.308v2.379h3.275v-2.379h-.465q-.39 0-.557-.116-.168-.116-.168-.376 0-.281.154-.386.154-.106.755-.106h1.668q.246 0 .373.123.126.123.126.369 0 .266-.143.379-.144.113-.513.113h-.164v6.159h.109q.411 0 .561.106.15.106.15.366 0 .28-.143.386-.144.106-.663.106h-1.415q-.554 0-.704-.106-.151-.106-.151-.386 0-.267.178-.369.178-.103.677-.103h.335v-2.844h-3.275zM164.686 37.341q0 .841.444 1.37.444.53 1.142.53.656 0 1.076-.499.421-.499.421-1.305 0-.834-.434-1.354-.435-.52-1.118-.52-.663 0-1.097.499-.434.5-.434 1.279zm-.151-1.819q.369-.478.821-.717.451-.24.984-.24 1.08 0 1.835.814.756.813.756 2.003 0 1.244-.732 2.044-.731.8-1.873.8-1.346 0-2.156-1.07-.811-1.07-.811-2.854 0-2.324 1.197-3.736 1.196-1.412 3.158-1.412.663 0 .875.096.212.096.212.362 0 .438-.807.451-.533.007-.854.069-1.08.205-1.754 1.083-.673.879-.851 2.307zM172.896 37.648q0 .725.454 1.176.455.451 1.207.451.759 0 1.213-.437.455-.438.455-1.162 0-.711-.465-1.152-.465-.441-1.203-.441-.732 0-1.197.434-.464.434-.464 1.131zm.068-4.074q0 .677.448 1.108.447.43 1.145.43.704 0 1.152-.434.447-.434.447-1.117 0-.657-.447-1.084-.448-.427-1.152-.427t-1.149.427q-.444.427-.444 1.097zm.226 2.003q-.664-.328-.999-.83-.334-.503-.334-1.173 0-1.059.758-1.74.759-.68 1.942-.68 1.162 0 1.934.684.773.683.773 1.668 0 .731-.328 1.237-.328.506-1.019.834.691.28 1.06.824.369.543.369 1.275 0 1.128-.776 1.839-.776.711-2.013.711-1.238 0-2.01-.718-.772-.718-.772-1.86 0-.697.369-1.24.369-.544 1.046-.831z" fill="#FCB425"/><path d="M187.285 42.495v.807h-8.647v-.807z"/><path d="M193.52 32.118q.068-.184.191-.26.123-.075.355-.075.253 0 .356.123.103.123.103.506 0 .67.013 1.248.014.577.014.502 0 .321-.11.434-.109.113-.389.113-.451 0-.588-.643l-.075-.294q-.13-.512-.622-.837-.493-.325-1.156-.325-1.21 0-1.941.886-.731.885-.731 2.375t.741 2.376q.742.885 1.959.885.396 0 .806-.113.411-.113.807-.338.185-.096.506-.325t.458-.229q.212 0 .359.14t.147.345q0 .205-.161.393-.161.188-.598.462-.574.376-1.155.554-.581.177-1.224.177-1.688 0-2.789-1.193-1.101-1.193-1.101-3.052 0-1.839 1.115-3.056 1.114-1.216 2.802-1.216.452 0 .92.109t.988.328zM198.127 39.036h.458q.403 0 .567.11.164.109.164.362 0 .28-.143.386-.144.106-.629.106H196.739q-.253 0-.379-.123-.127-.123-.127-.369 0-.267.147-.369.147-.103.558-.103h.123v-6.159h-.11q-.41 0-.564-.109-.154-.11-.154-.383 0-.253.127-.373.126-.119.393-.119h1.723q.547 0 .694.106.146.105.146.386 0 .273-.184.383-.185.109-.697.109h-.308v2.379h3.274v-2.379h-.464q-.39 0-.558-.116-.167-.116-.167-.376 0-.281.154-.386.154-.106.755-.106h1.668q.246 0 .373.123.126.123.126.369 0 .266-.143.379-.144.113-.513.113h-.164v6.159h.109q.41 0 .561.106.15.106.15.366 0 .28-.143.386-.144.106-.663.106h-1.416q-.553 0-.704-.106-.15-.106-.15-.386 0-.267.178-.369.177-.103.676-.103h.335v-2.844h-3.274zM210.739 37.245q0-.513.103-.663.102-.15.39-.15.246 0 .369.126.123.127.123.393v2.543q0 .239-.13.373-.13.133-.362.133h-6.385q-.246 0-.369-.123t-.123-.369q0-.274.147-.373.147-.099.666-.099h.855v-6.159h-.855q-.506 0-.66-.106-.153-.106-.153-.386 0-.253.126-.373.127-.119.393-.119H208.572q.246 0 .376.123t.13.369q0 .28-.154.386-.153.106-.673.106h-1.148v6.159h3.636zM215.039 32.815v2.762h1.415q.957 0 1.439-.345.482-.345.482-1.029 0-.69-.472-1.039-.471-.349-1.408-.349zm0 6.221h.465q.396 0 .561.11.164.109.164.362 0 .273-.144.383-.144.109-.54.109h-2.297q-.232 0-.355-.126-.123-.127-.123-.366 0-.253.136-.362.137-.11.452-.11h.622v-6.221h-.397q-.513 0-.663-.095-.15-.096-.15-.363 0-.232.119-.348.12-.116.359-.116h2.885q1.046 0 1.562.099t.871.338q.459.308.722.814.263.505.263 1.086 0 .787-.482 1.351t-1.343.782q.177.103.318.24.14.136.27.328l1.374 2.105h.225q.383 0 .527.106.143.106.143.366 0 .239-.12.366-.119.126-.352.126h-.772q-.335 0-.656-.492-.041-.041-.062-.069l-1.312-1.989q-.404-.608-.667-.786-.263-.178-.694-.178h-.909zM222.039 40h-.321q-.246 0-.373-.123-.126-.123-.126-.369 0-.274.147-.373.147-.099.673-.099h.438v-6.159h-.438q-.513 0-.666-.106-.154-.106-.154-.386 0-.253.126-.373.127-.119.387-.119H227.686q.232 0 .352.14.119.14.119.406v1.614q0 .355-.102.492-.103.137-.369.137-.281 0-.387-.151-.106-.15-.106-.677v-.977h-3.636v2.304h1.791v-.363q0-.369.099-.512.099-.144.345-.144.239 0 .332.154.092.154.092.66v1.271q0 .513-.096.656-.095.144-.342.144-.246 0-.338-.164-.092-.164-.092-.636v-.239h-1.791v3.028h3.636v-1.107q0-.527.106-.677.106-.15.387-.15.259 0 .365.14.106.14.106.529v1.723q0 .246-.123.376t-.348.13z" fill="#FCB425"/><path d="m55.304 48.665-.133.021q-.045.006-.079.006-.212 0-.345-.119-.134-.12-.134-.318 0-.164.117-.287.116-.123.335-.185l2.03-.547q.075-.02.147-.03.072-.011.147-.011.13 0 .205.12.075.12.075.325v7.396h1.094q.608 0 .772.099.164.099.164.373 0 .246-.136.369-.137.123-.411.123h-4.087q-.274 0-.411-.123-.136-.123-.136-.369 0-.274.164-.373.164-.099.772-.099h1.135v-6.679z"/><path d="m73.754 52.637 1.47-4.28q.095-.246.263-.355.167-.109.482-.109h1.121q.219 0 .331.119.113.12.113.345 0 .26-.14.359-.14.099-.516.099h-.109l.191 6.221h.157q.445 0 .595.099.15.099.15.373 0 .239-.123.366-.123.126-.355.126h-1.921q-.396 0-.54-.109-.144-.11-.144-.383 0-.267.171-.369.171-.103.657-.103h.293l-.143-5.879-1.354 3.931q-.102.287-.253.396-.15.11-.451.11-.287 0-.437-.113-.151-.113-.246-.393l-1.374-3.931-.123 5.879h.458q.403 0 .567.11.164.109.164.362 0 .273-.143.383-.144.109-.547.109h-1.914q-.24 0-.359-.123-.12-.123-.12-.369 0-.274.15-.373.151-.099.595-.099h.151l.198-6.221h-.11q-.376 0-.519-.099-.144-.099-.144-.359 0-.225.117-.345.116-.119.335-.119h1.121q.314 0 .482.109.167.109.256.355zM80.747 55.036h.458q.403 0 .568.11.164.109.164.362 0 .273-.144.383-.143.109-.547.109h-2.338q-.232 0-.352-.126-.119-.127-.119-.366 0-.253.133-.362.133-.11.455-.11h.656v-6.159h-.438q-.519 0-.663-.106-.143-.106-.143-.386 0-.239.119-.366.12-.126.352-.126h2.338q.404 0 .547.109.144.109.144.383 0 .273-.185.383-.185.109-.697.109h-.308v2.782l2.851-2.782H83.365q-.335 0-.485-.116-.15-.116-.15-.376 0-.267.116-.38.116-.112.376-.112h2.016q.233 0 .356.126.123.127.123.366 0 .266-.161.379-.16.113-.571.113h-.095l-2.646 2.557q.595.123 1.149.765.553.643 1.722 2.837h.123q.424 0 .568.103.143.102.143.369 0 .239-.119.366-.12.126-.352.126h-.657q-.218 0-.317-.048-.1-.048-.202-.219-.062-.095-.759-1.387l-.267-.499q-.43-.8-.861-1.2-.431-.4-.916-.468l-.752.711zM89.135 52.5h2.796l-1.47-3.623zm.348-3.623h-.998q-.417 0-.584-.113-.168-.113-.168-.379 0-.281.147-.386.147-.106.804-.106h1.948q.376 0 .509.099.134.099.243.365l2.673 6.679h.116q.369 0 .506.103.137.102.137.369 0 .28-.13.386-.13.106-.486.106h-1.859q-.52 0-.667-.106-.147-.106-.147-.386 0-.26.161-.366.161-.106.605-.106h.636l-.663-1.627h-3.473l-.588 1.627h.663q.451 0 .615.106.165.106.165.366 0 .28-.147.386-.147.106-.646.106h-1.798q-.438 0-.581-.106-.144-.106-.144-.386 0-.267.144-.369.143-.103.553-.103h.13zM96.388 50.654q-.014.513-.12.653t-.413.14q-.24 0-.359-.126-.12-.127-.12-.373l.007-.106q.007-.106.007-.215l.068-2.256q.014-.253.137-.366.123-.112.383-.112h5.94q.26 0 .383.112.123.113.13.366l.075 2.256q0 .123.007.232l.007.103q0 .246-.13.366-.13.119-.39.119-.273 0-.376-.14-.102-.14-.116-.653l-.068-1.777h-1.962v6.159h1.319q.287 0 .417.113t.13.359q0 .239-.123.366-.123.126-.356.126H97.03q-.232 0-.355-.126-.123-.127-.123-.366 0-.253.133-.362.133-.11.455-.11h1.278v-6.159h-1.962zM109.923 53.245q0-.513.102-.663.103-.15.39-.15.246 0 .369.126.123.127.123.393v2.543q0 .239-.13.373-.129.133-.362.133h-6.385q-.246 0-.369-.123t-.123-.369q0-.274.147-.373.147-.099.667-.099h.854v-6.159h-.854q-.506 0-.66-.106-.154-.106-.154-.386 0-.253.127-.373.126-.119.393-.119H107.756q.246 0 .376.123t.13.369q0 .28-.154.386-.154.106-.673.106h-1.149v6.159h3.637zM114.223 48.815v2.762h1.415q.957 0 1.439-.345.482-.345.482-1.029 0-.69-.472-1.039t-1.408-.349zm0 6.221h.465q.396 0 .56.11.164.109.164.362 0 .273-.143.383-.144.109-.54.109h-2.297q-.233 0-.356-.126-.123-.127-.123-.366 0-.253.137-.362.137-.11.451-.11h.622v-6.221h-.396q-.513 0-.663-.095-.151-.096-.151-.363 0-.232.12-.348.119-.116.359-.116h2.885q1.045 0 1.562.099.516.099.871.338.458.308.721.814.263.505.263 1.086 0 .787-.481 1.351-.482.564-1.344.782.178.103.318.24.14.136.27.328l1.374 2.105h.226q.383 0 .526.106.144.106.144.366 0 .239-.12.366-.12.126-.352.126h-.772q-.335 0-.657-.492-.041-.041-.061-.069l-1.313-1.989q-.403-.608-.666-.786-.263-.178-.694-.178h-.909zM122.74 52.5h2.796l-1.469-3.623zm.349-3.623h-.998q-.417 0-.585-.113-.167-.113-.167-.379 0-.281.147-.386.147-.106.803-.106h1.948q.376 0 .51.099.133.099.242.365l2.673 6.679h.116q.37 0 .506.103.137.102.137.369 0 .28-.13.386-.13.106-.485.106h-1.86q-.519 0-.666-.106-.147-.106-.147-.386 0-.26.161-.366.16-.106.605-.106h.635l-.663-1.627h-3.472l-.588 1.627h.663q.451 0 .615.106.164.106.164.366 0 .28-.147.386-.147.106-.646.106h-1.798q-.437 0-.581-.106-.143-.106-.143-.386 0-.267.143-.369.144-.103.554-.103h.13zM131.401 48.877v3.172h1.279q1.073 0 1.606-.397.533-.396.533-1.196 0-.786-.536-1.183-.537-.396-1.603-.396zm1.429 6.159q.335 0 .486.113.15.113.15.359 0 .273-.144.383-.143.109-.547.109h-3.342q-.233 0-.356-.126-.123-.127-.123-.366t.12-.356q.119-.116.372-.116h.882v-6.159h-.478q-.602 0-.749-.106-.147-.106-.147-.386 0-.239.123-.366.123-.126.356-.126h3.165q1.661 0 2.522.642.862.643.862 1.894t-.855 1.886q-.854.636-2.529.636h-1.197v2.085zM139.543 52.5h2.796l-1.47-3.623zm.349-3.623h-.998q-.417 0-.585-.113-.167-.113-.167-.379 0-.281.147-.386.147-.106.803-.106h1.948q.376 0 .509.099.134.099.243.365l2.673 6.679h.116q.369 0 .506.103.137.102.137.369 0 .28-.13.386-.13.106-.486.106h-1.859q-.519 0-.666-.106-.147-.106-.147-.386 0-.26.16-.366.161-.106.605-.106h.636l-.663-1.627h-3.473l-.588 1.627h.663q.452 0 .616.106.164.106.164.366 0 .28-.147.386-.147.106-.646.106h-1.798q-.438 0-.581-.106-.144-.106-.144-.386 0-.267.144-.369.143-.103.554-.103h.129zM147.357 55.761q-.035.307-.158.427t-.389.12q-.287 0-.428-.168-.14-.167-.16-.543l-.089-1.586v-.123q0-.328.126-.465.127-.137.421-.137.41 0 .588.588.082.294.157.444.239.479.755.739.516.259 1.234.259.882 0 1.432-.417.551-.417.551-1.066 0-.54-.339-.868-.338-.328-.988-.424l-1.011-.137q-1.415-.198-2.065-.745-.649-.547-.649-1.538 0-1.046.865-1.757.864-.711 2.156-.711.376 0 .793.099.417.1.944.311.013-.198.109-.273.096-.075.328-.075.301 0 .417.089.116.089.144.424l.095 1.428v.069q0 .239-.136.372-.137.133-.383.133-.362 0-.561-.505-.095-.287-.191-.431-.226-.342-.65-.526-.423-.185-.963-.185-.828 0-1.344.41-.516.41-.516 1.073 0 .52.386.821.387.301 1.18.41l1.093.137q1.19.157 1.791.728.602.57.602 1.541 0 1.149-.854 1.842-.855.694-2.284.694-.492 0-.977-.116-.486-.116-1.032-.362zM164.631 48.815v2.762h1.415q.957 0 1.439-.345.482-.345.482-1.029 0-.69-.472-1.039-.471-.349-1.408-.349zm0 6.221h.465q.396 0 .56.11.164.109.164.362 0 .273-.143.383-.144.109-.54.109h-2.297q-.232 0-.356-.126-.123-.127-.123-.366 0-.253.137-.362.137-.11.451-.11h.622v-6.221h-.396q-.513 0-.663-.095-.151-.096-.151-.363 0-.232.12-.348.12-.116.359-.116h2.885q1.046 0 1.562.099t.871.338q.458.308.721.814.264.505.264 1.086 0 .787-.482 1.351t-1.344.782q.178.103.318.24.14.136.27.328l1.374 2.105h.226q.383 0 .526.106.144.106.144.366 0 .239-.12.366-.119.126-.352.126h-.772q-.335 0-.656-.492-.042-.041-.062-.069L166.9 53.45q-.403-.608-.666-.786-.263-.178-.694-.178h-.909zM173.149 52.5h2.795l-1.469-3.623zm.348-3.623h-.998q-.417 0-.584-.113-.168-.113-.168-.379 0-.281.147-.386.147-.106.803-.106h1.949q.376 0 .509.099t.243.365l2.672 6.679h.117q.369 0 .505.103.137.102.137.369 0 .28-.13.386-.13.106-.485.106h-1.859q-.52 0-.667-.106-.147-.106-.147-.386 0-.26.161-.366.16-.106.605-.106h.635l-.663-1.627h-3.472l-.588 1.627h.663q.451 0 .615.106.164.106.164.366 0 .28-.147.386-.147.106-.646.106h-1.798q-.437 0-.581-.106-.143-.106-.143-.386 0-.267.143-.369.144-.103.554-.103h.13zM180.962 55.761q-.034.307-.157.427t-.39.12q-.287 0-.427-.168-.14-.167-.161-.543l-.089-1.586v-.123q0-.328.127-.465.126-.137.42-.137.41 0 .588.588.082.294.157.444.24.479.756.739.516.259 1.234.259.881 0 1.432-.417.55-.417.55-1.066 0-.54-.338-.868-.339-.328-.988-.424l-1.012-.137q-1.415-.198-2.064-.745-.65-.547-.65-1.538 0-1.046.865-1.757.865-.711 2.157-.711.376 0 .793.099.417.1.943.311.014-.198.109-.273.096-.075.329-.075.3 0 .417.089.116.089.143.424l.096 1.428v.069q0 .239-.137.372t-.383.133q-.362 0-.56-.505-.096-.287-.192-.431-.225-.342-.649-.526-.424-.185-.964-.185-.827 0-1.343.41t-.516 1.073q0 .52.386.821.386.301 1.179.41l1.094.137q1.189.157 1.791.728.601.57.601 1.541 0 1.149-.854 1.842-.855.694-2.283.694-.492 0-.978-.116-.485-.116-1.032-.362zM189.951 52.5h2.796l-1.47-3.623zm.349-3.623h-.998q-.417 0-.585-.113-.167-.113-.167-.379 0-.281.147-.386.147-.106.803-.106h1.948q.376 0 .51.099.133.099.242.365l2.673 6.679h.116q.369 0 .506.103.137.102.137.369 0 .28-.13.386-.13.106-.485.106h-1.86q-.519 0-.666-.106-.147-.106-.147-.386 0-.26.16-.366.161-.106.605-.106h.636l-.663-1.627h-3.473l-.587 1.627h.663q.451 0 .615.106.164.106.164.366 0 .28-.147.386-.147.106-.646.106h-1.798q-.437 0-.581-.106-.143-.106-.143-.386 0-.267.143-.369.144-.103.554-.103h.13zM196.377 48.877h-.089q-.342 0-.485-.113-.144-.113-.144-.379 0-.239.123-.366.123-.126.356-.126h2.071q.403 0 .544.109.14.109.14.383 0 .253-.151.372-.15.12-.478.12h-.752l2.324 5.961 2.263-5.961h-.909q-.322 0-.476-.12-.153-.119-.153-.372 0-.274.143-.383.144-.109.54-.109h2.147q.232 0 .352.126.119.127.119.366 0 .266-.143.379-.144.113-.499.113h-.082l-2.461 6.439q-.212.513-.335.64-.123.126-.315.126h-.389q-.451 0-.732-.725l-.013-.041zM206.638 48.815v2.762h1.415q.957 0 1.439-.345.482-.345.482-1.029 0-.69-.472-1.039t-1.408-.349zm0 6.221h.465q.396 0 .56.11.164.109.164.362 0 .273-.143.383-.144.109-.54.109h-2.297q-.233 0-.356-.126-.123-.127-.123-.366 0-.253.137-.362.137-.11.451-.11h.622v-6.221h-.396q-.513 0-.663-.095-.151-.096-.151-.363 0-.232.12-.348.12-.116.359-.116h2.885q1.045 0 1.562.099.516.099.871.338.458.308.721.814.264.505.264 1.086 0 .787-.482 1.351t-1.344.782q.178.103.318.24.14.136.27.328l1.374 2.105h.226q.383 0 .526.106.144.106.144.366 0 .239-.12.366-.12.126-.352.126h-.772q-.335 0-.657-.492-.041-.041-.061-.069l-1.313-1.989q-.403-.608-.666-.786-.263-.178-.694-.178h-.909zM215.415 48.877v3.172h1.278q1.074 0 1.607-.397.533-.396.533-1.196 0-.786-.537-1.183-.536-.396-1.603-.396zm1.429 6.159q.335 0 .485.113.151.113.151.359 0 .273-.144.383-.144.109-.547.109h-3.343q-.232 0-.355-.126-.123-.127-.123-.366t.119-.356q.12-.116.373-.116h.882v-6.159h-.479q-.601 0-.748-.106-.147-.106-.147-.386 0-.239.123-.366.123-.126.355-.126h3.165q1.662 0 2.523.642.861.643.861 1.894t-.854 1.886q-.855.636-2.53.636h-1.196v2.085zM221.581 48.877h-.089q-.342 0-.485-.113-.144-.113-.144-.379 0-.239.123-.366.123-.126.356-.126h2.071q.403 0 .544.109.14.109.14.383 0 .253-.151.372-.15.12-.478.12h-.752l2.324 5.961 2.263-5.961h-.909q-.322 0-.475-.12-.154-.119-.154-.372 0-.274.143-.383.144-.109.54-.109h2.147q.232 0 .352.126.119.127.119.366 0 .266-.143.379-.144.113-.499.113h-.082l-2.461 6.439q-.212.513-.335.64-.123.126-.314.126h-.39q-.451 0-.732-.725l-.013-.041zM231.958 52.5h2.796l-1.47-3.623zm.349-3.623h-.998q-.417 0-.585-.113-.167-.113-.167-.379 0-.281.147-.386.147-.106.803-.106h1.948q.376 0 .509.099.134.099.243.365l2.673 6.679h.116q.369 0 .506.103.137.102.137.369 0 .28-.13.386-.13.106-.485.106h-1.86q-.519 0-.666-.106-.147-.106-.147-.386 0-.26.16-.366.161-.106.605-.106h.636l-.663-1.627h-3.473l-.588 1.627h.663q.452 0 .616.106.164.106.164.366 0 .28-.147.386-.147.106-.646.106h-1.798q-.438 0-.581-.106-.144-.106-.144-.386 0-.267.144-.369.143-.103.554-.103h.13zM239.772 55.761q-.035.307-.158.427t-.389.12q-.287 0-.428-.168-.14-.167-.16-.543l-.089-1.586v-.123q0-.328.126-.465.127-.137.421-.137.41 0 .588.588.082.294.157.444.239.479.755.739.516.259 1.234.259.882 0 1.432-.417.551-.417.551-1.066 0-.54-.339-.868-.338-.328-.988-.424l-1.011-.137q-1.415-.198-2.065-.745-.649-.547-.649-1.538 0-1.046.865-1.757.864-.711 2.156-.711.376 0 .793.099.417.1.944.311.013-.198.109-.273.096-.075.328-.075.301 0 .417.089.116.089.144.424l.095 1.428v.069q0 .239-.136.372-.137.133-.383.133-.362 0-.561-.505-.095-.287-.191-.431-.226-.342-.649-.526-.424-.185-.964-.185-.827 0-1.344.41-.516.41-.516 1.073 0 .52.387.821.386.301 1.179.41l1.093.137q1.19.157 1.791.728.602.57.602 1.541 0 1.149-.854 1.842-.855.694-2.284.694-.492 0-.977-.116-.486-.116-1.032-.362z" fill="#545454"/><path d="M46.157 72q-.362 0-.536-.147-.175-.147-.175-.455 0-.444 1.313-1.668l.198-.191q.198-.191.574-.547 2.366-2.228 2.366-3.247 0-.731-.417-1.186-.417-.455-1.08-.455-.431 0-.824.178-.393.178-.633.479-.041.054-.129.184-.253.458-.568.458-.246 0-.348-.15-.103-.15-.103-.574 0-.246.048-.359.048-.113.178-.243.437-.424 1.083-.673.646-.25 1.323-.25 1.135 0 1.897.732.762.731.762 1.798 0 1.339-2.324 3.561-.595.554-.909.868l-.841.807h3.124q.027-.294.16-.448.134-.154.359-.154.226 0 .356.151.13.15.13.41 0 .02-.007.072-.007.051-.007.071l-.055.527q-.02.212-.123.331-.102.12-.266.12zM55.304 64.665l-.133.021q-.045.006-.079.006-.212 0-.345-.119-.134-.12-.134-.318 0-.164.117-.287.116-.123.335-.185l2.03-.547q.075-.02.147-.03.072-.011.147-.011.13 0 .205.12.075.12.075.325v7.396h1.094q.608 0 .772.099.164.099.164.373 0 .246-.136.369-.137.123-.411.123h-4.087q-.274 0-.411-.123-.136-.123-.136-.369 0-.274.164-.373.164-.099.772-.099h1.135v-6.679z"/><path d="M76.317 69.245q0-.513.103-.663.103-.15.39-.15.246 0 .369.126.123.127.123.393v2.543q0 .239-.13.373-.13.133-.362.133h-6.385q-.246 0-.369-.123t-.123-.369q0-.274.147-.373.147-.099.666-.099h.855v-6.159h-.855q-.506 0-.659-.106-.154-.106-.154-.386 0-.253.126-.373.127-.119.393-.119H74.15q.247 0 .376.123.13.123.13.369 0 .28-.153.386-.154.106-.674.106h-1.148v6.159h3.636zM80.747 71.036h.458q.403 0 .568.11.164.109.164.362 0 .273-.144.383-.143.109-.547.109h-2.338q-.232 0-.352-.126-.119-.127-.119-.366 0-.253.133-.362.133-.11.455-.11h.656v-6.159h-.438q-.519 0-.663-.106-.143-.106-.143-.386 0-.239.119-.366.12-.126.352-.126h2.338q.404 0 .547.109.144.109.144.383 0 .273-.185.383-.185.109-.697.109h-.308v2.782l2.851-2.782H83.365q-.335 0-.485-.116-.15-.116-.15-.376 0-.267.116-.38.116-.112.376-.112h2.016q.233 0 .356.126.123.127.123.366 0 .266-.161.379-.16.113-.571.113h-.095l-2.646 2.557q.595.123 1.149.765.553.643 1.722 2.837h.123q.424 0 .568.103.143.102.143.369 0 .239-.119.366-.12.126-.352.126h-.657q-.218 0-.317-.048-.1-.048-.202-.219-.062-.095-.759-1.387l-.267-.499q-.43-.8-.861-1.2-.431-.4-.916-.468l-.752.711zM89.135 68.5h2.796l-1.47-3.623zm.348-3.623h-.998q-.417 0-.584-.113-.168-.113-.168-.379 0-.281.147-.386.147-.106.804-.106h1.948q.376 0 .509.099.134.099.243.365l2.673 6.679h.116q.369 0 .506.103.137.102.137.369 0 .28-.13.386-.13.106-.486.106h-1.859q-.52 0-.667-.106-.147-.106-.147-.386 0-.26.161-.366.161-.106.605-.106h.636l-.663-1.627h-3.473l-.588 1.627h.663q.451 0 .615.106.165.106.165.366 0 .28-.147.386-.147.106-.646.106h-1.798q-.438 0-.581-.106-.144-.106-.144-.386 0-.267.144-.369.143-.103.553-.103h.13z" fill="#545454"/><path d="M97.536 68.5h2.796l-1.47-3.623zm.349-3.623h-.998q-.417 0-.585-.113-.167-.113-.167-.379 0-.281.147-.386.147-.106.803-.106h1.948q.376 0 .51.099.133.099.242.365l2.673 6.679h.116q.369 0 .506.103.137.102.137.369 0 .28-.13.386-.13.106-.485.106h-1.86q-.519 0-.666-.106-.147-.106-.147-.386 0-.26.16-.366.161-.106.605-.106h.636l-.663-1.627h-3.473l-.587 1.627h.663q.451 0 .615.106.164.106.164.366 0 .28-.147.386-.147.106-.646.106h-1.798q-.437 0-.581-.106-.144-.106-.144-.386 0-.267.144-.369.144-.103.554-.103h.13z" fill="#545454"/><path d="M105.938 68.5h2.795l-1.469-3.623zm.348-3.623h-.998q-.417 0-.584-.113-.168-.113-.168-.379 0-.281.147-.386.147-.106.803-.106h1.949q.376 0 .509.099t.243.365l2.672 6.679h.117q.369 0 .506.103.136.102.136.369 0 .28-.13.386-.13.106-.485.106h-1.859q-.52 0-.667-.106-.147-.106-.147-.386 0-.26.161-.366.16-.106.605-.106h.636l-.664-1.627h-3.472l-.588 1.627h.663q.451 0 .615.106.164.106.164.366 0 .28-.147.386-.147.106-.646.106h-1.798q-.437 0-.581-.106-.143-.106-.143-.386 0-.267.143-.369.144-.103.554-.103h.13zM114.674 71.986q-1.19-.341-1.904-1.452t-.714-2.608q0-1.805 1.066-3.032 1.067-1.227 2.625-1.227 1.572 0 2.635 1.23 1.063 1.231 1.063 3.042 0 1.887-1.032 3.042-1.032 1.156-2.707 1.156h-.263q-.092 0-.181-.014l-.732.718q.411-.164.828-.243.417-.078.868-.078.3 0 .83.16.53.161.783.161.212 0 .509-.127.298-.126.4-.126.171 0 .294.147.123.147.123.345 0 .212-.417.441t-.868.229q-.383 0-1.097-.226-.715-.225-1.077-.225-.513 0-1.09.246-.578.246-.646.246-.151 0-.304-.164-.154-.164-.154-.342 0-.184.656-.806.315-.301.506-.493zm1.073-.758q1.121 0 1.795-.886.673-.885.673-2.403 0-1.524-.67-2.413-.67-.888-1.798-.888-1.121 0-1.791.888-.67.889-.67 2.413 0 1.525.67 2.407.67.882 1.791.882zM122.624 64.815v2.762h1.415q.957 0 1.439-.345.482-.345.482-1.029 0-.69-.472-1.039-.471-.349-1.408-.349zm0 6.221h.465q.396 0 .561.11.164.109.164.362 0 .273-.144.383-.144.109-.54.109h-2.297q-.232 0-.355-.126-.123-.127-.123-.366 0-.253.136-.362.137-.11.451-.11h.623v-6.221h-.397q-.513 0-.663-.095-.15-.096-.15-.363 0-.232.119-.348.12-.116.359-.116h2.885q1.046 0 1.562.099t.871.338q.458.308.722.814.263.505.263 1.086 0 .787-.482 1.351t-1.343.782q.177.103.318.24.14.136.27.328l1.374 2.105h.225q.383 0 .527.106.143.106.143.366 0 .239-.12.366-.119.126-.352.126h-.772q-.335 0-.656-.492-.041-.041-.062-.069l-1.312-1.989q-.404-.608-.667-.786-.263-.178-.694-.178h-.909zM129.166 64.877h-.089q-.342 0-.485-.113-.144-.113-.144-.379 0-.239.123-.366.123-.126.356-.126h2.071q.403 0 .544.109.14.109.14.383 0 .253-.151.372-.15.12-.478.12h-.752l2.324 5.961 2.263-5.961h-.909q-.322 0-.475-.12-.154-.119-.154-.372 0-.274.143-.383.144-.109.54-.109h2.147q.232 0 .352.126.119.127.119.366 0 .266-.143.379-.144.113-.499.113h-.082l-2.461 6.439q-.212.513-.335.64-.123.126-.315.126h-.389q-.451 0-.732-.725l-.013-.041zM139.543 68.5h2.796l-1.47-3.623zm.349-3.623h-.998q-.417 0-.585-.113-.167-.113-.167-.379 0-.281.147-.386.147-.106.803-.106h1.948q.376 0 .509.099.134.099.243.365l2.673 6.679h.116q.369 0 .506.103.137.102.137.369 0 .28-.13.386-.13.106-.486.106h-1.859q-.519 0-.666-.106-.147-.106-.147-.386 0-.26.16-.366.161-.106.605-.106h.636l-.663-1.627h-3.473l-.588 1.627h.663q.452 0 .616.106.164.106.164.366 0 .28-.147.386-.147.106-.646.106h-1.798q-.438 0-.581-.106-.144-.106-.144-.386 0-.267.144-.369.143-.103.554-.103h.129zM147.357 71.761q-.035.307-.158.427t-.389.12q-.287 0-.428-.168-.14-.167-.16-.543l-.089-1.586v-.123q0-.328.126-.465.127-.137.421-.137.41 0 .588.588.082.294.157.444.239.479.755.739.516.259 1.234.259.882 0 1.432-.417.551-.417.551-1.066 0-.54-.339-.868-.338-.328-.988-.424l-1.011-.137q-1.415-.198-2.065-.745-.649-.547-.649-1.538 0-1.046.865-1.757.864-.711 2.156-.711.376 0 .793.099.417.1.944.311.013-.198.109-.273.096-.075.328-.075.301 0 .417.089.116.089.144.424l.095 1.428v.069q0 .239-.136.372-.137.133-.383.133-.362 0-.561-.505-.095-.287-.191-.431-.226-.342-.65-.526-.423-.185-.963-.185-.828 0-1.344.41-.516.41-.516 1.073 0 .52.386.821.387.301 1.18.41l1.093.137q1.19.157 1.791.728.602.57.602 1.541 0 1.149-.854 1.842-.855.694-2.284.694-.492 0-.977-.116-.486-.116-1.032-.362zM162.772 64.877h-.089q-.342 0-.486-.113-.143-.113-.143-.379 0-.239.123-.366.123-.126.355-.126h2.072q.403 0 .543.109t.14.383q0 .253-.15.372-.151.12-.479.12h-.752l2.325 5.961 2.262-5.961h-.909q-.321 0-.475-.12-.154-.119-.154-.372 0-.274.144-.383.143-.109.54-.109h2.146q.233 0 .352.126.12.127.12.366 0 .266-.144.379-.143.113-.499.113h-.082l-2.461 6.439q-.212.513-.335.64-.123.126-.314.126h-.39q-.451 0-.731-.725l-.014-.041zM173.149 68.5h2.795l-1.469-3.623zm.348-3.623h-.998q-.417 0-.584-.113-.168-.113-.168-.379 0-.281.147-.386.147-.106.803-.106h1.949q.376 0 .509.099t.243.365l2.672 6.679h.117q.369 0 .505.103.137.102.137.369 0 .28-.13.386-.13.106-.485.106h-1.859q-.52 0-.667-.106-.147-.106-.147-.386 0-.26.161-.366.16-.106.605-.106h.635l-.663-1.627h-3.472l-.588 1.627h.663q.451 0 .615.106.164.106.164.366 0 .28-.147.386-.147.106-.646.106h-1.798q-.437 0-.581-.106-.143-.106-.143-.386 0-.267.143-.369.144-.103.554-.103h.13zM185.132 70.824v-1.627h-1.695q-.205 0-.305-.109-.099-.109-.099-.335 0-.26.089-.356.089-.095.342-.095h2.953q.178 0 .263.113.086.112.086.338 0 .253-.113.349-.113.095-.4.095h-.089v2.058q0 .184-.041.256-.041.072-.164.14-.39.233-1.135.397t-1.51.164q-1.832 0-2.96-1.169t-1.128-3.049q0-1.88 1.104-3.103 1.104-1.224 2.813-1.224.465 0 .933.106t.974.318q.068-.178.188-.257.12-.078.311-.078.321 0 .427.191.106.192.106.882v.93q0 .335-.116.468t-.403.133q-.356 0-.513-.437-.055-.13-.089-.198-.253-.54-.725-.834-.471-.294-1.08-.294-1.223 0-1.955.885-.731.885-.731 2.389 0 1.552.806 2.468.807.916 2.147.916.39 0 .803-.103.414-.102.906-.328zM187.976 64.877h-.089q-.342 0-.486-.113-.143-.113-.143-.379 0-.239.123-.366.123-.126.355-.126h2.072q.403 0 .543.109t.14.383q0 .253-.15.372-.15.12-.479.12h-.752l2.325 5.961 2.262-5.961h-.909q-.321 0-.475-.12-.154-.119-.154-.372 0-.274.144-.383.143-.109.54-.109h2.146q.233 0 .352.126.12.127.12.366 0 .266-.144.379-.143.113-.499.113h-.082l-2.461 6.439q-.211.513-.334.64-.124.126-.315.126h-.39q-.451 0-.731-.725l-.014-.041zM197.765 71.761q-.034.307-.157.427-.124.12-.39.12-.287 0-.427-.168-.141-.167-.161-.543l-.089-1.586v-.123q0-.328.127-.465.126-.137.42-.137.41 0 .588.588.082.294.157.444.239.479.755.739.517.259 1.234.259.882 0 1.432-.417.551-.417.551-1.066 0-.54-.339-.868-.338-.328-.987-.424l-1.012-.137q-1.415-.198-2.065-.745-.649-.547-.649-1.538 0-1.046.865-1.757.865-.711 2.157-.711.375 0 .792.099.417.1.944.311.014-.198.109-.273.096-.075.328-.075.301 0 .417.089.117.089.144.424l.096 1.428v.069q0 .239-.137.372t-.383.133q-.362 0-.56-.505-.096-.287-.192-.431-.225-.342-.649-.526-.424-.185-.964-.185-.827 0-1.343.41-.517.41-.517 1.073 0 .52.387.821.386.301 1.179.41l1.094.137q1.189.157 1.791.728.601.57.601 1.541 0 1.149-.854 1.842-.855.694-2.283.694-.493 0-.978-.116t-1.032-.362zM204.778 64.877h-.088q-.342 0-.486-.113-.143-.113-.143-.379 0-.239.123-.366.123-.126.355-.126h2.071q.404 0 .544.109t.14.383q0 .253-.15.372-.151.12-.479.12h-.752l2.324 5.961 2.263-5.961h-.909q-.321 0-.475-.12-.154-.119-.154-.372 0-.274.144-.383.143-.109.54-.109h2.146q.233 0 .352.126.12.127.12.366 0 .266-.144.379-.143.113-.499.113h-.082l-2.461 6.439q-.212.513-.335.64-.123.126-.314.126h-.39q-.451 0-.731-.725l-.014-.041zM215.155 68.5h2.796l-1.469-3.623zm.349-3.623h-.998q-.417 0-.585-.113-.167-.113-.167-.379 0-.281.147-.386.147-.106.803-.106h1.948q.376 0 .51.099.133.099.242.365l2.673 6.679h.116q.37 0 .506.103.137.102.137.369 0 .28-.13.386-.13.106-.485.106h-1.86q-.519 0-.666-.106-.147-.106-.147-.386 0-.26.161-.366.16-.106.605-.106h.635l-.663-1.627h-3.472l-.588 1.627h.663q.451 0 .615.106.164.106.164.366 0 .28-.147.386-.147.106-.646.106h-1.798q-.437 0-.581-.106-.143-.106-.143-.386 0-.267.143-.369.144-.103.554-.103h.13zM222.969 71.761q-.034.307-.157.427t-.39.12q-.287 0-.427-.168-.14-.167-.161-.543l-.089-1.586v-.123q0-.328.127-.465.126-.137.42-.137.41 0 .588.588.082.294.157.444.239.479.756.739.516.259 1.233.259.882 0 1.433-.417.55-.417.55-1.066 0-.54-.338-.868-.339-.328-.988-.424l-1.012-.137q-1.415-.198-2.064-.745-.65-.547-.65-1.538 0-1.046.865-1.757.865-.711 2.157-.711.376 0 .793.099.417.1.943.311.014-.198.109-.273.096-.075.328-.075.301 0 .417.089.117.089.144.424l.096 1.428v.069q0 .239-.137.372t-.383.133q-.362 0-.56-.505-.096-.287-.192-.431-.225-.342-.649-.526-.424-.185-.964-.185-.827 0-1.343.41t-.516 1.073q0 .52.386.821.386.301 1.179.41l1.094.137q1.189.157 1.791.728.601.57.601 1.541 0 1.149-.854 1.842-.855.694-2.283.694-.493 0-.978-.116t-1.032-.362zM235.943 69.245q0-.513.103-.663.103-.15.39-.15.246 0 .369.126.123.127.123.393v2.543q0 .239-.13.373-.13.133-.362.133h-6.385q-.246 0-.369-.123t-.123-.369q0-.274.147-.373.147-.099.666-.099h.855v-6.159h-.855q-.506 0-.66-.106-.153-.106-.153-.386 0-.253.126-.373.127-.119.393-.119H233.776q.247 0 .376.123.13.123.13.369 0 .28-.153.386-.154.106-.674.106h-1.148v6.159h3.636zM240.359 68.5h2.796l-1.469-3.623zm.349-3.623h-.998q-.417 0-.584-.113-.168-.113-.168-.379 0-.281.147-.386.147-.106.803-.106h1.949q.376 0 .509.099t.242.365l2.673 6.679h.117q.369 0 .505.103.137.102.137.369 0 .28-.13.386-.13.106-.485.106h-1.859q-.52 0-.667-.106-.147-.106-.147-.386 0-.26.161-.366.16-.106.605-.106h.635l-.663-1.627h-3.472l-.588 1.627h.663q.451 0 .615.106.164.106.164.366 0 .28-.147.386-.147.106-.646.106h-1.798q-.437 0-.581-.106-.143-.106-.143-.386 0-.267.143-.369.144-.103.554-.103h.13z" fill="#545454"/><path d="M49.11 84.849v-4.635l-2.59 4.635zM48.372 88q-.328 0-.444-.106-.116-.106-.116-.386 0-.246.119-.359.12-.113.386-.113h.793v-1.148h-3.192q-.171 0-.267-.11-.095-.109-.095-.314v-.472q0-.273.198-.574l.055-.089 2.884-4.894q.096-.171.158-.219.061-.048.164-.048.041 0 .143.014l.055.013.697.11q.096.013.154.106.058.092.058.242v5.196h.349q.15 0 .232-.12.082-.12.185-.12.137 0 .232.103.096.102.096.253 0 .061-.007.113-.007.051-.027.106l-.055.28q-.048.246-.14.335-.092.089-.291.089h-.574v1.148h.239q.438 0 .602.106.164.106.164.366 0 .246-.137.369-.136.123-.41.123zM55.304 80.665l-.133.021q-.045.006-.079.006-.212 0-.345-.119-.134-.12-.134-.318 0-.164.117-.287.116-.123.335-.185l2.03-.547q.075-.02.147-.03.072-.011.147-.011.13 0 .205.12.075.12.075.325v7.396h1.094q.608 0 .772.099.164.099.164.373 0 .246-.136.369-.137.123-.411.123h-4.087q-.274 0-.411-.123-.136-.123-.136-.369 0-.274.164-.373.164-.099.772-.099h1.135v-6.679z"/><path d="M76.317 85.245q0-.513.103-.663.103-.15.39-.15.246 0 .369.126.123.127.123.393v2.543q0 .239-.13.373-.13.133-.362.133h-6.385q-.246 0-.369-.123t-.123-.369q0-.274.147-.373.147-.099.666-.099h.855v-6.159h-.855q-.506 0-.659-.106-.154-.106-.154-.386 0-.253.126-.373.127-.119.393-.119H74.15q.247 0 .376.123.13.123.13.369 0 .28-.153.386-.154.106-.674.106h-1.148v6.159h3.636zM79.585 82.654q-.014.513-.12.653t-.413.14q-.239 0-.359-.126-.12-.127-.12-.373l.007-.106q.007-.106.007-.215l.068-2.256q.014-.253.137-.366.123-.112.383-.112h5.94q.26 0 .383.112.123.113.13.366l.075 2.256q0 .123.007.232l.007.103q0 .246-.13.366-.13.119-.39.119-.273 0-.376-.14-.102-.14-.116-.653l-.068-1.777h-1.962v6.159h1.319q.287 0 .417.113t.13.359q0 .239-.123.366-.123.126-.355.126h-3.835q-.233 0-.356-.126-.123-.127-.123-.366 0-.253.133-.362.134-.11.455-.11h1.278v-6.159h-1.962zM93.12 85.245q0-.513.103-.663.102-.15.389-.15.246 0 .37.126.123.127.123.393v2.543q0 .239-.13.373-.13.133-.363.133H87.228q-.246 0-.37-.123-.123-.123-.123-.369 0-.274.147-.373.147-.099.667-.099h.854v-6.159h-.854q-.506 0-.66-.106-.154-.106-.154-.386 0-.253.127-.373.126-.119.393-.119H90.953q.246 0 .376.123t.13.369q0 .28-.154.386-.154.106-.673.106h-1.149v6.159h3.637zM97.536 84.5h2.796l-1.47-3.623zm.349-3.623h-.998q-.417 0-.585-.113-.167-.113-.167-.379 0-.281.147-.386.147-.106.803-.106h1.948q.376 0 .51.099.133.099.242.365l2.673 6.679h.116q.369 0 .506.103.137.102.137.369 0 .28-.13.386-.13.106-.485.106h-1.86q-.519 0-.666-.106-.147-.106-.147-.386 0-.26.16-.366.161-.106.605-.106h.636l-.663-1.627h-3.473l-.587 1.627h.663q.451 0 .615.106.164.106.164.366 0 .28-.147.386-.147.106-.646.106h-1.798q-.437 0-.581-.106-.144-.106-.144-.386 0-.267.144-.369.144-.103.554-.103h.13z" fill="#545454"/><path d="M105.938 84.5h2.795l-1.469-3.623zm.348-3.623h-.998q-.417 0-.584-.113-.168-.113-.168-.379 0-.281.147-.386.147-.106.803-.106h1.949q.376 0 .509.099t.243.365l2.672 6.679h.117q.369 0 .506.103.136.102.136.369 0 .28-.13.386-.13.106-.485.106h-1.859q-.52 0-.667-.106-.147-.106-.147-.386 0-.26.161-.366.16-.106.605-.106h.636l-.664-1.627h-3.472l-.588 1.627h.663q.451 0 .615.106.164.106.164.366 0 .28-.147.386-.147.106-.646.106h-1.798q-.437 0-.581-.106-.143-.106-.143-.386 0-.267.143-.369.144-.103.554-.103h.13zM114.113 87.036h.458q.404 0 .568.11.164.109.164.362 0 .28-.144.386-.143.106-.629.106h-1.804q-.253 0-.38-.123-.126-.123-.126-.369 0-.267.147-.369.147-.103.557-.103h.123v-6.159h-.109q-.411 0-.564-.109-.154-.11-.154-.383 0-.253.126-.373.127-.119.393-.119h1.723q.547 0 .694.106.147.105.147.386 0 .273-.185.383-.184.109-.697.109h-.308v2.379h3.275v-2.379h-.465q-.39 0-.557-.116-.168-.116-.168-.376 0-.281.154-.386.154-.106.756-.106h1.667q.247 0 .373.123.127.123.127.369 0 .266-.144.379-.144.113-.513.113h-.164v6.159h.11q.41 0 .56.106.151.106.151.366 0 .28-.144.386-.144.106-.663.106h-1.415q-.554 0-.704-.106-.151-.106-.151-.386 0-.267.178-.369.178-.103.677-.103h.335v-2.844h-3.275zM122.74 84.5h2.796l-1.469-3.623zm.349-3.623h-.998q-.417 0-.585-.113-.167-.113-.167-.379 0-.281.147-.386.147-.106.803-.106h1.948q.376 0 .51.099.133.099.242.365l2.673 6.679h.116q.37 0 .506.103.137.102.137.369 0 .28-.13.386-.13.106-.485.106h-1.86q-.519 0-.666-.106-.147-.106-.147-.386 0-.26.161-.366.16-.106.605-.106h.635l-.663-1.627h-3.472l-.588 1.627h.663q.451 0 .615.106.164.106.164.366 0 .28-.147.386-.147.106-.646.106h-1.798q-.437 0-.581-.106-.143-.106-.143-.386 0-.267.143-.369.144-.103.554-.103h.13zM130.916 87.036q.219.021.434.031.216.01.421.01 1.681 0 2.464-.752.783-.752.783-2.372 0-1.627-.786-2.369-.787-.741-2.516-.741-.321 0-.489.007-.167.006-.311.027zm0 .964H129.528q-.253 0-.379-.123t-.126-.369q0-.267.147-.369.146-.103.557-.103h.123v-6.159h-.11q-.41 0-.564-.109-.153-.11-.153-.383 0-.253.126-.373.126-.119.393-.119h2.885q1.702 0 2.714 1.097 1.011 1.097 1.011 2.963 0 .909-.29 1.689-.291.779-.844 1.367-.513.533-1.248.776-.735.242-1.89.242-.137 0-.461-.013-.325-.014-.503-.014zM139.543 84.5h2.796l-1.47-3.623zm.349-3.623h-.998q-.417 0-.585-.113-.167-.113-.167-.379 0-.281.147-.386.147-.106.803-.106h1.948q.376 0 .509.099.134.099.243.365l2.673 6.679h.116q.369 0 .506.103.137.102.137.369 0 .28-.13.386-.13.106-.486.106h-1.859q-.519 0-.666-.106-.147-.106-.147-.386 0-.26.16-.366.161-.106.605-.106h.636l-.663-1.627h-3.473l-.588 1.627h.663q.452 0 .616.106.164.106.164.366 0 .28-.147.386-.147.106-.646.106h-1.798q-.438 0-.581-.106-.144-.106-.144-.386 0-.267.144-.369.143-.103.554-.103h.129zM146.796 82.654q-.014.513-.12.653t-.413.14q-.239 0-.359-.126-.12-.127-.12-.373l.007-.106q.007-.106.007-.215l.068-2.256q.014-.253.137-.366.123-.112.383-.112h5.94q.26 0 .383.112.123.113.13.366l.075 2.256q0 .123.007.232l.007.103q0 .246-.13.366-.13.119-.39.119-.273 0-.376-.14-.102-.14-.116-.653l-.068-1.777h-1.962v6.159h1.319q.287 0 .417.113t.13.359q0 .239-.123.366-.123.126-.355.126h-3.835q-.233 0-.356-.126-.123-.127-.123-.366 0-.253.133-.362.134-.11.455-.11h1.278v-6.159h-1.962zM162.772 80.877h-.089q-.342 0-.486-.113-.143-.113-.143-.379 0-.239.123-.366.123-.126.355-.126h2.072q.403 0 .543.109t.14.383q0 .253-.15.372-.151.12-.479.12h-.752l2.325 5.961 2.262-5.961h-.909q-.321 0-.475-.12-.154-.119-.154-.372 0-.274.144-.383.143-.109.54-.109h2.146q.233 0 .352.126.12.127.12.366 0 .266-.144.379-.143.113-.499.113h-.082l-2.461 6.439q-.212.513-.335.64-.123.126-.314.126h-.39q-.451 0-.731-.725l-.014-.041zM173.162 87.036h.458q.404 0 .568.11.164.109.164.362 0 .273-.144.383-.143.109-.547.109h-2.338q-.232 0-.352-.126-.119-.127-.119-.366 0-.253.133-.362.133-.11.455-.11h.656v-6.159h-.438q-.519 0-.663-.106-.143-.106-.143-.386 0-.239.119-.366.12-.126.352-.126h2.338q.404 0 .547.109.144.109.144.383 0 .273-.185.383-.184.109-.697.109h-.308v2.782l2.851-2.782H175.78q-.335 0-.485-.116-.15-.116-.15-.376 0-.267.116-.38.116-.112.376-.112h2.016q.233 0 .356.126.123.127.123.366 0 .266-.161.379-.16.113-.571.113h-.095l-2.646 2.557q.595.123 1.149.765.553.643 1.722 2.837h.123q.424 0 .568.103.143.102.143.369 0 .239-.119.366-.12.126-.352.126h-.657q-.218 0-.317-.048-.1-.048-.202-.219-.062-.095-.759-1.387l-.267-.499q-.43-.8-.861-1.2-.43-.4-.916-.468l-.752.711zM185.535 85.245q0-.513.103-.663.102-.15.389-.15.247 0 .37.126.123.127.123.393v2.543q0 .239-.13.373-.13.133-.363.133H179.643q-.246 0-.369-.123-.124-.123-.124-.369 0-.274.147-.373.147-.099.667-.099h.854v-6.159h-.854q-.506 0-.66-.106-.154-.106-.154-.386 0-.253.127-.373.126-.119.393-.119H183.368q.246 0 .376.123t.13.369q0 .28-.154.386-.154.106-.673.106h-1.148v6.159h3.636zM193.533 86.824v-1.627h-1.695q-.205 0-.304-.109t-.099-.335q0-.26.089-.356.088-.095.341-.095h2.953q.178 0 .264.113.085.112.085.338 0 .253-.113.349-.113.095-.4.095h-.088v2.058q0 .184-.041.256-.042.072-.165.14-.389.233-1.134.397-.745.164-1.511.164-1.832 0-2.96-1.169t-1.128-3.049q0-1.88 1.104-3.103 1.104-1.224 2.813-1.224.465 0 .933.106t.974.318q.069-.178.188-.257.12-.078.311-.078.322 0 .428.191.105.192.105.882v.93q0 .335-.116.468t-.403.133q-.356 0-.513-.437-.054-.13-.089-.198-.253-.54-.724-.834-.472-.294-1.08-.294-1.224 0-1.955.885-.732.885-.732 2.389 0 1.552.807 2.468.806.916 2.146.916.39 0 .804-.103.413-.102.905-.328zM198.353 84.5h2.796l-1.47-3.623zm.348-3.623h-.998q-.417 0-.584-.113-.168-.113-.168-.379 0-.281.147-.386.147-.106.803-.106h1.949q.376 0 .509.099t.243.365l2.673 6.679h.116q.369 0 .506.103.136.102.136.369 0 .28-.13.386-.129.106-.485.106h-1.859q-.52 0-.667-.106-.147-.106-.147-.386 0-.26.161-.366.16-.106.605-.106h.636l-.664-1.627h-3.472l-.588 1.627h.663q.451 0 .615.106.164.106.164.366 0 .28-.147.386-.147.106-.646.106h-1.797q-.438 0-.582-.106-.143-.106-.143-.386 0-.267.143-.369.144-.103.554-.103h.13zM206.528 87.036q.219.021.434.031.216.01.421.01 1.682 0 2.464-.752.783-.752.783-2.372 0-1.627-.786-2.369-.786-.741-2.516-.741-.321 0-.489.007-.167.006-.311.027zm0 .964h-1.387q-.253 0-.38-.123-.126-.123-.126-.369 0-.267.147-.369.147-.103.557-.103h.123v-6.159h-.109q-.411 0-.564-.109-.154-.11-.154-.383 0-.253.126-.373.127-.119.393-.119h2.885q1.702 0 2.714 1.097t1.012 2.963q0 .909-.291 1.689-.29.779-.844 1.367-.513.533-1.248.776-.734.242-1.89.242-.136 0-.461-.013-.325-.014-.503-.014zM214.567 87.761q-.034.307-.157.427t-.389.12q-.288 0-.428-.168-.14-.167-.16-.543l-.089-1.586v-.123q0-.328.126-.465.127-.137.421-.137.41 0 .588.588.082.294.157.444.239.479.755.739.516.259 1.234.259.882 0 1.432-.417.551-.417.551-1.066 0-.54-.339-.868-.338-.328-.988-.424l-1.011-.137q-1.415-.198-2.065-.745-.649-.547-.649-1.538 0-1.046.865-1.757.864-.711 2.156-.711.376 0 .793.099.417.1.944.311.013-.198.109-.273.096-.075.328-.075.301 0 .417.089.116.089.144.424l.095 1.428v.069q0 .239-.136.372-.137.133-.383.133-.363 0-.561-.505-.095-.287-.191-.431-.226-.342-.65-.526-.423-.185-.963-.185-.828 0-1.344.41-.516.41-.516 1.073 0 .52.386.821.387.301 1.18.41l1.093.137q1.19.157 1.791.728.602.57.602 1.541 0 1.149-.855 1.842-.854.694-2.283.694-.492 0-.977-.116-.486-.116-1.033-.362zM227.139 86.824v-1.627h-1.696q-.205 0-.304-.109t-.099-.335q0-.26.089-.356.089-.095.342-.095h2.953q.178 0 .263.113.086.112.086.338 0 .253-.113.349-.113.095-.4.095h-.089v2.058q0 .184-.041.256-.041.072-.164.14-.39.233-1.135.397t-1.511.164q-1.832 0-2.96-1.169-1.127-1.169-1.127-3.049t1.104-3.103q1.104-1.224 2.813-1.224.464 0 .933.106.468.106.974.318.068-.178.188-.257.119-.078.311-.078.321 0 .427.191.106.192.106.882v.93q0 .335-.116.468t-.404.133q-.355 0-.512-.437-.055-.13-.089-.198-.253-.54-.725-.834-.471-.294-1.08-.294-1.223 0-1.955.885-.731.885-.731 2.389 0 1.552.806 2.468.807.916 2.147.916.389 0 .803-.103.414-.102.906-.328zM231.958 84.5h2.796l-1.47-3.623zm.349-3.623h-.998q-.417 0-.585-.113-.167-.113-.167-.379 0-.281.147-.386.147-.106.803-.106h1.948q.376 0 .509.099.134.099.243.365l2.673 6.679h.116q.369 0 .506.103.137.102.137.369 0 .28-.13.386-.13.106-.485.106h-1.86q-.519 0-.666-.106-.147-.106-.147-.386 0-.26.16-.366.161-.106.605-.106h.636l-.663-1.627h-3.473l-.588 1.627h.663q.452 0 .616.106.164.106.164.366 0 .28-.147.386-.147.106-.646.106h-1.798q-.438 0-.581-.106-.144-.106-.144-.386 0-.267.144-.369.143-.103.554-.103h.13zM244.345 85.245q0-.513.102-.663.103-.15.39-.15.246 0 .369.126.123.127.123.393v2.543q0 .239-.13.373-.13.133-.362.133h-6.385q-.246 0-.369-.123t-.123-.369q0-.274.147-.373.147-.099.667-.099h.854v-6.159h-.854q-.506 0-.66-.106-.154-.106-.154-.386 0-.253.127-.373.126-.119.393-.119H242.178q.246 0 .376.123t.13.369q0 .28-.154.386-.154.106-.673.106h-1.149v6.159h3.637z" fill="#545454"/><path d="M47.067 101.341q0 .841.444 1.37.444.53 1.141.53.657 0 1.077-.499.421-.499.421-1.305 0-.834-.435-1.354-.434-.52-1.117-.52-.663 0-1.097.499-.434.5-.434 1.279zm-.151-1.819q.369-.478.82-.717.452-.24.985-.24 1.08 0 1.835.814.756.813.756 2.003 0 1.244-.732 2.044-.731.8-1.873.8-1.347 0-2.157-1.07t-.81-2.854q0-2.324 1.197-3.736 1.196-1.412 3.158-1.412.663 0 .875.096.212.096.212.362 0 .438-.807.451-.533.007-.854.069-1.08.205-1.754 1.083-.673.879-.851 2.307zM55.304 96.665l-.133.021q-.045.006-.079.006-.212 0-.345-.119-.134-.12-.134-.318 0-.164.117-.287.116-.123.335-.185l2.03-.547q.075-.02.147-.03.072-.011.147-.011.13 0 .205.12.075.12.075.325v7.396h1.094q.608 0 .772.099.164.099.164.373 0 .246-.136.369-.137.123-.411.123h-4.087q-.274 0-.411-.123-.136-.123-.136-.369 0-.274.164-.373.164-.099.772-.099h1.135v-6.679z"/><path d="M70.815 104h-.322q-.246 0-.372-.123-.127-.123-.127-.369 0-.274.147-.373.147-.099.674-.099h.437v-6.159h-.437q-.513 0-.667-.106-.154-.106-.154-.386 0-.253.127-.373.126-.119.386-.119h5.954q.232 0 .352.14.12.14.12.406v1.614q0 .355-.103.492-.102.137-.369.137-.28 0-.386-.151-.106-.15-.106-.677v-.977h-3.637v2.304h1.791v-.363q0-.369.099-.512.099-.144.345-.144.24 0 .332.154.092.154.092.66v1.271q0 .513-.095.656-.096.144-.342.144-.246 0-.339-.164-.092-.164-.092-.636v-.239h-1.791v3.028h3.637v-1.107q0-.527.106-.677.106-.15.386-.15.26 0 .366.14.106.14.106.529v1.723q0 .246-.123.376t-.349.13zM82.087 103.036h.267q.287 0 .417.113.129.113.129.359 0 .239-.123.366-.123.126-.355.126h-3.37q-.233 0-.356-.126-.123-.127-.123-.366 0-.253.134-.362.133-.11.454-.11h.656v-6.159h-.43q-.52 0-.667-.106-.147-.106-.147-.386 0-.239.123-.366.123-.126.356-.126h6.05q.232 0 .352.14.119.14.119.406v1.764q0 .239-.119.359-.12.12-.352.12-.287 0-.39-.151-.103-.15-.103-.677v-.977h-3.711v2.304h1.804v-.178q0-.499.096-.67.096-.171.342-.171.218 0 .318.13.099.13.099.417v1.736q0 .342-.093.472-.092.13-.324.13-.246 0-.342-.171-.096-.171-.096-.67v-.198h-1.804v3.028zM87.159 96.877h-.089q-.341 0-.485-.113-.143-.113-.143-.379 0-.239.123-.366.123-.126.355-.126h2.071q.404 0 .544.109t.14.383q0 .253-.15.372-.151.12-.479.12h-.752l2.324 5.961 2.263-5.961h-.909q-.322 0-.475-.12-.154-.119-.154-.372 0-.274.143-.383.144-.109.54-.109h2.147q.232 0 .352.126.12.127.12.366 0 .266-.144.379-.143.113-.499.113h-.082l-2.461 6.439q-.212.513-.335.64-.123.126-.314.126h-.39q-.451 0-.731-.725l-.014-.041zM97.796 96.877v3.172h1.278q1.074 0 1.607-.397.533-.396.533-1.196 0-.786-.537-1.183-.536-.396-1.603-.396zm1.429 6.159q.335 0 .485.113.15.113.15.359 0 .273-.143.383-.144.109-.547.109h-3.343q-.232 0-.355-.126-.123-.127-.123-.366t.119-.356q.12-.116.373-.116h.882v-6.159h-.479q-.601 0-.748-.106-.147-.106-.147-.386 0-.239.123-.366.123-.126.355-.126h3.165q1.661 0 2.523.642.861.643.861 1.894t-.854 1.886q-.855.636-2.53.636h-1.196v2.085zM105.951 103.036h.458q.404 0 .568.11.164.109.164.362 0 .273-.144.383-.143.109-.547.109h-2.338q-.232 0-.352-.126-.119-.127-.119-.366 0-.253.133-.362.133-.11.455-.11h.656v-6.159h-.438q-.519 0-.663-.106-.143-.106-.143-.386 0-.239.119-.366.12-.126.352-.126h2.338q.404 0 .547.109.144.109.144.383 0 .273-.185.383-.184.109-.697.109h-.308v2.782l2.851-2.782H108.569q-.335 0-.485-.116-.15-.116-.15-.376 0-.267.116-.38.116-.112.376-.112h2.016q.233 0 .356.126.123.127.123.366 0 .266-.161.379-.16.113-.57.113h-.096l-2.646 2.557q.595.123 1.149.765.553.643 1.722 2.837h.123q.424 0 .568.103.143.102.143.369 0 .239-.119.366-.12.126-.352.126h-.657q-.218 0-.317-.048-.1-.048-.202-.219-.062-.095-.759-1.387l-.266-.499q-.431-.8-.862-1.2-.43-.4-.916-.468l-.752.711zM113.191 98.654q-.014.513-.12.653t-.414.14q-.239 0-.359-.126-.119-.127-.119-.373l.007-.106q.006-.106.006-.215l.069-2.256q.014-.253.137-.366.123-.112.382-.112h5.941q.26 0 .383.112.123.113.129.366l.076 2.256q0 .123.007.232l.006.103q0 .246-.13.366-.129.119-.389.119-.274 0-.376-.14-.103-.14-.116-.653l-.069-1.777h-1.962v6.159H117.6q.287 0 .417.113t.13.359q0 .239-.123.366-.124.126-.356.126h-3.835q-.232 0-.355-.126-.123-.127-.123-.366 0-.253.133-.362.133-.11.454-.11h1.279v-6.159h-1.962zM126.726 101.245q0-.513.102-.663.103-.15.39-.15.246 0 .369.126.123.127.123.393v2.543q0 .239-.13.373-.13.133-.362.133h-6.385q-.246 0-.369-.123t-.123-.369q0-.274.147-.373.147-.099.666-.099h.855v-6.159h-.855q-.505 0-.659-.106-.154-.106-.154-.386 0-.253.126-.373.127-.119.393-.119H124.559q.246 0 .376.123t.13.369q0 .28-.154.386-.154.106-.674.106h-1.148v6.159h3.637zM129.993 98.654q-.013.513-.119.653t-.414.14q-.239 0-.359-.126-.119-.127-.119-.373l.006-.106q.007-.106.007-.215l.069-2.256q.013-.253.136-.366.123-.112.383-.112h5.941q.259 0 .382.112.123.113.13.366l.075 2.256q0 .123.007.232l.007.103q0 .246-.13.366-.13.119-.389.119-.274 0-.376-.14-.103-.14-.117-.653l-.068-1.777h-1.962v6.159h1.319q.288 0 .417.113.13.113.13.359 0 .239-.123.366-.123.126-.355.126h-3.835q-.233 0-.356-.126-.123-.127-.123-.366 0-.253.134-.362.133-.11.454-.11h1.279v-6.159h-1.962zM143.029 103.036q.527 0 .674.099.147.099.147.373 0 .28-.147.386-.147.106-.674.106h-4.47q-.246 0-.376-.123t-.13-.369q0-.274.15-.373.151-.099.677-.099h1.545v-6.159h-1.545q-.513 0-.67-.106-.157-.106-.157-.386 0-.253.13-.373.13-.119.389-.119h4.779q.246 0 .372.123.127.123.127.369 0 .28-.154.386-.154.106-.667.106h-1.545v6.159zM147.958 103.036h.458q.403 0 .567.11.165.109.165.362 0 .273-.144.383-.144.109-.547.109h-2.338q-.232 0-.352-.126-.119-.127-.119-.366 0-.253.133-.362.133-.11.454-.11h.657v-6.159h-.438q-.519 0-.663-.106-.143-.106-.143-.386 0-.239.119-.366.12-.126.352-.126h2.338q.403 0 .547.109.144.109.144.383 0 .273-.185.383-.185.109-.697.109h-.308v2.782l2.851-2.782H150.576q-.335 0-.485-.116-.15-.116-.15-.376 0-.267.116-.38.116-.112.376-.112h2.016q.233 0 .356.126.123.127.123.366 0 .266-.161.379-.16.113-.571.113h-.095l-2.646 2.557q.595.123 1.149.765.553.643 1.722 2.837h.123q.424 0 .568.103.143.102.143.369 0 .239-.119.366-.12.126-.352.126h-.657q-.218 0-.318-.048-.099-.048-.201-.219-.062-.095-.759-1.387l-.267-.499q-.43-.8-.861-1.2-.431-.4-.916-.468l-.752.711zM164.159 103.761q-.034.307-.157.427t-.39.12q-.287 0-.427-.168-.14-.167-.16-.543l-.089-1.586v-.123q0-.328.126-.465.127-.137.421-.137.41 0 .587.588.082.294.158.444.239.479.755.739.516.259 1.234.259.882 0 1.432-.417.55-.417.55-1.066 0-.54-.338-.868-.338-.328-.988-.424l-1.012-.137q-1.415-.198-2.064-.745-.649-.547-.649-1.538 0-1.046.864-1.757.865-.711 2.157-.711.376 0 .793.099.417.1.943.311.014-.198.11-.273.095-.075.328-.075.301 0 .417.089.116.089.143.424l.096 1.428v.069q0 .239-.137.372-.136.133-.382.133-.363 0-.561-.505-.096-.287-.191-.431-.226-.342-.65-.526-.424-.185-.964-.185-.827 0-1.343.41t-.516 1.073q0 .52.386.821.386.301 1.179.41l1.094.137q1.19.157 1.791.728.602.57.602 1.541 0 1.149-.855 1.842-.854.694-2.283.694-.492 0-.978-.116-.485-.116-1.032-.362zM176.731 102.824v-1.627h-1.696q-.205 0-.304-.109t-.099-.335q0-.26.089-.356.089-.095.342-.095h2.953q.177 0 .263.113.085.112.085.338 0 .253-.112.349-.113.095-.4.095h-.089v2.058q0 .184-.041.256-.041.072-.164.14-.39.233-1.135.397t-1.511.164q-1.832 0-2.96-1.169t-1.128-3.049q0-1.88 1.104-3.103 1.104-1.224 2.813-1.224.465 0 .933.106.469.106.975.318.068-.178.188-.257.119-.078.311-.078.321 0 .427.191.106.192.106.882v.93q0 .335-.116.468-.117.133-.404.133-.355 0-.512-.437-.055-.13-.089-.198-.253-.54-.725-.834-.472-.294-1.08-.294-1.224 0-1.955.885-.732.885-.732 2.389 0 1.552.807 2.468.807.916 2.147.916.389 0 .803-.103.413-.102.906-.328zM180.032 104h-.321q-.246 0-.373-.123-.126-.123-.126-.369 0-.274.147-.373.147-.099.673-.099h.438v-6.159h-.438q-.512 0-.666-.106-.154-.106-.154-.386 0-.253.126-.373.127-.119.387-.119H185.679q.232 0 .352.14.119.14.119.406v1.614q0 .355-.102.492-.103.137-.369.137-.28 0-.386-.151-.106-.15-.106-.677v-.977h-3.637v2.304h1.791v-.363q0-.369.099-.512.099-.144.345-.144.24 0 .332.154.092.154.092.66v1.271q0 .513-.096.656-.095.144-.341.144-.247 0-.339-.164-.092-.164-.092-.636v-.239h-1.791v3.028h3.637v-1.107q0-.527.106-.677.106-.15.386-.15.26 0 .366.14.105.14.105.529v1.723q0 .246-.123.376t-.348.13zM188.803 98.654q-.014.513-.12.653t-.413.14q-.24 0-.359-.126-.12-.127-.12-.373l.007-.106q.007-.106.007-.215l.068-2.256q.014-.253.137-.366.123-.112.383-.112h5.94q.26 0 .383.112.123.113.13.366l.075 2.256q0 .123.007.232l.007.103q0 .246-.13.366-.13.119-.39.119-.273 0-.376-.14-.102-.14-.116-.653l-.068-1.777h-1.962v6.159h1.319q.287 0 .417.113t.13.359q0 .239-.123.366-.123.126-.356.126h-3.835q-.232 0-.355-.126-.123-.127-.123-.366 0-.253.133-.362.133-.11.455-.11h1.278v-6.159h-1.962zM196.377 96.877h-.089q-.342 0-.485-.113-.144-.113-.144-.379 0-.239.123-.366.123-.126.356-.126h2.071q.403 0 .544.109.14.109.14.383 0 .253-.151.372-.15.12-.478.12h-.752l2.324 5.961 2.263-5.961h-.909q-.322 0-.476-.12-.153-.119-.153-.372 0-.274.143-.383.144-.109.54-.109h2.147q.232 0 .352.126.119.127.119.366 0 .266-.143.379-.144.113-.499.113h-.082l-2.461 6.439q-.212.513-.335.64-.123.126-.315.126h-.389q-.451 0-.732-.725l-.013-.041zM206.303 103.036h.854q.369 0 .527.11.157.109.157.362 0 .28-.147.386-.147.106-.646.106H205.018q-.246 0-.369-.123-.124-.123-.124-.369 0-.274.141-.373.14-.099.543-.099h.13v-6.159h-.171q-.574 0-.776-.109-.201-.11-.201-.383 0-.253.174-.366.174-.113.564-.113l.137-.007q.136-.006.273-.006h.643q.314 0 .44.071.127.072.298.366l3.445 5.947v-5.4h-.752q-.369 0-.536-.12-.168-.119-.168-.372 0-.281.144-.386.143-.106.601-.106h1.962q.246 0 .366.123.119.123.119.369 0 .273-.147.383-.146.109-.536.109h-.082v6.884q0 .198-.092.273-.093.075-.428.075-.335 0-.413-.037-.079-.038-.263-.352l-3.637-6.269zM216.509 103.036h.266q.288 0 .417.113.13.113.13.359 0 .239-.123.366-.123.126-.355.126h-3.37q-.233 0-.356-.126-.123-.127-.123-.366 0-.253.134-.362.133-.11.454-.11h.656v-6.159h-.43q-.52 0-.667-.106-.147-.106-.147-.386 0-.239.123-.366.123-.126.356-.126h6.05q.232 0 .352.14.119.14.119.406v1.764q0 .239-.119.359-.12.12-.352.12-.288 0-.39-.151-.103-.15-.103-.677v-.977h-3.712v2.304h1.805v-.178q0-.499.096-.67.096-.171.342-.171.218 0 .317.13.1.13.1.417v1.736q0 .342-.093.472-.092.13-.324.13-.246 0-.342-.171-.096-.171-.096-.67v-.198h-1.805v3.028zM221.581 96.877h-.089q-.342 0-.485-.113-.144-.113-.144-.379 0-.239.123-.366.123-.126.356-.126h2.071q.403 0 .544.109.14.109.14.383 0 .253-.151.372-.15.12-.478.12h-.752l2.324 5.961 2.263-5.961h-.909q-.322 0-.475-.12-.154-.119-.154-.372 0-.274.143-.383.144-.109.54-.109h2.147q.232 0 .352.126.119.127.119.366 0 .266-.143.379-.144.113-.499.113h-.082l-2.461 6.439q-.212.513-.335.64-.123.126-.314.126h-.39q-.451 0-.732-.725l-.013-.041zM231.507 103.036h.854q.37 0 .527.11.157.109.157.362 0 .28-.147.386-.147.106-.646.106H230.222q-.246 0-.369-.123t-.123-.369q0-.274.14-.373.14-.099.543-.099h.13v-6.159h-.171q-.574 0-.776-.109-.201-.11-.201-.383 0-.253.174-.366.174-.113.564-.113l.137-.007q.136-.006.273-.006h.643q.314 0 .441.071.126.072.297.366l3.445 5.947v-5.4h-.752q-.369 0-.536-.12-.168-.119-.168-.372 0-.281.144-.386.143-.106.601-.106h1.962q.246 0 .366.123t.12.369q0 .273-.147.383-.147.109-.537.109h-.082v6.884q0 .198-.092.273-.093.075-.428.075-.335 0-.413-.037-.079-.038-.263-.352l-3.637-6.269zM239.908 103.036h.855q.369 0 .526.11.157.109.157.362 0 .28-.147.386-.147.106-.646.106H238.623q-.246 0-.369-.123t-.123-.369q0-.274.14-.373.14-.099.544-.099h.129v-6.159h-.17q-.575 0-.776-.109-.202-.11-.202-.383 0-.253.174-.366.175-.113.564-.113l.137-.007q.137-.006.273-.006h.643q.314 0 .441.071.126.072.297.366l3.446 5.947v-5.4h-.752q-.369 0-.537-.12-.167-.119-.167-.372 0-.281.143-.386.144-.106.602-.106h1.962q.246 0 .365.123.12.123.12.369 0 .273-.147.383-.147.109-.537.109h-.082v6.884q0 .198-.092.273-.092.075-.427.075-.335 0-.414-.037-.078-.038-.263-.352l-3.637-6.269z" fill="#545454"/><path d="M46.875 117.648q0 .725.455 1.176.454.451 1.206.451.759 0 1.214-.437.454-.438.454-1.162 0-.711-.465-1.152-.464-.441-1.203-.441-.731 0-1.196.434-.465.434-.465 1.131zm.068-4.074q0 .677.448 1.108.448.43 1.145.43.704 0 1.152-.434.448-.434.448-1.117 0-.657-.448-1.084-.448-.427-1.152-.427t-1.148.427q-.445.427-.445 1.097zm.226 2.003q-.663-.328-.998-.83-.335-.503-.335-1.173 0-1.059.759-1.74.759-.68 1.941-.68 1.162 0 1.935.684.772.683.772 1.668 0 .731-.328 1.237-.328.506-1.018.834.69.28 1.059.824.369.543.369 1.275 0 1.128-.776 1.839-.775.711-2.013.711-1.237 0-2.01-.718-.772-.718-.772-1.86 0-.697.369-1.24.369-.544 1.046-.831zM55.304 112.665l-.133.021q-.045.006-.079.006-.212 0-.345-.119-.134-.12-.134-.318 0-.164.117-.287.116-.123.335-.185l2.03-.547q.075-.02.147-.03.072-.011.147-.011.13 0 .205.12.075.12.075.325v7.396h1.094q.608 0 .772.099.164.099.164.373 0 .246-.136.369-.137.123-.411.123h-4.087q-.274 0-.411-.123-.136-.123-.136-.369 0-.274.164-.373.164-.099.772-.099h1.135v-6.679z"/><path d="M72.332 116.5h2.796l-1.47-3.623zm.349-3.623h-.998q-.417 0-.585-.113-.167-.113-.167-.379 0-.281.147-.386.147-.106.803-.106h1.948q.376 0 .509.099.134.099.243.365l2.673 6.679h.116q.369 0 .506.103.137.102.137.369 0 .28-.13.386-.13.106-.485.106h-1.86q-.519 0-.666-.106-.147-.106-.147-.386 0-.26.16-.366.161-.106.605-.106h.636l-.663-1.627H71.99l-.588 1.627h.664q.451 0 .615.106.164.106.164.366 0 .28-.147.386-.147.106-.646.106h-1.798q-.437 0-.581-.106-.144-.106-.144-.386 0-.267.144-.369.144-.103.554-.103h.13zM84.316 118.824v-1.627H82.62q-.205 0-.304-.109t-.099-.335q0-.26.089-.356.089-.095.342-.095h2.953q.177 0 .263.113.085.112.085.338 0 .253-.112.349-.113.095-.4.095h-.089v2.058q0 .184-.041.256-.041.072-.164.14-.39.233-1.135.397t-1.511.164q-1.832 0-2.96-1.169t-1.128-3.049q0-1.88 1.104-3.103 1.104-1.224 2.813-1.224.465 0 .933.106.469.106.974.318.069-.178.188-.257.12-.078.312-.078.321 0 .427.191.106.192.106.882v.93q0 .335-.116.468-.117.133-.404.133-.355 0-.513-.437-.054-.13-.088-.198-.253-.54-.725-.834-.472-.294-1.08-.294-1.224 0-1.955.885-.732.885-.732 2.389 0 1.552.807 2.468.807.916 2.147.916.389 0 .803-.103.413-.102.906-.328zM90.488 119.036h.267q.287 0 .417.113t.13.359q0 .239-.123.366-.123.126-.356.126h-3.37q-.232 0-.355-.126-.123-.127-.123-.366 0-.253.133-.362.133-.11.455-.11h.656v-6.159h-.431q-.519 0-.666-.106-.147-.106-.147-.386 0-.239.123-.366.123-.126.355-.126h6.05q.232 0 .352.14.12.14.12.406v1.764q0 .239-.12.359t-.352.12q-.287 0-.39-.151-.102-.15-.102-.677v-.977h-3.712v2.304h1.805v-.178q0-.499.095-.67.096-.171.342-.171.219 0 .318.13t.099.417v1.736q0 .342-.092.472-.092.13-.325.13-.246 0-.342-.171-.095-.171-.095-.67v-.198h-1.805v3.028zM97.796 112.877v3.172h1.278q1.074 0 1.607-.397.533-.396.533-1.196 0-.786-.537-1.183-.536-.396-1.603-.396zm1.429 6.159q.335 0 .485.113.15.113.15.359 0 .273-.143.383-.144.109-.547.109h-3.343q-.232 0-.355-.126-.123-.127-.123-.366t.119-.356q.12-.116.373-.116h.882v-6.159h-.479q-.601 0-.748-.106-.147-.106-.147-.386 0-.239.123-.366.123-.126.355-.126h3.165q1.661 0 2.523.642.861.643.861 1.894t-.854 1.886q-.855.636-2.53.636h-1.196v2.085zM105.712 119.036h.458q.403 0 .567.11.164.109.164.362 0 .28-.143.386-.144.106-.629.106H104.324q-.253 0-.379-.123-.127-.123-.127-.369 0-.267.147-.369.147-.103.558-.103h.123v-6.159h-.11q-.41 0-.564-.109-.154-.11-.154-.383 0-.253.127-.373.126-.119.393-.119h1.723q.547 0 .693.106.147.105.147.386 0 .273-.184.383-.185.109-.697.109h-.308v2.379h3.274v-2.379h-.464q-.39 0-.558-.116-.167-.116-.167-.376 0-.281.154-.386.154-.106.755-.106h1.668q.246 0 .373.123.126.123.126.369 0 .266-.143.379-.144.113-.513.113h-.164v6.159h.109q.41 0 .561.106.15.106.15.366 0 .28-.143.386-.144.106-.663.106h-1.416q-.553 0-.704-.106-.15-.106-.15-.386 0-.267.178-.369.177-.103.676-.103h.335v-2.844h-3.274zM113.888 119.036h.854q.369 0 .527.11.157.109.157.362 0 .28-.147.386-.147.106-.646.106H112.603q-.246 0-.37-.123-.123-.123-.123-.369 0-.274.141-.373.14-.099.543-.099h.13v-6.159h-.171q-.574 0-.776-.109-.202-.11-.202-.383 0-.253.175-.366.174-.113.564-.113l.136-.007q.137-.006.274-.006h.643q.314 0 .44.071.127.072.298.366l3.445 5.947v-5.4h-.752q-.369 0-.536-.12-.168-.119-.168-.372 0-.281.144-.386.143-.106.601-.106h1.962q.246 0 .366.123.119.123.119.369 0 .273-.147.383-.147.109-.536.109h-.082v6.884q0 .198-.092.273-.093.075-.428.075-.335 0-.413-.037-.079-.038-.263-.352l-3.637-6.269zM126.227 119.036q.526 0 .673.099.147.099.147.373 0 .28-.147.386-.147.106-.673.106h-4.471q-.246 0-.376-.123t-.13-.369q0-.274.15-.373.151-.099.677-.099h1.545v-6.159h-1.545q-.512 0-.67-.106-.157-.106-.157-.386 0-.253.13-.373.13-.119.39-.119H126.548q.246 0 .373.123.126.123.126.369 0 .28-.154.386-.154.106-.666.106h-1.545v6.159zM129.166 112.877h-.089q-.342 0-.485-.113-.144-.113-.144-.379 0-.239.123-.366.123-.126.356-.126h2.071q.403 0 .544.109.14.109.14.383 0 .253-.151.372-.15.12-.478.12h-.752l2.324 5.961 2.263-5.961h-.909q-.322 0-.475-.12-.154-.119-.154-.372 0-.274.143-.383.144-.109.54-.109h2.147q.232 0 .352.126.119.127.119.366 0 .266-.143.379-.144.113-.499.113h-.082l-2.461 6.439q-.212.513-.335.64-.123.126-.315.126h-.389q-.451 0-.732-.725l-.013-.041zM140.897 119.036h.266q.287 0 .417.113t.13.359q0 .239-.123.366-.123.126-.355.126h-3.371q-.232 0-.355-.126-.123-.127-.123-.366 0-.253.133-.362.134-.11.455-.11h.656v-6.159h-.431q-.519 0-.666-.106-.147-.106-.147-.386 0-.239.123-.366.123-.126.355-.126h6.05q.233 0 .352.14.12.14.12.406v1.764q0 .239-.12.359-.119.12-.352.12-.287 0-.389-.151-.103-.15-.103-.677v-.977h-3.712v2.304h1.805v-.178q0-.499.096-.67.095-.171.341-.171.219 0 .318.13t.099.417v1.736q0 .342-.092.472-.092.13-.325.13-.246 0-.341-.171-.096-.171-.096-.67v-.198h-1.805v3.028zM147.719 119.036q.219.021.434.031.215.01.42.01 1.682 0 2.465-.752.782-.752.782-2.372 0-1.627-.786-2.369-.786-.741-2.515-.741-.322 0-.489.007-.168.006-.311.027zm0 .964H146.331q-.253 0-.379-.123-.127-.123-.127-.369 0-.267.147-.369.147-.103.557-.103h.123v-6.159h-.109q-.41 0-.564-.109-.154-.11-.154-.383 0-.253.127-.373.126-.119.393-.119h2.885q1.702 0 2.713 1.097 1.012 1.097 1.012 2.963 0 .909-.29 1.689-.291.779-.845 1.367-.512.533-1.247.776-.735.242-1.89.242-.137 0-.462-.013-.324-.014-.502-.014zM163.23 120h-.322q-.246 0-.372-.123-.127-.123-.127-.369 0-.274.147-.373.147-.099.674-.099h.437v-6.159h-.437q-.513 0-.667-.106-.154-.106-.154-.386 0-.253.127-.373.126-.119.386-.119h5.954q.232 0 .352.14.12.14.12.406v1.614q0 .355-.103.492-.102.137-.369.137-.28 0-.386-.151-.106-.15-.106-.677v-.977h-3.637v2.304h1.791v-.363q0-.369.099-.512.099-.144.346-.144.239 0 .331.154.092.154.092.66v1.271q0 .513-.095.656-.096.144-.342.144-.246 0-.339-.164-.092-.164-.092-.636v-.239h-1.791v3.028h3.637v-1.107q0-.527.106-.677.106-.15.386-.15.26 0 .366.14.106.14.106.529v1.723q0 .246-.123.376t-.349.13zM172.923 119.036q.219.021.434.031.215.01.42.01 1.682 0 2.465-.752.783-.752.783-2.372 0-1.627-.787-2.369-.786-.741-2.515-.741-.322 0-.489.007-.168.006-.311.027zm0 .964H171.535q-.253 0-.379-.123-.127-.123-.127-.369 0-.267.147-.369.147-.103.557-.103h.124v-6.159h-.11q-.41 0-.564-.109-.154-.11-.154-.383 0-.253.127-.373.126-.119.393-.119h2.885q1.702 0 2.714 1.097 1.011 1.097 1.011 2.963 0 .909-.29 1.689-.291.779-.844 1.367-.513.533-1.248.776-.735.242-1.89.242-.137 0-.462-.013-.324-.014-.502-.014zM181.55 116.5h2.796l-1.47-3.623zm.349-3.623h-.999q-.417 0-.584-.113-.167-.113-.167-.379 0-.281.147-.386.146-.106.803-.106h1.948q.376 0 .509.099.134.099.243.365l2.673 6.679h.116q.369 0 .506.103.137.102.137.369 0 .28-.13.386-.13.106-.486.106h-1.859q-.52 0-.667-.106-.147-.106-.147-.386 0-.26.161-.366.161-.106.605-.106h.636l-.663-1.627h-3.473l-.588 1.627h.663q.451 0 .616.106.164.106.164.366 0 .28-.147.386-.147.106-.646.106h-1.798q-.438 0-.581-.106-.144-.106-.144-.386 0-.267.144-.369.143-.103.553-.103h.13zM193.438 119.036q.526 0 .673.099.147.099.147.373 0 .28-.147.386-.147.106-.673.106h-4.471q-.246 0-.376-.123t-.13-.369q0-.274.15-.373.151-.099.677-.099h1.545v-6.159h-1.545q-.513 0-.67-.106-.157-.106-.157-.386 0-.253.13-.373.13-.119.39-.119H193.759q.246 0 .372.123.127.123.127.369 0 .28-.154.386-.154.106-.666.106h-1.545v6.159zM198.612 112.877v3.172h1.279q1.073 0 1.606-.397.533-.396.533-1.196 0-.786-.536-1.183-.537-.396-1.603-.396zm1.429 6.159q.335 0 .485.113.151.113.151.359 0 .273-.144.383-.143.109-.547.109h-3.342q-.233 0-.356-.126-.123-.127-.123-.366t.12-.356q.119-.116.372-.116h.882v-6.159h-.478q-.602 0-.749-.106-.147-.106-.147-.386 0-.239.123-.366.123-.126.356-.126h3.165q1.661 0 2.522.642.861.643.861 1.894t-.854 1.886q-.855.636-2.529.636h-1.197v2.085zM206.166 119.761q-.034.307-.157.427t-.39.12q-.287 0-.427-.168-.14-.167-.161-.543l-.089-1.586v-.123q0-.328.127-.465.126-.137.42-.137.411 0 .588.588.082.294.157.444.24.479.756.739.516.259 1.234.259.882 0 1.432-.417.55-.417.55-1.066 0-.54-.338-.868-.339-.328-.988-.424l-1.012-.137q-1.415-.198-2.064-.745-.65-.547-.65-1.538 0-1.046.865-1.757.865-.711 2.157-.711.376 0 .793.099.417.1.943.311.014-.198.11-.273.095-.075.328-.075.3 0 .417.089.116.089.143.424l.096 1.428v.069q0 .239-.137.372-.136.133-.383.133-.362 0-.56-.505-.096-.287-.192-.431-.225-.342-.649-.526-.424-.185-.964-.185-.827 0-1.343.41t-.516 1.073q0 .52.386.821.386.301 1.179.41l1.094.137q1.189.157 1.791.728.602.57.602 1.541 0 1.149-.855 1.842-.854.694-2.283.694-.492 0-.978-.116-.485-.116-1.032-.362zM218.737 118.824v-1.627h-1.695q-.205 0-.304-.109t-.099-.335q0-.26.089-.356.088-.095.341-.095h2.954q.177 0 .263.113.085.112.085.338 0 .253-.113.349-.112.095-.4.095h-.088v2.058q0 .184-.041.256-.041.072-.164.14-.39.233-1.135.397t-1.511.164q-1.832 0-2.96-1.169t-1.128-3.049q0-1.88 1.104-3.103 1.104-1.224 2.813-1.224.465 0 .933.106.469.106.974.318.069-.178.188-.257.12-.078.311-.078.322 0 .428.191.106.192.106.882v.93q0 .335-.117.468-.116.133-.403.133-.355 0-.513-.437-.054-.13-.089-.198-.252-.54-.724-.834-.472-.294-1.08-.294-1.224 0-1.955.885-.732.885-.732 2.389 0 1.552.807 2.468.807.916 2.146.916.39 0 .804-.103.413-.102.905-.328zM221.581 112.877h-.089q-.342 0-.485-.113-.144-.113-.144-.379 0-.239.123-.366.123-.126.356-.126h2.071q.403 0 .544.109.14.109.14.383 0 .253-.151.372-.15.12-.478.12h-.752l2.324 5.961 2.263-5.961h-.909q-.322 0-.475-.12-.154-.119-.154-.372 0-.274.143-.383.144-.109.54-.109h2.147q.232 0 .352.126.119.127.119.366 0 .266-.143.379-.144.113-.499.113h-.082l-2.461 6.439q-.212.513-.335.64-.123.126-.314.126h-.39q-.451 0-.732-.725l-.013-.041zM231.507 119.036h.854q.37 0 .527.11.157.109.157.362 0 .28-.147.386-.147.106-.646.106H230.222q-.246 0-.369-.123t-.123-.369q0-.274.14-.373.14-.099.543-.099h.13v-6.159h-.171q-.574 0-.776-.109-.201-.11-.201-.383 0-.253.174-.366.174-.113.564-.113l.137-.007q.136-.006.273-.006h.643q.314 0 .441.071.126.072.297.366l3.445 5.947v-5.4h-.752q-.369 0-.536-.12-.168-.119-.168-.372 0-.281.144-.386.143-.106.601-.106h1.962q.246 0 .366.123t.12.369q0 .273-.147.383-.147.109-.537.109h-.082v6.884q0 .198-.092.273-.093.075-.428.075-.335 0-.413-.037-.079-.038-.263-.352l-3.637-6.269zM240.359 116.5h2.796l-1.469-3.623zm.349-3.623h-.998q-.417 0-.584-.113-.168-.113-.168-.379 0-.281.147-.386.147-.106.803-.106h1.949q.376 0 .509.099t.242.365l2.673 6.679h.117q.369 0 .505.103.137.102.137.369 0 .28-.13.386-.13.106-.485.106h-1.859q-.52 0-.667-.106-.147-.106-.147-.386 0-.26.161-.366.16-.106.605-.106h.635l-.663-1.627h-3.472l-.588 1.627h.663q.451 0 .615.106.164.106.164.366 0 .28-.147.386-.147.106-.646.106h-1.798q-.437 0-.581-.106-.143-.106-.143-.386 0-.267.143-.369.144-.103.554-.103h.13z" fill="#545454"/><path d="m38.501 128.665-.133.021q-.045.006-.079.006-.212 0-.345-.119-.133-.12-.133-.318 0-.164.116-.287.116-.123.335-.185l2.03-.547q.075-.02.147-.03.072-.011.147-.011.13 0 .205.12.075.12.075.325v7.396h1.094q.608 0 .773.099.164.099.164.373 0 .246-.137.369t-.41.123h-4.088q-.274 0-.41-.123-.137-.123-.137-.369 0-.274.164-.373.164-.099.772-.099h1.135v-6.679zM48.536 128.132q-.786 0-1.223.93-.438.929-.438 2.625 0 1.702.438 2.635.437.933 1.223.933.793 0 1.231-.933.437-.933.437-2.635 0-1.696-.437-2.625-.438-.93-1.231-.93zm0 8.094q-1.285 0-2.04-1.214-.756-1.213-.756-3.325 0-2.106.756-3.319.755-1.214 2.04-1.214 1.285 0 2.044 1.217.759 1.217.759 3.316 0 2.098-.759 3.318-.759 1.221-2.044 1.221zM55.304 128.665l-.133.021q-.045.006-.079.006-.212 0-.345-.119-.134-.12-.134-.318 0-.164.117-.287.116-.123.335-.185l2.03-.547q.075-.02.147-.03.072-.011.147-.011.13 0 .205.12.075.12.075.325v7.396h1.094q.608 0 .772.099.164.099.164.373 0 .246-.136.369-.137.123-.411.123h-4.087q-.274 0-.411-.123-.136-.123-.136-.369 0-.274.164-.373.164-.099.772-.099h1.135v-6.679z"/><path d="M72.107 135.036q.218.021.434.031.215.01.42.01 1.682 0 2.464-.752.783-.752.783-2.372 0-1.627-.786-2.369-.786-.741-2.516-.741-.321 0-.488.007-.168.006-.311.027zm0 .964h-1.388q-.253 0-.38-.123-.126-.123-.126-.369 0-.267.147-.369.147-.103.557-.103h.123v-6.159h-.109q-.41 0-.564-.109-.154-.11-.154-.383 0-.253.126-.373.127-.119.394-.119h2.884q1.702 0 2.714 1.097t1.012 2.963q0 .909-.291 1.689-.29.779-.844 1.367-.513.533-1.247.776-.735.242-1.891.242-.136 0-.461-.013-.325-.014-.502-.014zM80.733 132.5h2.796l-1.469-3.623zm.349-3.623h-.998q-.417 0-.584-.113-.168-.113-.168-.379 0-.281.147-.386.147-.106.803-.106h1.949q.376 0 .509.099t.243.365l2.672 6.679h.117q.369 0 .505.103.137.102.137.369 0 .28-.13.386-.13.106-.485.106H83.94q-.52 0-.667-.106-.147-.106-.147-.386 0-.26.161-.366.16-.106.605-.106h.635l-.663-1.627h-3.472l-.588 1.627h.663q.451 0 .615.106.164.106.164.366 0 .28-.147.386-.147.106-.646.106h-1.798q-.437 0-.581-.106-.143-.106-.143-.386 0-.267.143-.369.144-.103.554-.103h.13zM92.621 135.036q.527 0 .674.099.147.099.147.373 0 .28-.147.386-.147.106-.674.106H88.15q-.246 0-.375-.123-.13-.123-.13-.369 0-.274.15-.373.15-.099.677-.099h1.545v-6.159h-1.545q-.513 0-.67-.106-.157-.106-.157-.386 0-.253.13-.373.129-.119.389-.119h4.778q.247 0 .373.123.127.123.127.369 0 .28-.154.386-.154.106-.667.106h-1.545v6.159zM96.948 135.761q-.034.307-.157.427t-.39.12q-.287 0-.427-.168-.14-.167-.16-.543l-.089-1.586v-.123q0-.328.126-.465.127-.137.421-.137.41 0 .587.588.083.294.158.444.239.479.755.739.516.259 1.234.259.882 0 1.432-.417.55-.417.55-1.066 0-.54-.338-.868-.338-.328-.988-.424l-1.012-.137q-1.415-.198-2.064-.745-.649-.547-.649-1.538 0-1.046.864-1.757.865-.711 2.157-.711.376 0 .793.099.417.1.943.311.014-.198.11-.273.096-.075.328-.075.301 0 .417.089.116.089.143.424l.096 1.428v.069q0 .239-.137.372-.136.133-.382.133-.363 0-.561-.505-.096-.287-.191-.431-.226-.342-.65-.526-.424-.185-.964-.185-.827 0-1.343.41t-.516 1.073q0 .52.386.821.387.301 1.179.41l1.094.137q1.19.157 1.791.728.602.57.602 1.541 0 1.149-.855 1.842-.854.694-2.283.694-.492 0-.977-.116-.486-.116-1.033-.362zM105.821 128.815v2.762h1.415q.957 0 1.439-.345.482-.345.482-1.029 0-.69-.471-1.039-.472-.349-1.409-.349zm0 6.221h.465q.397 0 .561.11.164.109.164.362 0 .273-.144.383-.143.109-.54.109h-2.297q-.232 0-.355-.126-.123-.127-.123-.366 0-.253.137-.362.136-.11.451-.11h.622v-6.221h-.397q-.512 0-.663-.095-.15-.096-.15-.363 0-.232.119-.348.12-.116.359-.116h2.885q1.046 0 1.562.099t.872.338q.458.308.721.814.263.505.263 1.086 0 .787-.482 1.351t-1.343.782q.178.103.318.24.14.136.27.328l1.374 2.105h.225q.383 0 .527.106.143.106.143.366 0 .239-.119.366-.12.126-.352.126h-.773q-.335 0-.656-.492-.041-.041-.062-.069l-1.312-1.989q-.403-.608-.667-.786-.263-.178-.693-.178h-.91zM114.113 135.036q.219.021.434.031.216.01.421.01 1.682 0 2.464-.752.783-.752.783-2.372 0-1.627-.786-2.369-.786-.741-2.516-.741-.321 0-.489.007-.167.006-.311.027zm0 .964h-1.387q-.253 0-.38-.123-.126-.123-.126-.369 0-.267.147-.369.147-.103.557-.103h.123v-6.159h-.109q-.411 0-.564-.109-.154-.11-.154-.383 0-.253.126-.373.127-.119.393-.119h2.885q1.702 0 2.714 1.097t1.012 2.963q0 .909-.291 1.689-.29.779-.844 1.367-.513.533-1.248.776-.734.242-1.89.242-.136 0-.461-.013-.325-.014-.503-.014zM122.515 135.036q.218.021.434.031.215.01.42.01 1.682 0 2.465-.752.782-.752.782-2.372 0-1.627-.786-2.369-.786-.741-2.515-.741-.322 0-.489.007-.168.006-.311.027zm0 .964H121.127q-.253 0-.379-.123-.127-.123-.127-.369 0-.267.147-.369.147-.103.557-.103h.123v-6.159h-.109q-.41 0-.564-.109-.154-.11-.154-.383 0-.253.127-.373.126-.119.393-.119H124.025q1.703 0 2.714 1.097 1.012 1.097 1.012 2.963 0 .909-.29 1.689-.291.779-.845 1.367-.512.533-1.247.776-.735.242-1.89.242-.137 0-.462-.013-.325-.014-.502-.014zM134.054 135.036q.526 0 .673.099.147.099.147.373 0 .28-.147.386-.147.106-.591.106h-3.247q-.445 0-.588-.106-.144-.106-.144-.386 0-.274.161-.373.161-.099.666-.099h.992v-2.269l-2.277-3.89h-.116q-.41 0-.56-.109-.151-.11-.151-.383 0-.253.127-.373.126-.119.393-.119h1.873q.403 0 .543.109t.14.383q0 .273-.167.383-.168.109-.612.109h-.226l1.655 2.967 1.716-2.967h-.281q-.369 0-.512-.109-.144-.11-.144-.383 0-.287.123-.39.123-.102.622-.102h1.258q.52 0 .666.106.147.105.147.386 0 .273-.147.383-.146.109-.557.109h-.109l-2.324 3.985v2.174zM143.528 133.245q0-.513.103-.663.102-.15.39-.15.246 0 .369.126.123.127.123.393v2.543q0 .239-.13.373-.13.133-.362.133h-6.385q-.246 0-.369-.123t-.123-.369q0-.274.147-.373.147-.099.666-.099h.855v-6.159h-.855q-.506 0-.66-.106-.153-.106-.153-.386 0-.253.126-.373.127-.119.393-.119H141.361q.247 0 .376.123.13.123.13.369 0 .28-.154.386-.153.106-.673.106h-1.148v6.159h3.636zM147.493 135.036h.855q.369 0 .526.11.157.109.157.362 0 .28-.147.386-.147.106-.646.106H146.208q-.246 0-.369-.123t-.123-.369q0-.274.14-.373.14-.099.544-.099h.129v-6.159h-.171q-.574 0-.775-.109-.202-.11-.202-.383 0-.253.174-.366.175-.113.564-.113l.137-.007q.137-.006.273-.006h.643q.314 0 .441.071.126.072.297.366l3.446 5.947v-5.4h-.752q-.37 0-.537-.12-.167-.119-.167-.372 0-.281.143-.386.144-.106.602-.106h1.962q.246 0 .365.123.12.123.12.369 0 .273-.147.383-.147.109-.537.109h-.082v6.884q0 .198-.092.273-.092.075-.427.075-.335 0-.414-.037-.078-.038-.263-.352l-3.637-6.269zM164.747 132.5h2.796l-1.47-3.623zm.349-3.623h-.998q-.417 0-.585-.113-.167-.113-.167-.379 0-.281.147-.386.147-.106.803-.106h1.948q.376 0 .51.099.133.099.242.365l2.673 6.679h.116q.369 0 .506.103.137.102.137.369 0 .28-.13.386-.13.106-.485.106h-1.86q-.519 0-.666-.106-.147-.106-.147-.386 0-.26.16-.366.161-.106.605-.106h.636l-.663-1.627h-3.473l-.588 1.627h.664q.451 0 .615.106.164.106.164.366 0 .28-.147.386-.147.106-.646.106h-1.798q-.437 0-.581-.106-.144-.106-.144-.386 0-.267.144-.369.144-.103.554-.103h.13zM173.408 128.877v3.172h1.279q1.073 0 1.606-.397.533-.396.533-1.196 0-.786-.536-1.183-.537-.396-1.603-.396zm1.429 6.159q.335 0 .485.113.151.113.151.359 0 .273-.144.383-.143.109-.547.109h-3.342q-.233 0-.356-.126-.123-.127-.123-.366t.12-.356q.119-.116.372-.116h.882v-6.159h-.478q-.602 0-.749-.106-.147-.106-.147-.386 0-.239.123-.366.123-.126.356-.126h3.165q1.661 0 2.522.642.861.643.861 1.894t-.854 1.886q-.855.636-2.529.636h-1.197v2.085zM185.132 134.824v-1.627h-1.695q-.205 0-.305-.109-.099-.109-.099-.335 0-.26.089-.356.089-.095.342-.095h2.953q.178 0 .263.113.086.112.086.338 0 .253-.113.349-.113.095-.4.095h-.089v2.058q0 .184-.041.256-.041.072-.164.14-.39.233-1.135.397t-1.51.164q-1.832 0-2.96-1.169t-1.128-3.049q0-1.88 1.104-3.103 1.104-1.224 2.813-1.224.465 0 .933.106t.974.318q.068-.178.188-.257.12-.078.311-.078.321 0 .427.191.106.192.106.882v.93q0 .335-.116.468t-.403.133q-.356 0-.513-.437-.055-.13-.089-.198-.253-.54-.725-.834-.471-.294-1.08-.294-1.223 0-1.955.885-.731.885-.731 2.389 0 1.552.806 2.468.807.916 2.147.916.39 0 .803-.103.414-.102.906-.328zM188.434 136h-.322q-.246 0-.372-.123-.127-.123-.127-.369 0-.274.147-.373.147-.099.674-.099h.437v-6.159h-.437q-.513 0-.667-.106-.154-.106-.154-.386 0-.253.127-.373.126-.119.386-.119h5.954q.233 0 .352.14.12.14.12.406v1.614q0 .355-.103.492-.102.137-.369.137-.28 0-.386-.151-.106-.15-.106-.677v-.977h-3.637v2.304h1.791v-.363q0-.369.099-.512.1-.144.346-.144.239 0 .331.154.092.154.092.66v1.271q0 .513-.095.656-.096.144-.342.144-.246 0-.338-.164-.093-.164-.093-.636v-.239h-1.791v3.028h3.637v-1.107q0-.527.106-.677.106-.15.386-.15.26 0 .366.14.106.14.106.529v1.723q0 .246-.123.376t-.349.13zM197.204 130.654q-.013.513-.119.653t-.414.14q-.239 0-.359-.126-.12-.127-.12-.373l.007-.106q.007-.106.007-.215l.069-2.256q.013-.253.136-.366.123-.112.383-.112h5.94q.26 0 .383.112.123.113.13.366l.075 2.256q0 .123.007.232l.007.103q0 .246-.13.366-.13.119-.39.119-.273 0-.375-.14-.103-.14-.117-.653l-.068-1.777h-1.962v6.159h1.319q.287 0 .417.113t.13.359q0 .239-.123.366-.123.126-.355.126h-3.835q-.233 0-.356-.126-.123-.127-.123-.366 0-.253.134-.362.133-.11.454-.11h1.278v-6.159h-1.961zM209.666 135.036q.526 0 .673.099.147.099.147.373 0 .28-.147.386-.147.106-.591.106h-3.247q-.444 0-.588-.106-.143-.106-.143-.386 0-.274.16-.373.161-.099.667-.099h.991v-2.269l-2.276-3.89h-.117q-.41 0-.56-.109-.151-.11-.151-.383 0-.253.127-.373.126-.119.393-.119h1.873q.403 0 .544.109.14.109.14.383 0 .273-.168.383-.167.109-.612.109h-.225l1.654 2.967 1.716-2.967h-.28q-.37 0-.513-.109-.144-.11-.144-.383 0-.287.123-.39.123-.102.622-.102h1.258q.52 0 .667.106.147.105.147.386 0 .273-.147.383-.147.109-.557.109h-.11l-2.324 3.985v2.174zM214.567 135.761q-.034.307-.157.427t-.389.12q-.288 0-.428-.168-.14-.167-.16-.543l-.089-1.586v-.123q0-.328.126-.465.127-.137.421-.137.41 0 .588.588.082.294.157.444.239.479.755.739.516.259 1.234.259.882 0 1.432-.417.551-.417.551-1.066 0-.54-.339-.868-.338-.328-.988-.424l-1.011-.137q-1.415-.198-2.065-.745-.649-.547-.649-1.538 0-1.046.865-1.757.864-.711 2.156-.711.376 0 .793.099.417.1.944.311.013-.198.109-.273.096-.075.328-.075.301 0 .417.089.116.089.144.424l.095 1.428v.069q0 .239-.136.372-.137.133-.383.133-.363 0-.561-.505-.095-.287-.191-.431-.226-.342-.65-.526-.423-.185-.963-.185-.828 0-1.344.41-.516.41-.516 1.073 0 .52.386.821.387.301 1.18.41l1.093.137q1.19.157 1.791.728.602.57.602 1.541 0 1.149-.855 1.842-.854.694-2.283.694-.492 0-.977-.116-.486-.116-1.033-.362zM221.581 128.877h-.089q-.342 0-.485-.113-.144-.113-.144-.379 0-.239.123-.366.123-.126.356-.126h2.071q.403 0 .544.109.14.109.14.383 0 .253-.151.372-.15.12-.478.12h-.752l2.324 5.961 2.263-5.961h-.909q-.322 0-.475-.12-.154-.119-.154-.372 0-.274.143-.383.144-.109.54-.109h2.147q.232 0 .352.126.119.127.119.366 0 .266-.143.379-.144.113-.499.113h-.082l-2.461 6.439q-.212.513-.335.64-.123.126-.314.126h-.39q-.451 0-.732-.725l-.013-.041zM231.972 135.036h.458q.403 0 .567.11.164.109.164.362 0 .273-.143.383-.144.109-.547.109h-2.338q-.233 0-.352-.126-.12-.127-.12-.366 0-.253.134-.362.133-.11.454-.11h.656v-6.159h-.437q-.52 0-.663-.106-.144-.106-.144-.386 0-.239.12-.366.119-.126.352-.126h2.338q.403 0 .547.109.143.109.143.383 0 .273-.184.383-.185.109-.698.109h-.307v2.782l2.85-2.782H234.59q-.335 0-.485-.116-.151-.116-.151-.376 0-.267.116-.38.117-.112.376-.112h2.017q.232 0 .355.126.123.127.123.366 0 .266-.16.379-.161.113-.571.113h-.096l-2.645 2.557q.595.123 1.148.765.554.643 1.723 2.837h.123q.424 0 .567.103.144.102.144.369 0 .239-.12.366-.119.126-.352.126h-.656q-.219 0-.318-.048t-.202-.219q-.061-.095-.758-1.387l-.267-.499q-.431-.8-.861-1.2-.431-.4-.916-.468l-.752.711zM244.345 133.245q0-.513.102-.663.103-.15.39-.15.246 0 .369.126.123.127.123.393v2.543q0 .239-.13.373-.13.133-.362.133h-6.385q-.246 0-.369-.123t-.123-.369q0-.274.147-.373.147-.099.667-.099h.854v-6.159h-.854q-.506 0-.66-.106-.154-.106-.154-.386 0-.253.127-.373.126-.119.393-.119H242.178q.246 0 .376.123t.13.369q0 .28-.154.386-.154.106-.673.106h-1.149v6.159h3.637z" fill="#545454"/><path d="m38.501 144.665-.133.021q-.045.006-.079.006-.212 0-.345-.119-.133-.12-.133-.318 0-.164.116-.287.116-.123.335-.185l2.03-.547q.075-.02.147-.03.072-.011.147-.011.13 0 .205.12.075.12.075.325v7.396h1.094q.608 0 .773.099.164.099.164.373 0 .246-.137.369t-.41.123h-4.088q-.274 0-.41-.123-.137-.123-.137-.369 0-.274.164-.373.164-.099.772-.099h1.135v-6.679zM46.157 152q-.362 0-.536-.147-.175-.147-.175-.455 0-.444 1.313-1.668l.198-.191q.198-.191.574-.547 2.366-2.228 2.366-3.247 0-.731-.417-1.186-.417-.455-1.08-.455-.431 0-.824.178-.393.178-.633.479-.041.054-.129.184-.253.458-.568.458-.246 0-.348-.15-.103-.15-.103-.574 0-.246.048-.359.048-.113.178-.243.437-.424 1.083-.673.646-.25 1.323-.25 1.135 0 1.897.732.762.731.762 1.798 0 1.339-2.324 3.561-.595.554-.909.868l-.841.807h3.124q.027-.294.16-.448.134-.154.359-.154.226 0 .356.151.13.15.13.41 0 .02-.007.072-.007.051-.007.071l-.055.527q-.02.212-.123.331-.102.12-.266.12zM55.304 144.665l-.133.021q-.045.006-.079.006-.212 0-.345-.119-.134-.12-.134-.318 0-.164.117-.287.116-.123.335-.185l2.03-.547q.075-.02.147-.03.072-.011.147-.011.13 0 .205.12.075.12.075.325v7.396h1.094q.608 0 .772.099.164.099.164.373 0 .246-.136.369-.137.123-.411.123h-4.087q-.274 0-.411-.123-.136-.123-.136-.369 0-.274.164-.373.164-.099.772-.099h1.135v-6.679z"/><path d="M71.184 146.654q-.014.513-.12.653t-.414.14q-.239 0-.358-.126-.12-.127-.12-.373l.007-.106q.007-.106.007-.215l.068-2.256q.014-.253.137-.366.123-.112.383-.112h5.94q.26 0 .383.112.123.113.13.366l.075 2.256q0 .123.007.232l.007.103q0 .246-.13.366-.13.119-.39.119-.273 0-.376-.14-.103-.14-.116-.653l-.069-1.777h-1.961v6.159h1.319q.287 0 .417.113t.13.359q0 .239-.123.366-.123.126-.356.126h-3.835q-.232 0-.355-.126-.123-.127-.123-.366 0-.253.133-.362.133-.11.455-.11h1.278v-6.159h-1.962zM80.733 148.5h2.796l-1.469-3.623zm.349-3.623h-.998q-.417 0-.584-.113-.168-.113-.168-.379 0-.281.147-.386.147-.106.803-.106h1.949q.376 0 .509.099t.243.365l2.672 6.679h.117q.369 0 .505.103.137.102.137.369 0 .28-.13.386-.13.106-.485.106H83.94q-.52 0-.667-.106-.147-.106-.147-.386 0-.26.161-.366.16-.106.605-.106h.635l-.663-1.627h-3.472l-.588 1.627h.663q.451 0 .615.106.164.106.164.366 0 .28-.147.386-.147.106-.646.106h-1.798q-.437 0-.581-.106-.143-.106-.143-.386 0-.267.143-.369.144-.103.554-.103h.13z" fill="#545454"/><path d="M89.135 148.5h2.796l-1.47-3.623zm.348-3.623h-.998q-.417 0-.584-.113-.168-.113-.168-.379 0-.281.147-.386.147-.106.804-.106h1.948q.376 0 .509.099.134.099.243.365l2.673 6.679h.116q.369 0 .506.103.137.102.137.369 0 .28-.13.386-.13.106-.486.106h-1.859q-.52 0-.667-.106-.147-.106-.147-.386 0-.26.161-.366.161-.106.605-.106h.636l-.663-1.627h-3.473l-.588 1.627h.663q.451 0 .615.106.165.106.165.366 0 .28-.147.386-.147.106-.646.106h-1.798q-.438 0-.581-.106-.144-.106-.144-.386 0-.267.144-.369.143-.103.553-.103h.13zM101.118 150.824v-1.627h-1.695q-.205 0-.304-.109t-.099-.335q0-.26.088-.356.089-.095.342-.095h2.953q.178 0 .264.113.085.112.085.338 0 .253-.113.349-.113.095-.4.095h-.089v2.058q0 .184-.041.256-.041.072-.164.14-.389.233-1.134.397-.745.164-1.511.164-1.832 0-2.96-1.169t-1.128-3.049q0-1.88 1.104-3.103 1.104-1.224 2.813-1.224.465 0 .933.106t.974.318q.069-.178.188-.257.12-.078.311-.078.322 0 .428.191.105.192.105.882v.93q0 .335-.116.468t-.403.133q-.356 0-.513-.437-.054-.13-.089-.198-.253-.54-.724-.834-.472-.294-1.08-.294-1.224 0-1.955.885-.732.885-.732 2.389 0 1.552.807 2.468.806.916 2.146.916.39 0 .804-.103.413-.102.905-.328zM104.42 152h-.321q-.246 0-.373-.123-.126-.123-.126-.369 0-.274.147-.373.147-.099.673-.099h.438v-6.159h-.438q-.513 0-.666-.106-.154-.106-.154-.386 0-.253.126-.373.127-.119.386-.119h5.955q.232 0 .352.14.119.14.119.406v1.614q0 .355-.102.492-.103.137-.369.137-.281 0-.387-.151-.106-.15-.106-.677v-.977h-3.636v2.304h1.791v-.363q0-.369.099-.512.099-.144.345-.144.239 0 .331.154.093.154.093.66v1.271q0 .513-.096.656-.096.144-.342.144-.246 0-.338-.164-.092-.164-.092-.636v-.239h-1.791v3.028h3.636v-1.107q0-.527.106-.677.106-.15.387-.15.259 0 .365.14.106.14.106.529v1.723q0 .246-.123.376t-.348.13zM117.251 151.036q.526 0 .673.099.147.099.147.373 0 .28-.147.386-.147.106-.591.106h-3.247q-.444 0-.588-.106-.143-.106-.143-.386 0-.274.16-.373.161-.099.667-.099h.991v-2.269l-2.276-3.89h-.117q-.41 0-.56-.109-.151-.11-.151-.383 0-.253.127-.373.126-.119.393-.119h1.873q.403 0 .543.109.141.109.141.383 0 .273-.168.383-.167.109-.612.109h-.225l1.654 2.967 1.716-2.967h-.28q-.37 0-.513-.109-.144-.11-.144-.383 0-.287.123-.39.123-.102.622-.102h1.258q.52 0 .667.106.147.105.147.386 0 .273-.147.383-.147.109-.557.109h-.11l-2.324 3.985v2.174zM126.322 150.824v-1.627h-1.695q-.205 0-.304-.109t-.099-.335q0-.26.089-.356.088-.095.341-.095h2.954q.177 0 .263.113.085.112.085.338 0 .253-.113.349-.112.095-.4.095h-.088v2.058q0 .184-.041.256-.041.072-.164.14-.39.233-1.135.397t-1.511.164q-1.832 0-2.96-1.169t-1.128-3.049q0-1.88 1.104-3.103 1.104-1.224 2.813-1.224.465 0 .933.106t.974.318q.069-.178.188-.257.12-.078.311-.078.322 0 .428.191.106.192.106.882v.93q0 .335-.117.468-.116.133-.403.133-.355 0-.513-.437-.054-.13-.089-.198-.252-.54-.724-.834-.472-.294-1.08-.294-1.224 0-1.955.885-.732.885-.732 2.389 0 1.552.807 2.468.807.916 2.146.916.39 0 .804-.103.413-.102.905-.328zM134.054 151.036q.526 0 .673.099.147.099.147.373 0 .28-.147.386-.147.106-.591.106h-3.247q-.445 0-.588-.106-.144-.106-.144-.386 0-.274.161-.373.161-.099.666-.099h.992v-2.269l-2.277-3.89h-.116q-.41 0-.56-.109-.151-.11-.151-.383 0-.253.127-.373.126-.119.393-.119h1.873q.403 0 .543.109t.14.383q0 .273-.167.383-.168.109-.612.109h-.226l1.655 2.967 1.716-2.967h-.281q-.369 0-.512-.109-.144-.11-.144-.383 0-.287.123-.39.123-.102.622-.102h1.258q.52 0 .666.106.147.105.147.386 0 .273-.147.383-.146.109-.557.109h-.109l-2.324 3.985v2.174zM142.455 151.036q.527 0 .674.099.146.099.146.373 0 .28-.146.386-.147.106-.592.106h-3.247q-.444 0-.588-.106-.143-.106-.143-.386 0-.274.16-.373.161-.099.667-.099h.991v-2.269l-2.276-3.89h-.117q-.41 0-.56-.109-.15-.11-.15-.383 0-.253.126-.373.126-.119.393-.119h1.873q.403 0 .544.109.14.109.14.383 0 .273-.168.383-.167.109-.612.109h-.225l1.654 2.967 1.716-2.967h-.28q-.369 0-.513-.109-.144-.11-.144-.383 0-.287.123-.39.124-.102.623-.102H143.781q.52 0 .667.106.147.105.147.386 0 .273-.147.383-.147.109-.557.109h-.11l-2.324 3.985v2.174zM151.513 144.118q.068-.184.191-.26.123-.075.356-.075.253 0 .355.123.103.123.103.506 0 .67.013 1.248.014.577.014.502 0 .321-.109.434-.11.113-.39.113-.451 0-.588-.643l-.075-.294q-.13-.512-.622-.837-.492-.325-1.155-.325-1.21 0-1.942.886-.731.885-.731 2.375t.741 2.376q.742.885 1.959.885.396 0 .807-.113.41-.113.806-.338.185-.096.506-.325t.458-.229q.212 0 .359.14t.147.345q0 .205-.161.393-.16.188-.598.462-.574.376-1.155.554-.581.177-1.224.177-1.688 0-2.789-1.193-1.1-1.193-1.1-3.052 0-1.839 1.114-3.056 1.114-1.216 2.803-1.216.451 0 .919.109t.988.328zM163.23 152h-.322q-.246 0-.372-.123-.127-.123-.127-.369 0-.274.147-.373.147-.099.674-.099h.437v-6.159h-.437q-.513 0-.667-.106-.154-.106-.154-.386 0-.253.127-.373.126-.119.386-.119h5.954q.232 0 .352.14.12.14.12.406v1.614q0 .355-.103.492-.102.137-.369.137-.28 0-.386-.151-.106-.15-.106-.677v-.977h-3.637v2.304h1.791v-.363q0-.369.099-.512.099-.144.346-.144.239 0 .331.154.092.154.092.66v1.271q0 .513-.095.656-.096.144-.342.144-.246 0-.339-.164-.092-.164-.092-.636v-.239h-1.791v3.028h3.637v-1.107q0-.527.106-.677.106-.15.386-.15.26 0 .366.14.106.14.106.529v1.723q0 .246-.123.376t-.349.13zM173.408 144.877v3.172h1.279q1.073 0 1.606-.397.533-.396.533-1.196 0-.786-.536-1.183-.537-.396-1.603-.396zm1.429 6.159q.335 0 .485.113.151.113.151.359 0 .273-.144.383-.143.109-.547.109h-3.342q-.233 0-.356-.126-.123-.127-.123-.366t.12-.356q.119-.116.372-.116h.882v-6.159h-.478q-.602 0-.749-.106-.147-.106-.147-.386 0-.239.123-.366.123-.126.356-.126h3.165q1.661 0 2.522.642.861.643.861 1.894t-.854 1.886q-.855.636-2.529.636h-1.197v2.085zM181.324 151.036h.458q.404 0 .568.11.164.109.164.362 0 .28-.144.386-.143.106-.629.106h-1.804q-.253 0-.38-.123-.126-.123-.126-.369 0-.267.147-.369.147-.103.557-.103h.123v-6.159h-.109q-.411 0-.564-.109-.154-.11-.154-.383 0-.253.126-.373.127-.119.393-.119h1.723q.547 0 .694.106.147.105.147.386 0 .273-.185.383-.184.109-.697.109h-.308v2.379h3.275v-2.379h-.465q-.39 0-.557-.116-.168-.116-.168-.376 0-.281.154-.386.154-.106.755-.106h1.668q.247 0 .373.123t.126.369q0 .266-.143.379-.144.113-.513.113h-.164v6.159h.11q.41 0 .56.106.15.106.15.366 0 .28-.143.386-.144.106-.663.106h-1.415q-.554 0-.704-.106-.151-.106-.151-.386 0-.267.178-.369.178-.103.677-.103h.335v-2.844h-3.275zM190.286 151.986q-1.189-.341-1.904-1.452-.714-1.111-.714-2.608 0-1.805 1.066-3.032 1.067-1.227 2.625-1.227 1.573 0 2.636 1.23 1.063 1.231 1.063 3.042 0 1.887-1.033 3.042-1.032 1.156-2.707 1.156h-.263q-.092 0-.181-.014l-.731.718q.41-.164.827-.243.417-.078.868-.078.301 0 .831.16.529.161.782.161.212 0 .51-.127.297-.126.399-.126.171 0 .294.147.123.147.123.345 0 .212-.417.441t-.868.229q-.383 0-1.097-.226-.714-.225-1.077-.225-.512 0-1.09.246-.578.246-.646.246-.15 0-.304-.164t-.154-.342q0-.184.656-.806.315-.301.506-.493zm1.073-.758q1.122 0 1.795-.886.673-.885.673-2.403 0-1.524-.67-2.413-.67-.888-1.798-.888-1.121 0-1.791.888-.669.889-.669 2.413 0 1.525.669 2.407.67.882 1.791.882zM201.935 150.824v-1.627h-1.696q-.205 0-.304-.109t-.099-.335q0-.26.089-.356.089-.095.342-.095h2.953q.178 0 .263.113.085.112.085.338 0 .253-.112.349-.113.095-.4.095h-.089v2.058q0 .184-.041.256-.041.072-.164.14-.39.233-1.135.397t-1.511.164q-1.832 0-2.96-1.169t-1.128-3.049q0-1.88 1.104-3.103 1.104-1.224 2.813-1.224.465 0 .934.106.468.106.974.318.068-.178.188-.257.119-.078.311-.078.321 0 .427.191.106.192.106.882v.93q0 .335-.116.468-.117.133-.404.133-.355 0-.512-.437-.055-.13-.089-.198-.253-.54-.725-.834-.472-.294-1.08-.294-1.224 0-1.955.885-.731.885-.731 2.389 0 1.552.806 2.468.807.916 2.147.916.389 0 .803-.103.413-.102.906-.328zM206.754 148.5h2.796l-1.47-3.623zm.349-3.623h-.998q-.417 0-.585-.113-.167-.113-.167-.379 0-.281.147-.386.147-.106.803-.106h1.948q.376 0 .509.099.134.099.243.365l2.673 6.679h.116q.369 0 .506.103.137.102.137.369 0 .28-.13.386-.13.106-.486.106h-1.859q-.519 0-.666-.106-.147-.106-.147-.386 0-.26.16-.366.161-.106.605-.106h.636l-.663-1.627h-3.473l-.588 1.627h.663q.452 0 .616.106.164.106.164.366 0 .28-.147.386-.147.106-.646.106h-1.798q-.438 0-.581-.106-.144-.106-.144-.386 0-.267.144-.369.143-.103.554-.103h.129zM218.737 150.824v-1.627h-1.695q-.205 0-.304-.109t-.099-.335q0-.26.089-.356.088-.095.341-.095h2.954q.177 0 .263.113.085.112.085.338 0 .253-.113.349-.112.095-.4.095h-.088v2.058q0 .184-.041.256-.041.072-.164.14-.39.233-1.135.397t-1.511.164q-1.832 0-2.96-1.169t-1.128-3.049q0-1.88 1.104-3.103 1.104-1.224 2.813-1.224.465 0 .933.106.469.106.974.318.069-.178.188-.257.12-.078.311-.078.322 0 .428.191.106.192.106.882v.93q0 .335-.117.468-.116.133-.403.133-.355 0-.513-.437-.054-.13-.089-.198-.252-.54-.724-.834-.472-.294-1.08-.294-1.224 0-1.955.885-.732.885-.732 2.389 0 1.552.807 2.468.807.916 2.146.916.39 0 .804-.103.413-.102.905-.328zM224.979 148.637l1.469-4.28q.096-.246.264-.355.167-.109.481-.109h1.122q.218 0 .331.119.113.12.113.345 0 .26-.14.359-.14.099-.516.099h-.11l.192 6.221h.157q.444 0 .595.099.15.099.15.373 0 .239-.123.366-.123.126-.356.126h-1.92q-.397 0-.54-.109-.144-.11-.144-.383 0-.267.171-.369.171-.103.656-.103h.294l-.143-5.879-1.354 3.931q-.103.287-.253.396-.15.11-.451.11-.287 0-.438-.113-.15-.113-.246-.393l-1.374-3.931-.123 5.879h.458q.404 0 .568.11.164.109.164.362 0 .273-.144.383-.143.109-.547.109h-1.914q-.239 0-.359-.123-.119-.123-.119-.369 0-.274.15-.373.15-.099.595-.099h.15l.198-6.221h-.109q-.376 0-.519-.099-.144-.099-.144-.359 0-.225.116-.345.116-.119.335-.119h1.121q.315 0 .482.109.168.109.257.355zM229.983 144.877h-.089q-.342 0-.486-.113-.143-.113-.143-.379 0-.239.123-.366.123-.126.355-.126h2.072q.403 0 .543.109t.14.383q0 .253-.15.372-.151.12-.479.12h-.752l2.324 5.961 2.263-5.961h-.909q-.321 0-.475-.12-.154-.119-.154-.372 0-.274.144-.383.143-.109.54-.109h2.146q.233 0 .352.126.12.127.12.366 0 .266-.144.379-.143.113-.499.113h-.082l-2.461 6.439q-.212.513-.335.64-.123.126-.314.126h-.39q-.451 0-.731-.725l-.014-.041zM243.941 150.824v-1.627h-1.695q-.205 0-.304-.109t-.099-.335q0-.26.089-.356.089-.095.342-.095h2.953q.177 0 .263.113.085.112.085.338 0 .253-.113.349-.112.095-.399.095h-.089v2.058q0 .184-.041.256-.041.072-.164.14-.39.233-1.135.397t-1.511.164q-1.832 0-2.96-1.169t-1.128-3.049q0-1.88 1.104-3.103 1.104-1.224 2.813-1.224.465 0 .933.106.469.106.974.318.069-.178.188-.257.12-.078.311-.078.322 0 .428.191.106.192.106.882v.93q0 .335-.117.468-.116.133-.403.133-.355 0-.513-.437-.054-.13-.088-.198-.253-.54-.725-.834-.472-.294-1.08-.294-1.224 0-1.955.885-.732.885-.732 2.389 0 1.552.807 2.468.807.916 2.147.916.389 0 .803-.103.413-.102.905-.328z" fill="#545454"/><path d="m38.501 160.665-.133.021q-.045.006-.079.006-.212 0-.345-.119-.133-.12-.133-.318 0-.164.116-.287.116-.123.335-.185l2.03-.547q.075-.02.147-.03.072-.011.147-.011.13 0 .205.12.075.12.075.325v7.396h1.094q.608 0 .773.099.164.099.164.373 0 .246-.137.369t-.41.123h-4.088q-.274 0-.41-.123-.137-.123-.137-.369 0-.274.164-.373.164-.099.772-.099h1.135v-6.679zM49.11 164.849v-4.635l-2.59 4.635zM48.372 168q-.328 0-.444-.106-.116-.106-.116-.386 0-.246.119-.359.12-.113.386-.113h.793v-1.148h-3.192q-.171 0-.267-.11-.095-.109-.095-.314v-.472q0-.273.198-.574l.055-.089 2.884-4.894q.096-.171.158-.219.061-.048.164-.048.041 0 .143.014l.055.013.697.11q.096.013.154.106.058.092.058.242v5.196h.349q.15 0 .232-.12.082-.12.185-.12.137 0 .232.103.096.102.096.253 0 .061-.007.113-.007.051-.027.106l-.055.28q-.048.246-.14.335-.092.089-.291.089h-.574v1.148h.239q.438 0 .602.106.164.106.164.366 0 .246-.137.369-.136.123-.41.123zM55.304 160.665l-.133.021q-.045.006-.079.006-.212 0-.345-.119-.134-.12-.134-.318 0-.164.117-.287.116-.123.335-.185l2.03-.547q.075-.02.147-.03.072-.011.147-.011.13 0 .205.12.075.12.075.325v7.396h1.094q.608 0 .772.099.164.099.164.373 0 .246-.136.369-.137.123-.411.123h-4.087q-.274 0-.411-.123-.136-.123-.136-.369 0-.274.164-.373.164-.099.772-.099h1.135v-6.679z"/><path d="M72.346 167.036h.458q.403 0 .567.11.164.109.164.362 0 .273-.143.383-.144.109-.547.109h-2.338q-.232 0-.352-.126-.12-.127-.12-.366 0-.253.134-.362.133-.11.454-.11h.656v-6.159h-.437q-.52 0-.663-.106-.144-.106-.144-.386 0-.239.12-.366.12-.126.352-.126h2.338q.403 0 .547.109.143.109.143.383 0 .273-.184.383-.185.109-.698.109h-.307v2.782l2.85-2.782H74.964q-.335 0-.485-.116-.151-.116-.151-.376 0-.267.116-.38.117-.112.376-.112h2.017q.232 0 .355.126.124.127.124.366 0 .266-.161.379-.161.113-.571.113h-.096l-2.645 2.557q.595.123 1.148.765.554.643 1.723 2.837h.123q.424 0 .567.103.144.102.144.369 0 .239-.12.366-.119.126-.352.126h-.656q-.219 0-.318-.048t-.202-.219q-.061-.095-.758-1.387l-.267-.499q-.431-.8-.861-1.2-.431-.4-.916-.468l-.752.711zM84.22 167.036q.526 0 .673.099.147.099.147.373 0 .28-.147.386-.147.106-.673.106h-4.471q-.246 0-.376-.123t-.13-.369q0-.274.151-.373.15-.099.676-.099h1.545v-6.159H80.07q-.512 0-.67-.106-.157-.106-.157-.386 0-.253.13-.373.13-.119.39-.119H84.541q.246 0 .373.123.126.123.126.369 0 .28-.154.386-.153.106-.666.106h-1.545v6.159zM92.621 167.036q.527 0 .674.099.147.099.147.373 0 .28-.147.386-.147.106-.674.106H88.15q-.246 0-.375-.123-.13-.123-.13-.369 0-.274.15-.373.15-.099.677-.099h1.545v-6.159h-1.545q-.513 0-.67-.106-.157-.106-.157-.386 0-.253.13-.373.129-.119.389-.119h4.778q.247 0 .373.123.127.123.127.369 0 .28-.154.386-.154.106-.667.106h-1.545v6.159zM95.561 160.877h-.089q-.342 0-.486-.113-.143-.113-.143-.379 0-.239.123-.366.123-.126.355-.126h2.072q.403 0 .543.109t.14.383q0 .253-.15.372-.151.12-.479.12h-.752l2.325 5.961 2.262-5.961h-.909q-.321 0-.475-.12-.154-.119-.154-.372 0-.274.144-.383.143-.109.54-.109h2.146q.233 0 .352.126.12.127.12.366 0 .266-.144.379-.143.113-.499.113h-.082l-2.461 6.439q-.211.513-.335.64-.123.126-.314.126h-.39q-.451 0-.731-.725l-.014-.041zM106.273 167.986q-1.19-.341-1.904-1.452-.715-1.111-.715-2.608 0-1.805 1.067-3.032 1.066-1.227 2.625-1.227 1.572 0 2.635 1.23 1.063 1.231 1.063 3.042 0 1.887-1.032 3.042-1.032 1.156-2.707 1.156h-.263q-.093 0-.182-.014l-.731.718q.41-.164.827-.243.417-.078.868-.078.301 0 .831.16.53.161.783.161.212 0 .509-.127.297-.126.4-.126.171 0 .294.147.123.147.123.345 0 .212-.417.441t-.868.229q-.383 0-1.098-.226-.714-.225-1.076-.225-.513 0-1.091.246-.577.246-.646.246-.15 0-.304-.164t-.154-.342q0-.184.657-.806.314-.301.506-.493zm1.073-.758q1.121 0 1.794-.886.674-.885.674-2.403 0-1.524-.67-2.413-.67-.888-1.798-.888-1.121 0-1.791.888-.67.889-.67 2.413 0 1.525.67 2.407.67.882 1.791.882z" fill="#545454"/></svg>