<svg xmlns="http://www.w3.org/2000/svg" width="300" height="200"><path d="M75.115 25.554h148.891v148.892H75.115V25.554z" fill="#FFF" fill-opacity=".199"/><path d="M75.615 100.5h148.891M75.615 125.315h148.891M75.615 150.131h148.891M75.615 174.946h148.891M75.615 75.685h148.891M75.615 50.869h148.891M75.615 26.054h148.891m-74.446 0v148.892M125.245 26.054v148.892M100.43 26.054v148.892M75.615 26.054v148.892m99.261-148.892v148.892m24.815-148.892v148.892m24.815-148.892v148.892" stroke="#DDD" fill="none"/><path d="M224.879 75.332h-74.775c.062.1 1.526.51 3.267.756 2.368.335 3.707.628 5.317 1.162 1.183.392 2.229.714 2.323.714.094 0 .907.446 1.805.99.899.545 1.792 1.084 1.985 1.197 1.297.761 5.133 4.761 6.427 6.702.384.575.86 1.236 1.058 1.468.198.232.523.746.722 1.143.2.397.536.959.748 1.249.212.291.729 1.201 1.151 2.023.421.822.821 1.534.89 1.582.114.081.857 1.74 1.398 3.122.122.314.283.571.356.571.073 0 .216.218.317.484.946 2.483 1.33 3.385 1.443 3.385.074 0 .175.178.225.396.051.218.345 1.029.653 1.802.308.774.602 1.585.652 1.803.051.218.156.396.234.396.078 0 .237.296.354.659.319.995 1.068 2.758 1.214 2.858.071.048.293.563.494 1.143.758 2.187 2.15 5.364 3.237 7.386.208.387.668 1.271 1.022 1.965.355.694.845 1.525 1.09 1.847.246.321.656 1 .913 1.507.258.508.535.924.616.924.082 0 .48.512.886 1.139.405.627.834 1.201.954 1.275.119.075.388.359.599.633.328.428 2.49 2.76 5.173 5.581a74.133 74.133 0 0 1 3.313 3.765 65.202 65.202 0 0 0 1.453 1.702c.268.293.727.882 1.02 1.308.294.427.606.776.695.776.089 0 .263.193.387.429.475.904 3.348 3.971 4.654 4.967.441.337.971.802 1.177 1.032.984 1.103 5.638 3.231 7.086 3.241.209.001.407.073.44.158.145.386 6.992 1.067 7.027.698.012-.131.007-1.187-.011-2.348-.018-1.161-.048-18.214-.066-37.897l-.033-35.787-149.643.094h74.978c-5.472-.736-7.125-1.031-7.238-1.206-.071-.11-.131-.151-.132-.091-.001.06-.537-.036-1.19-.214-.652-.179-1.399-.327-1.66-.33-.26-.003-.516-.074-.569-.159-.052-.085-.444-.243-.871-.35-3.294-.829-8.154-4.416-10.259-7.572-.359-.539-.747-1.063-.862-1.163-.114-.101-.425-.576-.689-1.055a27.873 27.873 0 0 0-.994-1.642c-.281-.423-.795-1.333-1.141-2.023-.346-.689-.678-1.292-.739-1.341-.06-.048-.465-.839-.9-1.758-.436-.919-.831-1.71-.88-1.759-.168-.168-1.582-3.119-1.582-3.302 0-.102-.06-.212-.132-.244-.073-.032-.509-.83-.97-1.773-.462-.943-.902-1.715-.98-1.715-.077 0-.32-.435-.54-.966-1.8-4.343-7.095-10.229-10.392-11.55-.532-.213-1.006-.433-1.055-.488-.385-.439-3.732-1.168-6.594-1.436-1.161-.108-2.229-.242-2.375-.298-.779-.299-22.055-.517-22.234-.227l-.011 42.662h149.764z" fill="#DB2C14" fill-opacity=".718"/><path d="M225.377 151.77c-.035.369-6.882-.312-7.028-.698-.032-.085-.23-.157-.439-.158-1.448-.01-6.102-2.138-7.086-3.241-.206-.23-.736-.695-1.178-1.032-1.305-.996-4.178-4.063-4.653-4.967-.124-.236-.298-.429-.387-.429-.089 0-.402-.349-.695-.776a14.931 14.931 0 0 0-1.02-1.308 65.202 65.202 0 0 1-1.453-1.702 75.132 75.132 0 0 0-3.313-3.765c-2.684-2.821-4.845-5.153-5.174-5.581-.21-.274-.479-.558-.598-.633-.12-.075-.55-.648-.954-1.275-.406-.627-.804-1.139-.886-1.139-.082 0-.359-.416-.616-.924-.257-.507-.668-1.186-.913-1.507-.245-.322-.735-1.153-1.09-1.847-.354-.694-.815-1.578-1.022-1.965-1.087-2.022-2.48-5.199-3.237-7.386-.201-.58-.423-1.095-.494-1.143-.146-.1-.895-1.863-1.215-2.858-.116-.363-.275-.659-.353-.659-.078 0-.183-.178-.234-.396-.05-.218-.344-1.029-.652-1.803-.309-.773-.602-1.584-.653-1.802-.05-.218-.151-.396-.225-.396-.113 0-.498-.902-1.443-3.385-.101-.266-.244-.484-.317-.484-.074 0-.234-.257-.357-.571-.54-1.382-1.283-3.041-1.397-3.122-.069-.048-.469-.76-.891-1.582-.421-.822-.939-1.733-1.151-2.023a10.96 10.96 0 0 1-.747-1.249c-.199-.397-.524-.912-.722-1.143-.198-.232-.674-.893-1.058-1.468-1.294-1.941-5.13-5.941-6.427-6.702-.193-.113-1.087-.652-1.985-1.197-.898-.544-1.711-.99-1.805-.99-.094 0-1.14-.322-2.323-.714-1.61-.534-2.949-.827-5.317-1.162-1.741-.246-3.206-.656-3.268-.756-5.472-.736-7.124-1.031-7.237-1.206-.071-.11-.131-.151-.132-.091-.001.06-.537-.036-1.19-.214-.653-.179-1.4-.327-1.66-.33-.26-.003-.516-.074-.569-.159-.052-.085-.444-.243-.872-.35-3.293-.829-8.153-4.416-10.258-7.572-.359-.539-.748-1.063-.862-1.163-.115-.101-.425-.576-.689-1.055a27.873 27.873 0 0 0-.994-1.642c-.282-.423-.795-1.333-1.141-2.023-.346-.689-.679-1.292-.739-1.341-.06-.048-.465-.839-.901-1.758-.435-.919-.831-1.71-.879-1.759-.169-.168-1.583-3.119-1.583-3.302 0-.102-.059-.212-.131-.244-.073-.032-.51-.83-.971-1.773-.461-.943-.901-1.715-.979-1.715-.077 0-.32-.435-.54-.966-1.8-4.343-7.096-10.229-10.392-11.55-.532-.213-1.007-.433-1.055-.488-.385-.439-3.733-1.168-6.595-1.436-1.16-.108-2.229-.242-2.374-.298-.779-.299-22.056-.517-22.235-.227" stroke="#DB2C14" stroke-width="1.25" fill="none"/><path d="M75.615 75.832h74.987v99.114" stroke="#0095FF" stroke-width="2" stroke-dasharray="6,4" fill="none"/></svg>