<svg xmlns="http://www.w3.org/2000/svg" width="300" height="200"><path d="M37.574 21.514h31.545v36.664H37.574V21.514zm0 37.283h31.545v36.664H37.574V58.797zm0 37.013h31.545v36.664H37.574V95.81z" fill="#55C1E2"/><path d="M133.92 58.797h31.544v36.664H133.92V58.797zm32.115 0h31.544v36.664h-31.544V58.797zm32.115 0h31.544v36.664H198.15V58.797zM133.92 95.81h31.544v36.664H133.92V95.81zm32.115 0h31.544v36.664h-31.544V95.81zm32.115 0h31.544v36.664H198.15V95.81z" fill="#F5D3DC"/><path d="M69.689 58.797h31.545v36.664H69.689V58.797zm32.115 0h31.545v36.664h-31.545V58.797zM69.689 95.81h31.545v36.664H69.689V95.81zm32.115 0h31.545v36.664h-31.545V95.81zm-64.23 37.298h31.545v36.665H37.574v-36.665zm32.115 0h31.545v36.665H69.689v-36.665zm32.115 0h31.545v36.665h-31.545v-36.665zm32.116 0h31.544v36.665H133.92v-36.665z" fill="#BBE3EE"/><path d="M230.881 58.797h31.545v36.664h-31.545V58.797zm0 37.013h31.545v36.664h-31.545V95.81zm0-74.296h31.545v36.664h-31.545V21.514z" fill="#D61B7D"/></svg>