<svg xmlns="http://www.w3.org/2000/svg" width="300" height="200"><path d="M234.116 100c0 46.456-37.66 84.116-84.116 84.116S65.884 146.456 65.884 100 103.544 15.884 150 15.884s84.116 37.66 84.116 84.116z" fill="#FCB425"/><path d="M130.047 125.707h-15.58v-6.342c-1.582 1.985-5.304 4.01-6.919 4.918-2.828 1.582-6.667 2.612-10.268 2.612-5.823 0-11.006-1.839-15.55-5.845-5.419-4.779-7.965-12.086-7.965-19.962 0-8.01 2.777-14.405 8.33-19.184 4.409-3.804 9.801-6.848 15.523-6.848 3.332 0 7.442.299 10.37 1.713 1.683.808 4.695 2.708 6.479 4.559v-33.41h15.58zm-15.929-24.568c0-2.962-.813-6.508-2.899-8.561-2.087-2.087-5.881-3.938-8.843-3.938-3.298 0-6.354 2.399-8.474 4.89-1.717 2.019-2.575 5.133-2.575 7.724 0 2.592.974 5.474 2.69 7.494 2.087 2.491 4.335 4.198 7.667 4.198 2.996 0 6.558-1.258 8.612-3.311 2.086-2.053 3.822-5.501 3.822-8.496z" fill="#231F20"/><path d="M203.135 48.239c-2.592 0-4.796.909-6.614 2.727-1.784 1.783-2.676 3.971-2.676 6.563 0 2.591.892 4.796 2.676 6.614 1.818 1.817 4.022 2.726 6.614 2.726 2.625 0 4.83-.892 6.614-2.676 1.817-1.817 2.726-4.039 2.726-6.664 0-2.592-.909-4.78-2.726-6.563-1.818-1.818-4.023-2.727-6.614-2.727zm-41.018 26.142c-9.626 0-17.047 3.001-22.264 9.002-4.308 4.971-6.462 10.67-6.462 17.097 0 7.137 2.137 13.156 6.411 18.057 5.184 5.965 12.454 8.948 21.81 8.948 9.323 0 16.577-2.983 21.76-8.948 4.274-4.901 6.412-10.777 6.412-17.63 0-6.783-2.154-12.624-6.463-17.524-5.284-6.001-12.352-9.002-21.204-9.002zm32.738 1.823v49.464h16.56V76.204h-16.56zm-33.243 13.25c3.03 0 5.604 1.12 7.725 3.357 2.154 2.202 3.231 4.9 3.231 8.096 0 3.231-1.06 5.964-3.181 8.201-2.12 2.202-4.712 3.305-7.775 3.305-3.433 0-6.226-1.351-8.38-4.049-1.751-2.167-2.626-4.652-2.626-7.457 0-2.77.875-5.238 2.626-7.404 2.154-2.699 4.947-4.049 8.38-4.049z" fill="#FFF"/></svg>