<svg xmlns="http://www.w3.org/2000/svg" width="300" height="200"><path d="M57.564 38.146h182.965M57.564 71.961h182.965m-182.005 67.63h182.964M58.524 105.776h182.964M212.72 27.377v145.246M174.075 27.377v145.246M96.783 28.247v144.196m38.646-144.196v144.286" stroke="#DDD" stroke-linecap="round" opacity=".75" fill="none"/><path d="M241.126 172.121H148.48c.969-.483 5.834-3.197 11.812-4.24 3.275-.571 6.921.217 11.693.924 11.522 1.706 26.647-13.675 29.438-16.932 2.438-2.846 8.682-12.385 14.189-31.582 2.762-9.629 3.943-22.173 4.557-36.909 1.734-41.608 2.271-35.304 3.869 6.679.866 22.768 1.037 43.513 3.806 58.353 1.304 6.991 3.193 13.246 6.287 17.023 4.229 5.162 5.623 6.371 6.995 6.001" fill="#016F10" opacity=".3"/><path d="M57.576 107.065c.001 0 13.851-7.309 16.135-11.515 2.286-4.207 2.752-3.089 4.848-20.134 2.095-17.032 2.256-24.971 4.571.138 1.545 22.63 3.488 42.61 6.086 58.415 3.991 24.287 5.93 36.925 17.551 37.761l-49.191.391v-65.056" fill="#016F10" opacity=".3"/><path d="M148.737 172.121c.967-.483 5.817-3.197 11.779-4.24 3.266-.571 6.902.217 11.661.924 11.49 1.706 26.573-13.675 29.356-16.932 2.431-2.846 8.658-12.385 14.15-31.582 2.754-9.629 3.931-22.173 4.544-36.909 1.73-41.608 2.265-35.304 3.858 6.679.864 22.768 1.035 43.513 3.796 58.353 1.3 6.991 3.184 13.246 6.27 17.023 4.216 5.162 5.607 6.371 6.975 6.001M58.079 107.065s13.811-7.309 16.09-11.515c2.279-4.207 2.744-3.089 4.834-20.134 2.089-17.032 2.25-24.971 4.558.138 1.541 22.63 3.479 42.609 6.069 58.415 3.981 24.287 5.914 36.925 17.503 37.762" stroke="#006F10" stroke-width="3" stroke-dasharray="3.6 3.6" stroke-linecap="round" fill="none"/><g><path d="M231.747 172.623c-10.054-3.349-17.448-6.23-22.841-10.052-8.327-5.9-10.871-23.376-12.171-39.601-3.545-44.245-7.571-34.575-10.283 0-1.067 13.61-4.004 23.215-7.167 30.156-5.291 11.61-23.188 15.432-40.723 15.735-7.508.13-13.326-1.277-17.456-2.764-7.705-2.777-11.072-10.242-12.023-21.777-1.371-16.649-3.819-104.79-4.308-111.352-.49-6.561-2.195.139-2.195.139s-1.9 13.432-4.933 29.228c-.813 4.232-2.07 8.814-2.959 13.137-5.515 26.804-9.046 23.756-14.633 27.486-2.491 1.661-3.639 2.637-6.349 10.872-.826 2.512-2.007 5.558-2.817 9.532-3.89 19.088-13.319 21.154-13.319 21.154v28.107h174.177" fill="#016F10" opacity=".3"/><path d="M58.072 143.71s9.402-2.052 13.281-21.005c.808-3.946 1.985-6.971 2.809-9.465 2.702-8.177 3.847-9.146 6.33-10.796 5.572-3.703 9.092-.676 14.591-27.292.886-4.292 2.14-8.842 2.951-13.045 3.024-15.684 4.918-29.021 4.918-29.021s1.701-6.653 2.189-.138c.488 6.516 2.929 94.035 4.296 110.567.948 11.454 4.305 18.866 11.988 21.623 4.119 1.478 9.919 2.874 17.406 2.745 17.484-.301 35.329-4.095 40.605-15.624 3.154-6.892 6.082-16.43 7.147-29.943 2.704-34.332 6.718-43.934 10.253 0 1.296 16.11 3.833 33.463 12.135 39.321 5.379 3.796 12.751 6.656 22.776 9.982" stroke="#006F10" stroke-width="3" stroke-linecap="round" stroke-linejoin="round" fill="none"/></g><path d="M57.57 27.377v145.246h184.86" stroke="#686868" stroke-width="2" fill="none"/></svg>