<svg xmlns="http://www.w3.org/2000/svg" width="300" height="200"><path d="m68.249 36.673-6.776-3.096q-.427-.195-.603-.385t-.176-.431q0-.269.162-.427.163-.157.441-.157.139 0 .31.051.172.051.431.171l7.37 3.384.111.055q.834.371.834.835 0 .454-.816.834-.092.037-.129.055l-7.37 3.439-.037.019q-.482.213-.704.213-.278 0-.441-.167-.162-.167-.162-.445 0-.241.176-.431t.603-.384z" fill="#FCB425"/><path d="m68.249 36.673-6.776-3.096q-.427-.195-.603-.385t-.176-.431q0-.269.162-.427.163-.157.441-.157.139 0 .31.051.172.051.431.171l7.37 3.384.111.055q.834.371.834.835 0 .454-.816.834-.092.037-.129.055l-7.37 3.439-.037.019q-.482.213-.704.213-.278 0-.441-.167-.162-.167-.162-.445 0-.241.176-.431t.603-.384z" stroke="#FCB425" stroke-width=".5" fill="none"/><path d="M79.697 34.494q.454 0 .663.158.208.157.208.5 0 .325-.195.487-.194.162-.584.162h-3.754v3.096q0 1.52.394 2.002.394.482 1.349.482.844 0 2.021-.491t1.455-.491q.26 0 .44.185.181.186.181.454 0 .306-.227.533-.227.228-.774.441-.908.361-1.636.528-.728.167-1.367.167-1.085 0-1.822-.348-.737-.347-1.098-1.033-.186-.325-.264-.77-.079-.444-.079-1.371v-3.384h-1.576q-.389 0-.565-.153-.177-.153-.177-.496 0-.38.241-.519t1.029-.139h1.048v-2.391q0-.399.171-.589.172-.19.533-.19.408 0 .566.232.157.231.157 1.056v1.882z" fill="#FCB425"/><path d="M79.697 34.494q.454 0 .663.158.208.157.208.5 0 .325-.195.487-.194.162-.584.162h-3.754v3.096q0 1.52.394 2.002.394.482 1.349.482.844 0 2.021-.491t1.455-.491q.26 0 .44.185.181.186.181.454 0 .306-.227.533-.227.228-.774.441-.908.361-1.636.528-.728.167-1.367.167-1.085 0-1.822-.348-.737-.347-1.098-1.033-.186-.325-.264-.77-.079-.444-.079-1.371v-3.384h-1.576q-.389 0-.565-.153-.177-.153-.177-.496 0-.38.241-.519t1.029-.139h1.048v-2.391q0-.399.171-.589.172-.19.533-.19.408 0 .566.232.157.231.157 1.056v1.882z" stroke="#FCB425" stroke-width=".5" fill="none"/><path d="M87.65 41.233h3.078q.361 0 .533.153.171.153.171.487 0 .38-.162.523-.162.144-.598.144H84.61q-.362 0-.547-.167-.186-.167-.186-.5 0-.325.19-.482.19-.158.589-.158h1.613v-5.942h-.63q-.9 0-1.122-.143-.223-.144-.223-.524 0-.324.181-.487.181-.162.552-.162h2.113q.251 0 .38.097.13.098.13.283v1.576q.881-1.103 1.835-1.641.955-.537 2.058-.537.825 0 1.335.333.51.334.51.862 0 .343-.255.608-.255.264-.561.264-.213 0-.718-.283t-.904-.283q-.723 0-1.525.515-.802.514-1.775 1.627z" fill="#FCB425"/><path d="M87.65 41.233h3.078q.361 0 .533.153.171.153.171.487 0 .38-.162.523-.162.144-.598.144H84.61q-.362 0-.547-.167-.186-.167-.186-.5 0-.325.19-.482.19-.158.589-.158h1.613v-5.942h-.63q-.9 0-1.122-.143-.223-.144-.223-.524 0-.324.181-.487.181-.162.552-.162h2.113q.251 0 .38.097.13.098.13.283v1.576q.881-1.103 1.835-1.641.955-.537 2.058-.537.825 0 1.335.333.51.334.51.862 0 .343-.255.608-.255.264-.561.264-.213 0-.718-.283t-.904-.283q-.723 0-1.525.515-.802.514-1.775 1.627z" stroke="#FCB425" stroke-width=".5" fill="none"/><path d="M99.385 27.866h1.122v19.346h-1.122z" fill="#FCB425"/><path d="M99.385 27.866h1.122v19.346h-1.122z" stroke="#FCB425" stroke-width=".5" fill="none"/><path d="M109.434 37.794h3.791l-1.993-4.913zm.472-4.913h-1.353q-.566 0-.793-.153-.227-.153-.227-.514 0-.38.2-.524.199-.144 1.089-.144h2.642q.509 0 .69.135.181.134.329.496l3.625 9.056h.157q.501 0 .686.139.185.139.185.501 0 .38-.176.523-.176.144-.658.144h-2.521q-.705 0-.904-.144-.199-.143-.199-.523 0-.352.218-.496.218-.144.82-.144h.862l-.899-2.206h-4.709l-.797 2.206h.899q.612 0 .834.144.223.144.223.496 0 .38-.2.523-.199.144-.876.144h-2.437q-.594 0-.788-.144-.195-.143-.195-.523 0-.362.195-.501.194-.139.75-.139h.177z" fill="#FCB425"/><path d="M109.434 37.794h3.791l-1.993-4.913zm.472-4.913h-1.353q-.566 0-.793-.153-.227-.153-.227-.514 0-.38.2-.524.199-.144 1.089-.144h2.642q.509 0 .69.135.181.134.329.496l3.625 9.056h.157q.501 0 .686.139.185.139.185.501 0 .38-.176.523-.176.144-.658.144h-2.521q-.705 0-.904-.144-.199-.143-.199-.523 0-.352.218-.496.218-.144.82-.144h.862l-.899-2.206h-4.709l-.797 2.206h.899q.612 0 .834.144.223.144.223.496 0 .38-.2.523-.199.144-.876.144h-2.437q-.594 0-.788-.144-.195-.143-.195-.523 0-.362.195-.501.194-.139.75-.139h.177z" stroke="#FCB425" stroke-width=".5" fill="none"/><path d="M120.483 39.351q0 .983.616 1.595.617.612 1.636.612 1.029 0 1.646-.594.616-.593.616-1.575 0-.965-.63-1.562-.631-.598-1.632-.598-.992 0-1.622.588-.63.589-.63 1.534zm.093-5.524q0 .917.607 1.501.607.584 1.552.584.955 0 1.562-.588.607-.589.607-1.516 0-.89-.607-1.469-.607-.579-1.562-.579-.954 0-1.557.579-.602.579-.602 1.488zm.305 2.716q-.899-.445-1.353-1.126-.454-.682-.454-1.59 0-1.437 1.029-2.359 1.029-.923 2.632-.923 1.576 0 2.624.927 1.047.927 1.047 2.262 0 .992-.445 1.678-.445.686-1.381 1.131.936.38 1.437 1.117.5.737.5 1.729 0 1.529-1.052 2.493t-2.73.964q-1.677 0-2.725-.973-1.047-.974-1.047-2.522 0-.945.5-1.682.501-.737 1.418-1.126z" fill="#FCB425"/><path d="M120.483 39.351q0 .983.616 1.595.617.612 1.636.612 1.029 0 1.646-.594.616-.593.616-1.575 0-.965-.63-1.562-.631-.598-1.632-.598-.992 0-1.622.588-.63.589-.63 1.534zm.093-5.524q0 .917.607 1.501.607.584 1.552.584.955 0 1.562-.588.607-.589.607-1.516 0-.89-.607-1.469-.607-.579-1.562-.579-.954 0-1.557.579-.602.579-.602 1.488zm.305 2.716q-.899-.445-1.353-1.126-.454-.682-.454-1.59 0-1.437 1.029-2.359 1.029-.923 2.632-.923 1.576 0 2.624.927 1.047.927 1.047 2.262 0 .992-.445 1.678-.445.686-1.381 1.131.936.38 1.437 1.117.5.737.5 1.729 0 1.529-1.052 2.493t-2.73.964q-1.677 0-2.725-.973-1.047-.974-1.047-2.522 0-.945.5-1.682.501-.737 1.418-1.126z" stroke="#FCB425" stroke-width=".5" fill="none"/><path d="M135.537 32.881h-2.503q-.695 0-.899-.143-.204-.144-.204-.524 0-.343.162-.505.162-.163.524-.163h6.016q.333 0 .495.167.163.167.163.501 0 .38-.204.524-.204.143-.89.143h-1.196v5.924q0 2.122-.899 3.063-.899.941-2.901.941-.872 0-1.66-.199-.788-.2-1.566-.617-.325-.176-.427-.347-.102-.172-.102-.626v-2.178q0-.649.135-.811.134-.163.468-.163.222 0 .38.088t.232.255q.037.093.055.223.019.13.019.463v.093q0 .306.028.561.028.255.083.505.204.732.807 1.154.602.422 1.455.422 1.279 0 1.854-.719.575-.718.575-2.34z" fill="#FCB425"/><path d="M135.537 32.881h-2.503q-.695 0-.899-.143-.204-.144-.204-.524 0-.343.162-.505.162-.163.524-.163h6.016q.333 0 .495.167.163.167.163.501 0 .38-.204.524-.204.143-.89.143h-1.196v5.924q0 2.122-.899 3.063-.899.941-2.901.941-.872 0-1.66-.199-.788-.2-1.566-.617-.325-.176-.427-.347-.102-.172-.102-.626v-2.178q0-.649.135-.811.134-.163.468-.163.222 0 .38.088t.232.255q.037.093.055.223.019.13.019.463v.093q0 .306.028.561.028.255.083.505.204.732.807 1.154.602.422 1.455.422 1.279 0 1.854-.719.575-.718.575-2.34z" stroke="#FCB425" stroke-width=".5" fill="none"/><path d="M143.304 41.233h.621q.547 0 .77.148.222.149.222.492 0 .38-.194.523-.195.144-.853.144h-2.447q-.343 0-.515-.167-.171-.167-.171-.5 0-.362.199-.501t.756-.139h.166v-8.352h-.148q-.556 0-.765-.148-.208-.148-.208-.519 0-.343.171-.505.172-.163.533-.163h2.336q.742 0 .941.144.199.144.199.524 0 .371-.25.519-.25.148-.945.148h-.418v3.226h4.441v-3.226h-.631q-.528 0-.755-.157-.227-.158-.227-.51 0-.38.208-.524.209-.144 1.025-.144h2.261q.334 0 .505.167.172.167.172.501 0 .361-.195.514-.194.153-.695.153h-.222v8.352h.148q.556 0 .76.144.204.144.204.496 0 .38-.195.523-.194.144-.899.144h-1.919q-.75 0-.954-.144-.204-.143-.204-.523 0-.362.241-.501t.917-.139h.455v-3.856h-4.441z" fill="#FCB425"/><path d="M143.304 41.233h.621q.547 0 .77.148.222.149.222.492 0 .38-.194.523-.195.144-.853.144h-2.447q-.343 0-.515-.167-.171-.167-.171-.5 0-.362.199-.501t.756-.139h.166v-8.352h-.148q-.556 0-.765-.148-.208-.148-.208-.519 0-.343.171-.505.172-.163.533-.163h2.336q.742 0 .941.144.199.144.199.524 0 .371-.25.519-.25.148-.945.148h-.418v3.226h4.441v-3.226h-.631q-.528 0-.755-.157-.227-.158-.227-.51 0-.38.208-.524.209-.144 1.025-.144h2.261q.334 0 .505.167.172.167.172.501 0 .361-.195.514-.194.153-.695.153h-.222v8.352h.148q.556 0 .76.144.204.144.204.496 0 .38-.195.523-.194.144-.899.144h-1.919q-.75 0-.954-.144-.204-.143-.204-.523 0-.362.241-.501t.917-.139h.455v-3.856h-4.441z" stroke="#FCB425" stroke-width=".5" fill="none"/><path d="M154.919 38.934q0 1.14.603 1.859.602.718 1.548.718.89 0 1.46-.676.57-.677.57-1.771 0-1.131-.589-1.835-.588-.705-1.515-.705-.9 0-1.488.677-.589.677-.589 1.733zm-.204-2.465q.501-.649 1.113-.974.611-.324 1.334-.324 1.465 0 2.489 1.103 1.025 1.103 1.025 2.716 0 1.687-.992 2.772-.992 1.084-2.54 1.084-1.826 0-2.925-1.451-1.098-1.45-1.098-3.87 0-3.151 1.622-5.065 1.622-1.915 4.283-1.915.899 0 1.186.13.287.13.287.491 0 .594-1.093.612-.723.009-1.159.093-1.465.278-2.378 1.469t-1.154 3.129z" fill="#FCB425"/><path d="M154.919 38.934q0 1.14.603 1.859.602.718 1.548.718.89 0 1.46-.676.57-.677.57-1.771 0-1.131-.589-1.835-.588-.705-1.515-.705-.9 0-1.488.677-.589.677-.589 1.733zm-.204-2.465q.501-.649 1.113-.974.611-.324 1.334-.324 1.465 0 2.489 1.103 1.025 1.103 1.025 2.716 0 1.687-.992 2.772-.992 1.084-2.54 1.084-1.826 0-2.925-1.451-1.098-1.45-1.098-3.87 0-3.151 1.622-5.065 1.622-1.915 4.283-1.915.899 0 1.186.13.287.13.287.491 0 .594-1.093.612-.723.009-1.159.093-1.465.278-2.378 1.469t-1.154 3.129z" stroke="#FCB425" stroke-width=".5" fill="none"/><path d="M166.052 39.351q0 .983.616 1.595.617.612 1.636.612 1.029 0 1.646-.594.616-.593.616-1.575 0-.965-.63-1.562-.63-.598-1.632-.598-.991 0-1.622.588-.63.589-.63 1.534zm.093-5.524q0 .917.607 1.501.607.584 1.552.584.955 0 1.562-.588.607-.589.607-1.516 0-.89-.607-1.469-.607-.579-1.562-.579-.954 0-1.557.579-.602.579-.602 1.488zm.306 2.716q-.9-.445-1.354-1.126-.454-.682-.454-1.59 0-1.437 1.029-2.359 1.029-.923 2.632-.923 1.576 0 2.624.927 1.047.927 1.047 2.262 0 .992-.445 1.678-.445.686-1.381 1.131.936.38 1.437 1.117.5.737.5 1.729 0 1.529-1.052 2.493t-2.73.964q-1.677 0-2.725-.973-1.047-.974-1.047-2.522 0-.945.5-1.682.501-.737 1.419-1.126z" fill="#FCB425"/><path d="M166.052 39.351q0 .983.616 1.595.617.612 1.636.612 1.029 0 1.646-.594.616-.593.616-1.575 0-.965-.63-1.562-.63-.598-1.632-.598-.991 0-1.622.588-.63.589-.63 1.534zm.093-5.524q0 .917.607 1.501.607.584 1.552.584.955 0 1.562-.588.607-.589.607-1.516 0-.89-.607-1.469-.607-.579-1.562-.579-.954 0-1.557.579-.602.579-.602 1.488zm.306 2.716q-.9-.445-1.354-1.126-.454-.682-.454-1.59 0-1.437 1.029-2.359 1.029-.923 2.632-.923 1.576 0 2.624.927 1.047.927 1.047 2.262 0 .992-.445 1.678-.445.686-1.381 1.131.936.38 1.437 1.117.5.737.5 1.729 0 1.529-1.052 2.493t-2.73.964q-1.677 0-2.725-.973-1.047-.974-1.047-2.522 0-.945.5-1.682.501-.737 1.419-1.126z" stroke="#FCB425" stroke-width=".5" fill="none"/><path d="M179.131 27.866h1.122v19.346h-1.122z" fill="#FCB425"/><path d="M179.131 27.866h1.122v19.346h-1.122z" stroke="#FCB425" stroke-width=".5" fill="none"/><path d="M189.179 37.794h3.792l-1.993-4.913zm.473-4.913h-1.353q-.566 0-.793-.153-.227-.153-.227-.514 0-.38.199-.524.2-.144 1.09-.144h2.641q.51 0 .691.135.181.134.329.496l3.625 9.056h.157q.501 0 .686.139.185.139.185.501 0 .38-.176.523-.176.144-.658.144h-2.521q-.705 0-.904-.144-.199-.143-.199-.523 0-.352.218-.496.217-.144.82-.144h.862l-.899-2.206h-4.709l-.797 2.206h.899q.612 0 .834.144.223.144.223.496 0 .38-.2.523-.199.144-.876.144h-2.438q-.593 0-.787-.144-.195-.143-.195-.523 0-.362.195-.501.194-.139.75-.139h.177z" fill="#FCB425"/><path d="M189.179 37.794h3.792l-1.993-4.913zm.473-4.913h-1.353q-.566 0-.793-.153-.227-.153-.227-.514 0-.38.199-.524.2-.144 1.09-.144h2.641q.51 0 .691.135.181.134.329.496l3.625 9.056h.157q.501 0 .686.139.185.139.185.501 0 .38-.176.523-.176.144-.658.144h-2.521q-.705 0-.904-.144-.199-.143-.199-.523 0-.352.218-.496.217-.144.82-.144h.862l-.899-2.206h-4.709l-.797 2.206h.899q.612 0 .834.144.223.144.223.496 0 .38-.2.523-.199.144-.876.144h-2.438q-.593 0-.787-.144-.195-.143-.195-.523 0-.362.195-.501.194-.139.75-.139h.177z" stroke="#FCB425" stroke-width=".5" fill="none"/><path d="M200.229 39.351q0 .983.616 1.595.617.612 1.636.612 1.029 0 1.646-.594.616-.593.616-1.575 0-.965-.63-1.562-.631-.598-1.632-.598-.992 0-1.622.588-.63.589-.63 1.534zm.092-5.524q0 .917.608 1.501.607.584 1.552.584.955 0 1.562-.588.607-.589.607-1.516 0-.89-.607-1.469-.607-.579-1.562-.579-.955 0-1.557.579-.603.579-.603 1.488zm.306 2.716q-.899-.445-1.353-1.126-.454-.682-.454-1.59 0-1.437 1.029-2.359 1.029-.923 2.632-.923 1.576 0 2.624.927 1.047.927 1.047 2.262 0 .992-.445 1.678-.445.686-1.381 1.131.936.38 1.437 1.117.5.737.5 1.729 0 1.529-1.052 2.493t-2.73.964q-1.678 0-2.725-.973-1.047-.974-1.047-2.522 0-.945.5-1.682.501-.737 1.418-1.126z" fill="#FCB425"/><path d="M200.229 39.351q0 .983.616 1.595.617.612 1.636.612 1.029 0 1.646-.594.616-.593.616-1.575 0-.965-.63-1.562-.631-.598-1.632-.598-.992 0-1.622.588-.63.589-.63 1.534zm.092-5.524q0 .917.608 1.501.607.584 1.552.584.955 0 1.562-.588.607-.589.607-1.516 0-.89-.607-1.469-.607-.579-1.562-.579-.955 0-1.557.579-.603.579-.603 1.488zm.306 2.716q-.899-.445-1.353-1.126-.454-.682-.454-1.59 0-1.437 1.029-2.359 1.029-.923 2.632-.923 1.576 0 2.624.927 1.047.927 1.047 2.262 0 .992-.445 1.678-.445.686-1.381 1.131.936.38 1.437 1.117.5.737.5 1.729 0 1.529-1.052 2.493t-2.73.964q-1.678 0-2.725-.973-1.047-.974-1.047-2.522 0-.945.5-1.682.501-.737 1.418-1.126z" stroke="#FCB425" stroke-width=".5" fill="none"/><path d="M215.282 32.881h-2.502q-.696 0-.899-.143-.204-.144-.204-.524 0-.343.162-.505.162-.163.524-.163h6.016q.333 0 .495.167.163.167.163.501 0 .38-.204.524-.204.143-.89.143h-1.196v5.924q0 2.122-.899 3.063-.899.941-2.901.941-.872 0-1.66-.199-.788-.2-1.566-.617-.325-.176-.427-.347-.102-.172-.102-.626v-2.178q0-.649.135-.811.134-.163.468-.163.222 0 .38.088t.232.255q.037.093.055.223.019.13.019.463v.093q0 .306.028.561.027.255.083.505.204.732.807 1.154.602.422 1.455.422 1.279 0 1.854-.719.574-.718.574-2.34z" fill="#FCB425"/><path d="M215.282 32.881h-2.502q-.696 0-.899-.143-.204-.144-.204-.524 0-.343.162-.505.162-.163.524-.163h6.016q.333 0 .495.167.163.167.163.501 0 .38-.204.524-.204.143-.89.143h-1.196v5.924q0 2.122-.899 3.063-.899.941-2.901.941-.872 0-1.66-.199-.788-.2-1.566-.617-.325-.176-.427-.347-.102-.172-.102-.626v-2.178q0-.649.135-.811.134-.163.468-.163.222 0 .38.088t.232.255q.037.093.055.223.019.13.019.463v.093q0 .306.028.561.027.255.083.505.204.732.807 1.154.602.422 1.455.422 1.279 0 1.854-.719.574-.718.574-2.34z" stroke="#FCB425" stroke-width=".5" fill="none"/><path d="M223.05 41.233h.621q.547 0 .77.148.222.149.222.492 0 .38-.194.523-.195.144-.853.144h-2.447q-.343 0-.515-.167-.171-.167-.171-.5 0-.362.199-.501t.755-.139h.167v-8.352h-.148q-.556 0-.765-.148-.208-.148-.208-.519 0-.343.171-.505.172-.163.533-.163h2.336q.742 0 .941.144.199.144.199.524 0 .371-.25.519-.25.148-.946.148h-.417v3.226h4.44v-3.226h-.63q-.528 0-.755-.157-.227-.158-.227-.51 0-.38.208-.524.209-.144 1.024-.144h2.262q.334 0 .505.167.172.167.172.501 0 .361-.195.514-.194.153-.695.153h-.222v8.352h.148q.556 0 .76.144.204.144.204.496 0 .38-.195.523-.194.144-.899.144h-1.919q-.751 0-.955-.144-.203-.143-.203-.523 0-.362.241-.501t.917-.139h.454v-3.856h-4.44z" fill="#FCB425"/><path d="M223.05 41.233h.621q.547 0 .77.148.222.149.222.492 0 .38-.194.523-.195.144-.853.144h-2.447q-.343 0-.515-.167-.171-.167-.171-.5 0-.362.199-.501t.755-.139h.167v-8.352h-.148q-.556 0-.765-.148-.208-.148-.208-.519 0-.343.171-.505.172-.163.533-.163h2.336q.742 0 .941.144.199.144.199.524 0 .371-.25.519-.25.148-.946.148h-.417v3.226h4.44v-3.226h-.63q-.528 0-.755-.157-.227-.158-.227-.51 0-.38.208-.524.209-.144 1.024-.144h2.262q.334 0 .505.167.172.167.172.501 0 .361-.195.514-.194.153-.695.153h-.222v8.352h.148q.556 0 .76.144.204.144.204.496 0 .38-.195.523-.194.144-.899.144h-1.919q-.751 0-.955-.144-.203-.143-.203-.523 0-.362.241-.501t.917-.139h.454v-3.856h-4.44z" stroke="#FCB425" stroke-width=".5" fill="none"/><path d="M234.665 38.934q0 1.14.603 1.859.602.718 1.548.718.89 0 1.46-.676.57-.677.57-1.771 0-1.131-.589-1.835-.589-.705-1.516-.705-.899 0-1.487.677-.589.677-.589 1.733zm-.204-2.465q.501-.649 1.113-.974.611-.324 1.334-.324 1.465 0 2.489 1.103 1.024 1.103 1.024 2.716 0 1.687-.991 2.772-.992 1.084-2.54 1.084-1.826 0-2.925-1.451-1.098-1.45-1.098-3.87 0-3.151 1.622-5.065 1.622-1.915 4.282-1.915.9 0 1.187.13.287.13.287.491 0 .594-1.093.612-.723.009-1.159.093-1.465.278-2.378 1.469t-1.154 3.129z" fill="#FCB425"/><path d="M234.665 38.934q0 1.14.603 1.859.602.718 1.548.718.89 0 1.46-.676.57-.677.57-1.771 0-1.131-.589-1.835-.589-.705-1.516-.705-.899 0-1.487.677-.589.677-.589 1.733zm-.204-2.465q.501-.649 1.113-.974.611-.324 1.334-.324 1.465 0 2.489 1.103 1.024 1.103 1.024 2.716 0 1.687-.991 2.772-.992 1.084-2.54 1.084-1.826 0-2.925-1.451-1.098-1.45-1.098-3.87 0-3.151 1.622-5.065 1.622-1.915 4.282-1.915.9 0 1.187.13.287.13.287.491 0 .594-1.093.612-.723.009-1.159.093-1.465.278-2.378 1.469t-1.154 3.129z" stroke="#FCB425" stroke-width=".5" fill="none"/><path d="M245.798 39.351q0 .983.616 1.595.617.612 1.636.612 1.029 0 1.646-.594.616-.593.616-1.575 0-.965-.63-1.562-.631-.598-1.632-.598-.992 0-1.622.588-.63.589-.63 1.534zm.093-5.524q0 .917.607 1.501.607.584 1.552.584.955 0 1.562-.588.607-.589.607-1.516 0-.89-.607-1.469-.607-.579-1.562-.579-.954 0-1.557.579-.602.579-.602 1.488zm.305 2.716q-.899-.445-1.353-1.126-.454-.682-.454-1.59 0-1.437 1.029-2.359 1.029-.923 2.632-.923 1.576 0 2.624.927 1.047.927 1.047 2.262 0 .992-.445 1.678-.445.686-1.381 1.131.936.38 1.437 1.117.5.737.5 1.729 0 1.529-1.052 2.493t-2.73.964q-1.677 0-2.725-.973-1.047-.974-1.047-2.522 0-.945.5-1.682.501-.737 1.418-1.126z" fill="#FCB425"/><path d="M245.798 39.351q0 .983.616 1.595.617.612 1.636.612 1.029 0 1.646-.594.616-.593.616-1.575 0-.965-.63-1.562-.631-.598-1.632-.598-.992 0-1.622.588-.63.589-.63 1.534zm.093-5.524q0 .917.607 1.501.607.584 1.552.584.955 0 1.562-.588.607-.589.607-1.516 0-.89-.607-1.469-.607-.579-1.562-.579-.954 0-1.557.579-.602.579-.602 1.488zm.305 2.716q-.899-.445-1.353-1.126-.454-.682-.454-1.59 0-1.437 1.029-2.359 1.029-.923 2.632-.923 1.576 0 2.624.927 1.047.927 1.047 2.262 0 .992-.445 1.678-.445.686-1.381 1.131.936.38 1.437 1.117.5.737.5 1.729 0 1.529-1.052 2.493t-2.73.964q-1.677 0-2.725-.973-1.047-.974-1.047-2.522 0-.945.5-1.682.501-.737 1.418-1.126z" stroke="#FCB425" stroke-width=".5" fill="none"/><path d="m85.843 53.79-.181.028q-.06.009-.106.009-.288 0-.468-.162-.181-.162-.181-.431 0-.223.157-.39.158-.166.455-.25l2.753-.741q.102-.028.199-.042.097-.014.199-.014.176 0 .278.162.102.162.102.441v10.029h1.483q.825 0 1.048.135.222.134.222.505 0 .333-.185.5-.185.167-.556.167h-5.543q-.371 0-.557-.167-.185-.167-.185-.5 0-.371.223-.505.222-.135 1.047-.135h1.539v-9.056z"/><path d="m110.862 59.176 1.993-5.803q.129-.334.356-.482.227-.148.654-.148h1.52q.297 0 .45.162.153.162.153.468 0 .352-.19.486-.19.135-.7.135h-.149l.26 8.435h.213q.603 0 .807.135.204.134.204.505 0 .324-.167.496-.167.171-.482.171h-2.605q-.538 0-.732-.148-.195-.148-.195-.519 0-.362.232-.501.231-.139.89-.139h.398l-.194-7.972-1.836 5.33q-.139.39-.343.538-.204.148-.612.148-.389 0-.593-.153-.204-.153-.334-.533l-1.863-5.33-.167 7.972h.621q.547 0 .77.149.222.148.222.491 0 .371-.194.519-.195.148-.742.148h-2.595q-.325 0-.487-.167-.162-.167-.162-.5 0-.371.204-.505.204-.135.806-.135h.204l.269-8.435h-.148q-.51 0-.705-.135-.195-.134-.195-.486 0-.306.158-.468.158-.162.454-.162h1.52q.427 0 .654.148.227.148.348.482zm9.482 3.253h.621q.547 0 .77.149.222.148.222.491 0 .371-.194.519-.195.148-.742.148h-3.17q-.315 0-.478-.171-.162-.172-.162-.496 0-.343.181-.491.181-.149.616-.149h.89v-8.352h-.593q-.704 0-.899-.143-.195-.144-.195-.524 0-.325.162-.496.163-.171.478-.171h3.17q.547 0 .742.148.194.148.194.519t-.25.519q-.25.148-.946.148h-.417v3.773l3.866-3.773h-.315q-.455 0-.659-.157-.204-.158-.204-.51 0-.362.158-.515.158-.152.51-.152h2.734q.316 0 .482.171.167.171.167.496 0 .361-.218.514-.217.153-.774.153h-.129l-3.588 3.467q.807.167 1.558 1.038.75.872 2.336 3.847h.166q.575 0 .77.139.194.139.194.501 0 .324-.162.496-.162.171-.477.171h-.89q-.297 0-.431-.065t-.274-.296q-.083-.13-1.028-1.882l-.362-.677q-.584-1.084-1.168-1.627-.584-.542-1.242-.634l-1.02.964zm11.374-3.439h3.791l-1.993-4.913zm.473-4.913h-1.354q-.565 0-.792-.153-.227-.153-.227-.514 0-.38.199-.524.199-.143 1.089-.143h2.642q.51 0 .691.134.18.134.329.496l3.624 9.056h.158q.5 0 .686.139.185.139.185.501 0 .38-.176.524-.176.143-.658.143h-2.522q-.704 0-.903-.143-.2-.144-.2-.524 0-.352.218-.496.218-.144.821-.144h.862l-.899-2.206h-4.709l-.798 2.206h.9q.611 0 .834.144.222.144.222.496 0 .38-.199.524-.199.143-.876.143H128.9q-.593 0-.788-.143-.194-.144-.194-.524 0-.362.194-.501.195-.139.751-.139h.176zm9.362 2.41q-.018.696-.162.886-.144.19-.561.19-.324 0-.487-.172-.162-.171-.162-.505l.009-.144q.01-.143.01-.292l.092-3.059q.019-.343.186-.496.167-.152.519-.152h8.055q.352 0 .519.152.167.153.176.496l.102 3.059q0 .167.01.315l.009.14q0 .333-.176.495-.176.163-.529.163-.37 0-.509-.19-.14-.19-.158-.886l-.093-2.41h-2.66v8.352h1.789q.389 0 .565.153.176.153.176.487 0 .324-.166.496-.167.171-.482.171h-5.201q-.315 0-.482-.171-.166-.172-.166-.496 0-.343.18-.491.181-.149.617-.149h1.733v-8.352h-2.66zm18.354 3.514q0-.696.139-.9.139-.204.528-.204.334 0 .501.172.167.171.167.533v3.448q0 .325-.177.505-.176.181-.491.181h-8.658q-.333 0-.5-.167-.167-.167-.167-.5 0-.371.199-.505.2-.135.904-.135h1.159v-8.352h-1.159q-.686 0-.894-.143-.209-.144-.209-.524 0-.343.171-.505.172-.162.533-.162h5.015q.334 0 .51.166.176.167.176.501 0 .38-.208.524-.209.143-.913.143h-1.558v8.352h4.932zm20.83-6.007v3.745h1.919q1.298 0 1.951-.468.654-.468.654-1.395 0-.937-.64-1.409-.639-.473-1.909-.473zm0 8.435h.631q.537 0 .76.149.222.148.222.491 0 .371-.194.519-.195.148-.733.148h-3.114q-.315 0-.482-.171-.167-.172-.167-.496 0-.343.185-.491.186-.149.612-.149h.844v-8.435h-.538q-.695 0-.899-.13-.204-.13-.204-.491 0-.315.162-.473.162-.157.487-.157h3.911q1.419 0 2.119.134.699.134 1.181.459.621.417.978 1.103.357.686.357 1.474 0 1.066-.653 1.83-.654.765-1.822 1.062.241.139.431.324.19.186.366.445l1.864 2.855h.305q.52 0 .714.144.195.144.195.496 0 .324-.162.496-.163.171-.478.171h-1.047q-.454 0-.89-.667-.056-.056-.083-.093l-1.78-2.697q-.547-.825-.904-1.066-.357-.241-.941-.241h-1.233zm11.55-3.439h3.791l-1.993-4.913zm.473-4.913h-1.353q-.566 0-.793-.153-.227-.153-.227-.514 0-.38.199-.524.199-.143 1.089-.143h2.642q.51 0 .691.134.181.134.329.496l3.624 9.056h.158q.5 0 .686.139.185.139.185.501 0 .38-.176.524-.176.143-.658.143h-2.521q-.705 0-.904-.143-.2-.144-.2-.524 0-.352.218-.496.218-.144.821-.144h.862l-.899-2.206h-4.709l-.797 2.206h.899q.611 0 .834.144.222.144.222.496 0 .38-.199.524-.199.143-.876.143h-2.438q-.593 0-.788-.143-.194-.144-.194-.524 0-.362.194-.501.195-.139.751-.139h.176zm11.272 0v4.301h1.733q1.455 0 2.178-.537.723-.538.723-1.622 0-1.066-.727-1.604-.728-.538-2.174-.538zm1.937 8.352q.454 0 .658.153.204.153.204.487 0 .371-.195.519-.194.148-.741.148h-4.533q-.315 0-.482-.171-.167-.172-.167-.496 0-.325.162-.482.163-.158.506-.158h1.195v-8.352h-.649q-.815 0-1.015-.143-.199-.144-.199-.524 0-.325.167-.496.167-.171.482-.171h4.292q2.252 0 3.42.871 1.168.871 1.168 2.568 0 1.696-1.158 2.558-1.159.862-3.43.862h-1.622v2.827zm9.103-3.439h3.791l-1.993-4.913zm.472-4.913h-1.353q-.565 0-.792-.153-.228-.153-.228-.514 0-.38.2-.524.199-.143 1.089-.143h2.642q.51 0 .69.134.181.134.329.496l3.625 9.056h.157q.501 0 .686.139.186.139.186.501 0 .38-.176.524-.177.143-.659.143h-2.521q-.704 0-.904-.143-.199-.144-.199-.524 0-.352.218-.496.218-.144.82-.144h.862l-.899-2.206h-4.709l-.797 2.206h.899q.612 0 .834.144.223.144.223.496 0 .38-.199.524-.2.143-.876.143h-2.438q-.593 0-.788-.143-.195-.144-.195-.524 0-.362.195-.501t.751-.139h.176zm10.123 9.335q-.047.417-.213.579-.167.162-.529.162-.389 0-.579-.227-.19-.227-.218-.737l-.12-2.15v-.167q0-.445.171-.63.172-.186.57-.186.556 0 .797.797.112.399.213.603.325.649 1.025 1.001.7.352 1.673.352 1.196 0 1.942-.565.746-.566.746-1.446 0-.733-.459-1.177-.459-.445-1.339-.575l-1.372-.186q-1.919-.268-2.799-1.01-.881-.742-.881-2.086 0-1.418 1.172-2.382 1.173-.964 2.925-.964.51 0 1.075.134.566.135 1.28.422.018-.269.148-.371.13-.101.445-.101.408 0 .565.12.158.121.195.575l.13 1.937v.093q0 .324-.186.505-.185.181-.519.181-.491 0-.76-.686-.13-.39-.26-.584-.305-.464-.88-.714-.575-.25-1.307-.25-1.122 0-1.822.556-.699.556-.699 1.455 0 .705.523 1.113.524.407 1.599.556l1.483.185q1.613.213 2.429.987.816.774.816 2.091 0 1.557-1.159 2.498-1.159.941-3.096.941-.667 0-1.326-.158-.658-.158-1.399-.491z" fill="#545454"/><path d="M73.44 85.432q-.491 0-.727-.199-.237-.199-.237-.616 0-.603 1.78-2.262l.269-.26q.269-.259.779-.741 3.207-3.022 3.207-4.403 0-.992-.566-1.609-.565-.616-1.464-.616-.584 0-1.117.241t-.858.649q-.055.074-.176.25-.343.621-.769.621-.334 0-.473-.204-.139-.204-.139-.778 0-.334.065-.487.065-.153.241-.329.593-.575 1.469-.913.876-.339 1.794-.339 1.539 0 2.572.992 1.034.992 1.034 2.438 0 1.817-3.152 4.83-.806.75-1.233 1.177l-1.14 1.094h4.236q.037-.399.218-.608.181-.208.487-.208t.482.204q.176.204.176.556 0 .028-.009.097-.01.07-.01.098l-.074.713q-.028.288-.167.45-.139.162-.361.162zm12.403-9.946-.181.028q-.06.009-.106.009-.288 0-.468-.162-.181-.162-.181-.431 0-.223.157-.389.158-.167.455-.251l2.753-.741q.102-.028.199-.042.097-.014.199-.014.176 0 .278.162.102.162.102.441v10.029h1.483q.825 0 1.048.135.222.134.222.505 0 .334-.185.5-.185.167-.556.167h-5.543q-.371 0-.557-.167-.185-.166-.185-.5 0-.371.223-.505.222-.135 1.047-.135h1.539v-9.056z"/><path d="M114.338 81.697q0-.696.139-.9.139-.203.528-.203.334 0 .501.171.166.172.166.533v3.448q0 .325-.176.505-.176.181-.491.181h-8.658q-.333 0-.5-.167-.167-.166-.167-.5 0-.371.199-.505.199-.135.904-.135h1.159v-8.352h-1.159q-.686 0-.895-.143-.208-.144-.208-.524 0-.343.171-.505.172-.162.533-.162h5.015q.334 0 .51.166.176.167.176.501 0 .38-.208.524-.209.143-.913.143h-1.558v8.352h4.932zm6.006 2.428h.621q.547 0 .77.149.222.148.222.491 0 .371-.194.519-.195.148-.742.148h-3.17q-.315 0-.478-.171-.162-.172-.162-.496 0-.343.181-.491.181-.149.616-.149h.89v-8.352h-.593q-.704 0-.899-.143-.195-.144-.195-.524 0-.324.162-.496.163-.171.478-.171h3.17q.547 0 .742.148.194.148.194.519t-.25.519q-.25.148-.946.148h-.417v3.773l3.866-3.773h-.315q-.455 0-.659-.157-.204-.158-.204-.51 0-.362.158-.514.158-.153.51-.153h2.734q.316 0 .482.171.167.172.167.496 0 .361-.218.514-.217.153-.774.153h-.129l-3.588 3.467q.807.167 1.558 1.038.75.872 2.336 3.847h.166q.575 0 .77.139.194.139.194.501 0 .324-.162.496-.162.171-.477.171h-.89q-.297 0-.431-.065t-.274-.296q-.083-.13-1.028-1.882l-.362-.677q-.584-1.084-1.168-1.626-.584-.543-1.242-.635l-1.02.964zm11.374-3.439h3.791l-1.993-4.913zm.473-4.913h-1.354q-.565 0-.792-.153-.227-.153-.227-.514 0-.38.199-.524.199-.143 1.089-.143h2.642q.51 0 .691.134.18.134.329.496l3.624 9.056h.158q.5 0 .686.139.185.139.185.501 0 .38-.176.524-.176.143-.658.143h-2.522q-.704 0-.903-.143-.2-.144-.2-.524 0-.352.218-.496.218-.144.821-.144h.862l-.899-2.206h-4.709l-.798 2.206h.9q.611 0 .834.144.222.144.222.496 0 .38-.199.524-.199.143-.876.143H128.9q-.593 0-.788-.143-.194-.144-.194-.524 0-.362.194-.501.195-.139.751-.139h.176z" fill="#545454"/><path d="M143.11 80.686h3.792l-1.993-4.913zm.473-4.913h-1.353q-.566 0-.793-.153-.227-.153-.227-.514 0-.38.199-.524.2-.143 1.09-.143h2.641q.51 0 .691.134.181.134.329.496l3.624 9.056h.158q.501 0 .686.139.185.139.185.501 0 .38-.176.524-.176.143-.658.143h-2.521q-.705 0-.904-.143-.199-.144-.199-.524 0-.352.218-.496.217-.144.82-.144h.862l-.899-2.206h-4.709l-.797 2.206h.899q.612 0 .834.144.223.144.223.496 0 .38-.2.524-.199.143-.876.143h-2.438q-.593 0-.788-.143-.194-.144-.194-.524 0-.362.194-.501.195-.139.751-.139h.176z" fill="#545454"/><path d="M154.503 80.686h3.791l-1.993-4.913zm.472-4.913h-1.353q-.565 0-.793-.153-.227-.153-.227-.514 0-.38.2-.524.199-.143 1.089-.143h2.642q.509 0 .69.134.181.134.329.496l3.625 9.056h.157q.501 0 .686.139.186.139.186.501 0 .38-.177.524-.176.143-.658.143h-2.521q-.704 0-.904-.143-.199-.144-.199-.524 0-.352.218-.496.218-.144.82-.144h.862l-.899-2.206h-4.709l-.797 2.206h.899q.612 0 .834.144.223.144.223.496 0 .38-.199.524-.2.143-.876.143h-2.438q-.594 0-.788-.143-.195-.144-.195-.524 0-.362.195-.501.194-.139.751-.139h.176zm26.374 9.641q-1.613-.464-2.581-1.97-.969-1.506-.969-3.536 0-2.448 1.446-4.111 1.446-1.664 3.559-1.664 2.132 0 3.574 1.668 1.441 1.669 1.441 4.125 0 2.559-1.399 4.125-1.4 1.567-3.671 1.567h-.357q-.125 0-.246-.019l-.992.973q.557-.222 1.122-.329.565-.106 1.177-.106.408 0 1.127.218.718.217 1.061.217.287 0 .69-.171.404-.172.543-.172.231 0 .398.2.167.199.167.468 0 .287-.565.598-.566.31-1.177.31-.52 0-1.488-.306-.969-.306-1.46-.306-.695 0-1.479.334-.783.334-.876.334-.204 0-.412-.223-.209-.222-.209-.463 0-.25.89-1.094.427-.408.686-.667zm1.455-1.029q1.521 0 2.434-1.201.913-1.2.913-3.258 0-2.067-.909-3.272-.908-1.205-2.438-1.205-1.52 0-2.428 1.205-.909 1.205-.909 3.272 0 2.067.909 3.263.908 1.196 2.428 1.196zm9.326-8.695v3.745h1.918q1.298 0 1.952-.468.653-.468.653-1.395 0-.937-.639-1.409-.64-.473-1.91-.473zm0 8.435h.63q.538 0 .76.149.222.148.222.491 0 .371-.194.519-.195.148-.732.148h-3.115q-.315 0-.482-.171-.167-.172-.167-.496 0-.343.185-.491.186-.149.612-.149h.844V75.69h-.538q-.695 0-.899-.13-.204-.13-.204-.491 0-.315.162-.473.163-.157.487-.157h3.912q1.418 0 2.118.134t1.182.459q.621.417.978 1.103.356.686.356 1.474 0 1.066-.653 1.83-.654.765-1.821 1.062.241.139.431.324.19.186.366.445l1.863 2.855h.306q.519 0 .714.144.194.144.194.496 0 .324-.162.496-.162.171-.477.171h-1.048q-.454 0-.89-.667-.055-.056-.083-.093l-1.78-2.697q-.547-.825-.904-1.066-.357-.241-.941-.241h-1.232zm8.871-8.352h-.121q-.463 0-.658-.153t-.195-.514q0-.324.167-.496.167-.171.482-.171h2.809q.547 0 .737.148.19.148.19.519 0 .343-.204.505-.204.162-.649.162h-1.02l3.152 8.083 3.068-8.083h-1.233q-.435 0-.644-.162-.209-.162-.209-.505 0-.371.195-.519.195-.148.732-.148h2.911q.315 0 .477.171.163.172.163.496 0 .361-.195.514-.195.153-.677.153h-.111l-3.337 8.732q-.287.696-.454.867-.167.171-.427.171h-.528q-.612 0-.992-.982l-.018-.056zm14.071 4.913h3.791l-1.993-4.913zm.472-4.913h-1.353q-.565 0-.792-.153-.228-.153-.228-.514 0-.38.2-.524.199-.143 1.089-.143h2.642q.51 0 .69.134.181.134.329.496l3.625 9.056h.157q.501 0 .686.139.186.139.186.501 0 .38-.176.524-.177.143-.659.143h-2.521q-.704 0-.904-.143-.199-.144-.199-.524 0-.352.218-.496.218-.144.82-.144h.862l-.899-2.206h-4.709l-.797 2.206h.899q.612 0 .834.144.223.144.223.496 0 .38-.199.524-.2.143-.876.143h-2.438q-.593 0-.788-.143-.195-.144-.195-.524 0-.362.195-.501t.751-.139h.176zm10.123 9.335q-.047.417-.213.579-.167.162-.529.162-.389 0-.579-.227-.19-.227-.218-.737l-.12-2.15v-.167q0-.445.171-.63.172-.186.57-.186.556 0 .797.797.112.399.213.603.325.649 1.025 1.001.7.352 1.673.352 1.196 0 1.942-.565.746-.566.746-1.446 0-.733-.459-1.177-.459-.445-1.339-.575l-1.372-.186q-1.919-.268-2.799-1.01-.881-.741-.881-2.086 0-1.418 1.172-2.382 1.173-.964 2.925-.964.51 0 1.075.135.566.134 1.28.421.018-.269.148-.37.13-.102.445-.102.408 0 .565.12.158.121.195.575l.13 1.937v.093q0 .324-.186.505-.185.181-.519.181-.491 0-.76-.686-.13-.39-.26-.584-.305-.464-.88-.714-.575-.25-1.307-.25-1.122 0-1.822.556-.699.556-.699 1.455 0 .705.523 1.113.524.407 1.599.556l1.483.185q1.613.213 2.429.987.816.774.816 2.091 0 1.557-1.159 2.498-1.159.941-3.096.941-.667 0-1.326-.158-.658-.157-1.399-.491z" fill="#545454"/><path d="M77.445 102.855V96.57l-3.513 6.285zm-1.001 4.273q-.445 0-.603-.143-.157-.144-.157-.524 0-.334.162-.487.162-.153.524-.153h1.075v-1.557h-4.329q-.232 0-.362-.148-.129-.149-.129-.427v-.639q0-.371.268-.779l.075-.12 3.911-6.637q.13-.232.214-.297.083-.065.222-.065.056 0 .195.019l.074.018.945.148q.13.019.209.144.079.125.079.329v7.045h.472q.204 0 .316-.162.111-.162.25-.162.185 0 .315.139t.13.343q0 .083-.009.153-.01.069-.037.143l-.075.38q-.065.334-.19.454-.125.121-.394.121h-.778v1.557h.324q.593 0 .816.144.222.144.222.496 0 .334-.185.5-.185.167-.556.167zm9.399-9.946-.181.028q-.06.009-.106.009-.288 0-.468-.162-.181-.162-.181-.431 0-.223.157-.389.158-.167.455-.251l2.753-.741q.102-.028.199-.042.097-.014.199-.014.176 0 .278.162.102.163.102.441v10.029h1.483q.825 0 1.048.135.222.134.222.505 0 .334-.185.5-.185.167-.556.167h-5.543q-.371 0-.557-.167-.185-.166-.185-.5 0-.371.223-.505.222-.135 1.047-.135h1.539v-9.056z"/><path d="M114.338 103.393q0-.696.139-.899.139-.204.528-.204.334 0 .501.171.166.172.166.533v3.448q0 .325-.176.506-.176.18-.491.18h-8.658q-.333 0-.5-.167-.167-.166-.167-.5 0-.371.199-.505.199-.135.904-.135h1.159v-8.352h-1.159q-.686 0-.895-.143-.208-.144-.208-.524 0-.343.171-.505.172-.162.533-.162h5.015q.334 0 .51.166.176.167.176.501 0 .38-.208.524-.209.143-.913.143h-1.558v8.352h4.932zm4.43-3.514q-.018.696-.162.886-.143.19-.561.19-.324 0-.486-.172-.162-.171-.162-.505l.009-.144q.009-.143.009-.292l.093-3.059q.018-.343.185-.495.167-.153.519-.153h8.056q.352 0 .519.153.166.152.176.495l.102 3.059q0 .167.009.316l.009.139q0 .333-.176.496-.176.162-.528.162-.371 0-.51-.19t-.158-.886l-.092-2.41h-2.661v8.352h1.789q.39 0 .566.153.176.153.176.487 0 .324-.167.496-.167.171-.482.171h-5.2q-.315 0-.482-.171-.167-.172-.167-.496 0-.343.181-.491.18-.149.616-.149h1.734v-8.352h-2.661zm18.354 3.514q0-.696.139-.899.139-.204.529-.204.333 0 .5.171.167.172.167.533v3.448q0 .325-.176.506-.176.18-.491.18h-8.658q-.334 0-.501-.167-.167-.166-.167-.5 0-.371.2-.505.199-.135.904-.135h1.158v-8.352h-1.158q-.686 0-.895-.143-.209-.144-.209-.524 0-.343.172-.505.171-.162.533-.162h5.015q.333 0 .51.166.176.167.176.501 0 .38-.209.524-.208.143-.913.143h-1.557v8.352h4.931zm5.988-1.011h3.792l-1.993-4.913zm.473-4.913h-1.353q-.566 0-.793-.153-.227-.152-.227-.514 0-.38.199-.524.2-.143 1.09-.143h2.641q.51 0 .691.134.181.134.329.496l3.624 9.056h.158q.501 0 .686.139.185.139.185.501 0 .38-.176.524-.176.143-.658.143h-2.521q-.705 0-.904-.143-.199-.144-.199-.524 0-.352.218-.496.217-.144.82-.144h.862l-.899-2.206h-4.709l-.797 2.206h.899q.612 0 .834.144.223.144.223.496 0 .38-.2.524-.199.143-.876.143h-2.438q-.593 0-.788-.143-.194-.144-.194-.524 0-.362.194-.501.195-.139.751-.139h.176z" fill="#545454"/><path d="M154.503 102.382h3.791l-1.993-4.913zm.472-4.913h-1.353q-.565 0-.793-.153-.227-.152-.227-.514 0-.38.2-.524.199-.143 1.089-.143h2.642q.509 0 .69.134.181.134.329.496l3.625 9.056h.157q.501 0 .686.139.186.139.186.501 0 .38-.177.524-.176.143-.658.143h-2.521q-.704 0-.904-.143-.199-.144-.199-.524 0-.352.218-.496.218-.144.82-.144h.862l-.899-2.206h-4.709l-.797 2.206h.899q.612 0 .834.144.223.144.223.496 0 .38-.199.524-.2.143-.876.143h-2.438q-.594 0-.788-.143-.195-.144-.195-.524 0-.362.195-.501.194-.139.751-.139h.176zm25.614 8.352h.621q.547 0 .769.149.223.148.223.491 0 .38-.195.524-.194.143-.853.143h-2.447q-.343 0-.514-.167-.172-.166-.172-.5 0-.362.2-.501.199-.139.755-.139h.167v-8.352h-.148q-.557 0-.765-.148-.209-.148-.209-.519 0-.343.172-.505.171-.162.533-.162h2.336q.741 0 .941.143.199.144.199.524 0 .371-.25.519-.251.148-.946.148h-.417v3.226h4.44v-3.226h-.63q-.529 0-.756-.157-.227-.158-.227-.51 0-.38.209-.524.208-.143 1.024-.143h2.262q.334 0 .505.166.171.167.171.501 0 .362-.194.514-.195.153-.695.153h-.223v8.352h.148q.557 0 .761.144.203.144.203.496 0 .38-.194.524-.195.143-.899.143h-1.919q-.751 0-.955-.143-.204-.144-.204-.524 0-.362.241-.501t.918-.139h.454v-3.856h-4.44zm11.698-3.439h3.791l-1.993-4.913zm.473-4.913h-1.353q-.566 0-.793-.153-.227-.152-.227-.514 0-.38.199-.524.199-.143 1.089-.143h2.642q.51 0 .691.134.181.134.329.496l3.624 9.056h.158q.5 0 .686.139.185.139.185.501 0 .38-.176.524-.176.143-.658.143h-2.521q-.705 0-.904-.143-.2-.144-.2-.524 0-.352.218-.496.218-.144.821-.144h.862l-.899-2.206h-4.709l-.797 2.206h.899q.611 0 .834.144.222.144.222.496 0 .38-.199.524-.199.143-.876.143h-2.438q-.593 0-.788-.143-.194-.144-.194-.524 0-.362.194-.501.195-.139.751-.139h.176zm10.614 8.352q.296.028.588.042.292.014.57.014 2.281 0 3.342-1.02 1.061-1.019 1.061-3.216 0-2.206-1.066-3.212-1.066-1.006-3.411-1.006-.436 0-.663.009-.227.01-.421.037zm0 1.307h-1.882q-.343 0-.515-.167-.171-.166-.171-.5 0-.362.199-.501t.756-.139h.166v-8.352h-.148q-.556 0-.765-.148-.208-.148-.208-.519 0-.343.171-.505.172-.162.533-.162h3.912q2.308 0 3.68 1.487 1.372 1.488 1.372 4.019 0 1.233-.394 2.289-.394 1.057-1.145 1.854-.695.723-1.691 1.052-.997.329-2.563.329-.186 0-.626-.018-.44-.019-.681-.019zm11.698-4.746h3.791l-1.993-4.913zm.472-4.913h-1.353q-.565 0-.792-.153-.228-.152-.228-.514 0-.38.2-.524.199-.143 1.089-.143h2.642q.51 0 .69.134.181.134.329.496l3.625 9.056h.157q.501 0 .686.139.186.139.186.501 0 .38-.176.524-.177.143-.659.143h-2.521q-.704 0-.904-.143-.199-.144-.199-.524 0-.352.218-.496.218-.144.82-.144h.862l-.899-2.206h-4.709l-.797 2.206h.899q.612 0 .834.144.223.144.223.496 0 .38-.199.524-.2.143-.876.143h-2.438q-.593 0-.788-.143-.195-.144-.195-.524 0-.362.195-.501t.751-.139h.176zm9.363 2.41q-.019.696-.163.886-.143.19-.56.19-.325 0-.487-.172-.162-.171-.162-.505l.009-.144q.009-.143.009-.292l.093-3.059q.019-.343.185-.495.167-.153.52-.153h8.055q.352 0 .519.153.167.152.176.495l.102 3.059q0 .167.009.316l.009.139q0 .333-.176.496-.176.162-.528.162-.371 0-.51-.19t-.157-.886l-.093-2.41h-2.66v8.352h1.789q.389 0 .565.153.176.153.176.487 0 .324-.167.496-.167.171-.482.171h-5.2q-.315 0-.482-.171-.167-.172-.167-.496 0-.343.181-.491.181-.149.616-.149h1.734v-8.352h-2.661z" fill="#545454"/><path d="M74.673 125.218q0 1.141.603 1.859.602.718 1.548.718.89 0 1.46-.676.57-.677.57-1.771 0-1.131-.589-1.835-.588-.705-1.515-.705-.9 0-1.488.677-.589.677-.589 1.733zm-.204-2.465q.501-.649 1.113-.974.611-.324 1.334-.324 1.465 0 2.489 1.103 1.025 1.103 1.025 2.716 0 1.687-.992 2.772-.992 1.084-2.54 1.084-1.826 0-2.925-1.45-1.098-1.451-1.098-3.871 0-3.151 1.622-5.065 1.622-1.914 4.283-1.914.899 0 1.186.129.288.13.288.492 0 .593-1.094.611-.723.01-1.159.093-1.465.278-2.378 1.469t-1.154 3.129zm11.374-3.875-.181.028q-.06.009-.106.009-.288 0-.468-.162-.181-.162-.181-.431 0-.223.157-.389.158-.167.455-.251l2.753-.741q.102-.028.199-.042.097-.014.199-.014.176 0 .278.162.102.163.102.441v10.029h1.483q.825 0 1.048.135.222.134.222.505 0 .334-.185.5-.185.167-.556.167h-5.543q-.371 0-.557-.167-.185-.166-.185-.5 0-.371.223-.505.222-.135 1.047-.135h1.539v-9.056z"/><path d="M106.876 128.824h-.436q-.334 0-.505-.167-.172-.166-.172-.5 0-.371.2-.505.199-.135.913-.135h.593v-8.352h-.593q-.696 0-.904-.143-.209-.144-.209-.524 0-.343.172-.505.171-.162.524-.162h8.073q.315 0 .478.19.162.19.162.551v2.188q0 .482-.139.667-.139.186-.501.186-.38 0-.523-.204-.144-.204-.144-.918v-1.326h-4.931v3.124h2.428v-.491q0-.501.135-.695.134-.195.468-.195.324 0 .449.209.125.208.125.894v1.724q0 .696-.129.89-.13.195-.464.195t-.459-.223q-.125-.222-.125-.862v-.324h-2.428v4.106h4.931v-1.501q0-.714.144-.918.143-.204.523-.204.353 0 .496.19.144.19.144.718v2.336q0 .334-.167.51t-.473.176zm15.285-1.307h.362q.389 0 .565.153.176.153.176.487 0 .324-.167.496-.166.171-.482.171h-4.57q-.315 0-.482-.171-.166-.172-.166-.496 0-.343.18-.491.181-.149.617-.149h.89v-8.352h-.584q-.705 0-.904-.143-.199-.144-.199-.524 0-.324.166-.496.167-.171.482-.171h8.204q.315 0 .477.19.163.19.163.551v2.392q0 .324-.163.486-.162.163-.477.163-.389 0-.528-.204t-.139-.918v-1.326h-5.034v3.124h2.447v-.241q0-.676.13-.908.13-.232.464-.232.296 0 .431.176.134.176.134.566v2.354q0 .464-.125.64t-.44.176q-.334 0-.464-.232t-.13-.908v-.269h-2.447v4.106zm6.878-8.352h-.12q-.464 0-.658-.152-.195-.153-.195-.515 0-.324.167-.496.167-.171.482-.171h2.808q.547 0 .737.148.19.148.19.519 0 .343-.204.505-.204.162-.648.162h-1.02l3.152 8.084 3.068-8.084h-1.233q-.436 0-.644-.162-.209-.162-.209-.505 0-.371.195-.519.194-.148.732-.148h2.911q.315 0 .477.171.162.172.162.496 0 .362-.194.515-.195.152-.677.152h-.111l-3.337 8.732q-.288.696-.455.867-.166.172-.426.172h-.528q-.612 0-.992-.983l-.019-.056zm14.424 0v4.302h1.733q1.455 0 2.178-.538.723-.538.723-1.622 0-1.066-.727-1.604-.728-.538-2.174-.538zm1.937 8.352q.454 0 .658.153.204.153.204.487 0 .371-.195.519-.194.148-.741.148h-4.533q-.315 0-.482-.171-.167-.172-.167-.496 0-.325.162-.482.163-.158.505-.158h1.196v-8.352h-.649q-.815 0-1.015-.143-.199-.144-.199-.524 0-.324.167-.496.167-.171.482-.171h4.292q2.252 0 3.42.871 1.168.871 1.168 2.568 0 1.696-1.159 2.558-1.158.862-3.429.862h-1.622v2.827zm9.121 0h.621q.547 0 .77.149.222.148.222.491 0 .371-.195.519-.194.148-.741.148h-3.17q-.316 0-.478-.171-.162-.172-.162-.496 0-.343.181-.491.181-.149.616-.149h.89v-8.352h-.593q-.705 0-.899-.143-.195-.144-.195-.524 0-.324.162-.496.162-.171.478-.171h3.17q.547 0 .741.148.195.148.195.519t-.25.519q-.251.148-.946.148h-.417v3.773l3.866-3.773h-.316q-.454 0-.658-.157-.204-.158-.204-.51 0-.361.158-.514.157-.153.51-.153h2.734q.315 0 .482.171.167.172.167.496 0 .362-.218.515-.218.152-.774.152h-.13l-3.587 3.467q.807.167 1.557 1.038.751.872 2.336 3.847h.167q.575 0 .77.139.194.139.194.501 0 .324-.162.496-.162.171-.477.171h-.89q-.297 0-.431-.065-.135-.064-.274-.296-.083-.13-1.029-1.882l-.361-.677q-.584-1.084-1.168-1.626-.584-.543-1.242-.635l-1.02.964zm24.817-5.941q-.019.695-.163.885-.143.19-.56.19-.325 0-.487-.172-.162-.171-.162-.505l.009-.144q.009-.143.009-.292l.093-3.059q.018-.342.185-.495.167-.153.519-.153h8.056q.352 0 .519.153.167.153.176.495l.102 3.059q0 .167.009.316l.009.139q0 .333-.176.496-.176.162-.528.162-.371 0-.51-.19t-.158-.885l-.092-2.411h-2.661v8.352h1.789q.39 0 .566.153.176.153.176.487 0 .324-.167.496-.167.171-.482.171h-5.2q-.315 0-.482-.171-.167-.172-.167-.496 0-.343.181-.491.181-.149.616-.149h1.734v-8.352h-2.661zm18.353 3.513q0-.696.139-.899.139-.204.529-.204.333 0 .5.171.167.172.167.533v3.448q0 .325-.176.506-.176.18-.491.18h-8.658q-.334 0-.501-.167-.166-.166-.166-.5 0-.371.199-.505.199-.135.904-.135h1.158v-8.352h-1.158q-.686 0-.895-.143-.208-.144-.208-.524 0-.343.171-.505.172-.162.533-.162h5.015q.334 0 .51.166.176.167.176.501 0 .38-.209.524-.208.143-.913.143h-1.557v8.352h4.931zm4.431-3.513q-.018.695-.162.885-.144.19-.561.19-.324 0-.487-.172-.162-.171-.162-.505l.01-.144q.009-.143.009-.292l.092-3.059q.019-.342.186-.495.167-.153.519-.153h8.055q.352 0 .519.153.167.153.176.495l.102 3.059q0 .167.01.316l.009.139q0 .333-.176.496-.176.162-.529.162-.37 0-.509-.19t-.158-.885l-.093-2.411h-2.66v8.352h1.789q.389 0 .565.153.177.153.177.487 0 .324-.167.496-.167.171-.482.171h-5.201q-.315 0-.482-.171-.166-.172-.166-.496 0-.343.18-.491.181-.149.617-.149h1.733v-8.352h-2.66zm17.677 5.941q.714 0 .913.135.2.134.2.505 0 .38-.2.524-.199.143-.913.143h-6.062q-.334 0-.51-.167-.176-.166-.176-.5 0-.371.204-.505.204-.135.918-.135h2.094v-8.352h-2.094q-.696 0-.909-.143-.213-.144-.213-.524 0-.343.176-.505.176-.162.528-.162h6.48q.334 0 .505.166.172.167.172.501 0 .38-.209.524-.209.143-.904.143h-2.095v8.352zm6.684 0h.621q.546 0 .769.149.222.148.222.491 0 .371-.194.519-.195.148-.742.148h-3.17q-.315 0-.477-.171-.163-.172-.163-.496 0-.343.181-.491.181-.149.617-.149h.889v-8.352h-.593q-.704 0-.899-.143-.195-.144-.195-.524 0-.324.163-.496.162-.171.477-.171h3.17q.547 0 .742.148.194.148.194.519t-.25.519q-.25.148-.945.148h-.417v3.773l3.865-3.773h-.315q-.454 0-.658-.157-.204-.158-.204-.51 0-.361.157-.514.158-.153.51-.153h2.735q.315 0 .482.171.166.172.166.496 0 .362-.217.515-.218.152-.774.152h-.13l-3.587 3.467q.806.167 1.557 1.038.751.872 2.336 3.847h.167q.574 0 .769.139.195.139.195.501 0 .324-.163.496-.162.171-.477.171h-.89q-.296 0-.431-.065-.134-.064-.273-.296-.084-.13-1.029-1.882l-.362-.677q-.584-1.084-1.168-1.626-.584-.543-1.242-.635l-1.019.964z" fill="#545454"/><path d="M74.414 147.332q0 .982.616 1.594.617.612 1.636.612 1.029 0 1.646-.593.616-.594.616-1.576 0-.964-.63-1.562-.631-.598-1.632-.598-.992 0-1.622.589-.63.588-.63 1.534zm.092-5.525q0 .918.608 1.502.607.584 1.552.584.955 0 1.562-.589.607-.589.607-1.516 0-.889-.607-1.469-.607-.579-1.562-.579-.955 0-1.557.579-.603.58-.603 1.488zm.306 2.716q-.899-.445-1.353-1.126-.454-.682-.454-1.59 0-1.437 1.029-2.359 1.029-.922 2.632-.922 1.576 0 2.623.927 1.048.926 1.048 2.261 0 .992-.445 1.678-.445.686-1.381 1.131.936.38 1.437 1.117.5.737.5 1.729 0 1.529-1.052 2.493t-2.73.964q-1.678 0-2.725-.973-1.048-.973-1.048-2.521 0-.946.501-1.683.501-.737 1.418-1.126zm11.031-3.949-.181.028q-.06.009-.106.009-.288 0-.468-.162-.181-.162-.181-.431 0-.222.157-.389.158-.167.455-.251l2.753-.741q.102-.028.199-.042.097-.014.199-.014.176 0 .278.162.102.163.102.441v10.029h1.483q.825 0 1.048.135.222.134.222.505 0 .334-.185.501-.185.166-.556.166h-5.543q-.371 0-.557-.166-.185-.167-.185-.501 0-.371.223-.505.222-.135 1.047-.135h1.539v-9.056z"/><path d="M108.934 145.774h3.791l-1.993-4.913zm.472-4.913h-1.353q-.566 0-.793-.152-.227-.153-.227-.515 0-.38.2-.524.199-.143 1.089-.143h2.642q.509 0 .69.134.181.135.329.496l3.625 9.056h.157q.501 0 .686.139.185.139.185.501 0 .38-.176.524-.176.143-.658.143h-2.521q-.705 0-.904-.143-.199-.144-.199-.524 0-.352.218-.496.218-.144.82-.144h.862l-.899-2.206h-4.709l-.797 2.206h.899q.612 0 .834.144.223.144.223.496 0 .38-.2.524-.199.143-.876.143h-2.437q-.594 0-.788-.143-.195-.144-.195-.524 0-.362.195-.501.194-.139.75-.139h.177zm15.777 8.065v-2.206h-2.299q-.278 0-.412-.148-.135-.149-.135-.455 0-.352.121-.482.12-.129.463-.129h4.005q.241 0 .357.152.115.153.115.459 0 .343-.153.473-.152.13-.542.13h-.12v2.79q0 .25-.056.348-.056.097-.222.19-.529.315-1.539.537-1.01.223-2.049.223-2.484 0-4.013-1.585-1.53-1.585-1.53-4.135 0-2.549 1.497-4.208 1.497-1.659 3.815-1.659.63 0 1.265.143.635.144 1.321.432.092-.242.255-.348.162-.107.421-.107.436 0 .58.26.143.259.143 1.196v1.26q0 .454-.157.635-.158.181-.547.181-.482 0-.695-.593-.074-.176-.121-.269-.343-.732-.982-1.131-.64-.399-1.465-.399-1.659 0-2.651 1.201-.992 1.2-.992 3.24 0 2.104 1.094 3.346t2.911 1.242q.528 0 1.089-.139.561-.139 1.228-.445zm8.37.287h.362q.389 0 .565.153.177.153.177.487 0 .324-.167.496-.167.171-.482.171h-4.57q-.315 0-.482-.171-.167-.172-.167-.496 0-.343.181-.491.18-.149.616-.149h.89v-8.352h-.584q-.705 0-.904-.143-.199-.144-.199-.524 0-.324.167-.496.167-.171.482-.171h8.203q.315 0 .478.19.162.19.162.551v2.392q0 .324-.162.486-.163.163-.478.163-.389 0-.528-.204t-.139-.918v-1.326h-5.033v3.124h2.447v-.241q0-.676.129-.908.13-.232.464-.232.297 0 .431.176t.134.566v2.354q0 .464-.125.64t-.44.176q-.334 0-.464-.232-.129-.232-.129-.908v-.269h-2.447v4.106zm9.91-8.352v4.302h1.733q1.455 0 2.178-.538.723-.538.723-1.622 0-1.066-.727-1.604-.728-.538-2.174-.538zm1.937 8.352q.454 0 .658.153.204.153.204.487 0 .371-.195.519-.194.148-.741.148h-4.533q-.315 0-.482-.171-.167-.172-.167-.496t.162-.482q.163-.158.505-.158h1.196v-8.352h-.649q-.815 0-1.015-.143-.199-.144-.199-.524 0-.324.167-.496.167-.171.482-.171h4.292q2.252 0 3.42.871 1.168.871 1.168 2.568 0 1.696-1.159 2.558-1.158.862-3.429.862h-1.622v2.827zm8.797 0h.621q.547 0 .769.149.223.148.223.491 0 .38-.195.524-.195.143-.853.143h-2.447q-.343 0-.514-.166-.172-.167-.172-.501 0-.362.199-.501.2-.139.756-.139h.167v-8.352h-.149q-.556 0-.764-.148-.209-.148-.209-.519 0-.343.172-.505.171-.162.533-.162h2.335q.742 0 .941.143.2.144.2.524 0 .371-.251.519-.25.148-.945.148h-.417v3.226h4.44v-3.226h-.631q-.528 0-.755-.157-.227-.158-.227-.51 0-.38.208-.524.209-.143 1.025-.143h2.262q.333 0 .505.167.171.166.171.5 0 .362-.194.515-.195.152-.696.152h-.222v8.352h.148q.556 0 .76.144.204.144.204.496 0 .38-.194.524-.195.143-.9.143h-1.918q-.751 0-.955-.143-.204-.144-.204-.524 0-.362.241-.501t.918-.139h.454v-3.856h-4.44zm26.086 0h1.159q.5 0 .714.149.213.148.213.491 0 .38-.2.524-.199.143-.876.143h-2.753q-.333 0-.5-.166-.167-.167-.167-.501 0-.371.19-.505.19-.135.737-.135h.176v-8.352h-.232q-.778 0-1.052-.148-.273-.148-.273-.519 0-.343.236-.496.237-.153.765-.153l.185-.009q.186-.009.371-.009h.871q.427 0 .598.097.172.097.404.496l4.671 8.064v-7.323h-1.019q-.501 0-.728-.162-.227-.162-.227-.505 0-.38.195-.524.194-.143.815-.143h2.661q.333 0 .496.167.162.166.162.5 0 .371-.199.519-.2.148-.728.148h-.111v9.335q0 .269-.125.371-.126.102-.58.102-.454 0-.561-.051-.106-.051-.357-.478l-4.931-8.5zm16.732 0q.713 0 .913.135.199.134.199.505 0 .38-.199.524-.2.143-.913.143h-6.063q-.333 0-.509-.166-.177-.167-.177-.501 0-.371.204-.505.204-.135.918-.135h2.095v-8.352h-2.095q-.695 0-.908-.143-.214-.144-.214-.524 0-.343.177-.505.176-.162.528-.162h6.479q.334 0 .505.167.172.166.172.5 0 .38-.209.524-.208.143-.903.143h-2.095v8.352zm3.986-8.352h-.121q-.463 0-.658-.152-.195-.153-.195-.515 0-.324.167-.496.167-.171.482-.171h2.809q.547 0 .737.148.19.148.19.519 0 .343-.204.505-.204.162-.649.162h-1.02l3.152 8.084 3.068-8.084h-1.233q-.435 0-.644-.162-.209-.162-.209-.505 0-.371.195-.519.195-.148.732-.148h2.911q.315 0 .477.171.163.172.163.496 0 .362-.195.515-.195.152-.677.152h-.111l-3.337 8.732q-.287.696-.454.867-.167.172-.427.172h-.528q-.612 0-.992-.983l-.018-.056zm15.906 8.352h.362q.389 0 .565.153.176.153.176.487 0 .324-.167.496-.167.171-.482.171h-4.57q-.315 0-.482-.171-.166-.172-.166-.496 0-.343.18-.491.181-.149.617-.149h.89v-8.352h-.584q-.705 0-.904-.143-.199-.144-.199-.524 0-.324.166-.496.167-.171.482-.171h8.204q.315 0 .477.19.163.19.163.551v2.392q0 .324-.163.486-.162.163-.477.163-.389 0-.528-.204t-.139-.918v-1.326h-5.034v3.124h2.447v-.241q0-.676.13-.908.13-.232.464-.232.296 0 .431.176.134.176.134.566v2.354q0 .464-.125.64t-.44.176q-.334 0-.464-.232t-.13-.908v-.269h-2.447v4.106zm9.251 0q.297.028.589.042.292.014.57.014 2.28 0 3.341-1.02 1.062-1.019 1.062-3.216 0-2.206-1.066-3.212-1.066-1.006-3.411-1.006-.436 0-.663.009-.227.01-.422.037zm0 1.307h-1.882q-.343 0-.514-.166-.172-.167-.172-.501 0-.362.2-.501.199-.139.755-.139h.167v-8.352h-.148q-.556 0-.765-.148-.209-.148-.209-.519 0-.343.172-.505.171-.162.533-.162h3.912q2.308 0 3.68 1.487 1.372 1.488 1.372 4.019 0 1.233-.394 2.289-.394 1.057-1.145 1.854-.695.723-1.692 1.052-.996.329-2.563.329-.185 0-.626-.018-.44-.019-.681-.019z" fill="#545454"/><path d="m63.059 162.27-.181.028q-.061.009-.107.009-.287 0-.468-.162-.181-.162-.181-.431 0-.222.158-.389.157-.167.454-.251l2.753-.741q.102-.028.199-.042.098-.014.2-.014.176 0 .278.162.102.163.102.441v10.029h1.483q.825 0 1.047.135.223.134.223.505 0 .334-.186.501-.185.166-.556.166h-5.543q-.371 0-.556-.166-.185-.167-.185-.501 0-.371.222-.505.222-.135 1.047-.135h1.539v-9.056zm13.607-.723q-1.066 0-1.659 1.261-.593 1.26-.593 3.559 0 2.308.593 3.574.593 1.265 1.659 1.265 1.075 0 1.669-1.265.593-1.266.593-3.574 0-2.299-.593-3.559-.594-1.261-1.669-1.261zm0 10.975q-1.742 0-2.767-1.645-1.024-1.645-1.024-4.51 0-2.855 1.024-4.5 1.025-1.645 2.767-1.645 1.743 0 2.772 1.65 1.029 1.65 1.029 4.495 0 2.846-1.029 4.501-1.029 1.654-2.772 1.654zm9.177-10.252-.181.028q-.06.009-.106.009-.288 0-.468-.162-.181-.162-.181-.431 0-.222.157-.389.158-.167.455-.251l2.753-.741q.102-.028.199-.042.097-.014.199-.014.176 0 .278.162.102.163.102.441v10.029h1.483q.825 0 1.048.135.222.134.222.505 0 .334-.185.501-.185.166-.556.166h-5.543q-.371 0-.557-.166-.185-.167-.185-.501 0-.371.223-.505.222-.135 1.047-.135h1.539v-9.056z"/><path d="M108.628 170.909q.296.028.588.042.292.014.57.014 2.281 0 3.342-1.02 1.061-1.019 1.061-3.216 0-2.206-1.066-3.212-1.066-1.006-3.411-1.006-.436 0-.663.009-.227.01-.421.038zm0 1.307h-1.882q-.343 0-.515-.166-.171-.167-.171-.501 0-.362.199-.501.2-.139.756-.139h.167v-8.351h-.149q-.556 0-.764-.149-.209-.148-.209-.519 0-.343.171-.505.172-.162.533-.162h3.912q2.308 0 3.68 1.487 1.372 1.488 1.372 4.019 0 1.233-.394 2.289-.394 1.057-1.145 1.854-.695.723-1.691 1.052-.997.329-2.563.329-.186 0-.626-.018-.44-.019-.681-.019zm11.698-4.746h3.791l-1.993-4.912zm.473-4.912h-1.354q-.565 0-.792-.153-.227-.153-.227-.515 0-.38.199-.524.199-.143 1.089-.143h2.642q.51 0 .69.134.181.135.329.496l3.625 9.056h.157q.501 0 .686.139.186.139.186.501 0 .38-.176.524-.176.143-.658.143h-2.522q-.704 0-.904-.143-.199-.144-.199-.524 0-.352.218-.496.218-.144.82-.144h.862l-.899-2.206h-4.709l-.797 2.206h.899q.612 0 .835.144.222.144.222.496 0 .38-.199.524-.2.143-.876.143h-2.438q-.593 0-.788-.143-.195-.144-.195-.524 0-.362.195-.501t.751-.139h.176zm15.647 8.351q.713 0 .913.135.199.134.199.505 0 .38-.199.524-.2.143-.913.143h-6.063q-.333 0-.51-.166-.176-.167-.176-.501 0-.371.204-.505.204-.135.918-.135h2.095v-8.351h-2.095q-.695 0-.909-.144-.213-.144-.213-.524 0-.343.176-.505.177-.162.529-.162h6.479q.334 0 .505.167.172.166.172.5 0 .38-.209.524-.208.144-.903.144h-2.095v8.351zm5.867.983q-.046.417-.213.579-.167.163-.528.163-.39 0-.58-.228-.19-.227-.218-.736l-.12-2.151v-.167q0-.445.171-.63.172-.186.57-.186.557 0 .798.798.111.398.213.602.324.649 1.024 1.001.7.352 1.673.352 1.196 0 1.942-.565t.746-1.446q0-.732-.458-1.177-.459-.445-1.34-.575l-1.372-.185q-1.919-.269-2.799-1.011-.881-.741-.881-2.085 0-1.419 1.173-2.383 1.172-.964 2.924-.964.51 0 1.076.135.565.134 1.279.421.018-.268.148-.37.13-.102.445-.102.408 0 .566.12.157.121.194.575l.13 1.937v.093q0 .324-.185.505-.186.181-.52.181-.491 0-.76-.686-.129-.389-.259-.584-.306-.463-.881-.714-.574-.25-1.307-.25-1.121 0-1.821.556t-.7 1.455q0 .705.524 1.113.523.408 1.599.556l1.483.185q1.613.214 2.428.988.816.774.816 2.09 0 1.557-1.159 2.498-1.158.941-3.096.941-.667 0-1.325-.158-.658-.157-1.4-.491zm12.032-9.418v3.745h1.919q1.298 0 1.951-.468.654-.468.654-1.395 0-.936-.64-1.409t-1.91-.473zm0 8.435h.63q.538 0 .76.149.223.148.223.491 0 .371-.195.519-.194.148-.732.148h-3.115q-.315 0-.482-.171-.166-.172-.166-.496 0-.343.185-.491.185-.149.612-.149h.843v-8.435h-.537q-.696 0-.9-.13-.203-.129-.203-.491 0-.315.162-.473.162-.157.486-.157h3.912q1.418 0 2.118.134.7.135 1.182.459.621.417.978 1.103.357.686.357 1.474 0 1.066-.654 1.831-.653.764-1.821 1.061.241.139.431.324.19.186.366.445l1.863 2.855h.306q.519 0 .714.144.195.144.195.496 0 .324-.163.496-.162.171-.477.171h-1.047q-.455 0-.89-.667-.056-.056-.084-.093l-1.779-2.697q-.547-.825-.904-1.066-.357-.241-.941-.241h-1.233zm26.244 0q.297.028.589.042.292.014.57.014 2.28 0 3.341-1.02 1.062-1.019 1.062-3.216 0-2.206-1.066-3.212-1.066-1.006-3.411-1.006-.436 0-.663.009-.227.01-.422.038zm0 1.307h-1.882q-.343 0-.514-.166-.172-.167-.172-.501 0-.362.2-.501.199-.139.755-.139h.167v-8.351h-.148q-.557 0-.765-.149-.209-.148-.209-.519 0-.343.172-.505.171-.162.533-.162h3.912q2.308 0 3.68 1.487 1.371 1.488 1.371 4.019 0 1.233-.393 2.289-.394 1.057-1.145 1.854-.695.723-1.692 1.052-.996.329-2.563.329-.185 0-.626-.018-.44-.019-.681-.019z" fill="#545454"/></svg>