<?xml version="1.0" encoding="UTF-8"?>
<!DOCTYPE svg PUBLIC "-//W3C//DTD SVG 1.1//EN" "http://www.w3.org/Graphics/SVG/1.1/DTD/svg11.dtd">
<svg version="1.1" xmlns="http://www.w3.org/2000/svg" xmlns:xlink="http://www.w3.org/1999/xlink" x="0" y="0" width="600" height="400" viewBox="0, 0, 600, 400">
  <g id="Layer_1">
    <g id="Canvas">
      <path d="M583.263,5.24 C589.736,5.24 594.984,10.591 594.984,17.192 L594.984,382.808 C594.984,389.409 589.736,394.76 583.263,394.76 L16.737,394.76 C10.264,394.76 5.016,389.409 5.016,382.808 L5.016,17.192 C5.016,10.591 10.264,5.24 16.737,5.24 L583.263,5.24 z" fill-opacity="0" stroke="#747474" stroke-width="0.75"/>
      <path d="M16.737,5.24 L583.263,5.24 C589.736,5.24 594.984,10.591 594.984,17.192 L594.984,382.808 C594.984,389.409 589.736,394.76 583.263,394.76 L16.737,394.76 C10.264,394.76 5.016,389.409 5.016,382.808 L5.016,17.192 C5.016,10.591 10.264,5.24 16.737,5.24 z" fill="#FFFFFF"/>
    </g>
    <g id="Menu_Bar">
      <path d="M583.263,5.24 C589.736,5.24 594.984,10.591 594.984,17.192 L594.984,33.001 L5.016,33.001 L5.016,17.192 C5.016,10.591 10.264,5.24 16.737,5.24 L583.263,5.24 z" fill="#E0E0E0" id="Menu"/>
      <path d="M180.794,9.676 L419.206,9.676 C424.755,9.676 429.253,13.904 429.253,19.12 L429.253,19.12 C429.253,24.337 424.755,28.565 419.206,28.565 L180.794,28.565 C175.245,28.565 170.747,24.337 170.747,19.12 L170.747,19.12 C170.747,13.904 175.245,9.676 180.794,9.676 z" fill="#FFFFFF" id="URL"/>
      <g id="Buttons_Left">
        <path d="M30.694,24.755 C27.83,24.755 25.508,22.433 25.508,19.569 C25.508,16.705 27.83,14.383 30.694,14.383 C33.558,14.383 35.88,16.705 35.88,19.569 C35.88,22.433 33.558,24.755 30.694,24.755 z" fill="#E30307"/>
        <path d="M58.71,24.755 C55.846,24.755 53.524,22.433 53.524,19.569 C53.524,16.705 55.846,14.383 58.71,14.383 C61.575,14.383 63.897,16.705 63.897,19.569 C63.897,22.433 61.575,24.755 58.71,24.755 z" fill="#1ABA05"/>
        <path d="M44.702,24.755 C41.838,24.755 39.516,22.433 39.516,19.569 C39.516,16.705 41.838,14.383 44.702,14.383 C47.567,14.383 49.888,16.705 49.888,19.569 C49.888,22.433 47.567,24.755 44.702,24.755 z" fill="#F0C103"/>
      </g>
      <g id="Buttons_Right">
        <path d="M565.004,14.979 L573.033,14.979 C574.115,14.979 574.992,15.856 574.992,16.938 L574.992,24.967 C574.992,26.049 574.115,26.926 573.033,26.926 L565.004,26.926 C563.922,26.926 563.045,26.049 563.045,24.967 L563.045,16.938 C563.045,15.856 563.922,14.979 565.004,14.979 z M569.888,12.315 L561.859,12.315 C560.777,12.315 559.9,13.192 559.9,14.274 L559.9,22.303 C559.9,23.385 560.777,24.262 561.858,24.262 L563.045,24.262 L563.045,16.938 C563.045,15.856 563.922,14.979 565.004,14.979 L571.847,14.979 L571.847,14.274 C571.847,13.192 570.97,12.315 569.888,12.315 z" fill-opacity="0" stroke="#747474" stroke-width="1"/>
        <path d="M537.349,15.264 L537.225,23.977 M532.93,19.558 L541.644,19.683" fill-opacity="0" stroke="#747474" stroke-width="1"/>
      </g>
    </g>
    <g id="react-logo">
      <path d="M366.313,167.802 C364.123,167.05 361.916,166.352 359.69,165.708 C360.06,164.205 360.403,162.695 360.719,161.18 C365.731,136.838 362.456,117.222 351.251,110.761 C340.512,104.568 322.954,111.029 305.217,126.466 C303.469,127.988 301.763,129.554 300.098,131.165 C298.983,130.091 297.849,129.041 296.698,128.015 C278.102,111.521 259.461,104.577 248.275,111.038 C237.562,117.249 234.386,135.693 238.878,158.764 C239.337,161.049 239.844,163.322 240.399,165.583 C237.777,166.334 235.227,167.131 232.793,167.981 C211.002,175.588 197.086,187.49 197.086,199.84 C197.086,212.592 212.031,225.389 234.726,233.13 C236.563,233.763 238.419,234.347 240.292,234.884 C239.683,237.313 239.146,239.759 238.681,242.223 C234.368,264.891 237.733,282.896 248.436,289.071 C259.479,295.443 278.021,288.892 296.089,273.106 C297.521,271.865 298.953,270.546 300.385,269.15 C302.187,270.898 304.036,272.593 305.933,274.233 C323.438,289.286 340.709,295.353 351.395,289.178 C362.447,282.78 366.035,263.441 361.373,239.914 C361.015,238.124 360.603,236.292 360.138,234.419 C361.438,234.037 362.715,233.64 363.968,233.229 C387.567,225.407 402.914,212.762 402.914,199.84 C402.914,187.436 388.551,175.454 366.313,167.802 z M311.007,133.107 C326.203,119.88 340.405,114.671 346.893,118.394 C353.784,122.368 356.451,138.395 352.119,159.417 C351.839,160.789 351.532,162.152 351.198,163.507 C342.128,161.451 332.932,159.998 323.67,159.157 C318.363,151.534 312.548,144.278 306.264,137.438 C307.804,135.958 309.379,134.515 310.989,133.107 L311.007,133.107 z M257.85,210.373 C259.717,213.976 261.665,217.526 263.694,221.022 C265.764,224.602 267.918,228.131 270.155,231.609 C263.783,230.92 257.451,229.905 251.183,228.566 C253.008,222.687 255.246,216.575 257.859,210.382 L257.85,210.373 z M257.85,189.701 C255.29,183.633 253.107,177.664 251.317,171.892 C257.179,170.576 263.443,169.502 269.967,168.688 C267.783,172.089 265.68,175.549 263.658,179.069 C261.629,182.565 259.69,186.109 257.841,189.701 L257.85,189.701 z M262.521,200.046 C265.23,194.408 268.153,188.877 271.291,183.454 C274.406,178.025 277.729,172.73 281.261,167.569 C287.382,167.104 293.655,166.854 300,166.854 C306.372,166.854 312.654,167.104 318.775,167.569 C322.265,172.73 325.57,178.01 328.691,183.409 C331.829,188.815 334.788,194.318 337.568,199.92 C334.824,205.576 331.877,211.131 328.727,216.583 C325.606,222.001 322.313,227.31 318.847,232.513 C312.743,232.96 306.434,233.175 300,233.175 C293.592,233.175 287.364,232.978 281.368,232.584 C277.812,227.394 274.459,222.075 271.309,216.628 C268.171,211.199 265.242,205.669 262.521,200.037 L262.521,200.046 z M336.351,220.986 C338.415,217.389 340.402,213.75 342.311,210.069 C344.926,215.982 347.232,222.028 349.22,228.181 C342.883,229.604 336.475,230.694 330.024,231.448 C332.196,228 334.302,224.509 336.342,220.977 L336.351,220.986 z M342.222,189.709 C340.325,186.106 338.356,182.538 336.315,179.006 C334.299,175.534 332.211,172.104 330.051,168.715 C336.611,169.547 342.902,170.648 348.817,171.999 C346.918,178.013 344.717,183.927 342.222,189.718 L342.222,189.709 z M300.089,143.747 C304.372,148.414 308.416,153.295 312.207,158.37 C304.105,157.982 295.997,157.982 287.883,158.37 C291.883,153.09 295.982,148.186 300.098,143.747 L300.089,143.747 z M252.695,118.645 C259.586,114.663 274.799,120.345 290.854,134.601 C291.883,135.514 292.912,136.462 293.941,137.447 C287.621,144.288 281.762,151.541 276.401,159.157 C267.167,159.986 257.996,161.412 248.946,163.426 C248.421,161.326 247.949,159.208 247.532,157.072 L247.532,157.09 C243.657,137.313 246.225,122.403 252.695,118.663 L252.695,118.645 z M242.637,226.418 C240.936,225.929 239.248,225.401 237.571,224.835 C228.85,222.091 220.708,217.765 213.552,212.073 C209.413,209.228 206.637,204.796 205.883,199.831 C205.883,192.34 217.051,182.783 235.683,176.295 C238.028,175.471 240.39,174.726 242.771,174.058 C245.535,182.932 248.884,191.613 252.794,200.046 C248.834,208.601 245.444,217.408 242.646,226.41 L242.637,226.418 z M290.299,266.51 C283.567,272.686 275.755,277.57 267.255,280.918 C262.73,283.088 257.508,283.289 252.829,281.473 C246.342,277.715 243.639,263.271 247.317,243.887 C247.758,241.59 248.26,239.311 248.82,237.05 C257.966,239.012 267.235,240.352 276.562,241.059 C281.966,248.717 287.867,256.011 294.228,262.895 C292.951,264.13 291.645,265.332 290.308,266.501 L290.299,266.51 z M300.34,256.559 C296.17,252.067 292.017,247.091 287.955,241.739 C291.892,241.894 295.907,241.972 300,241.972 C304.194,241.972 308.335,241.882 312.421,241.704 C308.651,246.858 304.618,251.817 300.34,256.559 z M353.739,268.792 C353.356,273.801 350.917,278.427 347.001,281.572 C340.512,285.33 326.641,280.444 311.679,267.575 C309.966,266.108 308.242,264.539 306.506,262.868 C312.744,255.962 318.508,248.643 323.76,240.961 C333.139,240.17 342.454,238.735 351.636,236.665 C352.054,238.36 352.424,240.018 352.746,241.641 C354.738,250.557 355.071,259.764 353.73,268.801 L353.739,268.792 z M361.203,224.879 C360.066,225.255 358.912,225.613 357.73,225.953 C354.854,217.037 351.374,208.328 347.314,199.885 C351.224,191.556 354.572,182.976 357.337,174.201 C359.431,174.8 361.48,175.454 363.449,176.125 C382.51,182.675 394.126,192.376 394.126,199.84 C394.126,207.804 381.571,218.132 361.194,224.879 L361.203,224.879 z" fill="#61DAFB"/>
      <path d="M300,181.458 C310.154,181.458 318.385,189.692 318.381,199.846 C318.378,210 310.142,218.228 299.988,218.221 C289.834,218.215 281.609,209.976 281.619,199.822 C281.633,189.681 289.859,181.467 300,181.467" fill="#61DAFB"/>
    </g>
  </g>
</svg>
