<svg xmlns="http://www.w3.org/2000/svg" width="300" height="200"><path d="M57.422 165.954h15.03v17.47h-15.03v-17.47zm15.445 0h15.03v17.47h-15.03v-17.47zm15.446 0h15.03v17.47h-15.03v-17.47zm15.445 0h15.03v17.47h-15.03v-17.47zm15.446 0h15.03v17.47h-15.03v-17.47zm15.445 0h15.03v17.47h-15.03v-17.47zm15.446 0h15.03v17.47h-15.03v-17.47zm15.445 0h15.03v17.47h-15.03v-17.47zm15.446 0h15.03v17.47h-15.03v-17.47zm15.445 0h15.03v17.47h-15.03v-17.47zm15.446 0h15.03v17.47h-15.03v-17.47zm15.445 0h15.03v17.47h-15.03v-17.47zm30.891 0h15.03v17.47h-15.03v-17.47zm15.446 0h15.03v17.47h-15.03v-17.47zm-30.891 0h15.03v17.47h-15.03v-17.47z" fill="#B4FFE4"/><path d="M57.422 148.002h15.03v17.47h-15.03v-17.47zm15.445 0h15.03v17.47h-15.03v-17.47zm15.446 0h15.03v17.47h-15.03v-17.47zm15.445 0h15.03v17.47h-15.03v-17.47zm15.446 0h15.03v17.47h-15.03v-17.47zm15.445 0h15.03v17.47h-15.03v-17.47zm15.446 0h15.03v17.47h-15.03v-17.47zm15.445 0h15.03v17.47h-15.03v-17.47zm15.446 0h15.03v17.47h-15.03v-17.47zm15.445 0h15.03v17.47h-15.03v-17.47zm15.446 0h15.03v17.47h-15.03v-17.47zm15.445 0h15.03v17.47h-15.03v-17.47zm30.891 0h15.03v17.47h-15.03v-17.47zm15.446 0h15.03v17.47h-15.03v-17.47zm-30.891 0h15.03v17.47h-15.03v-17.47z" fill="#A7FFFF"/><path d="M57.422 122.812h15.03v17.469h-15.03v-17.469zm15.445 0h15.03v17.469h-15.03v-17.469zm15.446 0h15.03v17.469h-15.03v-17.469zm15.445 0h15.03v17.469h-15.03v-17.469zm15.446 0h15.03v17.469h-15.03v-17.469zm15.445 0h15.03v17.469h-15.03v-17.469zm15.446 0h15.03v17.469h-15.03v-17.469zm15.445 0h15.03v17.469h-15.03v-17.469zm15.446 0h15.03v17.469h-15.03v-17.469z" fill="#AAD0FF"/><path d="M196.431 122.812h15.03v17.469h-15.03v-17.469zm15.446 0h15.03v17.469h-15.03v-17.469zm15.445 0h15.03v17.469h-15.03v-17.469z" fill="#B2FFB0"/><path d="M258.213 122.812h15.03v17.469h-15.03v-17.469z" fill="#FFFFB3"/><path d="M273.659 122.812h15.03v17.469h-15.03v-17.469z" fill="#FEDAAE"/><path d="M242.768 122.812h15.03v17.469h-15.03v-17.469z" fill="#B2FFB0"/><path d="M57.422 104.86h15.03v17.469h-15.03V104.86zm15.445 0h15.03v17.469h-15.03V104.86zm15.446 0h15.03v17.469h-15.03V104.86zm15.445 0h15.03v17.469h-15.03V104.86zm15.446 0h15.03v17.469h-15.03V104.86zm15.445 0h15.03v17.469h-15.03V104.86zm15.446 0h15.03v17.469h-15.03V104.86zm15.445 0h15.03v17.469h-15.03V104.86zm15.446 0h15.03v17.469h-15.03V104.86z" fill="#AAD0FF"/><path d="M196.431 104.86h15.03v17.469h-15.03V104.86zm15.446 0h15.03v17.469h-15.03V104.86zm15.445 0h15.03v17.469h-15.03V104.86z" fill="#B2FFB0"/><path d="M258.213 104.86h15.03v17.469h-15.03V104.86z" fill="#FFFFB3"/><path d="M273.659 104.86h15.03v17.469h-15.03V104.86z" fill="#FEDAAE"/><path d="M242.768 104.86h15.03v17.469h-15.03V104.86z" fill="#D5E9AD"/><path d="M57.422 86.909h15.03v17.469h-15.03V86.909zm15.445 0h15.03v17.469h-15.03V86.909zm15.446 0h15.03v17.469h-15.03V86.909zm15.445 0h15.03v17.469h-15.03V86.909zm15.446 0h15.03v17.469h-15.03V86.909zm15.445 0h15.03v17.469h-15.03V86.909zm15.446 0h15.03v17.469h-15.03V86.909zm15.445 0h15.03v17.469h-15.03V86.909zm15.446 0h15.03v17.469h-15.03V86.909z" fill="#AAD0FF"/><path d="M196.431 86.909h15.03v17.469h-15.03V86.909zm15.446 0h15.03v17.469h-15.03V86.909z" fill="#B2FFB0"/><path d="M227.322 86.909h15.03v17.469h-15.03V86.909z" fill="#D5E9AD"/><path d="M258.213 86.909h15.03v17.469h-15.03V86.909z" fill="#FFFFB3"/><path d="M273.659 86.909h15.03v17.469h-15.03V86.909z" fill="#FEDAAE"/><path d="M242.768 86.909h15.03v17.469h-15.03V86.909z" fill="#D5E9AD"/><path d="M57.422 68.957h15.03v17.469h-15.03V68.957zm15.445 0h15.03v17.469h-15.03V68.957zm15.446 0h15.03v17.469h-15.03V68.957zm15.445 0h15.03v17.469h-15.03V68.957zm15.446 0h15.03v17.469h-15.03V68.957zm15.445 0h15.03v17.469h-15.03V68.957zm15.446 0h15.03v17.469h-15.03V68.957zm15.445 0h15.03v17.469h-15.03V68.957zm15.446 0h15.03v17.469h-15.03V68.957z" fill="#AAD0FF"/><path d="M196.431 68.957h15.03v17.469h-15.03V68.957z" fill="#B2FFB0"/><path d="M211.877 68.957h15.03v17.469h-15.03V68.957zm15.445 0h15.03v17.469h-15.03V68.957z" fill="#D5E9AD"/><path d="M258.213 68.957h15.03v17.469h-15.03V68.957z" fill="#FFFFB3"/><path d="M273.659 68.957h15.03v17.469h-15.03V68.957z" fill="#FEDAAE"/><path d="M242.768 68.957h15.03v17.469h-15.03V68.957z" fill="#FFFFB3"/><path d="M196.431 51.055h15.03v17.47h-15.03v-17.47z" fill="#B2FFB0"/><path d="M211.877 51.055h15.03v17.47h-15.03v-17.47z" fill="#D5E9AD"/><path d="M227.322 51.055h15.03v17.47h-15.03v-17.47zm30.891 0h15.03v17.47h-15.03v-17.47z" fill="#FFFFB3"/><path d="M273.659 51.055h15.03v17.47h-15.03v-17.47z" fill="#FEDAAE"/><path d="M242.768 51.055h15.03v17.47h-15.03v-17.47z" fill="#FFFFB3"/><path d="M196.431 33.103h15.03v17.47h-15.03v-17.47z" fill="#D5E9AD"/><path d="M211.877 33.103h15.03v17.47h-15.03v-17.47zm15.445 0h15.03v17.47h-15.03v-17.47zm30.891 0h15.03v17.47h-15.03v-17.47z" fill="#FFFFB3"/><path d="M273.659 33.103h15.03v17.47h-15.03v-17.47z" fill="#FEDAAE"/><path d="M242.768 33.103h15.03v17.47h-15.03v-17.47z" fill="#FFFFB3"/><path d="M273.659 14.979h15.03v17.47h-15.03v-17.47z" fill="#FEDAAE"/><path d="M11.036 122.812h15.03v17.469h-15.03v-17.469z" fill="#FEB3B9"/><path d="M26.482 122.812h15.029v17.469H26.482v-17.469z" fill="#C5C5FF"/><path d="M11.036 104.86h15.03v17.469h-15.03V104.86z" fill="#FEB3B9"/><path d="M26.482 104.86h15.029v17.469H26.482V104.86z" fill="#C5C5FF"/><path d="M11.036 86.909h15.03v17.469h-15.03V86.909z" fill="#FEB3B9"/><path d="M26.482 86.909h15.029v17.469H26.482V86.909z" fill="#C5C5FF"/><path d="M41.927 86.909h15.03v17.469h-15.03V86.909z" fill="#AAD0FF"/><path d="M11.036 68.957h15.03v17.469h-15.03V68.957z" fill="#FEB3B9"/><path d="M26.482 68.957h15.029v17.469H26.482V68.957z" fill="#C5C5FF"/><path d="M41.927 68.957h15.03v17.469h-15.03V68.957z" fill="#AAD0FF"/><path d="M11.036 51.055h15.03v17.47h-15.03v-17.47z" fill="#FEB3B9"/><path d="M26.482 51.055h15.029v17.47H26.482v-17.47z" fill="#C5C5FF"/><path d="M11.036 33.103h15.03v17.47h-15.03v-17.47z" fill="#FEB3B9"/><path d="M26.482 33.103h15.029v17.47H26.482v-17.47z" fill="#C5C5FF"/><path d="M11.036 15.191h15.03V32.66h-15.03V15.191z" fill="#FFFFB3"/></svg>