<svg xmlns="http://www.w3.org/2000/svg" width="300" height="200"><path d="M150 27.377c40.109 0 72.623 32.514 72.623 72.623S190.109 172.623 150 172.623 77.377 140.109 77.377 100 109.891 27.377 150 27.377zm5.101 126.817-1.521.001.006 8.526q.002 1.556-.921 2.488-.922.932-2.46.933-1.555.001-2.47-.93-.915-.931-.916-2.486l-.006-8.526-1.512.001.006 8.491q.001 1.424.613 2.531.612 1.107 1.728 1.708 1.117.601 2.558.6 2.198-.002 3.55-1.33 1.353-1.328 1.351-3.481l-.006-8.526zm-12.675-.574-1.536 9.367q-.205 1.249-.899 1.736-.695.488-1.718.32-.815-.134-1.316-.697-.499-.563-.403-1.366l-1.466-.241q-.228 1.388.59 2.404t2.37 1.27q1.691.278 2.87-.558 1.179-.835 1.499-2.787l1.509-9.202-1.5-.246zm19.269-.919-1.008.118q-2.321.449-3.409 2.23-1.088 1.782-.563 4.5l.347 1.795q.53 2.744 2.113 4.031 1.582 1.288 4.042.813 1.035-.2 1.817-.647.782-.446 1.226-.998.444-.551.68-1.205.236-.655.273-1.23.036-.576-.064-1.093l-.513-2.658-4.885.944.264 1.363 3.434-.664.251 1.295q.246 1.277-.543 2.266-.789.99-2.221 1.267-1.709.33-2.841-.664-1.132-.995-1.54-3.109l-.347-1.795q-.427-2.209.359-3.489.787-1.28 2.349-1.581 1.251-.242 2.286.274 1.036.516 1.48 1.889l1.476-.285q-.466-1.763-1.92-2.708c-1.301-.659-.484-.346-2.543-.659zm11.892-3.652-7.257 2.749 4.626 12.213 7.257-2.749-.492-1.298-5.819 2.204-1.628-4.299 5.49-2.079-.491-1.299-5.491 2.08-1.522-4.02 5.819-2.204-.492-1.298zm9.044-5.408-1.294.798 5.481 8.887-.06.037-11.166-5.381-1.31.808 6.856 11.116 1.309-.807-5.481-8.888.045-.027 11.181 5.372 1.295-.798-6.856-11.117zM112.239 43.07l24.541 48.01-24.541 21.387 21.14-.697-22.111 45.158 43.493-38.877 13.364 13.85v-23.083l21.868-.972-19.195-16.766 20.41-47.06-37.662 32.967-41.307-33.917zm77.747 95.323-1.134.258q-1.149.415-2.279 1.458l-3.009 2.779 8.861 9.595 3.009-2.778q1.156-1.068 1.661-2.192.505-1.124.362-2.225-.143-1.1-.698-2.149-.555-1.048-1.545-2.12-.996-1.078-2.012-1.719-1.017-.64-2.109-.852l-1.107-.055zm-.144 1.552c2.198.311 2.608.445 4.216 2.142q3.488 3.777.395 6.633l-1.84 1.699-6.988-7.567 1.84-1.7c1.227-.96.47-.494 2.377-1.207zm7.765-13.554-4.221 6.355 10.879 7.226.851-1.281-4.752-3.156 3.098-4.664-1.164-.773-3.098 4.664-3.807-2.529 3.37-5.073-1.156-.769zm5.851-7.769-1.031.216q-1.996.654-2.946 2.814-.95 2.161-.075 4.081.874 1.921 3.384 3.024l1.795.789q2.51 1.103 4.445.447 1.935-.657 2.894-2.838.955-2.172.143-4.07-.813-1.898-3.323-3.001l-1.794-.789c-1.943-.703-.797-.401-3.492-.673zm.192 1.507c2.067.246 1.185.006 2.688.558l1.794.789q.998.438 1.669 1.031.67.592.946 1.265.275.673.251 1.383-.024.71-.338 1.426-.319.724-.82 1.209-.501.485-1.18.729-.678.245-1.572.159t-1.892-.524l-1.794-.789q-1.995-.877-2.649-2.273-.653-1.396-.006-2.869.654-1.488 2.133-1.947l.77-.147zm3.319-11.655-.727.02q-.715.086-1.351.434-.637.348-1.135 1.071t-.734 1.733l-1.057 4.527 12.718 2.97.35-1.498-5.11-1.193.75-3.209 5.661-1.17.4-1.711-6.026 1.336q-.134-1.087-.847-1.975-.713-.889-2.142-1.223l-.75-.112zm-.087 1.579.59.091q1.156.27 1.619 1.109.463.839.147 2.192l-.65 2.781-4.938-1.153.665-2.85q.292-1.249 1.108-1.808c.74-.386.273-.205 1.459-.362zm1.013-11.469q-.932-.015-1.686.336-.754.35-1.215.977-.461.626-.721 1.373-.261.748-.307 1.59-.063 1.167.291 2.185.354 1.019 1.188 1.711.834.692 2.001.755 1.387.075 2.258-.727.871-.802 1.284-2.1l.75-2.3q.35-1.099.892-1.594.542-.494 1.358-.45 1.097.06 1.692.937t.519 2.264q-.079 1.474-.793 2.298-.714.824-1.764.873l-.083 1.536q.677.019 1.323-.21.646-.229 1.24-.712t.991-1.394q.397-.912.462-2.114.114-2.106-.817-3.521-.931-1.415-2.791-1.516-1.44-.078-2.303.747-.863.824-1.409 2.441l-.738 2.248q-.583 1.826-2.092 1.744-1.062-.058-1.603-.888-.54-.83-.471-2.103.073-1.351.751-2.076.677-.724 1.71-.774l.083-1.536zm5.174-11.385-.7.018.192 1.491q1.142-.147 2.039.588.897.735 1.09 2.235.215 1.673-.752 2.764-.967 1.09-3.164 1.373l-1.9.245q-2.162.279-3.436-.532t-1.48-2.406q-.192-1.49.594-2.478.785-.987 1.945-1.137l-.192-1.49q-.794.102-1.509.5-.715.398-1.279 1.042t-.824 1.617q-.26.973-.112 2.124.296 2.301 2.001 3.464 1.705 1.162 4.451.809l1.962-.253q2.772-.357 4.076-1.89 1.305-1.533 1.006-3.851-.155-1.203-.655-2.096-.501-.892-1.199-1.356-.697-.464-1.431-.658l-.723-.123zm-4.158-19.804-10.283 5.558-1.902-3.518-1.206.652 4.531 8.381.021-.011.467 1.428 5.321-1.742 2.101 6.414-5.321 1.743.479 1.461 12.412-4.064-.479-1.462-5.788 1.896-2.101-6.415 5.788-1.896-.473-1.445-12.317 4.034 1.096-.593-1.906-3.525 10.283-5.559-.723-1.337z" fill="#EB1A25"/></svg>