<svg xmlns="http://www.w3.org/2000/svg" width="300" height="200"><g fill="none"><path d="M142.011 173.033c.895-.448 5.387-2.965 10.908-3.932 3.024-.53 6.391.201 10.798.857 10.64 1.582 24.608-12.683 27.185-15.704 2.251-2.639 8.018-11.486 13.103-29.29 2.551-8.93 3.641-20.564 4.208-34.231 1.602-38.588 2.098-32.742 3.573 6.195.8 21.116.958 40.355 3.515 54.118 1.204 6.484 2.949 12.285 5.806 15.788 3.905 4.788 5.193 5.909 6.46 5.566M58.058 112.698s12.79-6.779 14.9-10.68c2.111-3.901 2.541-2.864 4.477-18.673 1.934-15.796 2.083-23.159 4.221.128 1.427 20.988 3.221 39.518 5.62 54.177 3.686 22.524 5.476 34.245 16.208 35.021" stroke="#006F10" stroke-width="1.5" stroke-dasharray="3,3" stroke-linecap="round"/><path d="M58.445 146.986s8.707-1.908 12.3-19.535c.748-3.67 1.838-6.483 2.601-8.803 2.503-7.604 3.563-8.506 5.863-10.04 5.16-3.444 8.42-.629 13.513-25.382.821-3.992 1.982-8.224 2.733-12.132 2.801-14.587 4.555-26.991 4.555-26.991s1.575-6.187 2.027-.128c.452 6.06 2.713 87.455 3.979 102.83.878 10.652 3.987 17.546 11.103 20.11 3.814 1.374 9.186 2.673 16.12 2.553 16.193-.28 32.72-3.809 37.606-14.531 2.921-6.41 5.633-15.28 6.619-27.848 2.504-31.929 6.222-40.859 9.496 0 1.2 14.983 3.55 31.122 11.239 36.57 4.981 3.53 11.809 6.19 21.093 9.283" stroke="#006F10" stroke-width="1.5"/><path d="M58.083 27.877v145.246h184.859" stroke="#54545E"/></g></svg>