<svg xmlns="http://www.w3.org/2000/svg" width="300" height="200"><path d="M75.615 100.5h148.891M75.615 125.315h148.891M75.615 150.131h148.891M75.615 174.946h148.891M75.615 75.685h148.891M75.615 50.869h148.891M75.615 26.054h148.891m-74.446 0v148.892M125.245 26.054v148.892M100.43 26.054v148.892M75.615 26.054v148.892m99.261-148.892v148.892m24.815-148.892v148.892m24.815-148.892v148.892" stroke="#DDD" stroke-linecap="square" fill="none"/><path d="M224.879 75.832h-74.775c.062.1 1.526.51 3.267.756 2.368.335 3.707.628 5.317 1.162 1.183.392 2.229.714 2.323.714.094 0 .907.446 1.805.99.899.545 1.792 1.084 1.985 1.197 1.297.761 5.133 4.761 6.427 6.702.384.575.86 1.236 1.058 1.468.198.232.523.746.722 1.143.2.397.536.959.748 1.249.212.291.729 1.201 1.151 2.023.421.822.821 1.534.89 1.582.114.081.857 1.74 1.398 3.122.122.314.283.571.356.571.073 0 .216.218.317.484.946 2.483 1.33 3.385 1.443 3.385.074 0 .175.178.225.396.051.218.345 1.029.653 1.802.308.774.602 1.585.652 1.803.051.218.156.396.234.396.078 0 .237.296.354.659.319.995 1.068 2.758 1.214 2.858.071.048.293.563.494 1.143.758 2.187 2.15 5.364 3.237 7.386.208.387.668 1.271 1.022 1.965.355.694.845 1.525 1.09 1.847.246.321.656 1 .913 1.507.258.508.535.924.616.924.082 0 .48.512.886 1.139.405.627.834 1.201.954 1.275.119.075.388.359.599.633.328.428 2.49 2.76 5.173 5.581a74.472 74.472 0 013.313 3.765c.474.576.959 1.143 1.453 1.702.268.293.727.882 1.02 1.308.294.427.606.776.695.776.089 0 .263.193.387.429.475.904 3.348 3.971 4.654 4.967.441.337.971.802 1.177 1.032.984 1.103 5.638 3.231 7.086 3.241.209.001.407.073.44.158.145.386 6.992 1.067 7.027.698.012-.131.007-1.187-.011-2.348-.018-1.161-.048-18.214-.066-37.897l-.033-35.787-149.643.094h74.978c-5.472-.736-7.125-1.031-7.238-1.206-.071-.11-.131-.151-.132-.091-.001.06-.537-.036-1.19-.214-.652-.179-1.399-.327-1.66-.33-.26-.003-.516-.074-.569-.159-.052-.085-.444-.243-.871-.35-3.294-.829-8.154-4.416-10.259-7.572-.359-.539-.747-1.063-.862-1.163-.114-.101-.425-.576-.689-1.055a28.199 28.199 0 00-.994-1.642c-.281-.423-.795-1.333-1.141-2.023-.346-.689-.678-1.292-.739-1.341-.06-.048-.465-.839-.9-1.758-.436-.919-.831-1.71-.88-1.759-.168-.168-1.582-3.119-1.582-3.302 0-.102-.06-.212-.132-.244-.073-.032-.509-.83-.97-1.773-.462-.943-.902-1.715-.98-1.715-.077 0-.32-.435-.54-.966-1.8-4.343-7.095-10.229-10.392-11.55-.532-.213-1.006-.433-1.055-.488-.385-.439-3.732-1.168-6.594-1.436-1.161-.108-2.229-.242-2.375-.298-.779-.299-22.055-.517-22.234-.227l-.011 42.662h149.764z" fill="#DB2C14" fill-opacity=".718"/><path d="M224.885 151.632c-8.07-.484-10.04-.46-12.511-2.382-5.857-5.217-7.251-7.176-7.772-7.764-2.149-2.68-2.698-3.229-3.172-3.805a75.356 75.356 0 00-3.313-3.765c-2.684-2.821-4.845-5.153-5.174-5.581-2.449-2.967-2.797-3.463-3.054-3.971-2.397-3.814-2.818-4.932-3.025-5.319-1.087-2.022-2.48-5.199-3.237-7.386-5.206-12.864-5.82-13.183-5.943-13.497-2.523-5.106-3.227-6.437-3.439-6.727-1.332-2.273-2.143-3.285-2.527-3.86-1.294-1.941-5.13-5.941-6.427-6.702-.193-.113-1.087-.652-1.985-1.197-.898-.544-1.711-.99-1.805-.99-.094 0-1.14-.322-2.323-.714-1.61-.534-2.949-.827-5.317-1.162-1.741-.246-3.206-.656-3.268-.756-7.31-1.245-7.906-1.333-8.559-1.511-2.226-.525-2.673-.732-3.101-.839-3.293-.829-8.153-4.416-10.258-7.572-.359-.539-.748-1.063-.862-1.163-.115-.101-.425-.576-.689-1.055a28.538 28.538 0 00-.994-1.642c-.282-.423-.795-1.333-1.141-2.023-.346-.689-.679-1.292-.739-1.341-.06-.048-.465-.839-.901-1.758-.435-.919-.831-1.71-.879-1.759-.169-.168-1.583-3.119-1.583-3.302 0-.102-.059-.212-.131-.244-.073-.032-.51-.83-.971-1.773-.461-.943-.901-1.715-.979-1.715-.077 0-.32-.435-.54-.966-1.8-4.343-7.341-9.604-10.38-11.44-2.45-1.479-4.649-2.012-7.511-2.28-3.241-.589-12.902-.342-25.26-.342" stroke="#DB2C14" stroke-width="3" fill="none"/><path d="M75.115 75.832h76.942M150.602 74.302v100.644" stroke="#0095FF" stroke-width="3" stroke-dasharray="4.5 3" fill="none"/></svg>