<?xml version="1.0" encoding="UTF-8"?>
<svg id="Layer_1" xmlns="http://www.w3.org/2000/svg" version="1.1" width="600" height="400" viewBox="0 0 264.1914272 219.6711117">
  <!-- Generator: Adobe Illustrator 29.4.0, SVG Export Plug-In . SVG Version: 2.1.0 Build 152)  -->
  <defs>
    <style>
      .st0 {
        fill: #005e5e;
      }

      .st1 {
        fill: #fff381;
      }
    </style>
  </defs>
  <g>
    <path class="st0" d="M222.1411551,21.4662763c-2.9520111,0-5.6090088.5770111-7.9700012,1.7310028-2.3619995,1.154007-4.2400055,2.723999-5.6350098,4.7089996v-5.9570007h-13.7649994v44.9190063h13.7649994v-24.3919983c0-3.0040131.7770081-5.3390045,2.3350067-7.003006,1.5549927-1.6629944,3.6490021-2.4960022,6.2789917-2.4960022,2.628006,0,4.7210083.8330078,6.279007,2.4960022,1.5549927,1.6640015,2.3339996,3.9989929,2.3339996,7.003006v24.3919983h13.6849976v-26.2429962c0-5.9570007-1.5699921-10.6390076-4.7089996-14.0469971-3.1399994-3.4080048-7.3390045-5.1120148-12.5979919-5.1120148M153.5551413,40.0612775c.375-2.4669952,1.3539963-4.3730011,2.9379959-5.7149963,1.5820084-1.3410034,3.5280075-2.0120087,5.8360062-2.0120087,2.4149933,0,4.4279938.6980133,6.0379944,2.0930176,1.6100006,1.3959961,2.4150085,3.2739868,2.4150085,5.6339874h-17.227005ZM184.869152,43.6842786c0-4.5079956-.9530029-8.4530029-2.8570099-11.8329926-1.9059906-3.3809967-4.548996-5.9840088-7.9299927-7.8090057-3.381012-1.8240051-7.2450104-2.7369995-11.5920105-2.7369995-4.4550018,0-8.3990021.9400024-11.8330002,2.8179932-3.4349976,1.8790131-6.1059952,4.5620117-8.0100021,8.0500031-1.9059982,3.4889984-2.8579941,7.5660095-2.8579941,12.2350006,0,4.6699982.9659958,8.7490082,2.897995,12.2360077,1.9319992,3.4899902,4.6150055,6.1729889,8.0500031,8.0509949,3.4339981,1.8789978,7.3519974,2.8170013,11.7529984,2.8170013,3.6490021,0,6.9500122-.6699982,9.9020081-2.0119934,2.951004-1.3410034,5.4059906-3.1930084,7.3659973-5.5550079,1.9580078-2.3609924,3.3130035-5.0169983,4.0650024-7.9689941h-14.651001c-1.3419952,2.8969879-3.7310028,4.3470001-7.1650085,4.3470001-2.3079987,0-4.2539978-.7380066-5.8359985-2.2140045-1.5839996-1.4759979-2.4830017-3.6089935-2.6969986-6.3999939h31.1540146c.1609955-1.3950043.2409973-2.7370148.2409973-4.0250092M118.6191367,44.3282758c0,3.4350128-.9659958,6.1580048-2.897995,8.1710052-1.9319992,2.0119934-4.2669983,3.0189972-7.0039978,3.0189972s-5.0579987-.9929962-6.9630051-2.9789886c-1.9049988-1.9850159-2.8579941-4.6950073-2.8579941-8.131012,0-3.4329987.9529953-6.1439972,2.8579941-8.1299896,1.9050064-1.9850006,4.2260056-2.9780121,6.9630051-2.9780121,2.7900009,0,5.1389999.9790039,7.0439987,2.9380035s2.8579941,4.6560059,2.8579941,8.0899963M98.9771384,28.3092786v-6.3600006h-13.7659988v66.3320007h13.7659988v-27.6920013c1.3410034,2.0400085,3.2060013,3.7030029,5.5950012,4.9909973,2.387001,1.2880096,5.1380005,1.9320068,8.2509995,1.9320068,3.7030029,0,7.0559998-.9519958,10.0620041-2.8580017,3.0049973-1.9039917,5.3799973-4.6150055,7.125-8.1300049,1.7429962-3.5149994,2.6159973-7.5799866,2.6159973-12.1959991,0-4.6149902-.8730011-8.6660004-2.6159973-12.1549988-1.7450027-3.4879913-4.1200027-6.17099-7.125-8.0500031-3.0060043-1.8779907-6.3590012-2.8179932-10.0620041-2.8179932-3.1669998,0-5.9309998.6439972-8.2919998,1.9320068-2.3619995,1.2879944-4.2129974,2.9789886-5.5540009,5.071991M51.724142,55.5982801c-2.6299992,0-4.8169994-.9660034-6.5609989-2.897995-1.7440014-1.9320068-2.6160011-4.6950073-2.6160011-8.2920074,0-3.647995.8850002-6.4259949,2.6569996-8.3309937,1.7709999-1.9049988,3.9969997-2.8580017,6.6809998-2.8580017,2.6289997,0,4.8430004.9660034,6.6410007,2.897995,1.7980003,1.9320068,2.6969986,4.6970062,2.6969986,8.2910004,0,3.5970001-.9259987,6.3600006-2.7769985,8.2920074-1.8519993,1.9319916-4.0930004,2.897995-6.7220001,2.897995M51.724142,67.5122815c4.3999996,0,8.3850002-.9380035,11.9540005-2.8170013,3.5690002-1.878006,6.3860016-4.5749969,8.4529991-8.0910034,2.0649986-3.5139923,3.0990028-7.5789948,3.0990028-12.1959991,0-4.6139984-1.0200043-8.6799927-3.0590019-12.1949921-2.0400009-3.5149994-4.8300018-6.2109985-8.3720016-8.0900116-3.5419998-1.8779907-7.5139999-2.8179932-11.9139996-2.8179932-4.4009991,0-8.3719997.9400024-11.9139996,2.8179932-3.5419998,1.8790131-6.3330002,4.5750122-8.3719997,8.0900116-2.0400009,3.5149994-3.059,7.5809937-3.059,12.1949921,0,4.6699982,1.0060005,8.7490082,3.0189991,12.2360077,2.012001,3.4899902,4.776001,6.1729889,8.2910013,8.0509949,3.5149994,1.8789978,7.4730005,2.8170013,11.8739996,2.8170013"/>
    <path class="st1" d="M33.1260418,100.2307721c-2.0020001,1.4309998-3.6240001,4.5839996-3.6240001,7.0439987v66.6669998c0,2.4599991,1.622,5.6139984,3.6240001,7.0439987l26.1589999,18.6930008c2.0009995,1.4309998,5.2470016,1.4309998,7.2480011,0l26.1599998-18.6930008c2.0019989-1.4300003,3.625-4.5839996,3.625-7.0439987v-66.6669998c0-2.4599991-1.6230011-5.612999-3.625-7.0439987l-26.1599998-18.6930008c-2.0009995-1.4300003-5.2470016-1.4300003-7.2480011,0l-26.1589999,18.6930008Z"/>
  </g>
  <polygon class="st0" points="55.8122424 156.9554769 53.2602424 156.9554769 51.9842414 159.5234777 53.2602424 162.0914785 55.8122424 162.0914785 57.0882415 159.5234777 55.8122424 156.9554769"/>
  <polygon class="st0" points="50.708742 156.9554769 48.156742 156.9554769 46.880741 159.5234777 48.156742 162.0914785 50.708742 162.0914785 51.9847411 159.5234777 50.708742 156.9554769"/>
  <polygon class="st0" points="45.6052417 156.9554769 43.0532416 156.9554769 41.7772416 159.5234777 43.0532416 162.0914785 45.6052417 162.0914785 46.8812407 159.5234777 45.6052417 156.9554769"/>
  <polygon class="st0" points="73.672943 110.7335721 71.1209449 110.7335721 69.8449439 113.3015729 71.1209449 115.8695737 73.672943 115.8695737 74.948944 113.3015729 73.672943 110.7335721"/>
  <polygon class="st0" points="78.7764434 110.7335721 76.2244452 110.7335721 74.9484443 113.3015729 76.2244452 115.8695737 78.7764434 115.8695737 80.0524443 113.3015729 78.7764434 110.7335721"/>
  <polygon class="st0" points="73.672943 131.2766782 71.1209449 131.2766782 69.8449439 133.844679 71.1209449 136.4126798 73.672943 136.4126798 74.948944 133.844679 73.672943 131.2766782"/>
  <polygon class="st0" points="78.7764434 131.2766782 76.2244452 131.2766782 74.9484443 133.844679 76.2244452 136.4126798 78.7764434 136.4126798 80.0524443 133.844679 78.7764434 131.2766782"/>
  <polygon class="st0" points="73.6698417 121.0050718 71.1178397 121.0050718 69.8418425 123.5730725 71.1178397 126.1410733 73.6698417 126.1410733 74.9458426 123.5730725 73.6698417 121.0050718"/>
  <polygon class="st0" points="78.7764434 121.0050718 76.2244452 121.0050718 74.9484443 123.5730725 76.2244452 126.1410733 78.7764434 126.1410733 80.0524443 123.5730725 78.7764434 121.0050718"/>
  <polygon class="st0" points="73.672943 141.548174 71.1209449 141.548174 69.8449439 144.1161748 71.1209449 146.6841756 73.672943 146.6841756 74.948944 144.1161748 73.672943 141.548174"/>
  <polygon class="st0" points="78.7764434 141.548174 76.2244452 141.548174 74.9484443 144.1161748 76.2244452 146.6841756 78.7764434 146.6841756 80.0524443 144.1161748 78.7764434 141.548174"/>
  <polygon class="st0" points="73.672943 151.8197766 71.1209449 151.8197766 69.8449439 154.3877774 71.1209449 156.9557782 73.672943 156.9557782 74.948944 154.3877774 73.672943 151.8197766"/>
  <polygon class="st0" points="78.7764434 151.8197766 76.2244452 151.8197766 74.9484443 154.3877774 76.2244452 156.9557782 78.7764434 156.9557782 80.0524443 154.3877774 78.7764434 151.8197766"/>
  <polygon class="st0" points="73.672943 162.0912763 71.1209449 162.0912763 69.8449439 164.6592771 71.1209449 167.2272779 73.672943 167.2272779 74.948944 164.6592771 73.672943 162.0912763"/>
  <polygon class="st0" points="78.7764434 162.0912763 76.2244452 162.0912763 74.9484443 164.6592771 76.2244452 167.2272779 78.7764434 167.2272779 80.0524443 164.6592771 78.7764434 162.0912763"/>
  <polygon class="st0" points="48.1570414 162.0912763 45.6050414 162.0912763 44.3290414 164.6592771 45.6050414 167.2272779 48.1570414 167.2272779 49.4330405 164.6592771 48.1570414 162.0912763"/>
  <polygon class="st0" points="53.2604426 162.0912763 50.7084426 162.0912763 49.4324416 164.6592771 50.7084426 167.2272779 53.2604426 167.2272779 54.5364417 164.6592771 53.2604426 162.0912763"/>
  <polygon class="st0" points="76.2247428 105.5976773 73.6727408 105.5976773 72.3967437 108.1656781 73.6727408 110.7336789 76.2247428 110.7336789 77.5007438 108.1656781 76.2247428 105.5976773"/>
  <polygon class="st0" points="71.1212424 105.5976773 68.5692405 105.5976773 67.2932433 108.1656781 68.5692405 110.7336789 71.1212424 110.7336789 72.3972434 108.1656781 71.1212424 105.5976773"/>
  <polygon class="st0" points="81.3281401 105.5976773 78.776142 105.5976773 77.500141 108.1656781 78.776142 110.7336789 81.3281401 110.7336789 82.6041411 108.1656781 81.3281401 105.5976773"/>
  <polygon class="st0" points="76.2231406 115.8692762 73.6711387 115.8692762 72.3951415 118.437277 73.6711387 121.0052777 76.2231406 121.0052777 77.4991416 118.437277 76.2231406 115.8692762"/>
  <polygon class="st0" points="71.1180419 115.8692762 68.5660437 115.8692762 67.2900428 118.437277 68.5660437 121.0052777 71.1180419 121.0052777 72.3940429 118.437277 71.1180419 115.8692762"/>
  <polygon class="st0" points="81.3281401 115.8692762 78.776142 115.8692762 77.500141 118.437277 78.776142 121.0052777 81.3281401 121.0052777 82.6041411 118.437277 81.3281401 115.8692762"/>
  <polygon class="st0" points="76.2247428 136.4123746 73.6727408 136.4123746 72.3967437 138.9803754 73.6727408 141.5483762 76.2247428 141.5483762 77.5007438 138.9803754 76.2247428 136.4123746"/>
  <polygon class="st0" points="71.1212424 136.4123746 68.5692405 136.4123746 67.2932433 138.9803754 68.5692405 141.5483762 71.1212424 141.5483762 72.3972434 138.9803754 71.1212424 136.4123746"/>
  <polygon class="st0" points="81.3281401 136.4123746 78.776142 136.4123746 77.500141 138.9803754 78.776142 141.5483762 81.3281401 141.5483762 82.6041411 138.9803754 81.3281401 136.4123746"/>
  <polygon class="st0" points="76.2247428 126.1407758 73.6727408 126.1407758 72.3967437 128.7087766 73.6727408 131.2767774 76.2247428 131.2767774 77.5007438 128.7087766 76.2247428 126.1407758"/>
  <polygon class="st0" points="71.1212424 126.1407758 68.5692405 126.1407758 67.2932433 128.7087766 68.5692405 131.2767774 71.1212424 131.2767774 72.3972434 128.7087766 71.1212424 126.1407758"/>
  <polygon class="st0" points="81.3281401 126.1407758 78.776142 126.1407758 77.500141 128.7087766 78.776142 131.2767774 81.3281401 131.2767774 82.6041411 128.7087766 81.3281401 126.1407758"/>
  <polygon class="st0" points="76.2247428 146.6838742 73.6727408 146.6838742 72.3967437 149.251875 73.6727408 151.8198758 76.2247428 151.8198758 77.5007438 149.251875 76.2247428 146.6838742"/>
  <polygon class="st0" points="71.1212424 146.6838742 68.5692405 146.6838742 67.2932433 149.251875 68.5692405 151.8198758 71.1212424 151.8198758 72.3972434 149.251875 71.1212424 146.6838742"/>
  <polygon class="st0" points="81.3281401 146.6838742 78.776142 146.6838742 77.500141 149.251875 78.776142 151.8198758 81.3281401 151.8198758 82.6041411 149.251875 81.3281401 146.6838742"/>
  <polygon class="st0" points="76.2247428 156.9554769 73.6727408 156.9554769 72.3967437 159.5234777 73.6727408 162.0914785 76.2247428 162.0914785 77.5007438 159.5234777 76.2247428 156.9554769"/>
  <polygon class="st0" points="71.1212424 156.9554769 68.5692405 156.9554769 67.2932433 159.5234777 68.5692405 162.0914785 71.1212424 162.0914785 72.3972434 159.5234777 71.1212424 156.9554769"/>
  <polygon class="st0" points="81.3281401 156.9554769 78.776142 156.9554769 77.500141 159.5234777 78.776142 162.0914785 81.3281401 162.0914785 82.6041411 159.5234777 81.3281401 156.9554769"/>
  <polygon class="st0" points="55.8108424 167.2269765 53.2588424 167.2269765 51.9828414 169.7949773 53.2588424 172.3629762 55.8108424 172.3629762 57.0868415 169.7949773 55.8108424 167.2269765"/>
  <polygon class="st0" points="76.2247428 167.2269765 73.6727408 167.2269765 72.3967437 169.7949773 73.6727408 172.3629762 76.2247428 172.3629762 77.5007438 169.7949773 76.2247428 167.2269765"/>
  <polygon class="st0" points="50.707342 167.2269765 48.155342 167.2269765 46.879341 169.7949773 48.155342 172.3629762 50.707342 172.3629762 51.9833411 169.7949773 50.707342 167.2269765"/>
  <polygon class="st0" points="71.1212424 167.2269765 68.5692405 167.2269765 67.2932433 169.7949773 68.5692405 172.3629762 71.1212424 172.3629762 72.3972434 169.7949773 71.1212424 167.2269765"/>
  <polygon class="st0" points="45.6038417 167.2269765 43.0518416 167.2269765 41.7758416 169.7949773 43.0518416 172.3629762 45.6038417 172.3629762 46.8798407 169.7949773 45.6038417 167.2269765"/>
  <polygon class="st0" points="60.9142417 167.2269765 58.3622416 167.2269765 57.0862426 169.7949773 58.3622416 172.3629762 60.9142417 172.3629762 62.1902427 169.7949773 60.9142417 167.2269765"/>
  <polygon class="st0" points="81.3281401 167.2269765 78.776142 167.2269765 77.500141 169.7949773 78.776142 172.3629762 81.3281401 172.3629762 82.6041411 169.7949773 81.3281401 167.2269765"/>
  <polygon class="st0" points="66.017742 167.2269765 63.4657401 167.2269765 62.1897429 169.7949773 63.4657401 172.3629762 66.017742 172.3629762 67.293743 169.7949773 66.017742 167.2269765"/>
  <polygon class="st0" points="63.4683417 172.3628751 60.9163398 172.3628751 59.6403426 174.9308759 60.9163398 177.4988748 63.4683417 177.4988748 64.7443427 174.9308759 63.4683417 172.3628751"/>
  <polygon class="st0" points="58.3625411 172.3628751 55.810541 172.3628751 54.534542 174.9308759 55.810541 177.4988748 58.3625411 177.4988748 59.6385421 174.9308759 58.3625411 172.3628751"/>
  <polygon class="st0" points="53.2590426 172.3628751 50.7070426 172.3628751 49.4310416 174.9308759 50.7070426 177.4988748 53.2590426 177.4988748 54.5350417 174.9308759 53.2590426 172.3628751"/>
  <polygon class="st0" points="68.5742415 172.3628751 66.0222434 172.3628751 64.7462424 174.9308759 66.0222434 177.4988748 68.5742415 177.4988748 69.8502425 174.9308759 68.5742415 172.3628751"/>
  <path class="st1" d="M104.6685447,100.2307721c-2.0019989,1.4309998-3.6240005,4.5839996-3.6240005,7.0439987v66.6669998c0,2.4599991,1.6220016,5.6139984,3.6240005,7.0439987l26.1589966,18.6930008c2.0010071,1.4309998,5.2470016,1.4309998,7.2480011,0l26.1600037-18.6930008c2.0019989-1.4300003,3.625-4.5839996,3.625-7.0439987v-66.6669998c0-2.4599991-1.6230011-5.612999-3.625-7.0439987l-26.1600037-18.6930008c-2.0009995-1.4300003-5.246994-1.4300003-7.2480011,0l-26.1589966,18.6930008Z"/>
  <polygon class="st0" points="133.1783408 110.7335721 130.6263388 110.7335721 129.3503379 113.3015729 130.6263388 115.8695737 133.1783408 115.8695737 134.4543418 113.3015729 133.1783408 110.7335721"/>
  <polygon class="st0" points="138.281742 110.7335721 135.72974 110.7335721 134.4537391 113.3015729 135.72974 115.8695737 138.281742 115.8695737 139.557743 113.3015729 138.281742 110.7335721"/>
  <polygon class="st0" points="133.1783408 131.2766782 130.6263388 131.2766782 129.3503379 133.844679 130.6263388 136.4126798 133.1783408 136.4126798 134.4543418 133.844679 133.1783408 131.2766782"/>
  <polygon class="st0" points="138.281742 131.2766782 135.72974 131.2766782 134.4537391 133.844679 135.72974 136.4126798 138.281742 136.4126798 139.557743 133.844679 138.281742 131.2766782"/>
  <polygon class="st0" points="133.1751441 121.0050718 130.6231421 121.0050718 129.3471412 123.5730725 130.6231421 126.1410733 133.1751441 126.1410733 134.4511451 123.5730725 133.1751441 121.0050718"/>
  <polygon class="st0" points="138.281742 121.0050718 135.72974 121.0050718 134.4537391 123.5730725 135.72974 126.1410733 138.281742 126.1410733 139.557743 123.5730725 138.281742 121.0050718"/>
  <polygon class="st0" points="133.1783408 141.548174 130.6263388 141.548174 129.3503379 144.1161748 130.6263388 146.6841756 133.1783408 146.6841756 134.4543418 144.1161748 133.1783408 141.548174"/>
  <polygon class="st0" points="138.281742 141.548174 135.72974 141.548174 134.4537391 144.1161748 135.72974 146.6841756 138.281742 146.6841756 139.557743 144.1161748 138.281742 141.548174"/>
  <polygon class="st0" points="133.1783408 151.8197766 130.6263388 151.8197766 129.3503379 154.3877774 130.6263388 156.9557782 133.1783408 156.9557782 134.4543418 154.3877774 133.1783408 151.8197766"/>
  <polygon class="st0" points="138.281742 151.8197766 135.72974 151.8197766 134.4537391 154.3877774 135.72974 156.9557782 138.281742 156.9557782 139.557743 154.3877774 138.281742 151.8197766"/>
  <polygon class="st0" points="133.1783408 162.0912763 130.6263388 162.0912763 129.3503379 164.6592771 130.6263388 167.2272779 133.1783408 167.2272779 134.4543418 164.6592771 133.1783408 162.0912763"/>
  <polygon class="st0" points="138.281742 162.0912763 135.72974 162.0912763 134.4537391 164.6592771 135.72974 167.2272779 138.281742 167.2272779 139.557743 164.6592771 138.281742 162.0912763"/>
  <polygon class="st0" points="135.7300452 105.5976773 133.1780433 105.5976773 131.9020423 108.1656781 133.1780433 110.7336789 135.7300452 110.7336789 137.0060462 108.1656781 135.7300452 105.5976773"/>
  <polygon class="st0" points="130.6265448 105.5976773 128.0745429 105.5976773 126.7985419 108.1656781 128.0745429 110.7336789 130.6265448 110.7336789 131.9025458 108.1656781 130.6265448 105.5976773"/>
  <polygon class="st0" points="140.8335456 105.5976773 138.2815436 105.5976773 137.0055426 108.1656781 138.2815436 110.7336789 140.8335456 110.7336789 142.1095466 108.1656781 140.8335456 105.5976773"/>
  <polygon class="st0" points="135.728443 115.8692762 133.1764411 115.8692762 131.9004401 118.437277 133.1764411 121.0052777 135.728443 121.0052777 137.004444 118.437277 135.728443 115.8692762"/>
  <polygon class="st0" points="130.6234397 115.8692762 128.0714377 115.8692762 126.7954367 118.437277 128.0714377 121.0052777 130.6234397 121.0052777 131.8994407 118.437277 130.6234397 115.8692762"/>
  <polygon class="st0" points="140.8335456 115.8692762 138.2815436 115.8692762 137.0055426 118.437277 138.2815436 121.0052777 140.8335456 121.0052777 142.1095466 118.437277 140.8335456 115.8692762"/>
  <polygon class="st0" points="135.7300452 136.4123746 133.1780433 136.4123746 131.9020423 138.9803754 133.1780433 141.5483762 135.7300452 141.5483762 137.0060462 138.9803754 135.7300452 136.4123746"/>
  <polygon class="st0" points="130.6265448 136.4123746 128.0745429 136.4123746 126.7985419 138.9803754 128.0745429 141.5483762 130.6265448 141.5483762 131.9025458 138.9803754 130.6265448 136.4123746"/>
  <polygon class="st0" points="140.8335456 136.4123746 138.2815436 136.4123746 137.0055426 138.9803754 138.2815436 141.5483762 140.8335456 141.5483762 142.1095466 138.9803754 140.8335456 136.4123746"/>
  <polygon class="st0" points="135.7300452 126.1407758 133.1780433 126.1407758 131.9020423 128.7087766 133.1780433 131.2767774 135.7300452 131.2767774 137.0060462 128.7087766 135.7300452 126.1407758"/>
  <polygon class="st0" points="130.6265448 126.1407758 128.0745429 126.1407758 126.7985419 128.7087766 128.0745429 131.2767774 130.6265448 131.2767774 131.9025458 128.7087766 130.6265448 126.1407758"/>
  <polygon class="st0" points="140.8335456 126.1407758 138.2815436 126.1407758 137.0055426 128.7087766 138.2815436 131.2767774 140.8335456 131.2767774 142.1095466 128.7087766 140.8335456 126.1407758"/>
  <polygon class="st0" points="135.7300452 146.6838742 133.1780433 146.6838742 131.9020423 149.251875 133.1780433 151.8198758 135.7300452 151.8198758 137.0060462 149.251875 135.7300452 146.6838742"/>
  <polygon class="st0" points="130.6265448 146.6838742 128.0745429 146.6838742 126.7985419 149.251875 128.0745429 151.8198758 130.6265448 151.8198758 131.9025458 149.251875 130.6265448 146.6838742"/>
  <polygon class="st0" points="140.8335456 146.6838742 138.2815436 146.6838742 137.0055426 149.251875 138.2815436 151.8198758 140.8335456 151.8198758 142.1095466 149.251875 140.8335456 146.6838742"/>
  <polygon class="st0" points="135.7300452 156.9554769 133.1780433 156.9554769 131.9020423 159.5234777 133.1780433 162.0914785 135.7300452 162.0914785 137.0060462 159.5234777 135.7300452 156.9554769"/>
  <polygon class="st0" points="130.6265448 156.9554769 128.0745429 156.9554769 126.7985419 159.5234777 128.0745429 162.0914785 130.6265448 162.0914785 131.9025458 159.5234777 130.6265448 156.9554769"/>
  <polygon class="st0" points="140.8335456 156.9554769 138.2815436 156.9554769 137.0055426 159.5234777 138.2815436 162.0914785 140.8335456 162.0914785 142.1095466 159.5234777 140.8335456 156.9554769"/>
  <polygon class="st0" points="135.7300452 167.2269765 133.1780433 167.2269765 131.9020423 169.7949773 133.1780433 172.3629762 135.7300452 172.3629762 137.0060462 169.7949773 135.7300452 167.2269765"/>
  <polygon class="st0" points="130.6265448 167.2269765 128.0745429 167.2269765 126.7985419 169.7949773 128.0745429 172.3629762 130.6265448 172.3629762 131.9025458 169.7949773 130.6265448 167.2269765"/>
  <polygon class="st0" points="140.8335456 167.2269765 138.2815436 167.2269765 137.0055426 169.7949773 138.2815436 172.3629762 140.8335456 172.3629762 142.1095466 169.7949773 140.8335456 167.2269765"/>
  <path class="st1" d="M176.2112388,100.2307721c-2.0019989,1.4309998-3.6239929,4.5839996-3.6239929,7.0439987v66.6669998c0,2.4599991,1.621994,5.6139984,3.6239929,7.0439987l26.1589966,18.6930008c2.0010071,1.4309998,5.2470093,1.4309998,7.2480011,0l26.1600037-18.6930008c2.0019989-1.4300003,3.625-4.5839996,3.625-7.0439987v-66.6669998c0-2.4599991-1.6230011-5.612999-3.625-7.0439987l-26.1600037-18.6930008c-2.0009918-1.4300003-5.246994-1.4300003-7.2480011,0l-26.1589966,18.6930008Z"/>
  <polygon class="st0" points="204.7208365 110.7335721 202.1688346 110.7335721 200.8928336 113.3015729 202.1688346 115.8695737 204.7208365 115.8695737 205.9968375 113.3015729 204.7208365 110.7335721"/>
  <polygon class="st0" points="209.8243369 110.7335721 207.2723349 110.7335721 205.996334 113.3015729 207.2723349 115.8695737 209.8243369 115.8695737 211.1003379 113.3015729 209.8243369 110.7335721"/>
  <polygon class="st0" points="204.7208365 131.2766782 202.1688346 131.2766782 200.8928336 133.844679 202.1688346 136.4126798 204.7208365 136.4126798 205.9968375 133.844679 204.7208365 131.2766782"/>
  <polygon class="st0" points="209.8243369 131.2766782 207.2723349 131.2766782 205.996334 133.844679 207.2723349 136.4126798 209.8243369 136.4126798 211.1003379 133.844679 209.8243369 131.2766782"/>
  <polygon class="st0" points="204.717739 121.0050718 202.165737 121.0050718 200.8897361 123.5730725 202.165737 126.1410733 204.717739 126.1410733 205.99374 123.5730725 204.717739 121.0050718"/>
  <polygon class="st0" points="209.8243369 121.0050718 207.2723349 121.0050718 205.996334 123.5730725 207.2723349 126.1410733 209.8243369 126.1410733 211.1003379 123.5730725 209.8243369 121.0050718"/>
  <polygon class="st0" points="204.7208365 141.548174 202.1688346 141.548174 200.8928336 144.1161748 202.1688346 146.6841756 204.7208365 146.6841756 205.9968375 144.1161748 204.7208365 141.548174"/>
  <polygon class="st0" points="209.8243369 141.548174 207.2723349 141.548174 205.996334 144.1161748 207.2723349 146.6841756 209.8243369 146.6841756 211.1003379 144.1161748 209.8243369 141.548174"/>
  <polygon class="st0" points="204.7208365 151.8197766 202.1688346 151.8197766 200.8928336 154.3877774 202.1688346 156.9557782 204.7208365 156.9557782 205.9968375 154.3877774 204.7208365 151.8197766"/>
  <polygon class="st0" points="209.8243369 151.8197766 207.2723349 151.8197766 205.996334 154.3877774 207.2723349 156.9557782 209.8243369 156.9557782 211.1003379 154.3877774 209.8243369 151.8197766"/>
  <polygon class="st0" points="204.7208365 162.0912763 202.1688346 162.0912763 200.8928336 164.6592771 202.1688346 167.2272779 204.7208365 167.2272779 205.9968375 164.6592771 204.7208365 162.0912763"/>
  <polygon class="st0" points="209.8243369 162.0912763 207.2723349 162.0912763 205.996334 164.6592771 207.2723349 167.2272779 209.8243369 167.2272779 211.1003379 164.6592771 209.8243369 162.0912763"/>
  <polygon class="st0" points="207.2726401 105.5976773 204.7206382 105.5976773 203.4446372 108.1656781 204.7206382 110.7336789 207.2726401 110.7336789 208.5486411 108.1656781 207.2726401 105.5976773"/>
  <polygon class="st0" points="202.1691398 105.5976773 199.6171378 105.5976773 198.3411368 108.1656781 199.6171378 110.7336789 202.1691398 110.7336789 203.4451407 108.1656781 202.1691398 105.5976773"/>
  <polygon class="st0" points="212.3761405 105.5976773 209.8241385 105.5976773 208.5481376 108.1656781 209.8241385 110.7336789 212.3761405 110.7336789 213.6521415 108.1656781 212.3761405 105.5976773"/>
  <polygon class="st0" points="207.2710379 115.8692762 204.719036 115.8692762 203.443035 118.437277 204.719036 121.0052777 207.2710379 121.0052777 208.5470389 118.437277 207.2710379 115.8692762"/>
  <polygon class="st0" points="202.1660422 115.8692762 199.6140403 115.8692762 198.3380393 118.437277 199.6140403 121.0052777 202.1660422 121.0052777 203.4420432 118.437277 202.1660422 115.8692762"/>
  <polygon class="st0" points="212.3761405 115.8692762 209.8241385 115.8692762 208.5481376 118.437277 209.8241385 121.0052777 212.3761405 121.0052777 213.6521415 118.437277 212.3761405 115.8692762"/>
  <polygon class="st0" points="207.2726401 136.4123746 204.7206382 136.4123746 203.4446372 138.9803754 204.7206382 141.5483762 207.2726401 141.5483762 208.5486411 138.9803754 207.2726401 136.4123746"/>
  <polygon class="st0" points="202.1691398 136.4123746 199.6171378 136.4123746 198.3411368 138.9803754 199.6171378 141.5483762 202.1691398 141.5483762 203.4451407 138.9803754 202.1691398 136.4123746"/>
  <polygon class="st0" points="212.3761405 136.4123746 209.8241385 136.4123746 208.5481376 138.9803754 209.8241385 141.5483762 212.3761405 141.5483762 213.6521415 138.9803754 212.3761405 136.4123746"/>
  <polygon class="st0" points="207.2726401 126.1407758 204.7206382 126.1407758 203.4446372 128.7087766 204.7206382 131.2767774 207.2726401 131.2767774 208.5486411 128.7087766 207.2726401 126.1407758"/>
  <polygon class="st0" points="202.1691398 126.1407758 199.6171378 126.1407758 198.3411368 128.7087766 199.6171378 131.2767774 202.1691398 131.2767774 203.4451407 128.7087766 202.1691398 126.1407758"/>
  <polygon class="st0" points="212.3761405 126.1407758 209.8241385 126.1407758 208.5481376 128.7087766 209.8241385 131.2767774 212.3761405 131.2767774 213.6521415 128.7087766 212.3761405 126.1407758"/>
  <polygon class="st0" points="207.2726401 146.6838742 204.7206382 146.6838742 203.4446372 149.251875 204.7206382 151.8198758 207.2726401 151.8198758 208.5486411 149.251875 207.2726401 146.6838742"/>
  <polygon class="st0" points="202.1691398 146.6838742 199.6171378 146.6838742 198.3411368 149.251875 199.6171378 151.8198758 202.1691398 151.8198758 203.4451407 149.251875 202.1691398 146.6838742"/>
  <polygon class="st0" points="212.3761405 146.6838742 209.8241385 146.6838742 208.5481376 149.251875 209.8241385 151.8198758 212.3761405 151.8198758 213.6521415 149.251875 212.3761405 146.6838742"/>
  <polygon class="st0" points="207.2726401 156.9554769 204.7206382 156.9554769 203.4446372 159.5234777 204.7206382 162.0914785 207.2726401 162.0914785 208.5486411 159.5234777 207.2726401 156.9554769"/>
  <polygon class="st0" points="202.1691398 156.9554769 199.6171378 156.9554769 198.3411368 159.5234777 199.6171378 162.0914785 202.1691398 162.0914785 203.4451407 159.5234777 202.1691398 156.9554769"/>
  <polygon class="st0" points="212.3761405 156.9554769 209.8241385 156.9554769 208.5481376 159.5234777 209.8241385 162.0914785 212.3761405 162.0914785 213.6521415 159.5234777 212.3761405 156.9554769"/>
  <polygon class="st0" points="207.2726401 167.2269765 204.7206382 167.2269765 203.4446372 169.7949773 204.7206382 172.3629762 207.2726401 172.3629762 208.5486411 169.7949773 207.2726401 167.2269765"/>
  <polygon class="st0" points="202.1691398 167.2269765 199.6171378 167.2269765 198.3411368 169.7949773 199.6171378 172.3629762 202.1691398 172.3629762 203.4451407 169.7949773 202.1691398 167.2269765"/>
  <polygon class="st0" points="212.3761405 167.2269765 209.8241385 167.2269765 208.5481376 169.7949773 209.8241385 172.3629762 212.3761405 172.3629762 213.6521415 169.7949773 212.3761405 167.2269765"/>
</svg>